<svg width="30" height="31" viewBox="0 0 30 31" fill="none" xmlns="http://www.w3.org/2000/svg">
<g clip-path="url(#clip0_108_3634)">
<path d="M12.6562 18.5342C12.6562 20.8604 14.5487 22.7529 16.875 22.7529C19.2013 22.7529 21.0938 20.8604 21.0938 18.5342C21.0938 17.3367 20.5875 16.2604 19.7825 15.4917C20.3962 14.8017 20.7812 13.9029 20.7812 12.9092C20.7812 10.7554 19.0287 9.00293 16.875 9.00293C14.7212 9.00293 12.9688 10.7554 12.9688 12.9092C12.9688 13.9029 13.3537 14.8017 13.9675 15.4917C13.1637 16.2604 12.6562 17.3367 12.6562 18.5342ZM16.875 20.2529C15.9275 20.2529 15.1562 19.4817 15.1562 18.5342C15.1562 17.5867 15.9275 16.8154 16.875 16.8154C17.8225 16.8154 18.5938 17.5867 18.5938 18.5342C18.5938 19.4817 17.8225 20.2529 16.875 20.2529ZM15.4688 12.9092C15.4688 12.1342 16.1 11.5029 16.875 11.5029C17.65 11.5029 18.2812 12.1342 18.2812 12.9092C18.2812 13.6842 17.65 14.3154 16.875 14.3154C16.1 14.3154 15.4688 13.6842 15.4688 12.9092ZM30 15.8779C30 16.5692 29.44 17.1279 28.75 17.1279H27.5V18.3779C27.5 19.0692 26.94 19.6279 26.25 19.6279C25.56 19.6279 25 19.0692 25 18.3779V17.1279H23.75C23.06 17.1279 22.5 16.5692 22.5 15.8779C22.5 15.1867 23.06 14.6279 23.75 14.6279H25V13.3779C25 12.6867 25.56 12.1279 26.25 12.1279C26.94 12.1279 27.5 12.6867 27.5 13.3779V14.6279H28.75C29.44 14.6279 30 15.1867 30 15.8779ZM8.75 20.8779V13.5029L8.09625 14.2204C7.63125 14.7279 6.84 14.7679 6.33 14.3017C5.82 13.8367 5.7825 13.0467 6.2475 12.5354L8.4125 10.1592C8.8775 9.65668 9.5825 9.49418 10.2112 9.74168C10.8412 9.98793 11.25 10.5842 11.25 11.2617V20.8779C11.25 21.5692 10.69 22.1279 10 22.1279C9.31 22.1279 8.75 21.5692 8.75 20.8779ZM27.5737 24.0604C24.79 28.3292 20.09 30.8779 15 30.8779C6.72875 30.8779 0 24.1492 0 15.8779C0 7.60668 6.72875 0.87793 15 0.87793C20.0888 0.87793 24.79 3.42668 27.5737 7.69543C27.9513 8.27293 27.7875 9.04793 27.21 9.42543C26.63 9.80043 25.8563 9.63918 25.48 9.06043C23.1588 5.50168 19.2412 3.37793 15 3.37793C8.1075 3.37793 2.5 8.98543 2.5 15.8779C2.5 22.7704 8.1075 28.3779 15 28.3779C19.2425 28.3779 23.16 26.2542 25.4787 22.6954C25.8562 22.1179 26.63 21.9567 27.2087 22.3304C27.7875 22.7079 27.95 23.4829 27.5737 24.0604Z" fill="white"/>
</g>
<defs>
<clipPath id="clip0_108_3634">
<rect width="30" height="30" fill="white" transform="translate(0 0.87793)"/>
</clipPath>
</defs>
</svg>
