<svg width="40" height="41" viewBox="0 0 40 41" fill="none" xmlns="http://www.w3.org/2000/svg">
<path d="M35.0915 12.4809C35.3632 12.3009 35.5749 12.0442 35.7015 11.7442C35.7849 11.5492 37.7299 6.93755 38.3049 3.90422C38.4265 3.25922 38.1599 2.60255 37.6215 2.22589C37.0799 1.84922 36.3732 1.82589 35.8099 2.16422C32.1932 4.33422 27.4649 5.25922 20.0015 5.25922C12.5382 5.25922 7.8082 4.33422 4.19153 2.16589C3.6282 1.82755 2.91987 1.85255 2.37987 2.22755C1.84153 2.60422 1.57487 3.26089 1.69653 3.90589C2.27153 6.93755 4.21653 11.5492 4.29987 11.7459C4.45487 12.1109 4.73487 12.4092 5.08987 12.5859C5.5932 12.8376 6.1282 13.0659 6.68153 13.2826C6.71153 15.3609 6.80153 17.5992 6.93153 19.8492C5.8582 20.0709 5.24153 20.2392 5.16653 20.2609C3.83653 20.6309 3.05987 22.0059 3.42653 23.3342C3.79653 24.6642 5.1732 25.4476 6.50153 25.0792C6.5132 25.0759 6.78987 25.0026 7.27487 24.8942C7.74153 30.9509 8.3132 36.0242 8.3532 36.3792C8.5032 37.7559 9.77153 38.7426 11.1199 38.5809C12.4915 38.4242 13.4765 37.1859 13.3199 35.8142C13.3099 35.7259 12.7032 30.3459 12.2282 24.0609C14.3599 23.8026 16.9999 23.5959 20.0015 23.5959C23.0032 23.5959 25.6449 23.8026 27.7749 24.0609C27.2999 30.3442 26.6932 35.7242 26.6832 35.8142C26.5265 37.1859 27.5115 38.4242 28.8832 38.5809C30.2299 38.7426 31.4999 37.7576 31.6499 36.3792C31.6899 36.0259 32.2615 30.9509 32.7282 24.8942C33.6182 25.0809 33.5215 25.1442 34.1682 25.1709C35.2632 25.1709 36.2682 24.4459 36.5749 23.3392C36.9449 22.0092 36.1649 20.6309 34.8349 20.2609C34.7599 20.2392 34.1432 20.0709 33.0699 19.8492C33.1965 17.6392 33.2865 15.4376 33.3182 13.3892C33.9715 13.1242 34.5765 12.8259 35.0915 12.4809ZM11.7099 14.6326C13.4615 14.9342 15.3865 15.1276 17.4999 15.2109V18.6426C15.4082 18.7159 13.5249 18.8726 11.8965 19.0626C11.8132 17.5526 11.7499 16.0609 11.7099 14.6326ZM28.1032 19.0609C26.4749 18.8709 24.5915 18.7142 22.4999 18.6409V15.2092C24.1999 15.1426 26.2565 14.9926 28.2882 14.6759C28.2499 16.0909 28.1849 17.5659 28.1032 19.0609Z" fill="#E7370A"/>
</svg>
