<svg width="16" height="16" viewBox="0 0 16 16" fill="none" xmlns="http://www.w3.org/2000/svg">
<g clip-path="url(#clip0_107_3292)">
<path d="M15.2813 1.13317C15.0509 0.94215 14.7808 0.804961 14.4906 0.73161C14.2004 0.658258 13.8975 0.650593 13.604 0.709173L10.856 1.37584C10.2416 1.48763 9.68586 1.81152 9.28577 2.29105C8.88567 2.77058 8.66657 3.37532 8.66667 3.99984V13.8665L8 13.9872L7.33333 13.8665V3.99984C7.33577 3.3815 7.12213 2.78174 6.72931 2.30421C6.3365 1.82667 5.7892 1.50136 5.182 1.38451L2.35733 0.699173C2.06918 0.646847 1.77305 0.658444 1.48987 0.733144C1.20669 0.807844 0.943372 0.943824 0.718521 1.13148C0.49367 1.31913 0.312775 1.55387 0.188618 1.81912C0.0644604 2.08436 7.11635e-05 2.37364 0 2.66651L0 13.8892L8 15.3445L16 13.8892V2.66651C16 2.37385 15.9357 2.08478 15.8115 1.81979C15.6873 1.5548 15.5063 1.32038 15.2813 1.13317Z" fill="white"/>
</g>
<defs>
<clipPath id="clip0_107_3292">
<rect width="16" height="16" fill="white"/>
</clipPath>
</defs>
</svg>
