<svg width="17" height="17" viewBox="0 0 17 17" fill="none" xmlns="http://www.w3.org/2000/svg">
<g clip-path="url(#clip0_2008_731)">
<path d="M15.4242 1.69608C15.1938 1.50505 14.9236 1.36787 14.6335 1.29451C14.3433 1.22116 14.0404 1.2135 13.7469 1.27208L10.9989 1.93874C10.3845 2.05053 9.82874 2.37443 9.42865 2.85396C9.02856 3.33348 8.80946 3.93823 8.80955 4.56274V14.4294L8.14288 14.5501L7.47622 14.4294V4.56274C7.47866 3.94441 7.26501 3.34465 6.87219 2.86711C6.47938 2.38957 5.93208 2.06427 5.32488 1.94741L2.50022 1.26208C2.21206 1.20975 1.91593 1.22135 1.63275 1.29605C1.34957 1.37075 1.08625 1.50673 0.861404 1.69438C0.636554 1.88203 0.455658 2.11677 0.331501 2.38202C0.207344 2.64727 0.142954 2.93654 0.142883 3.22941L0.142883 14.4521L8.14288 15.9074L16.1429 14.4521V3.22941C16.1429 2.93676 16.0785 2.64768 15.9543 2.38269C15.8301 2.1177 15.6492 1.88329 15.4242 1.69608Z" fill="#E7370A"/>
</g>
<defs>
<clipPath id="clip0_2008_731">
<rect width="16" height="16" fill="white" transform="translate(0.142883 0.562752)"/>
</clipPath>
</defs>
</svg>
