<svg width="17" height="17" viewBox="0 0 17 17" fill="none" xmlns="http://www.w3.org/2000/svg">
<g clip-path="url(#clip0_2008_724)">
<path d="M2.21496 3.88142C3.54629 2.02609 5.64563 0.762085 8.04763 0.562752V3.24209C6.61696 3.42142 5.36296 4.16875 4.51563 5.25209L2.21563 3.88209L2.21496 3.88142ZM9.38096 3.24142C10.8116 3.42075 12.0656 4.16809 12.913 5.25142L15.213 3.88142C13.8823 2.02609 11.783 0.762085 9.38096 0.562752V3.24142ZM12.7143 8.52875C12.7143 6.32275 10.9203 4.52875 8.71429 4.52875C6.50829 4.52875 4.71429 6.32275 4.71429 8.52875C4.71429 10.7348 6.50829 12.5288 8.71429 12.5288C10.9203 12.5288 12.7143 10.7348 12.7143 8.52875ZM15.8963 12.0308C16.415 10.9714 16.7143 9.78542 16.7143 8.52875C16.7143 7.27209 16.415 6.08609 15.8956 5.02675L13.599 6.39542C13.8856 7.04942 14.0476 7.77075 14.0476 8.52942C14.0476 9.28808 13.8856 10.0088 13.599 10.6634L15.8963 12.0321V12.0308ZM12.913 11.8061C12.0656 12.8894 10.8116 13.6361 9.38096 13.8161V16.4954C11.783 16.2961 13.8823 15.0321 15.213 13.1768L12.913 11.8061ZM3.82963 10.6628C3.54296 10.0088 3.38096 9.28809 3.38096 8.52875C3.38096 7.76942 3.54296 7.04875 3.82963 6.39475L1.53296 5.02675C1.01429 6.08609 0.714294 7.27209 0.714294 8.52875C0.714294 9.78542 1.01363 10.9714 1.53229 12.0308L3.82963 10.6628ZM8.04763 13.8161C6.61696 13.6368 5.36296 12.8894 4.51563 11.8061L2.21563 13.1768C3.54629 15.0321 5.64629 16.2961 8.04763 16.4954V13.8161Z" fill="#E7370A"/>
</g>
<defs>
<clipPath id="clip0_2008_724">
<rect width="16" height="16" fill="white" transform="translate(0.714294 0.562752)"/>
</clipPath>
</defs>
</svg>
