<svg width="16" height="16" viewBox="0 0 16 16" fill="none" xmlns="http://www.w3.org/2000/svg">
<g clip-path="url(#clip0_107_3287)">
<path d="M1.50067 3.31867C2.832 1.46333 4.93133 0.199333 7.33333 0V2.67933C5.90267 2.85867 4.64867 3.606 3.80133 4.68933L1.50133 3.31933L1.50067 3.31867ZM8.66667 2.67867C10.0973 2.858 11.3513 3.60533 12.1987 4.68867L14.4987 3.31867C13.168 1.46333 11.0687 0.199333 8.66667 0V2.67867ZM12 7.966C12 5.76 10.206 3.966 8 3.966C5.794 3.966 4 5.76 4 7.966C4 10.172 5.794 11.966 8 11.966C10.206 11.966 12 10.172 12 7.966ZM15.182 11.468C15.7007 10.4087 16 9.22267 16 7.966C16 6.70933 15.7007 5.52333 15.1813 4.464L12.8847 5.83267C13.1713 6.48667 13.3333 7.208 13.3333 7.96667C13.3333 8.72533 13.1713 9.446 12.8847 10.1007L15.182 11.4693V11.468ZM12.1987 11.2433C11.3513 12.3267 10.0973 13.0733 8.66667 13.2533V15.9327C11.0687 15.7333 13.168 14.4693 14.4987 12.614L12.1987 11.2433ZM3.11533 10.1C2.82867 9.446 2.66667 8.72533 2.66667 7.966C2.66667 7.20667 2.82867 6.486 3.11533 5.832L0.818667 4.464C0.3 5.52333 0 6.70933 0 7.966C0 9.22267 0.299333 10.4087 0.818 11.468L3.11533 10.1ZM7.33333 13.2533C5.90267 13.074 4.64867 12.3267 3.80133 11.2433L1.50133 12.614C2.832 14.4693 4.932 15.7333 7.33333 15.9327V13.2533Z" fill="white"/>
</g>
<defs>
<clipPath id="clip0_107_3287">
<rect width="16" height="16" fill="white"/>
</clipPath>
</defs>
</svg>
