<svg width="22" height="27" viewBox="0 0 22 27" fill="none" xmlns="http://www.w3.org/2000/svg">
<g filter="url(#filter0_d_2035_379)">
<path d="M7.49998 15.4991C4.53698 15.4991 1.56098 14.8531 1.43598 14.8251C1.05498 14.7411 0.756977 14.4441 0.673977 14.0631C0.645977 13.9371 0.000976562 10.9611 0.000976562 7.99912C0.000976562 5.03712 0.645976 2.06012 0.672976 1.93512C0.755976 1.55412 1.05398 1.25612 1.43498 1.17312C1.55998 1.14512 4.53698 0.500122 7.49898 0.500122C10.461 0.500122 13.437 1.14612 13.563 1.17312C13.944 1.25612 14.241 1.55412 14.325 1.93512C14.352 2.06012 14.999 5.03712 14.999 7.99912C14.999 10.9611 14.353 13.9371 14.325 14.0631C14.241 14.4441 13.944 14.7411 13.563 14.8251C13.437 14.8521 10.462 15.4991 7.49898 15.4991H7.49998ZM21.326 8.93512C21.242 8.55412 20.945 8.25612 20.564 8.17312C20.474 8.15312 18.939 7.82112 16.995 7.63112C16.997 7.75412 17 7.87612 17 7.99912C17 11.0841 16.354 14.1481 16.28 14.4871C16.028 15.6311 15.132 16.5271 13.995 16.7781C13.649 16.8531 10.585 17.4991 7.49998 17.4991C7.37698 17.4991 7.25398 17.4961 7.13198 17.4941C7.32198 19.4381 7.65398 20.9731 7.67398 21.0631C7.75698 21.4441 8.05498 21.7411 8.43598 21.8251C8.56098 21.8521 11.538 22.4991 14.5 22.4991C17.462 22.4991 20.438 21.8531 20.564 21.8251C20.945 21.7411 21.242 21.4441 21.326 21.0631C21.353 20.9371 22 17.9621 22 14.9991C22 12.0361 21.354 9.06012 21.326 8.93512Z" fill="white"/>
</g>
<defs>
<filter id="filter0_d_2035_379" x="0.000976562" y="0.500122" width="21.999" height="25.6393" filterUnits="userSpaceOnUse" color-interpolation-filters="sRGB">
<feFlood flood-opacity="0" result="BackgroundImageFix"/>
<feColorMatrix in="SourceAlpha" type="matrix" values="0 0 0 0 0 0 0 0 0 0 0 0 0 0 0 0 0 0 127 0" result="hardAlpha"/>
<feOffset dy="3.64024"/>
<feComposite in2="hardAlpha" operator="out"/>
<feColorMatrix type="matrix" values="0 0 0 0 0 0 0 0 0 0 0 0 0 0 0 0 0 0 0.25 0"/>
<feBlend mode="normal" in2="BackgroundImageFix" result="effect1_dropShadow_2035_379"/>
<feBlend mode="normal" in="SourceGraphic" in2="effect1_dropShadow_2035_379" result="shape"/>
</filter>
</defs>
</svg>
