<svg width="16" height="16" viewBox="0 0 16 16" fill="none" xmlns="http://www.w3.org/2000/svg">
<path d="M14.2048 3.37329C14.0281 3.25129 13.8035 3.21995 13.6035 3.29195C13.5375 3.31529 12.3455 3.74529 11.5055 4.81729C10.8195 3.59595 9.98348 2.59062 8.32281 1.67529C8.12348 1.56462 7.87948 1.56462 7.68015 1.67529C6.02348 2.58529 5.20481 3.56462 4.50215 4.81529C3.66148 3.73795 2.46015 3.31395 2.39348 3.29129C2.19348 3.22262 1.97081 3.25262 1.79615 3.37462C0.73348 4.11395 0.66748 8.22462 0.66748 8.26529C0.66748 11.766 1.46548 12.998 1.55615 13.1266C1.63415 13.2373 1.74415 13.3213 1.87148 13.368C1.98681 13.4106 4.74281 14.4093 8.00081 14.4093C11.2588 14.4093 14.0141 13.4106 14.1295 13.368C14.2595 13.3206 14.3708 13.2333 14.4495 13.12C14.5401 12.988 15.3335 11.734 15.3335 8.26529C15.3335 8.22395 15.2668 4.11329 14.2048 3.37462V3.37329Z" fill="white"/>
</svg>
