<svg width="17" height="17" viewBox="0 0 17 17" fill="none" xmlns="http://www.w3.org/2000/svg">
<g clip-path="url(#clip0_2008_708)">
<path d="M15.062 3.9361C14.8853 3.8141 14.6606 3.78276 14.4606 3.85476C14.3946 3.8781 13.2026 4.3081 12.3626 5.3801C11.6766 4.15876 10.8406 3.15343 9.17996 2.2381C8.98063 2.12743 8.73663 2.12743 8.53729 2.2381C6.88063 3.1481 6.06196 4.12743 5.35929 5.3781C4.51863 4.30076 3.31729 3.87676 3.25063 3.8541C3.05063 3.78543 2.82796 3.81543 2.65329 3.93743C1.59063 4.67676 1.52463 8.78743 1.52463 8.8281C1.52463 12.3288 2.32263 13.5608 2.41329 13.6894C2.49129 13.8001 2.60129 13.8841 2.72863 13.9308C2.84396 13.9734 5.59996 14.9721 8.85796 14.9721C12.116 14.9721 14.8713 13.9734 14.9866 13.9308C15.1166 13.8834 15.228 13.7961 15.3066 13.6828C15.3973 13.5508 16.1906 12.2968 16.1906 8.8281C16.1906 8.78676 16.124 4.6761 15.062 3.93743V3.9361Z" fill="#E7370A"/>
</g>
<defs>
<clipPath id="clip0_2008_708">
<rect width="16" height="16" fill="white" transform="translate(0.857147 0.562752)"/>
</clipPath>
</defs>
</svg>
