<svg width="24" height="24" viewBox="0 0 24 24" fill="none" xmlns="http://www.w3.org/2000/svg">
<path d="M21.896 7.37037C21.341 7.96837 19.807 9.54737 17.577 11.2674C15.239 13.0714 12.591 14.5254 12.479 14.5864C12.33 14.6684 12.165 14.7094 12 14.7094C11.835 14.7094 11.67 14.6684 11.52 14.5864C11.409 14.5254 8.761 13.0714 6.422 11.2674C4.192 9.54737 2.658 7.96837 2.102 7.36937L1.513 6.73937C1.244 8.12637 1 9.95038 1 12.0004C1 16.4584 2.156 19.8524 2.206 19.9944C2.318 20.3184 2.589 20.5624 2.923 20.6404C3.101 20.6824 7.343 21.6634 12.001 21.6634C16.82 21.6634 20.915 20.6804 21.087 20.6384C21.417 20.5584 21.683 20.3164 21.795 19.9954C21.844 19.8544 23.001 16.4854 23.001 11.9994C23.001 9.93237 22.759 8.11337 22.492 6.73438L21.898 7.37037H21.896Z" fill="#E7370A"/>
<path d="M3.56599 6.00691C3.97499 6.44691 5.47299 8.00891 7.64399 9.68291C9.28999 10.9529 11.144 12.0649 12 12.5589C12.856 12.0639 14.714 10.9509 16.355 9.68391C18.527 8.00991 20.024 6.44791 20.431 6.00891L21.924 4.41191C21.85 4.16891 21.801 4.02691 21.792 4.00091C21.68 3.68191 21.414 3.44191 21.086 3.36191C20.914 3.31991 16.829 2.33691 11.999 2.33691C7.25499 2.33691 3.09199 3.31891 2.91699 3.36091C2.58399 3.44091 2.31599 3.68391 2.20499 4.00691C2.19599 4.03391 2.14799 4.17391 2.07599 4.41391L3.56599 6.00891V6.00691Z" fill="#E7370A"/>
</svg>
