<svg width="146" height="20" viewBox="0 0 146 20" fill="none" xmlns="http://www.w3.org/2000/svg">
<path d="M6.60855 0.279488C5.37241 0.415857 4.20666 0.846966 3.30045 1.49803C2.82975 1.83675 2.07312 2.62858 1.73439 3.13887C0.819385 4.50698 0.260705 6.3062 0.0495504 8.54972C-0.0164354 9.24916 -0.0164354 11.1891 0.0495504 11.849C0.454264 15.9401 2.09071 18.4608 4.85772 19.257C6.07186 19.6089 7.61153 19.5782 8.74209 19.1822C9.1688 19.0327 9.34476 18.9535 9.6131 18.7907C10.2114 18.43 10.7481 17.8933 11.0868 17.317C11.1748 17.1631 11.2583 17.0531 11.2759 17.0751C11.2891 17.0927 11.3287 17.493 11.3551 17.9637C11.3815 18.4344 11.4167 18.9051 11.4343 19.0063L11.4563 19.1954H12.6397H13.823V14.5984V10.0014H10.5017H7.18042V11.1672V12.3329H9.1424H11.1088L11.0824 13.0456C11.0648 13.4855 11.0208 13.9166 10.9724 14.1585C10.5809 15.9841 9.24798 17.0399 7.31239 17.0531C6.67893 17.0575 6.32261 16.9959 5.8695 16.8155C5.26243 16.5736 4.65536 16.0897 4.25505 15.5266C3.64358 14.6644 3.23447 13.3711 3.0629 11.761C2.97492 10.9032 2.99692 8.66849 3.1069 7.91625C3.49401 5.19763 4.4838 3.53039 6.07186 2.92772C6.57335 2.73416 6.94287 2.68137 7.62473 2.71217C8.28899 2.73856 8.59692 2.80894 9.05002 3.03769C9.57791 3.30164 9.89024 3.58318 10.2598 4.13746C10.5457 4.56857 10.7305 5.02167 10.924 5.77831C11.0164 6.13023 11.1044 6.41617 11.1264 6.41177C11.144 6.40737 11.751 6.2798 12.4725 6.12583C13.5898 5.88828 13.779 5.8355 13.779 5.76951C13.779 5.72552 13.7306 5.45278 13.669 5.16244C13.084 2.40423 11.4475 0.789778 8.78608 0.345472C8.29338 0.26189 7.10564 0.226698 6.60855 0.279488Z" fill="white"/>
<path d="M50.6431 9.86879V19.1948L51.822 19.186L52.9966 19.1728L53.1241 18.5921L53.2517 18.0114L53.6212 18.359C54.0303 18.7461 54.4087 18.9924 54.9102 19.186C55.5128 19.4235 55.8647 19.4807 56.6698 19.4763C57.312 19.4719 57.4484 19.4587 57.8355 19.3532C59.4588 18.9177 60.6553 17.6859 61.2888 15.8075C62.0234 13.6036 61.9486 10.4363 61.1172 8.50508C60.7521 7.65606 60.2022 6.93902 59.5292 6.42873C58.2754 5.47853 56.2519 5.28937 54.7606 5.98882C54.3251 6.19558 54.0655 6.36274 53.6916 6.68827L53.4145 6.93022V3.7365V0.542788H52.0288H50.6431V9.86879ZM56.661 7.91121C57.356 8.07397 57.9807 8.59746 58.3546 9.32331C58.7901 10.1767 58.9309 10.9334 58.9309 12.4422C58.9309 13.6036 58.8869 14.0127 58.6845 14.7737C58.3018 16.199 57.4968 17.0656 56.4102 17.224C55.5172 17.356 54.457 16.9645 53.6696 16.2166L53.4145 15.9703V12.5038V9.04177L53.6256 8.85701C54.3911 8.17955 55.1565 7.85402 55.9879 7.84962C56.2079 7.84522 56.507 7.87602 56.661 7.91121Z" fill="white"/>
<path d="M64.091 0.574102C64.0734 0.587299 64.0602 4.784 64.0602 9.9001V19.1953H65.4459H66.8316V9.86931V0.543308H65.4767C64.7289 0.543308 64.1042 0.556505 64.091 0.574102Z" fill="white"/>
<path d="M87.6391 0.750198C87.6127 0.842579 86.4382 5.01289 85.0261 10.0234L82.4659 19.1295L83.8296 19.1427C84.7534 19.1471 85.2021 19.1383 85.2197 19.1075C85.2373 19.0811 85.5364 17.9813 85.8839 16.666L86.5174 14.2685L89.6143 14.2773L92.7113 14.2905L93.3579 16.71L94.0002 19.1295L95.4651 19.1427C96.8464 19.1515 96.9256 19.1471 96.9036 19.0767C96.8904 19.0327 95.7202 14.8888 94.3037 9.86945C92.8872 4.85012 91.7127 0.706209 91.7039 0.662218C91.6819 0.591833 91.5455 0.587435 89.6847 0.587435H87.6875L87.6391 0.750198ZM90.8505 7.42797C91.5103 9.89584 92.0602 11.9414 92.069 11.9678C92.0866 12.0118 91.5807 12.025 89.6187 12.025C87.6611 12.025 87.1508 12.0118 87.164 11.9678C87.1728 11.9414 87.7271 9.88264 88.387 7.39718C89.0512 4.91171 89.6099 2.89254 89.6231 2.91014C89.6407 2.92773 90.1906 4.9601 90.8505 7.42797Z" fill="white"/>
<path d="M20.8615 5.61986C19.4274 5.83102 18.3232 6.3677 17.4258 7.3003C17.241 7.48946 16.9991 7.7886 16.8891 7.95576C16.6736 8.29449 16.48 8.66841 16.5108 8.6948C16.5504 8.73 18.5608 9.78137 18.5872 9.78137C18.6003 9.78137 18.6839 9.6494 18.7763 9.48223C18.9875 9.10392 19.5549 8.53204 19.9597 8.29449C20.4524 8.00415 20.8835 7.88098 21.4773 7.85898C23.105 7.793 24.0288 8.64202 23.976 10.1685L23.9628 10.5424L21.7545 11.1671C20.5403 11.5146 19.4054 11.8489 19.225 11.9149C17.8569 12.4296 16.8671 13.3006 16.4668 14.352C16.282 14.8447 16.2249 15.223 16.2513 15.8785C16.2864 16.6835 16.48 17.273 16.9243 17.8976C17.439 18.6235 18.2264 19.1338 19.225 19.3801C19.7881 19.5253 20.9274 19.5209 21.5213 19.3757C22.3835 19.1646 23.1094 18.7774 23.7165 18.2056L24.0288 17.9108V18.056C24.0288 18.21 24.1432 18.9798 24.1872 19.1162C24.2091 19.191 24.3147 19.1954 25.5992 19.1954H26.985L26.9586 19.081C26.7958 18.4387 26.787 18.1968 26.7562 13.5426C26.7298 9.03353 26.7298 8.96315 26.633 8.62882C26.2459 7.22992 25.4277 6.3721 24.0112 5.88381C23.2062 5.60667 21.7853 5.48789 20.8615 5.61986ZM23.9848 14.2596V15.9269L23.7252 16.1908C23.3909 16.5339 22.9906 16.8155 22.5287 17.0354C21.1474 17.6953 19.8189 17.4137 19.291 16.3448C19.1282 16.0148 19.1238 16.0016 19.1238 15.5045C19.1238 15.025 19.1326 14.9767 19.2514 14.7391C19.4406 14.374 19.8409 14.0133 20.3424 13.7625C20.6195 13.6261 21.253 13.4062 22.2912 13.0851C23.1402 12.8211 23.866 12.6056 23.91 12.6012C23.9804 12.5968 23.9848 12.7023 23.9848 14.2596Z" fill="white"/>
<path d="M35.2948 5.62422C34.2742 5.80458 33.1436 6.38086 32.4222 7.08911L32.1714 7.33545L32.1582 6.60961L32.145 5.88816L30.8385 5.87497L29.5276 5.86617V12.5307V19.1953H30.9133H32.299V14.2728V9.35022L32.541 9.13027C33.2932 8.44402 34.3578 7.97772 35.176 7.97772C36.3241 7.98211 36.9928 8.5232 37.1336 9.57457C37.1644 9.79893 37.182 11.5234 37.182 14.5587V19.1953H38.5677H39.9534V14.2728V9.35022L40.1953 9.13027C40.9388 8.44841 42.0121 7.97772 42.8128 7.97772C43.8685 7.97772 44.5064 8.41322 44.7571 9.30183C44.7967 9.447 44.8143 10.6743 44.8231 14.3432L44.8407 19.1953H46.2264H47.6121L47.5945 13.9252C47.5813 8.69476 47.5813 8.65517 47.489 8.30325C47.2778 7.52021 46.9919 7.01432 46.4904 6.53922C45.9581 6.02893 45.351 5.74739 44.5284 5.62422C42.8963 5.37347 41.2291 5.94975 39.9666 7.19908C39.7686 7.39264 39.597 7.54661 39.5882 7.53341C39.575 7.52461 39.5267 7.43223 39.4783 7.33545C39.1527 6.69319 38.4137 6.07292 37.6659 5.81338C37.006 5.58463 35.9898 5.50545 35.2948 5.62422Z" fill="white"/>
<path d="M74.2484 5.60664C71.9169 5.90578 70.2365 7.54223 69.581 10.1509C69.2071 11.6378 69.1807 13.5205 69.515 14.9502C69.8142 16.226 70.3201 17.1586 71.1603 17.9856C72.2732 19.0766 73.6238 19.5605 75.3878 19.4857C76.6635 19.4373 77.6269 19.1425 78.5155 18.5311C78.9114 18.2583 79.5097 17.6425 79.7956 17.2158C80.0112 16.8946 80.2927 16.3755 80.2927 16.3008C80.2927 16.2612 78.2428 15.3682 78.1592 15.3682C78.1328 15.3682 78.0492 15.4869 77.9656 15.6365C77.341 16.7715 76.3028 17.3565 75.0139 17.2949C74.2572 17.2553 73.7029 17.0266 73.1751 16.5383C72.4624 15.874 72.0841 14.9414 72.0357 13.7053L72.0093 13.1686H76.1752H80.3367V12.1788C80.3367 11.1143 80.2971 10.5864 80.1564 9.89133C79.6593 7.41906 78.0932 5.88818 75.7617 5.60225C75.3306 5.54946 74.6795 5.55386 74.2484 5.60664ZM75.5901 7.86336C76.096 7.95574 76.4743 8.1537 76.8483 8.52762C77.3894 9.0687 77.6445 9.75496 77.7193 10.8679L77.7501 11.321H74.8863H72.0225L72.0489 11.1319C72.2117 9.94851 72.5856 9.11269 73.2102 8.53642C73.8657 7.92935 74.6707 7.7006 75.5901 7.86336Z" fill="white"/>
<path d="M118.433 5.63301C117.012 5.86176 116.013 6.31046 115.138 7.12429C114.799 7.43662 114.385 7.98651 114.187 8.37802L114.034 8.67716L114.971 9.16985C115.481 9.43819 115.947 9.68894 116 9.71973C116.088 9.77692 116.101 9.76372 116.259 9.48219C116.497 9.05108 117.122 8.44841 117.575 8.21086C118.107 7.93372 118.529 7.83254 119.136 7.83254C119.946 7.83254 120.505 8.0217 120.922 8.43961C121.336 8.84872 121.512 9.35021 121.512 10.1112V10.5556L119.59 11.0966C117.258 11.7565 116.633 11.9545 116.145 12.2008C114.949 12.8035 114.245 13.5689 113.902 14.6423C113.765 15.0778 113.73 15.918 113.831 16.4283C114.297 18.7202 116.611 19.9651 119.194 19.3097C119.941 19.1205 120.601 18.7554 121.2 18.2011C121.371 18.0384 121.521 17.9152 121.525 17.924C121.534 17.9328 121.573 18.1835 121.613 18.4783C121.653 18.773 121.701 19.0457 121.714 19.0809C121.736 19.1425 121.912 19.1513 123.1 19.1513C123.848 19.1513 124.459 19.1381 124.459 19.1161C124.459 19.0985 124.437 19.0061 124.415 18.9094C124.288 18.3375 124.27 17.8624 124.244 13.4545C124.213 8.9455 124.213 8.9235 124.112 8.57158C123.975 8.07889 123.667 7.48501 123.364 7.11549C122.739 6.36325 121.732 5.85296 120.5 5.6682C120.117 5.60662 118.727 5.58462 118.433 5.63301ZM121.512 14.2464V15.94L121.349 16.1248C120.887 16.6351 120.056 17.1365 119.383 17.3037C118.921 17.4225 118.274 17.4225 117.909 17.3081C117.034 17.0354 116.541 16.3051 116.594 15.3725C116.638 14.6071 117.148 14.0088 118.089 13.6217C118.327 13.5249 121.384 12.5615 121.481 12.5571C121.499 12.5527 121.512 13.3138 121.512 14.2464Z" fill="white"/>
<path d="M139.192 5.67245C137.168 6.03757 135.694 7.39248 134.973 9.55682C134.357 11.4044 134.331 13.8063 134.907 15.5659C135.602 17.6907 137.102 19.0236 139.214 19.4019C139.742 19.4943 140.837 19.4943 141.396 19.4019C143.23 19.094 144.449 18.2274 145.32 16.6129C145.412 16.4413 145.474 16.2918 145.456 16.2786C145.425 16.261 143.987 15.6407 143.481 15.4296L143.34 15.3724L143.133 15.7331C142.702 16.4721 142.012 17.0176 141.233 17.22C140.784 17.3387 140.001 17.3475 139.592 17.242C138.162 16.868 137.296 15.5659 137.186 13.6391L137.159 13.1245H141.352H145.544L145.518 11.9895C145.487 10.5422 145.403 9.96593 145.086 9.00254C144.488 7.18573 143.12 5.99358 141.264 5.67245C140.758 5.58447 139.667 5.58447 139.192 5.67245ZM141.184 7.94236C141.734 8.14912 142.201 8.53624 142.473 9.02013C142.751 9.51283 142.935 10.3047 142.935 10.9953V11.3208H140.076H137.217V11.2065C137.217 10.9953 137.393 10.2167 137.524 9.86035C137.714 9.34126 137.978 8.92335 138.334 8.57143C138.69 8.2195 139.047 8.01275 139.513 7.88957C139.975 7.762 140.767 7.7884 141.184 7.94236Z" fill="white"/>
<path d="M133.394 5.80023C132.162 6.06857 130.97 6.83841 129.791 8.11853C129.663 8.2593 129.549 8.37368 129.536 8.37368C129.527 8.37368 129.518 7.8194 129.518 7.14194V5.9102H128.242H126.967V12.5308V19.1514H128.33H129.694L129.703 14.7435L129.716 10.3357L130.05 10.0453C131.273 8.98954 132.571 8.37808 133.754 8.29889L134.181 8.2725V7.00117V5.73424L133.93 5.73864C133.79 5.73864 133.548 5.76943 133.394 5.80023Z" fill="white"/>
<path d="M96.3229 6.05098C96.3493 6.18295 99.6222 18.905 99.675 19.0766C99.697 19.147 99.7894 19.1514 101.047 19.1426L102.398 19.1294L103.595 14.4532C104.25 11.8797 104.8 9.76378 104.813 9.75058C104.822 9.73738 104.853 9.80337 104.879 9.89575C104.901 9.99253 105.429 12.0777 106.049 14.5324C106.669 16.987 107.184 19.0326 107.197 19.0722C107.219 19.147 107.325 19.1514 108.579 19.1514C109.832 19.1514 109.938 19.147 109.96 19.0722C110.035 18.8126 113.33 6.00259 113.33 5.9586C113.33 5.9234 113.009 5.91021 112.094 5.919L110.853 5.9322L109.731 10.648C109.111 13.2434 108.601 15.3594 108.587 15.3462C108.579 15.3374 108.042 13.217 107.395 10.6304L106.221 5.9322L104.923 5.919L103.63 5.91021L102.539 10.1905C101.936 12.544 101.395 14.6731 101.333 14.9239C101.267 15.1834 101.206 15.3506 101.188 15.3198C101.171 15.2846 100.674 13.1555 100.084 10.582L99.0151 5.91021H97.6558H96.2965L96.3229 6.05098Z" fill="white"/>
</svg>
