<svg width="54" height="34" viewBox="0 0 54 34" fill="none" xmlns="http://www.w3.org/2000/svg">
<g clip-path="url(#clip0_105_3143)">
<path d="M18.3471 0.192625C18.2599 0.347092 3.27108 28.1322 3.27108 28.1403C3.27108 28.1467 7.1464 28.1494 15.5331 28.1494H27.7951V21.8799V15.6103L23.2146 15.6121L18.6342 15.6148L17.7038 17.3867C17.1922 18.3607 16.7734 19.1612 16.7734 19.1649C16.7734 19.1694 18.3516 19.1721 20.2807 19.1721H23.788V21.5209V23.8698H17.2231H10.6574L10.701 23.7898C10.7246 23.7462 13.2015 19.2503 16.2055 13.7994L21.6663 3.88894H22.7276H23.788V8.01867V12.1484H25.7915H27.7951V6.14689V0.145376H23.0847H18.3735L18.3471 0.192625Z" fill="white"/>
<path d="M28.9399 14.1474V28.1494H31.0343H33.1287V23.6608V19.1721H37.2112H41.2928L43.737 23.6608L46.1803 28.1494H48.4501C49.6985 28.1494 50.7198 28.1467 50.7198 28.144C50.7198 28.1412 47.3216 21.8408 43.1673 14.1419L35.6147 0.145376H32.2773H28.9399V14.1474ZM36.2226 9.96314C37.9154 13.0361 39.3083 15.5649 39.3183 15.5803L39.3365 15.6103H36.2326H33.1287V9.98404C33.1287 6.88924 33.1324 4.36143 33.136 4.36597C33.1405 4.37142 34.5289 6.88924 36.2226 9.96314Z" fill="white"/>
<path d="M1.49107 31.3364C0.855941 32.5085 0.338021 33.4698 0.338929 33.4716C0.340747 33.4735 12.3365 33.4735 26.9964 33.4725L53.6511 33.4698L52.4962 31.3373L51.3423 29.2047L26.9937 29.2038H2.64595L1.49107 31.3364Z" fill="white"/>
</g>
<defs>
<clipPath id="clip0_105_3143">
<rect width="54" height="33.7557" fill="white"/>
</clipPath>
</defs>
</svg>
