<svg width="17" height="17" viewBox="0 0 17 17" fill="none" xmlns="http://www.w3.org/2000/svg">
<g clip-path="url(#clip0_2008_666)">
<path d="M4.08755 2.4193C4.03786 2.76805 3.78442 3.12587 3.78442 3.12587C3.71255 3.22868 3.59161 3.23055 3.51567 3.1293L3.13786 2.62555C3.06192 2.52462 3.02255 2.39305 3.0463 2.33274L3.05505 2.27055L3.0638 2.20837C3.05786 2.14399 3.13255 2.02899 3.2338 1.95305L3.7388 1.57524C3.83849 1.4993 3.95317 1.53462 3.99442 1.65368C3.99442 1.65368 4.13724 2.06805 4.08724 2.4193H4.08755ZM2.24161 1.42743C2.3163 1.52712 2.43255 1.60337 2.49724 1.59618L2.55817 1.60493L2.62036 1.61368C2.68036 1.63868 2.81192 1.59774 2.91286 1.52337L3.41661 1.14555C3.5163 1.06962 3.51474 0.948678 3.41192 0.876803C3.41192 0.876803 3.05411 0.623678 2.70411 0.573678C2.35536 0.52399 1.94099 0.666803 1.94099 0.666803C1.82317 0.708365 1.7888 0.824303 1.86349 0.92524L2.24161 1.42774V1.42743ZM2.70849 2.94555C2.63255 2.84587 2.51755 2.76962 2.45286 2.7768L2.39067 2.76805L2.32974 2.7593C2.26974 2.7343 2.13817 2.77524 2.03724 2.84962L1.53474 3.22774C1.4338 3.30368 1.43536 3.42462 1.53817 3.49649C1.53817 3.49649 1.89474 3.74962 2.24349 3.7993C2.59349 3.8493 3.00786 3.70649 3.00786 3.70649C3.12661 3.66618 3.16224 3.55055 3.08661 3.44962L2.7088 2.94587L2.70849 2.94555ZM1.89349 2.10337L1.90224 2.04118C1.92724 1.98118 1.88755 1.84962 1.81192 1.74868L1.43505 1.24618C1.35911 1.14649 1.23817 1.1468 1.16505 1.24962C1.16505 1.24962 0.911924 1.60743 0.861924 1.95618C0.812236 2.30493 0.955049 2.7193 0.955049 2.7193C0.996611 2.83837 1.11224 2.87399 1.21317 2.79805L1.71567 2.41993C1.81536 2.34524 1.89161 2.22899 1.88442 2.1643C1.88442 2.1643 1.88734 2.14399 1.89317 2.10337H1.89349ZM2.73474 4.29243C2.70849 4.27212 2.66192 4.29462 2.63317 4.29962C2.52786 4.31649 2.4188 4.31462 2.31192 4.29805C2.26099 4.28962 2.21067 4.27712 2.16224 4.26149C2.13192 4.25087 2.08224 4.23493 2.08161 4.2843C2.08099 4.2893 2.08161 4.2943 2.08192 4.29962C2.08255 4.31243 2.08099 4.32493 2.08036 4.33743C2.08036 4.3743 2.08005 4.41118 2.07974 4.44805C2.07911 4.49618 2.07849 4.54587 2.07786 4.59399C2.07692 4.65368 2.07724 4.71337 2.0763 4.77305C2.0763 4.84305 2.07536 4.91274 2.07536 4.98399C2.07286 5.06368 2.07411 5.14399 2.07411 5.22399C2.07286 5.31274 2.07161 5.40149 2.07161 5.49055C2.07036 5.58837 2.07067 5.68493 2.06942 5.78243C2.06849 5.88774 2.0688 5.99212 2.0663 6.09712C2.06567 6.20899 2.06474 6.3218 2.06411 6.43368C2.0638 6.5518 2.06192 6.67118 2.06161 6.7893C2.06036 6.91368 2.05911 7.03805 2.05942 7.16149C2.0588 7.29087 2.05786 7.42055 2.05755 7.54868C2.0563 7.6818 2.05599 7.81649 2.05349 7.94962C2.05286 8.0868 2.05255 8.22399 2.05067 8.36087C2.04974 8.50055 2.0488 8.64149 2.04786 8.78118C2.04661 8.92336 2.04505 9.0668 2.04505 9.20899C2.04349 9.35243 2.04317 9.49712 2.04192 9.64055C2.04036 9.78524 2.0388 9.92993 2.03817 10.0759C2.0363 10.2218 2.03599 10.3665 2.03442 10.5112C2.03411 10.6559 2.0338 10.8009 2.03224 10.9456C2.03067 11.089 2.02942 11.2324 2.02786 11.3759C2.02661 11.5181 2.02692 11.659 2.02567 11.8012C2.02474 11.9409 2.02255 12.0802 2.02161 12.2199C2.0213 12.3559 2.01974 12.4915 2.01911 12.6287C2.01817 12.7606 2.01692 12.8927 2.01599 13.0246C2.01536 13.1531 2.01505 13.2799 2.01442 13.4084C2.01224 13.5312 2.01255 13.6534 2.01255 13.7768C2.01099 13.8934 2.01099 14.0106 2.00942 14.1271C2.0088 14.2377 2.00849 14.3468 2.00661 14.4571C2.00599 14.5599 2.00505 14.6627 2.00442 14.7656C2.00349 14.8609 2.00286 14.9546 2.00192 15.0499C2.00099 15.1362 2.0013 15.2227 1.99911 15.3087C1.99817 15.3862 1.9988 15.4624 1.99786 15.5399C1.99724 15.6071 1.99661 15.6731 1.99599 15.7406C1.99536 15.7977 1.99505 15.8537 1.99474 15.9093C1.99474 15.9537 1.99474 15.9996 1.99317 16.0437C1.99349 16.0768 1.99255 16.1096 1.99317 16.1427C1.99286 16.1631 1.99255 16.1834 1.99317 16.2037C1.99349 16.2099 1.99255 16.2174 1.99286 16.224C1.99286 16.3943 2.11755 16.5352 2.28192 16.559C2.29692 16.5612 2.31192 16.5621 2.32599 16.5627C2.5113 16.5637 2.66349 16.4152 2.66349 16.2296L2.66474 16.2209C2.66442 16.2056 2.66536 16.1893 2.66536 16.1727C2.66442 16.1434 2.66599 16.1156 2.6663 16.0865C2.66724 16.0446 2.66661 16.004 2.66755 15.9621C2.66755 15.9087 2.66849 15.8568 2.66849 15.8034C2.66755 15.7396 2.66911 15.6749 2.66911 15.6115C2.66974 15.5365 2.67005 15.4631 2.67067 15.3881C2.6713 15.3043 2.67192 15.2193 2.6738 15.1356C2.67317 15.0427 2.67474 14.9502 2.67536 14.8574C2.67599 14.7559 2.6763 14.6543 2.67692 14.554C2.67849 14.4462 2.68005 14.3371 2.68036 14.2277C2.68161 14.1121 2.68161 13.9965 2.6813 13.8821C2.68349 13.7606 2.68442 13.6387 2.68536 13.5168C2.68567 13.3896 2.68724 13.2631 2.68755 13.1359C2.68849 13.004 2.68974 12.8718 2.69067 12.7412C2.69099 12.6052 2.69255 12.4696 2.69411 12.3337C2.69505 12.194 2.69567 12.0556 2.69786 11.9162C2.69786 11.774 2.6988 11.6331 2.70005 11.4909C2.70161 11.3474 2.70317 11.2027 2.70317 11.0593C2.70349 10.9146 2.70536 10.7687 2.70567 10.6237C2.70755 10.4777 2.70786 10.3318 2.70974 10.1871C2.71161 10.0412 2.71192 9.89524 2.71255 9.75024C2.71411 9.60555 2.71442 9.46087 2.71599 9.31618C2.71599 9.17274 2.71755 9.0293 2.71911 8.88587C2.72005 8.74493 2.7213 8.60399 2.72224 8.46305C2.72286 8.32462 2.72505 8.18649 2.72567 8.04805C2.72567 7.91337 2.72724 7.77899 2.7288 7.6443C2.72974 7.51368 2.73036 7.38399 2.7313 7.25337C2.7313 7.12743 2.73286 7.00212 2.73442 6.87649C2.7363 6.75618 2.73692 6.6368 2.73755 6.51712C2.73849 6.40399 2.73942 6.28993 2.74036 6.1768C2.74161 6.07024 2.74255 5.96493 2.74286 5.8568C2.74286 5.75774 2.74442 5.65993 2.74442 5.56087C2.74442 5.47055 2.74599 5.38055 2.7463 5.29055C2.74786 5.2093 2.74786 5.12805 2.74817 5.0468C2.74817 4.97555 2.74942 4.90462 2.74974 4.83212C2.74974 4.77118 2.75067 4.71024 2.75036 4.6493C2.75099 4.59993 2.75067 4.54899 2.7513 4.49962C2.75161 4.46149 2.75192 4.42337 2.75224 4.38524C2.75286 4.37149 2.75224 4.35743 2.75224 4.34212C2.75286 4.32837 2.75349 4.31555 2.74505 4.30305C2.74192 4.29868 2.73974 4.29587 2.73505 4.29274L2.73474 4.29243Z" fill="#E7370A"/>
<path d="M14.7909 13.7109C14.7237 13.6434 14.5787 13.5687 14.4453 13.504C14.394 13.4781 14.345 13.4552 14.3021 13.4312C14.2087 13.3799 13.9143 13.1927 13.7928 13.0087C13.444 12.479 14.0331 11.8137 14.2284 11.594C14.4437 11.3502 14.5671 11.1687 14.6487 10.8568C14.6571 10.8212 14.6496 10.7824 14.6303 10.7515C14.6109 10.7206 14.5781 10.6984 14.5412 10.6909C14.3168 10.6449 13.965 10.6899 13.7328 10.7196C13.6287 10.7331 13.5456 10.7431 13.4796 10.7462C13.0671 10.7606 12.2471 10.6946 11.859 10.6152C11.6962 10.5821 11.5412 10.549 11.3925 10.5174L11.2412 10.4852C11.0665 10.4484 10.8978 10.4124 10.735 10.3793C9.80808 10.1899 8.93464 10.0396 7.63871 10.129C7.14621 10.1631 6.44527 10.269 5.88933 10.4199C5.77089 10.4521 5.14558 10.6481 4.81246 10.8315C4.26839 11.1312 4.02527 11.6734 3.92121 12.0824C3.70527 12.9256 3.85496 13.9399 4.29746 14.6068C4.50558 14.9202 4.83558 15.1084 5.19621 15.1668C5.40246 15.1999 5.55714 15.179 5.66902 15.1774C6.12683 15.1684 6.59027 15.0871 7.07371 15.0024C7.38402 14.9477 7.53433 14.9168 7.84152 14.8834C7.85621 14.8812 7.99621 14.8546 8.04308 14.8399C8.15683 14.804 8.26027 14.7509 8.35089 14.6537C8.54714 14.4471 8.64308 14.1537 8.71152 13.8824C8.73214 13.8006 8.75652 13.6052 8.89027 13.6865C8.93152 13.7115 8.96839 13.7821 8.98371 13.8262C9.04871 13.9974 9.06495 14.1896 9.04058 14.3709C9.0287 14.4609 9.00558 14.5487 8.96808 14.6309C8.94402 14.6849 8.86495 14.7768 8.93902 14.824C8.96277 14.839 8.98714 14.8337 9.01558 14.8331C9.08964 14.829 9.16433 14.8274 9.23902 14.8274C9.74839 14.829 10.4112 14.9102 10.4112 14.9102C11.199 14.9827 12.0156 15.0584 12.7837 14.9071C13.2921 14.8068 13.8531 14.5877 14.4053 14.2743C14.5956 14.1656 14.7681 13.994 14.8243 13.8577C14.8412 13.8071 14.8296 13.7496 14.7915 13.7112L14.7909 13.7109Z" fill="#E7370A"/>
<path d="M9.48647 11.5377C9.4824 11.5009 9.47834 11.4643 9.47709 11.4268C9.47615 11.3881 9.4724 11.3487 9.46584 11.3115C9.44053 11.1587 9.64959 11.2296 9.73397 11.2559C9.82553 11.2862 9.90709 11.3452 9.96303 11.4234C10.0518 11.5481 10.053 11.7177 10.004 11.8568C9.9474 12.0199 9.8124 12.0912 9.66303 12.1609C9.60772 12.1868 9.53772 12.1893 9.52022 12.1187C9.50365 12.0549 9.51178 11.9834 9.50959 11.9199C9.50584 11.8318 9.49897 11.7393 9.49553 11.6499C9.49334 11.6109 9.49053 11.5743 9.48647 11.5377Z" fill="white"/>
<path d="M9.55404 12.7587C9.54998 12.7218 9.54467 12.6849 9.54467 12.6477C9.54373 12.609 9.53998 12.5696 9.53342 12.5324C9.50685 12.3793 9.71717 12.4505 9.80154 12.4768C9.8931 12.5071 9.97467 12.5662 10.0306 12.6443C10.1194 12.769 10.1194 12.9387 10.0715 13.0777C10.0137 13.2405 9.87873 13.3118 9.7306 13.3818C9.67529 13.4077 9.60529 13.4102 9.58654 13.3396C9.56998 13.2758 9.57935 13.2046 9.57716 13.1412C9.57341 13.053 9.56654 12.9605 9.56435 12.8715C9.56091 12.8321 9.5581 12.7958 9.55404 12.759V12.7587Z" fill="white"/>
<path d="M11.4236 11.8102C11.4195 11.7734 11.417 11.7356 11.4142 11.6993C11.413 11.6618 11.4108 11.6215 11.4058 11.5834C11.3805 11.4306 11.5905 11.5031 11.6736 11.5302C11.7648 11.5618 11.8451 11.6206 11.902 11.7002C11.9895 11.8246 11.9892 11.9956 11.9392 12.1343C11.8805 12.2956 11.7439 12.3665 11.5939 12.4349C11.5398 12.4612 11.4698 12.4634 11.4511 12.3915C11.4345 12.3277 11.4451 12.2568 11.4417 12.1918C11.4392 12.104 11.4336 12.0118 11.4314 11.9224C11.4314 11.884 11.4289 11.8474 11.4236 11.8102Z" fill="white"/>
<path d="M11.4805 13.0331C11.4777 12.9965 11.4739 12.9584 11.4714 12.9209C11.4705 12.8821 11.468 12.8431 11.4617 12.8046C11.4377 12.6521 11.6464 12.7243 11.7308 12.7518C11.8221 12.7834 11.9024 12.8421 11.958 12.9215C12.0455 13.0459 12.0452 13.2168 11.9952 13.3556C11.9361 13.5181 11.7999 13.5877 11.6511 13.6565C11.5958 13.6824 11.5258 13.6849 11.5083 13.6131C11.4927 13.5509 11.5024 13.4784 11.4999 13.4149C11.4961 13.3268 11.4917 13.2349 11.4883 13.1443C11.4871 13.1068 11.4842 13.0702 11.4802 13.0334L11.4805 13.0331Z" fill="white"/>
<path d="M10.3425 11.0127C10.3372 10.9756 10.3318 10.9387 10.3293 10.9009C10.3256 10.8627 10.3222 10.8224 10.3134 10.7846C10.2828 10.6334 10.4947 10.6959 10.5793 10.7209C10.6728 10.7477 10.7553 10.8031 10.815 10.8809C10.9072 11.0012 10.9147 11.1721 10.8703 11.3134C10.8184 11.4787 10.685 11.554 10.5387 11.6284C10.4843 11.6559 10.4153 11.6609 10.3934 11.5909C10.3753 11.5293 10.3825 11.4565 10.3775 11.3924C10.3697 11.3049 10.3606 11.2118 10.3553 11.1234C10.3528 11.0856 10.3472 11.0499 10.3418 11.0127H10.3425Z" fill="white"/>
<path d="M10.4273 12.2437C10.4232 12.2068 10.4207 12.169 10.4195 12.1315C10.417 12.0937 10.4148 12.0533 10.4085 12.0149C10.3845 11.8624 10.5932 11.9346 10.676 11.963C10.7685 11.9937 10.8488 12.0537 10.9032 12.1327C10.992 12.2574 10.9904 12.428 10.9404 12.5668C10.8813 12.7293 10.7451 12.799 10.5951 12.8674C10.5398 12.8933 10.4701 12.8946 10.4513 12.824C10.436 12.7605 10.4457 12.688 10.4432 12.6246C10.4407 12.5368 10.4351 12.4446 10.4329 12.3552C10.4341 12.3171 10.4313 12.2805 10.4276 12.2437H10.4273Z" fill="white"/>
<path d="M10.4775 13.5112C10.4734 13.4743 10.4709 13.4365 10.4684 13.399C10.4675 13.3602 10.465 13.3212 10.46 13.283C10.4347 13.1302 10.6447 13.2027 10.7278 13.2299C10.8203 13.2618 10.9006 13.3205 10.9562 13.3999C11.0437 13.5243 11.0422 13.6949 10.9922 13.8337C10.9331 13.9962 10.7968 14.0659 10.6481 14.1346C10.5931 14.1593 10.5218 14.1615 10.5053 14.0912C10.49 14.0277 10.4993 13.9565 10.4972 13.8918C10.4934 13.8037 10.4878 13.7115 10.4868 13.6224C10.4831 13.5843 10.4803 13.5477 10.4775 13.5115V13.5112Z" fill="white"/>
<path d="M12.2148 11.3571C12.2095 11.3202 12.2029 11.284 12.1989 11.2459C12.1964 11.2081 12.1904 11.1684 12.1814 11.1306C12.1467 10.9796 12.3607 11.0387 12.4461 11.0602C12.5386 11.0856 12.6226 11.1387 12.6842 11.2143C12.7792 11.334 12.7892 11.5043 12.7489 11.6449C12.7007 11.8112 12.5692 11.8893 12.4239 11.9662C12.3704 11.9949 12.3007 12.0027 12.2779 11.9324C12.2586 11.8706 12.2629 11.7984 12.2567 11.7343C12.2476 11.6465 12.2354 11.5552 12.2282 11.4652C12.2264 11.4302 12.2198 11.3931 12.2145 11.3571H12.2148Z" fill="white"/>
<path d="M12.3245 12.5852C12.3205 12.5484 12.3164 12.5118 12.3139 12.474C12.3114 12.4362 12.308 12.3959 12.3017 12.3584C12.2736 12.2062 12.4858 12.274 12.568 12.2999C12.662 12.3293 12.7427 12.3871 12.8011 12.4659C12.8917 12.5884 12.8939 12.7596 12.8449 12.8987C12.7895 13.0621 12.6542 13.1346 12.5074 13.2059C12.4517 13.2331 12.3817 13.2356 12.363 13.1649C12.3474 13.1027 12.3545 13.0296 12.3511 12.9659C12.347 12.879 12.3389 12.7862 12.3355 12.6968C12.333 12.659 12.3289 12.6221 12.3249 12.5856L12.3245 12.5852Z" fill="white"/>
<path d="M12.3995 13.8515C12.3955 13.8146 12.3914 13.7781 12.3889 13.7403C12.3864 13.7024 12.383 13.6621 12.3767 13.6246C12.3498 13.4728 12.5608 13.5403 12.643 13.5662C12.7358 13.5956 12.8164 13.6531 12.8748 13.7318C12.9655 13.8543 12.9677 14.0256 12.9211 14.1649C12.8658 14.3284 12.7302 14.4021 12.5823 14.4718C12.5283 14.4981 12.458 14.5015 12.4377 14.4321C12.4211 14.3684 12.4292 14.2968 12.4258 14.2331C12.4217 14.1462 12.4136 14.0534 12.4102 13.964C12.408 13.9249 12.4039 13.8884 12.3998 13.8515H12.3995Z" fill="white"/>
<path d="M7.94722 13.0415C7.50941 13.0905 7.10003 12.6437 7.04441 12.2059C7.03472 12.1334 7.03191 12.053 7.0291 11.9793C7.01066 11.3605 7.59503 10.9637 8.11191 11.2299C8.5266 11.4443 8.72347 12.1268 8.54285 12.5765C8.45753 12.7927 8.17285 13.0171 7.94691 13.0415H7.94722Z" fill="white"/>
<path d="M7.8851 12.574C7.66448 12.5983 7.45635 12.3721 7.42854 12.1505C7.42291 12.1146 7.4226 12.0737 7.42104 12.0362C7.41041 11.7233 7.70698 11.523 7.96979 11.6577C8.17885 11.7658 8.27791 12.1112 8.1876 12.338C8.14323 12.4483 7.99948 12.5615 7.8851 12.574Z" fill="#E7370A"/>
<path d="M5.42016 11.3343C5.29297 11.3224 5.16359 11.3524 5.03328 11.4234C4.63766 11.6443 4.46797 12.0462 4.39547 12.3446C4.24641 12.9612 4.36516 13.6984 4.69203 14.1787C4.84641 14.404 5.08641 14.5484 5.35172 14.5755C5.58453 14.5987 5.80516 14.5243 5.97359 14.3662C6.46297 13.9077 6.52547 12.9612 6.33484 12.3046C6.20734 11.8665 5.84391 11.3771 5.41984 11.3343H5.42016Z" fill="white"/>
<path d="M15.2677 7.49494C15.1464 7.429 14.8214 7.24712 14.7436 7.13087C14.5143 6.78869 14.9927 6.38306 15.2327 6.13306C15.498 5.85994 15.8168 5.5065 15.9555 5.13525C16.1521 4.60775 14.9233 4.76369 14.5983 4.73837C14.1964 4.70619 13.6543 4.66462 12.9611 4.45494C11.2768 3.94369 9.79457 3.54431 8.01113 3.73181C7.34957 3.80212 6.39644 3.99244 5.77363 4.23119C5.6205 4.28962 5.46801 4.35619 5.31988 4.42869C5.28269 4.44681 5.24488 4.46337 5.20613 4.48244C5.11519 4.52556 4.71113 4.74337 4.42988 5.08275C4.18644 5.37462 4.03113 5.69587 3.94926 5.97056C3.69176 6.854 3.83769 7.92931 4.31644 8.64712C4.55394 9.00525 4.95488 9.23619 5.38394 9.29806C5.61832 9.33181 5.77707 9.309 5.82082 9.309C6.08738 9.31212 6.35457 9.29212 6.61926 9.254C6.90113 9.21275 7.46613 9.10619 7.74207 9.03806C7.92863 8.99275 8.1005 8.96119 8.27238 8.93837C8.31613 8.93181 8.57363 8.85244 8.65425 8.80462C8.89738 8.65775 9.10207 8.43525 9.25207 8.204C9.31769 8.10306 9.37644 7.99712 9.42582 7.88775C9.49176 7.74087 9.53301 7.58337 9.55394 7.42462C9.57676 7.25587 9.57363 7.08337 9.58644 6.91369C9.59113 6.85931 9.59769 6.82087 9.66519 6.82337C9.72519 6.82525 9.76394 6.89369 9.79019 6.9415C9.88269 7.10431 9.92582 7.28369 9.9205 7.47275C9.91207 7.84712 9.85769 8.25744 9.653 8.58025C9.61238 8.64119 9.47269 8.74619 9.5505 8.83025C9.61519 8.90244 9.95613 8.894 9.98675 8.89494C10.3714 8.92337 10.7549 8.96962 11.1549 9.01681C11.9111 9.10462 12.6414 9.27587 13.4043 9.21994C14.0389 9.17369 14.6302 9.05837 15.1577 8.78994C15.3714 8.68087 15.7874 8.47306 15.9793 8.11931C16.1371 7.83056 15.5605 7.65494 15.2683 7.49494H15.2677Z" fill="#E7370A"/>
<path d="M8.2428 6.96026C7.77968 6.97714 7.37218 6.5012 7.33655 6.05964C7.32968 5.9862 7.33218 5.90589 7.33312 5.83151C7.34687 5.21151 7.98187 4.85714 8.51155 5.16058C8.93687 5.40433 9.10905 6.10058 8.89405 6.53714C8.79187 6.7487 8.48187 6.9512 8.24249 6.95995L8.2428 6.96026Z" fill="white"/>
<path d="M8.20424 6.52619C7.95174 6.53619 7.72893 6.27619 7.71018 6.03494C7.70674 5.99431 7.70799 5.95119 7.70862 5.90994C7.71612 5.57244 8.06236 5.37869 8.35236 5.54338C8.58455 5.67681 8.67799 6.05556 8.56205 6.29494C8.50393 6.41025 8.33455 6.52181 8.20393 6.52619H8.20424Z" fill="#E7370A"/>
<path d="M10.2331 5.48965C10.2294 5.45152 10.2256 5.41371 10.2231 5.37465C10.2209 5.33558 10.2191 5.29433 10.2116 5.25527C10.185 5.09715 10.4025 5.16965 10.4878 5.19746C10.5828 5.2284 10.6669 5.28933 10.7247 5.37058C10.8166 5.4984 10.8178 5.67465 10.7678 5.81871C10.7088 5.98777 10.5681 6.06027 10.4147 6.13308C10.3578 6.15996 10.2853 6.16308 10.2656 6.08965C10.2481 6.02433 10.2584 5.94933 10.255 5.88465C10.2503 5.79371 10.2441 5.69871 10.2413 5.6059C10.2413 5.56746 10.2366 5.52777 10.2328 5.48996L10.2331 5.48965Z" fill="white"/>
<path d="M10.3024 6.75213C10.2987 6.71401 10.2949 6.6762 10.2924 6.63713C10.2902 6.59807 10.2883 6.55682 10.2812 6.51682C10.253 6.35963 10.4705 6.43213 10.5571 6.46026C10.6521 6.4912 10.7349 6.55182 10.7952 6.63338C10.8871 6.7612 10.888 6.9387 10.8371 7.08245C10.778 7.25151 10.6374 7.32401 10.484 7.39682C10.4271 7.4237 10.3546 7.42682 10.3362 7.3537C10.3187 7.28838 10.3277 7.21338 10.3246 7.14713C10.3212 7.05651 10.3137 6.9612 10.3109 6.86838C10.3109 6.82995 10.3058 6.79151 10.3024 6.75245V6.75213Z" fill="white"/>
<path d="M12.2378 5.77372C12.234 5.73559 12.2303 5.69778 12.2278 5.65872C12.2256 5.61965 12.225 5.5784 12.2178 5.5384C12.1922 5.38028 12.4081 5.45528 12.495 5.4834C12.59 5.51559 12.6737 5.57653 12.7312 5.65872C12.8231 5.78778 12.8206 5.9634 12.7693 6.10684C12.7093 6.27434 12.5675 6.34684 12.4143 6.41809C12.3562 6.44465 12.284 6.44653 12.2656 6.3734C12.2481 6.30809 12.2597 6.2334 12.2575 6.16747C12.254 6.07684 12.2478 5.98184 12.2462 5.88903C12.244 5.84872 12.2403 5.8109 12.2378 5.77309V5.77372Z" fill="white"/>
<path d="M12.2954 7.03619C12.2904 6.99807 12.287 6.95869 12.2858 6.91994C12.2848 6.87994 12.2829 6.83963 12.277 6.79994C12.2504 6.64182 12.4673 6.71682 12.5529 6.74463C12.6479 6.77682 12.7301 6.83869 12.7892 6.91994C12.8798 7.04901 12.8798 7.22494 12.8273 7.36807C12.7673 7.53557 12.6264 7.60963 12.4711 7.67932C12.4142 7.70619 12.342 7.70807 12.3226 7.63338C12.3064 7.56838 12.3167 7.49338 12.3145 7.42869C12.3114 7.33682 12.3048 7.24307 12.3036 7.14901C12.302 7.11276 12.2998 7.07369 12.2961 7.03557L12.2954 7.03619Z" fill="white"/>
<path d="M11.12 4.94682C11.115 4.90869 11.1088 4.86994 11.1063 4.83213C11.1028 4.79276 11.0997 4.75119 11.091 4.71213C11.0588 4.55526 11.2778 4.62057 11.365 4.64619C11.461 4.67338 11.5466 4.73213 11.6072 4.81119C11.7038 4.93619 11.71 5.11213 11.665 5.25713C11.6119 5.42869 11.4741 5.50713 11.3222 5.58369C11.2663 5.61213 11.1931 5.61776 11.1722 5.54526C11.1531 5.48088 11.1597 5.40526 11.155 5.34026C11.1481 5.24901 11.1378 5.15432 11.1322 5.06213C11.13 5.02307 11.1238 4.98463 11.12 4.94651V4.94682Z" fill="white"/>
<path d="M11.2063 6.22027C11.2038 6.18246 11.1991 6.14309 11.1978 6.10434C11.1956 6.06527 11.1938 6.02402 11.1875 5.98527C11.1619 5.82715 11.3778 5.90215 11.4647 5.93027C11.5597 5.96246 11.6431 6.02465 11.7009 6.10684C11.7916 6.23465 11.7903 6.41152 11.7391 6.55496C11.6791 6.72246 11.5372 6.79496 11.3828 6.86496C11.3259 6.89184 11.2538 6.89371 11.2341 6.82027C11.2178 6.75527 11.2281 6.68027 11.2259 6.61434C11.2225 6.52371 11.2178 6.42777 11.2159 6.33621C11.2138 6.2959 11.21 6.25809 11.2063 6.21996V6.22027Z" fill="white"/>
<path d="M11.2582 7.53057C11.2544 7.49245 11.2507 7.45464 11.2497 7.41464C11.2488 7.37589 11.2457 7.33432 11.2397 7.29432C11.2141 7.1362 11.4313 7.21151 11.5179 7.24089C11.6129 7.27307 11.6951 7.33495 11.7529 7.4162C11.8447 7.54526 11.8432 7.72214 11.791 7.86432C11.7294 8.03276 11.5891 8.10432 11.4347 8.17557C11.3779 8.20245 11.3057 8.20307 11.2872 8.12995C11.271 8.06495 11.2826 7.99026 11.2791 7.92401C11.2757 7.83339 11.271 7.73745 11.2679 7.64557C11.2641 7.60745 11.2616 7.56995 11.2579 7.53057H11.2582Z" fill="white"/>
<path d="M13.0541 5.30371C13.0491 5.26559 13.0428 5.22684 13.0378 5.18871C13.0344 5.14934 13.0284 5.1084 13.0197 5.06934C12.9847 4.9134 13.2063 4.97402 13.2925 4.99684C13.39 5.02309 13.4747 5.07902 13.5384 5.15621C13.6378 5.27934 13.6478 5.4559 13.6053 5.60121C13.555 5.77184 13.4188 5.85465 13.27 5.93465C13.215 5.96465 13.1419 5.97121 13.1191 5.89996C13.0988 5.83559 13.1038 5.76059 13.0981 5.69527C13.0884 5.60465 13.0769 5.50996 13.0688 5.4184C13.0653 5.37902 13.0603 5.3409 13.0538 5.30371H13.0541Z" fill="white"/>
<path d="M13.1689 6.57403C13.1639 6.5359 13.1589 6.49747 13.1568 6.4584C13.1546 6.41934 13.1514 6.37778 13.1439 6.33903C13.1158 6.18184 13.3339 6.25215 13.4205 6.27997C13.5158 6.30965 13.5999 6.36934 13.6593 6.45059C13.7514 6.57747 13.7552 6.75403 13.7064 6.89809C13.6499 7.06747 13.5102 7.14184 13.3564 7.21559C13.2996 7.24247 13.2268 7.24684 13.2071 7.1734C13.1896 7.10809 13.1983 7.03434 13.1939 6.96778C13.1893 6.87684 13.1818 6.78184 13.1777 6.68965C13.1768 6.64965 13.173 6.61153 13.1693 6.57372L13.1689 6.57403Z" fill="white"/>
<path d="M13.2456 7.88402C13.2406 7.84589 13.2372 7.80652 13.2344 7.7687C13.2322 7.72964 13.2291 7.68808 13.2216 7.64933C13.1935 7.49214 13.4116 7.56214 13.4969 7.58995C13.5935 7.61995 13.6763 7.67933 13.7366 7.76089C13.83 7.88777 13.8325 8.06433 13.7838 8.20839C13.726 8.37777 13.586 8.45308 13.4338 8.52589C13.3781 8.55308 13.3041 8.55714 13.2844 8.4837C13.2669 8.41839 13.276 8.34339 13.2725 8.27839C13.2678 8.18745 13.2603 8.09245 13.255 7.99995C13.2531 7.95839 13.2491 7.92183 13.2453 7.8837L13.2456 7.88402Z" fill="white"/>
<path d="M5.57572 5.22462C5.42478 5.21556 5.27384 5.25024 5.12509 5.33024C4.67634 5.57243 4.49134 6.00587 4.41415 6.32649C4.25853 6.98056 4.40603 7.76056 4.78134 8.26743C4.96728 8.51993 5.2679 8.68274 5.58447 8.70399C5.85447 8.72056 6.10822 8.63524 6.29915 8.46212C6.84197 7.96712 6.89697 6.96368 6.67259 6.27087C6.51603 5.78681 6.07853 5.25712 5.5754 5.22462H5.57572Z" fill="white"/>
</g>
<defs>
<clipPath id="clip0_2008_666">
<rect width="16" height="16" fill="white" transform="translate(0.428574 0.562752)"/>
</clipPath>
</defs>
</svg>
