<svg width="16" height="16" viewBox="0 0 16 16" fill="none" xmlns="http://www.w3.org/2000/svg">
<g clip-path="url(#clip0_107_3574)">
<path d="M3.65898 1.85661C3.60929 2.20536 3.35585 2.56317 3.35585 2.56317C3.28398 2.66599 3.16304 2.66786 3.0871 2.56661L2.70929 2.06286C2.63335 1.96192 2.59398 1.83036 2.61773 1.77005L2.62648 1.70786L2.63523 1.64567C2.62929 1.5813 2.70398 1.4663 2.80523 1.39036L3.31023 1.01255C3.40991 0.936612 3.5246 0.971924 3.56585 1.09099C3.56585 1.09099 3.70866 1.50536 3.65866 1.85661H3.65898ZM1.81304 0.864737C1.88773 0.964424 2.00398 1.04067 2.06866 1.03349L2.1296 1.04224L2.19179 1.05099C2.25179 1.07599 2.38335 1.03505 2.48429 0.960674L2.98804 0.582862C3.08773 0.506924 3.08616 0.385987 2.98335 0.314112C2.98335 0.314112 2.62554 0.060987 2.27554 0.010987C1.92679 -0.0387005 1.51241 0.104112 1.51241 0.104112C1.3946 0.145674 1.36023 0.261612 1.43491 0.36255L1.81304 0.865049V0.864737ZM2.27991 2.38286C2.20398 2.28317 2.08898 2.20692 2.02429 2.21411L1.9621 2.20536L1.90116 2.19661C1.84116 2.17161 1.7096 2.21255 1.60866 2.28692L1.10616 2.66505C1.00523 2.74099 1.00679 2.86192 1.1096 2.9338C1.1096 2.9338 1.46616 3.18692 1.81491 3.23661C2.16491 3.28661 2.57929 3.1438 2.57929 3.1438C2.69804 3.10349 2.73366 2.98786 2.65804 2.88692L2.28023 2.38317L2.27991 2.38286ZM1.46491 1.54067L1.47366 1.47849C1.49866 1.41849 1.45898 1.28692 1.38335 1.18599L1.00648 0.683487C0.930538 0.583799 0.8096 0.584112 0.736475 0.686924C0.736475 0.686924 0.48335 1.04474 0.43335 1.39349C0.383663 1.74224 0.526475 2.15661 0.526475 2.15661C0.568038 2.27567 0.683663 2.3113 0.7846 2.23536L1.2871 1.85724C1.38679 1.78255 1.46304 1.6663 1.45585 1.60161C1.45585 1.60161 1.45877 1.5813 1.4646 1.54067H1.46491ZM2.30616 3.72974C2.27991 3.70942 2.23335 3.73192 2.2046 3.73692C2.09929 3.7538 1.99023 3.75192 1.88335 3.73536C1.83241 3.72692 1.7821 3.71442 1.73366 3.6988C1.70335 3.68817 1.65366 3.67224 1.65304 3.72161C1.65241 3.72661 1.65304 3.73161 1.65335 3.73692C1.65398 3.74974 1.65241 3.76224 1.65179 3.77474C1.65179 3.81161 1.65148 3.84849 1.65116 3.88536C1.65054 3.93349 1.64991 3.98317 1.64929 4.0313C1.64835 4.09099 1.64866 4.15067 1.64773 4.21036C1.64773 4.28036 1.64679 4.35005 1.64679 4.4213C1.64429 4.50099 1.64554 4.5813 1.64554 4.6613C1.64429 4.75005 1.64304 4.8388 1.64304 4.92786C1.64179 5.02567 1.6421 5.12224 1.64085 5.21974C1.63991 5.32505 1.64023 5.42942 1.63773 5.53442C1.6371 5.6463 1.63616 5.75911 1.63554 5.87099C1.63523 5.98911 1.63335 6.10849 1.63304 6.22661C1.63179 6.35099 1.63054 6.47536 1.63085 6.5988C1.63023 6.72817 1.62929 6.85786 1.62898 6.98599C1.62773 7.11911 1.62741 7.2538 1.62491 7.38692C1.62429 7.52411 1.62398 7.6613 1.6221 7.79817C1.62116 7.93786 1.62023 8.0788 1.61929 8.21849C1.61804 8.36067 1.61648 8.50411 1.61648 8.6463C1.61491 8.78974 1.6146 8.93442 1.61335 9.07786C1.61179 9.22255 1.61023 9.36724 1.6096 9.51318C1.60773 9.65911 1.60741 9.8038 1.60585 9.94849C1.60554 10.0932 1.60523 10.2382 1.60366 10.3829C1.6021 10.5263 1.60085 10.6697 1.59929 10.8132C1.59804 10.9554 1.59835 11.0963 1.5971 11.2385C1.59616 11.3782 1.59398 11.5175 1.59304 11.6572C1.59273 11.7932 1.59116 11.9288 1.59054 12.066C1.5896 12.1979 1.58835 12.33 1.58741 12.4619C1.58679 12.5904 1.58648 12.7172 1.58585 12.8457C1.58366 12.9685 1.58398 13.0907 1.58398 13.2141C1.58241 13.3307 1.58241 13.4479 1.58085 13.5644C1.58023 13.675 1.57991 13.7841 1.57804 13.8944C1.57741 13.9972 1.57648 14.1 1.57585 14.2029C1.57491 14.2982 1.57429 14.3919 1.57335 14.4872C1.57241 14.5735 1.57273 14.66 1.57054 14.746C1.5696 14.8235 1.57023 14.8997 1.56929 14.9772C1.56866 15.0444 1.56804 15.1104 1.56741 15.1779C1.56679 15.235 1.56648 15.291 1.56616 15.3466C1.56616 15.391 1.56616 15.4369 1.5646 15.481C1.56491 15.5141 1.56398 15.5469 1.5646 15.58C1.56429 15.6004 1.56398 15.6207 1.5646 15.641C1.56491 15.6472 1.56398 15.6547 1.56429 15.6613C1.56429 15.8316 1.68898 15.9725 1.85335 15.9963C1.86835 15.9985 1.88335 15.9994 1.89741 16C2.08273 16.001 2.23491 15.8525 2.23491 15.6669L2.23616 15.6582C2.23585 15.6429 2.23679 15.6266 2.23679 15.61C2.23585 15.5807 2.23741 15.5529 2.23773 15.5238C2.23866 15.4819 2.23804 15.4413 2.23898 15.3994C2.23898 15.346 2.23991 15.2941 2.23991 15.2407C2.23898 15.1769 2.24054 15.1122 2.24054 15.0488C2.24116 14.9738 2.24148 14.9004 2.2421 14.8254C2.24273 14.7416 2.24335 14.6566 2.24523 14.5729C2.2446 14.48 2.24616 14.3875 2.24679 14.2947C2.24741 14.1932 2.24773 14.0916 2.24835 13.9913C2.24991 13.8835 2.25148 13.7744 2.25179 13.665C2.25304 13.5494 2.25304 13.4338 2.25273 13.3194C2.25491 13.1979 2.25585 13.076 2.25679 12.9541C2.2571 12.8269 2.25866 12.7004 2.25898 12.5732C2.25991 12.4413 2.26116 12.3091 2.2621 12.1785C2.26241 12.0425 2.26398 11.9069 2.26554 11.771C2.26648 11.6313 2.2671 11.4929 2.26929 11.3535C2.26929 11.2113 2.27023 11.0704 2.27148 10.9282C2.27304 10.7847 2.2746 10.64 2.2746 10.4966C2.27491 10.3519 2.27679 10.206 2.2771 10.061C2.27898 9.91505 2.27929 9.76911 2.28116 9.62442C2.28304 9.47849 2.28335 9.33255 2.28398 9.18755C2.28554 9.04286 2.28585 8.89817 2.28741 8.75349C2.28741 8.61005 2.28898 8.46661 2.29054 8.32317C2.29148 8.18224 2.29273 8.0413 2.29366 7.90036C2.29429 7.76192 2.29648 7.6238 2.2971 7.48536C2.2971 7.35067 2.29866 7.2163 2.30023 7.08161C2.30116 6.95099 2.30179 6.8213 2.30273 6.69067C2.30273 6.56474 2.30429 6.43942 2.30585 6.3138C2.30773 6.19349 2.30835 6.07411 2.30898 5.95442C2.30991 5.8413 2.31085 5.72724 2.31179 5.61411C2.31304 5.50755 2.31398 5.40224 2.31429 5.29411C2.31429 5.19505 2.31585 5.09724 2.31585 4.99817C2.31585 4.90786 2.31741 4.81786 2.31773 4.72786C2.31929 4.64661 2.31929 4.56536 2.3196 4.48411C2.3196 4.41286 2.32085 4.34192 2.32116 4.26942C2.32116 4.20849 2.3221 4.14755 2.32179 4.08661C2.32241 4.03724 2.3221 3.9863 2.32273 3.93692C2.32304 3.8988 2.32335 3.86067 2.32366 3.82255C2.32429 3.8088 2.32366 3.79474 2.32366 3.77942C2.32429 3.76567 2.32491 3.75286 2.31648 3.74036C2.31335 3.73599 2.31116 3.73317 2.30648 3.73005L2.30616 3.72974Z" fill="white"/>
<path d="M14.3623 13.1479C14.2951 13.0804 14.1501 13.0057 14.0167 12.941C13.9654 12.9151 13.9164 12.8923 13.8736 12.8682C13.7801 12.817 13.4858 12.6298 13.3642 12.4457C13.0154 11.916 13.6045 11.2507 13.7998 11.031C14.0151 10.7873 14.1386 10.6057 14.2201 10.2938C14.2286 10.2582 14.2211 10.2195 14.2017 10.1885C14.1823 10.1576 14.1495 10.1354 14.1126 10.1279C13.8883 10.082 13.5364 10.127 13.3042 10.1567C13.2001 10.1701 13.117 10.1801 13.0511 10.1832C12.6386 10.1976 11.8186 10.1317 11.4304 10.0523C11.2676 10.0192 11.1126 9.98603 10.9639 9.95446L10.8126 9.92228C10.6379 9.8854 10.4692 9.84946 10.3064 9.81634C9.37951 9.62696 8.50607 9.47665 7.21013 9.56603C6.71763 9.60009 6.01669 9.70603 5.46076 9.85696C5.34232 9.88915 4.71701 10.0851 4.38388 10.2685C3.83982 10.5682 3.59669 11.1104 3.49263 11.5195C3.27669 12.3626 3.42638 13.377 3.86888 14.0438C4.07701 14.3573 4.40701 14.5454 4.76763 14.6038C4.97388 14.637 5.12857 14.616 5.24044 14.6145C5.69826 14.6054 6.16169 14.5242 6.64513 14.4395C6.95544 14.3848 7.10576 14.3538 7.41294 14.3204C7.42763 14.3182 7.56763 14.2917 7.61451 14.277C7.72826 14.241 7.83169 14.1879 7.92232 14.0907C8.11857 13.8842 8.21451 13.5907 8.28294 13.3195C8.30357 13.2376 8.32794 13.0423 8.46169 13.1235C8.50294 13.1485 8.53982 13.2192 8.55513 13.2632C8.62013 13.4345 8.63638 13.6267 8.61201 13.8079C8.60013 13.8979 8.57701 13.9857 8.53951 14.0679C8.51544 14.122 8.43638 14.2138 8.51044 14.261C8.53419 14.276 8.55857 14.2707 8.58701 14.2701C8.66107 14.266 8.73576 14.2645 8.81044 14.2645C9.31982 14.266 9.98263 14.3473 9.98263 14.3473C10.7704 14.4198 11.587 14.4954 12.3551 14.3442C12.8636 14.2438 13.4245 14.0248 13.9767 13.7113C14.167 13.6026 14.3395 13.431 14.3958 13.2948C14.4126 13.2442 14.4011 13.1867 14.3629 13.1482L14.3623 13.1479Z" fill="white"/>
<path d="M9.05789 10.9747C9.05383 10.9378 9.04977 10.9012 9.04852 10.8637C9.04758 10.825 9.04383 10.7856 9.03727 10.7484C9.01195 10.5956 9.22102 10.6665 9.30539 10.6928C9.39695 10.7231 9.47852 10.7822 9.53445 10.8603C9.6232 10.985 9.62445 11.1547 9.57539 11.2937C9.51883 11.4568 9.38383 11.5281 9.23445 11.5978C9.17914 11.6237 9.10914 11.6262 9.09164 11.5556C9.07508 11.4918 9.0832 11.4203 9.08102 11.3568C9.07727 11.2687 9.07039 11.1762 9.06695 11.0868C9.06477 11.0478 9.06195 11.0112 9.05789 10.9747Z" fill="#341D1A"/>
<path d="M9.12547 12.1955C9.1214 12.1586 9.11609 12.1217 9.11609 12.0845C9.11515 12.0458 9.1114 12.0064 9.10484 11.9692C9.07828 11.8161 9.28859 11.8874 9.37297 11.9136C9.46453 11.9439 9.54609 12.003 9.60203 12.0811C9.69078 12.2058 9.69078 12.3755 9.64297 12.5145C9.58515 12.6774 9.45015 12.7486 9.30203 12.8186C9.24672 12.8445 9.17672 12.847 9.15797 12.7764C9.1414 12.7127 9.15078 12.6414 9.14859 12.578C9.14484 12.4899 9.13797 12.3974 9.13578 12.3083C9.13234 12.2689 9.12953 12.2327 9.12547 12.1958V12.1955Z" fill="#341D1A"/>
<path d="M10.995 11.2469C10.9909 11.21 10.9884 11.1722 10.9856 11.136C10.9844 11.0985 10.9822 11.0582 10.9772 11.02C10.9519 10.8672 11.1619 10.9397 11.245 10.9669C11.3363 10.9985 11.4166 11.0572 11.4735 11.1369C11.561 11.2613 11.5606 11.4322 11.5106 11.571C11.4519 11.7322 11.3153 11.8032 11.1653 11.8716C11.1113 11.8978 11.0413 11.9 11.0225 11.8282C11.0059 11.7644 11.0166 11.6935 11.0131 11.6285C11.0106 11.5407 11.005 11.4485 11.0028 11.3591C11.0028 11.3207 11.0003 11.2841 10.995 11.2469Z" fill="#341D1A"/>
<path d="M11.0519 12.47C11.0491 12.4334 11.0454 12.3953 11.0429 12.3578C11.0419 12.3191 11.0394 12.28 11.0332 12.2416C11.0091 12.0891 11.2179 12.1612 11.3022 12.1887C11.3935 12.2203 11.4738 12.2791 11.5294 12.3584C11.6169 12.4828 11.6166 12.6537 11.5666 12.7925C11.5075 12.955 11.3713 13.0247 11.2225 13.0934C11.1672 13.1194 11.0972 13.1219 11.0797 13.05C11.0641 12.9878 11.0738 12.9153 11.0713 12.8519C11.0675 12.7637 11.0632 12.6719 11.0597 12.5812C11.0585 12.5437 11.0557 12.5072 11.0516 12.4703L11.0519 12.47Z" fill="#341D1A"/>
<path d="M9.9139 10.4496C9.90859 10.4124 9.90327 10.3756 9.90077 10.3378C9.89702 10.2996 9.89359 10.2593 9.88484 10.2215C9.85421 10.0703 10.0661 10.1328 10.1508 10.1578C10.2442 10.1846 10.3267 10.2399 10.3864 10.3178C10.4786 10.4381 10.4861 10.609 10.4417 10.7503C10.3898 10.9156 10.2564 10.9909 10.1102 11.0653C10.0558 11.0928 9.98671 11.0978 9.96484 11.0278C9.94671 10.9662 9.9539 10.8934 9.9489 10.8293C9.94109 10.7418 9.93203 10.6487 9.92671 10.5603C9.92421 10.5224 9.91859 10.4868 9.91327 10.4496H9.9139Z" fill="#341D1A"/>
<path d="M9.9987 11.6807C9.99463 11.6438 9.99213 11.606 9.99088 11.5685C9.98838 11.5307 9.9862 11.4903 9.97995 11.4519C9.95588 11.2994 10.1646 11.3716 10.2474 11.4C10.3399 11.4307 10.4203 11.4907 10.4746 11.5697C10.5634 11.6944 10.5618 11.865 10.5118 12.0038C10.4528 12.1663 10.3165 12.236 10.1665 12.3044C10.1112 12.3303 10.0415 12.3316 10.0228 12.261C10.0074 12.1975 10.0171 12.125 10.0146 12.0616C10.0121 11.9738 10.0065 11.8816 10.0043 11.7922C10.0056 11.7541 10.0028 11.7175 9.99901 11.6807H9.9987Z" fill="#341D1A"/>
<path d="M10.0489 12.9479C10.0448 12.911 10.0423 12.8732 10.0398 12.8357C10.0389 12.7969 10.0364 12.7579 10.0314 12.7197C10.0061 12.5669 10.2161 12.6394 10.2992 12.6666C10.3917 12.6985 10.472 12.7572 10.5276 12.8366C10.6151 12.961 10.6136 13.1316 10.5636 13.2704C10.5045 13.4329 10.3683 13.5026 10.2195 13.5713C10.1645 13.596 10.0933 13.5982 10.0767 13.5279C10.0614 13.4644 10.0708 13.3932 10.0686 13.3285C10.0648 13.2404 10.0592 13.1482 10.0583 13.0591C10.0545 13.021 10.0517 12.9844 10.0489 12.9482V12.9479Z" fill="#341D1A"/>
<path d="M11.7862 10.7942C11.7809 10.7574 11.7744 10.7211 11.7703 10.683C11.7678 10.6452 11.7619 10.6055 11.7528 10.5677C11.7181 10.4167 11.9322 10.4758 12.0175 10.4974C12.11 10.5227 12.194 10.5758 12.2556 10.6514C12.3506 10.7711 12.3606 10.9414 12.3203 11.0821C12.2722 11.2483 12.1406 11.3264 11.9953 11.4033C11.9419 11.4321 11.8722 11.4399 11.8494 11.3696C11.83 11.3077 11.8344 11.2355 11.8281 11.1714C11.819 11.0836 11.8069 10.9924 11.7997 10.9024C11.7978 10.8674 11.7912 10.8302 11.7859 10.7942H11.7862Z" fill="#341D1A"/>
<path d="M11.896 12.0222C11.8919 11.9853 11.8878 11.9487 11.8853 11.9109C11.8828 11.8731 11.8794 11.8328 11.8732 11.7953C11.845 11.6431 12.0572 11.7109 12.1394 11.7368C12.2335 11.7662 12.3141 11.824 12.3725 11.9028C12.4632 12.0253 12.4653 12.1965 12.4163 12.3356C12.361 12.499 12.2257 12.5715 12.0788 12.6428C12.0232 12.67 11.9532 12.6725 11.9344 12.6018C11.9188 12.5397 11.926 12.4665 11.9225 12.4028C11.9185 12.3159 11.9103 12.2231 11.9069 12.1337C11.9044 12.0959 11.9003 12.059 11.8963 12.0225L11.896 12.0222Z" fill="#341D1A"/>
<path d="M11.971 13.2886C11.9669 13.2518 11.9628 13.2152 11.9603 13.1774C11.9578 13.1396 11.9544 13.0993 11.9481 13.0618C11.9213 12.9099 12.1322 12.9774 12.2144 13.0033C12.3072 13.0327 12.3878 13.0902 12.4463 13.1689C12.5369 13.2914 12.5391 13.4627 12.4925 13.6021C12.4372 13.7655 12.3016 13.8393 12.1538 13.9089C12.0997 13.9352 12.0294 13.9386 12.0091 13.8693C11.9925 13.8055 12.0006 13.7339 11.9972 13.6702C11.9931 13.5833 11.985 13.4905 11.9816 13.4011C11.9794 13.3621 11.9753 13.3255 11.9713 13.2886H11.971Z" fill="#341D1A"/>
<path d="M7.51865 12.4782C7.08084 12.5273 6.67146 12.0804 6.61584 11.6426C6.60615 11.5701 6.60334 11.4898 6.60052 11.4161C6.58209 10.7973 7.16646 10.4004 7.68334 10.6667C8.09802 10.8811 8.2949 11.5636 8.11427 12.0132C8.02896 12.2295 7.74427 12.4539 7.51834 12.4782H7.51865Z" fill="#341D1A"/>
<path d="M7.45653 12.0106C7.2359 12.035 7.02778 11.8088 6.99997 11.5872C6.99434 11.5513 6.99403 11.5103 6.99246 11.4728C6.98184 11.16 7.2784 10.9597 7.54121 11.0944C7.75028 11.2025 7.84934 11.5478 7.75903 11.7747C7.71465 11.885 7.5709 11.9981 7.45653 12.0106Z" fill="white"/>
<path d="M4.99158 10.7711C4.8644 10.7592 4.73502 10.7892 4.60471 10.8601C4.20908 11.0811 4.0394 11.483 3.9669 11.7814C3.81783 12.398 3.93658 13.1351 4.26346 13.6155C4.41783 13.8408 4.65783 13.9851 4.92315 14.0123C5.15596 14.0355 5.37658 13.9611 5.54502 13.803C6.0344 13.3445 6.0969 12.398 5.90627 11.7414C5.77877 11.3033 5.41533 10.8139 4.99127 10.7711H4.99158Z" fill="#341D1A"/>
<path d="M14.8391 6.93228C14.7179 6.86634 14.3929 6.68446 14.3151 6.56821C14.0857 6.22603 14.5641 5.8204 14.8041 5.5704C15.0694 5.29728 15.3882 4.94384 15.5269 4.57259C15.7235 4.04509 14.4947 4.20103 14.1697 4.17571C13.7679 4.14353 13.2257 4.10196 12.5326 3.89228C10.8482 3.38103 9.36599 2.98165 7.58256 3.16915C6.92099 3.23946 5.96787 3.42978 5.34506 3.66853C5.19193 3.72696 5.03943 3.79353 4.89131 3.86603C4.85412 3.88415 4.81631 3.90071 4.77756 3.91978C4.68662 3.9629 4.28256 4.18071 4.00131 4.52009C3.75787 4.81196 3.60256 5.13321 3.52068 5.4079C3.26318 6.29134 3.40912 7.36665 3.88787 8.08446C4.12537 8.44259 4.52631 8.67353 4.95537 8.7354C5.18974 8.76915 5.34849 8.74634 5.39224 8.74634C5.65881 8.74946 5.92599 8.72946 6.19068 8.69134C6.47256 8.65009 7.03756 8.54353 7.31349 8.4754C7.50006 8.43009 7.67193 8.39853 7.84381 8.37571C7.88756 8.36915 8.14506 8.28978 8.22568 8.24196C8.46881 8.09509 8.67349 7.87259 8.82349 7.64134C8.88912 7.5404 8.94787 7.43446 8.99724 7.32509C9.06318 7.17821 9.10443 7.02071 9.12537 6.86196C9.14818 6.69321 9.14506 6.52071 9.15787 6.35103C9.16256 6.29665 9.16912 6.25821 9.23662 6.26071C9.29662 6.26259 9.33537 6.33103 9.36162 6.37884C9.45412 6.54165 9.49724 6.72103 9.49193 6.91009C9.48349 7.28446 9.42912 7.69478 9.22443 8.01759C9.18381 8.07853 9.04412 8.18353 9.12193 8.26759C9.18662 8.33978 9.52756 8.33134 9.55818 8.33228C9.94287 8.36071 10.3263 8.40696 10.7263 8.45415C11.4826 8.54196 12.2129 8.71321 12.9757 8.65728C13.6104 8.61103 14.2016 8.49571 14.7291 8.22728C14.9429 8.11821 15.3588 7.9104 15.5507 7.55665C15.7085 7.2679 15.1319 7.09228 14.8397 6.93228H14.8391Z" fill="white"/>
<path d="M7.81423 6.39736C7.3511 6.41423 6.9436 5.9383 6.90798 5.49673C6.9011 5.4233 6.9036 5.34298 6.90454 5.26861C6.91829 4.64861 7.55329 4.29423 8.08298 4.59767C8.50829 4.84142 8.68048 5.53767 8.46548 5.97423C8.36329 6.1858 8.05329 6.3883 7.81392 6.39705L7.81423 6.39736Z" fill="#341D1A"/>
<path d="M7.77567 5.96338C7.52317 5.97338 7.30035 5.71338 7.2816 5.47213C7.27817 5.4315 7.27942 5.38838 7.28004 5.34713C7.28754 5.00963 7.63379 4.81588 7.92379 4.98056C8.15598 5.114 8.24942 5.49275 8.13348 5.73213C8.07535 5.84744 7.90598 5.959 7.77535 5.96338H7.77567Z" fill="white"/>
<path d="M9.80456 4.92686C9.80081 4.88874 9.79706 4.85093 9.79456 4.81186C9.79237 4.7728 9.79049 4.73155 9.78299 4.69249C9.75643 4.53436 9.97393 4.60686 10.0592 4.63468C10.1542 4.66561 10.2383 4.72655 10.2961 4.8078C10.388 4.93561 10.3892 5.11186 10.3392 5.25593C10.2802 5.42499 10.1396 5.49749 9.98612 5.5703C9.92924 5.59718 9.85675 5.6003 9.83706 5.52686C9.81956 5.46155 9.82987 5.38655 9.82643 5.32186C9.82175 5.23093 9.8155 5.13593 9.81268 5.04311C9.81268 5.00468 9.808 4.96499 9.80425 4.92718L9.80456 4.92686Z" fill="#341D1A"/>
<path d="M9.87384 6.18917C9.87009 6.15104 9.86634 6.11323 9.86384 6.07417C9.86165 6.03511 9.85978 5.99386 9.85259 5.95386C9.82446 5.79667 10.042 5.86917 10.1285 5.89729C10.2235 5.92823 10.3063 5.98886 10.3667 6.07042C10.4585 6.19823 10.4595 6.37573 10.4085 6.51948C10.3495 6.68854 10.2088 6.76104 10.0554 6.83386C9.99853 6.86073 9.92603 6.86386 9.90759 6.79073C9.89009 6.72542 9.89915 6.65042 9.89603 6.58417C9.89259 6.49354 9.88509 6.39823 9.88228 6.30542C9.88228 6.26698 9.87728 6.22854 9.87384 6.18948V6.18917Z" fill="#341D1A"/>
<path d="M11.8092 5.21078C11.8055 5.17266 11.8017 5.13484 11.7992 5.09578C11.797 5.05672 11.7964 5.01547 11.7892 4.97547C11.7636 4.81734 11.9795 4.89234 12.0664 4.92047C12.1614 4.95266 12.2451 5.01359 12.3026 5.09578C12.3945 5.22484 12.392 5.40047 12.3408 5.54391C12.2808 5.71141 12.1389 5.78391 11.9858 5.85516C11.9276 5.88172 11.8555 5.88359 11.837 5.81047C11.8195 5.74516 11.8311 5.67047 11.8289 5.60453C11.8255 5.51391 11.8192 5.41891 11.8176 5.32609C11.8155 5.28578 11.8117 5.24797 11.8092 5.21016V5.21078Z" fill="#341D1A"/>
<path d="M11.8669 6.47347C11.8619 6.43535 11.8584 6.39597 11.8572 6.35722C11.8562 6.31722 11.8544 6.27691 11.8484 6.23722C11.8219 6.0791 12.0387 6.1541 12.1244 6.18191C12.2194 6.2141 12.3016 6.27597 12.3606 6.35722C12.4512 6.48628 12.4512 6.66222 12.3987 6.80535C12.3387 6.97285 12.1978 7.04691 12.0425 7.1166C11.9856 7.14347 11.9134 7.14535 11.8941 7.07066C11.8778 7.00566 11.8881 6.93066 11.8859 6.86597C11.8828 6.7741 11.8762 6.68035 11.875 6.58628C11.8734 6.55003 11.8712 6.51097 11.8675 6.47285L11.8669 6.47347Z" fill="#341D1A"/>
<path d="M10.6914 4.38395C10.6864 4.34582 10.6802 4.30707 10.6777 4.26926C10.6743 4.22988 10.6711 4.18832 10.6624 4.14926C10.6302 3.99238 10.8493 4.0577 10.9364 4.08332C11.0324 4.11051 11.118 4.16926 11.1786 4.24832C11.2752 4.37332 11.2814 4.54926 11.2364 4.69426C11.1833 4.86582 11.0455 4.94426 10.8936 5.02082C10.8377 5.04926 10.7646 5.05488 10.7436 4.98238C10.7246 4.91801 10.7311 4.84238 10.7264 4.77738C10.7196 4.68613 10.7093 4.59145 10.7036 4.49926C10.7014 4.4602 10.6952 4.42176 10.6914 4.38363V4.38395Z" fill="#341D1A"/>
<path d="M10.7777 5.65725C10.7752 5.61943 10.7705 5.58006 10.7692 5.54131C10.7671 5.50225 10.7652 5.461 10.7589 5.42225C10.7333 5.26412 10.9492 5.33912 11.0361 5.36725C11.1311 5.39943 11.2146 5.46162 11.2724 5.54381C11.363 5.67162 11.3617 5.8485 11.3105 5.99193C11.2505 6.15943 11.1086 6.23193 10.9542 6.30193C10.8974 6.32881 10.8252 6.33068 10.8055 6.25725C10.7892 6.19225 10.7996 6.11725 10.7974 6.05131C10.7939 5.96068 10.7892 5.86475 10.7874 5.77318C10.7852 5.73287 10.7814 5.69506 10.7777 5.65693V5.65725Z" fill="#341D1A"/>
<path d="M10.8296 6.96779C10.8259 6.92967 10.8221 6.89185 10.8212 6.85185C10.8202 6.8131 10.8171 6.77154 10.8112 6.73154C10.7855 6.57342 11.0027 6.64873 11.0893 6.6781C11.1843 6.71029 11.2665 6.77217 11.3243 6.85342C11.4162 6.98248 11.4146 7.15935 11.3624 7.30154C11.3009 7.46998 11.1605 7.54154 11.0062 7.61279C10.9493 7.63967 10.8771 7.64029 10.8587 7.56717C10.8424 7.50217 10.854 7.42748 10.8505 7.36123C10.8471 7.2706 10.8424 7.17467 10.8393 7.08279C10.8355 7.04467 10.833 7.00717 10.8293 6.96779H10.8296Z" fill="#341D1A"/>
<path d="M12.6255 4.74105C12.6205 4.70293 12.6142 4.66418 12.6092 4.62605C12.6058 4.58668 12.5999 4.54574 12.5911 4.50668C12.5561 4.35074 12.7777 4.41136 12.8639 4.43418C12.9614 4.46043 13.0461 4.51636 13.1099 4.59355C13.2092 4.71668 13.2192 4.89324 13.1767 5.03855C13.1264 5.20918 12.9902 5.29199 12.8414 5.37199C12.7864 5.40199 12.7133 5.40855 12.6905 5.3373C12.6702 5.27293 12.6752 5.19793 12.6696 5.13261C12.6599 5.04199 12.6483 4.9473 12.6402 4.85574C12.6367 4.81636 12.6317 4.77824 12.6252 4.74105H12.6255Z" fill="#341D1A"/>
<path d="M12.7404 6.01122C12.7354 5.97309 12.7304 5.93465 12.7282 5.89559C12.726 5.85653 12.7229 5.81497 12.7154 5.77622C12.6873 5.61903 12.9054 5.68934 12.9919 5.71715C13.0872 5.74684 13.1713 5.80653 13.2307 5.88778C13.3229 6.01465 13.3266 6.19122 13.2779 6.33528C13.2213 6.50465 13.0816 6.57903 12.9279 6.65278C12.871 6.67965 12.7982 6.68403 12.7785 6.61059C12.761 6.54528 12.7697 6.47153 12.7654 6.40497C12.7607 6.31403 12.7532 6.21903 12.7491 6.12684C12.7482 6.08684 12.7444 6.04872 12.7407 6.0109L12.7404 6.01122Z" fill="#341D1A"/>
<path d="M12.8171 7.32111C12.8121 7.28299 12.8086 7.24361 12.8058 7.2058C12.8036 7.16674 12.8005 7.12517 12.793 7.08642C12.7649 6.92924 12.983 6.99924 13.0683 7.02705C13.1649 7.05705 13.2477 7.11642 13.308 7.19799C13.4015 7.32486 13.4039 7.50142 13.3552 7.64549C13.2974 7.81486 13.1574 7.89017 13.0052 7.96299C12.9496 7.99017 12.8755 7.99424 12.8558 7.9208C12.8383 7.85549 12.8474 7.78049 12.8439 7.71549C12.8393 7.62455 12.8318 7.52955 12.8264 7.43705C12.8246 7.39549 12.8205 7.35892 12.8168 7.3208L12.8171 7.32111Z" fill="#341D1A"/>
<path d="M5.14714 4.66205C4.9962 4.65299 4.84527 4.68768 4.69652 4.76768C4.24777 5.00986 4.06277 5.4433 3.98558 5.76393C3.82995 6.41799 3.97745 7.19799 4.35277 7.70486C4.5387 7.95736 4.83933 8.12018 5.15589 8.14143C5.42589 8.15799 5.67964 8.07268 5.87058 7.89955C6.41339 7.40455 6.46839 6.40111 6.24402 5.7083C6.08745 5.22424 5.64995 4.69455 5.14683 4.66205H5.14714Z" fill="#341D1A"/>
</g>
<defs>
<clipPath id="clip0_107_3574">
<rect width="16" height="16" fill="white"/>
</clipPath>
</defs>
</svg>
