<svg xmlns="http://www.w3.org/2000/svg" width="1600" height="1040" viewBox="0 0 1600 1040" fill="none">
<g clip-path="url(#clip0_78_381)">
<path d="M1609.27 314.365C1610.39 317.314 1610.55 320.247 1609.49 323.083L1609.36 323.412C1609.31 323.547 1609.26 323.674 1609.22 323.782C1609.18 323.887 1609.15 323.971 1609.12 324.047L1607.78 326.44C1607.58 326.729 1607.39 326.987 1607.19 327.245L1606.98 327.512L1606.98 327.512C1606.52 328.073 1605.96 328.695 1605.38 329.22L1605.13 329.438C1602.07 332.031 1598.23 333.751 1593.96 333.669L1593.96 333.669C1592 333.629 1590.15 333.22 1588.53 332.488L1588.53 332.488C1587.07 331.824 1586.22 331.162 1585.63 330.594C1585.33 330.305 1585.1 330.038 1584.87 329.785C1584.71 329.603 1584.54 329.42 1584.36 329.254C1584.81 329.618 1585.26 329.928 1585.7 330.183L1585.7 330.184C1588.39 331.731 1592.23 332.45 1595.81 331.717C1599.79 330.901 1603 329.303 1605.77 326.613L1605.77 326.613C1607.87 324.572 1608.85 321.167 1609.22 317.89L1609.28 317.236C1609.38 316.178 1609.37 315.225 1609.27 314.365Z" fill="#DCA83B" stroke="#530D11" stroke-width="1.0582"/>
<path d="M1606.74 310.063C1608.76 311.572 1609.59 313.906 1609.32 316.687C1609.05 319.482 1607.68 322.694 1605.34 325.82C1603.07 328.859 1599.06 330.888 1594.93 331.424C1590.92 331.944 1586.92 331.048 1584.33 328.454L1584.08 328.197C1580.01 323.794 1581.05 316.724 1585.53 312.484L1585.97 312.082C1593.4 305.673 1601.76 306.671 1606.32 309.757L1606.74 310.063Z" fill="#F1BD46" stroke="#530D11" stroke-width="1.0582"/>
<path d="M1598.67 322.705L1589.8 327.567L1590.69 317.151L1595.78 318.967L1598.67 322.705ZM1600.11 321.278L1597.03 317.456L1591.89 315.667C1592.57 315.071 1598.43 312.466 1601.28 311.238L1600.11 321.278Z" fill="#530D11"/>
<path d="M1597.76 306.905C1599.65 306.836 1601.52 307.103 1603.25 307.758L1588.15 330.698C1587.36 330.432 1586.63 330.105 1585.97 329.725C1585.23 329.302 1584.47 328.721 1583.77 327.987L1597.76 306.905ZM1592.48 307.931C1589.77 312.017 1585.26 318.784 1581.6 324.268C1581.25 323.105 1581.12 321.786 1581.3 320.314C1582 314.573 1586.84 309.917 1592.48 307.931Z" fill="#FFD77C"/>
<path d="M1597.78 321.932L1588.91 326.796L1589.8 316.379L1594.9 318.196L1597.78 321.932ZM1599.23 320.504L1596.15 316.682L1591.01 314.893C1591.68 314.297 1597.55 311.692 1600.39 310.464L1599.23 320.504Z" fill="#FFE6AE"/>
<path d="M1594.19 317.942L1589 325.827L1589.8 316.379L1594.19 317.942ZM1595.23 316.363L1591.01 314.892C1591.56 314.403 1595.59 312.571 1598.6 311.249L1595.23 316.363Z" fill="#FFFCF6"/>
<path d="M632.651 836.81C635.192 838.68 636.918 841.056 637.561 844.017L637.631 844.363C637.658 844.507 637.688 844.639 637.712 844.75C637.737 844.86 637.756 844.948 637.769 845.03L637.943 847.765C637.93 848.117 637.915 848.434 637.887 848.759L637.854 849.098L637.853 849.098C637.774 849.818 637.638 850.646 637.436 851.4L637.345 851.719C636.18 855.556 633.88 859.086 630.252 861.33L630.252 861.329C628.58 862.36 626.805 863.018 625.049 863.279L625.05 863.279C623.461 863.514 622.386 863.419 621.585 863.26C621.177 863.18 620.836 863.082 620.508 862.992C620.272 862.928 620.032 862.865 619.79 862.824C620.361 862.888 620.91 862.903 621.42 862.878L621.421 862.878C624.515 862.724 628.131 861.246 630.743 858.689C633.648 855.843 635.48 852.761 636.349 849L636.348 849C637.008 846.145 635.983 842.755 634.517 839.8L634.218 839.216C633.724 838.275 633.199 837.479 632.651 836.81Z" fill="#DCA83B" stroke="#530D11" stroke-width="1.0582"/>
<path d="M628.196 834.564C630.71 834.738 632.667 836.253 633.951 838.734C635.241 841.228 635.829 844.671 635.561 848.564C635.3 852.348 633.031 856.227 629.848 858.919C626.763 861.527 622.911 862.946 619.328 862.17L618.981 862.089C613.177 860.593 610.213 854.091 611.678 848.1L611.834 847.522C614.606 838.107 622.17 834.415 627.67 834.54L628.196 834.564Z" fill="#F1BD46" stroke="#530D11" stroke-width="1.0582"/>
<path d="M628.263 849.564L623.445 858.459L618.544 849.225L623.81 847.989L628.263 849.564ZM628.702 847.584L624.042 846.042L618.755 847.324C618.999 846.457 622.512 841.09 624.239 838.515L628.702 847.584Z" fill="#530D11"/>
<path d="M618.933 836.782C620.488 835.696 622.205 834.907 624.016 834.519L623.755 861.985C622.95 862.187 622.156 862.311 621.395 862.349C620.549 862.392 619.592 862.318 618.609 862.079L618.933 836.782ZM615.055 840.504C614.993 845.406 614.87 853.539 614.768 860.131C613.846 859.342 613.016 858.309 612.369 856.973C609.849 851.766 611.394 845.228 615.055 840.504Z" fill="#FFD77C"/>
<path d="M627.101 849.395L622.284 858.291L617.382 849.057L622.648 847.821L627.101 849.395ZM627.539 847.413L622.879 845.871L617.592 847.152C617.837 846.284 621.349 840.919 623.076 838.344L627.539 847.413Z" fill="#FFE6AE"/>
<path d="M621.916 847.991L621.827 857.433L617.381 849.056L621.916 847.991ZM621.934 846.099L617.591 847.152C617.791 846.441 620.185 842.717 621.992 839.977L621.934 846.099Z" fill="#FFFCF6"/>
<path d="M1281.31 248.414C1281.96 248.601 1282.56 248.9 1283.1 249.321L1283.36 249.534C1283.42 249.586 1283.47 249.632 1283.52 249.667C1283.56 249.699 1283.58 249.722 1283.6 249.742L1284.5 250.744C1284.57 250.832 1284.63 250.913 1284.68 250.994L1284.86 251.265L1284.86 251.266C1285.02 251.524 1285.19 251.821 1285.32 252.116L1285.45 252.409C1286.12 254.116 1286.31 256.007 1285.76 257.828L1285.64 258.192C1285.31 259.083 1284.83 259.858 1284.25 260.476L1284.25 260.477C1284.24 260.491 1284.22 260.503 1284.21 260.517C1284.87 259.548 1285.36 258.364 1285.52 257.127C1285.77 255.195 1285.58 253.467 1284.85 251.778L1284.7 251.44C1284.08 250.124 1282.72 249.123 1281.31 248.414Z" fill="#DCA83B" stroke="#530D11" stroke-width="1.0582"/>
<path d="M1276.94 248.625C1277.89 247.979 1279.03 247.955 1280.24 248.504C1281.46 249.059 1282.72 250.19 1283.8 251.775C1284.82 253.271 1285.13 255.419 1284.72 257.408C1284.34 259.274 1283.35 260.891 1281.89 261.68L1281.59 261.827C1279.01 262.962 1275.97 261.434 1274.74 258.727L1274.62 258.46C1272.85 254.02 1274.63 250.355 1276.74 248.772L1276.94 248.625Z" fill="#F1BD46" stroke="#530D11" stroke-width="1.0582"/>
<path d="M1281.46 254.277L1282.32 259.261L1277.54 257.151L1279.23 255.036L1281.46 254.277ZM1281.02 253.363L1278.71 254.199L1277.03 256.339C1276.86 255.923 1276.58 252.728 1276.46 251.182L1281.02 253.363Z" fill="#530D11"/>
<path d="M1273.84 252.144C1274.12 251.237 1274.55 250.395 1275.14 249.682L1283.53 260.551C1283.28 260.879 1283.01 261.174 1282.72 261.424C1282.4 261.703 1282 261.969 1281.54 262.179L1273.84 252.144ZM1273.47 254.809C1274.97 256.755 1277.43 259.985 1279.43 262.604C1278.83 262.579 1278.18 262.43 1277.51 262.106C1274.91 260.841 1273.5 257.797 1273.47 254.809Z" fill="#FFD77C"/>
<path d="M1280.95 254.571L1281.81 259.555L1277.03 257.444L1278.72 255.329L1280.95 254.571ZM1280.51 253.656L1278.2 254.492L1276.52 256.632C1276.35 256.216 1276.07 253.021 1275.95 251.475L1280.51 253.656Z" fill="#FFE6AE"/>
<path d="M1278.48 255.621L1281.37 259.362L1277.03 257.444L1278.48 255.621ZM1277.9 254.871L1276.52 256.631C1276.38 256.29 1276.17 254.083 1276.03 252.447L1277.9 254.871Z" fill="#FFFCF6"/>
<path d="M1532.98 839.84C1533.59 839.731 1534.22 839.648 1534.87 839.605L1535.32 839.581L1535.32 839.581C1544.03 839.235 1551.63 841.497 1557.34 847.228L1557.88 847.794C1558.09 848.015 1558.29 848.212 1558.47 848.389C1558.65 848.565 1558.8 848.72 1558.94 848.875L1562.49 853.713C1562.88 854.388 1563.24 855.002 1563.58 855.652L1563.92 856.325L1563.92 856.326C1564.62 857.749 1565.36 859.449 1565.88 861.104L1566.09 861.809C1568.48 870.285 1568.41 879.571 1564.33 888.066L1564.33 888.065C1562.57 891.725 1560.24 894.891 1557.51 897.403L1556.96 897.897C1554.28 900.229 1552.15 901.347 1550.44 902.019C1549.57 902.357 1548.81 902.583 1548.12 902.8C1547.47 903.001 1546.86 903.2 1546.31 903.472C1545.82 903.49 1545.28 903.569 1544.75 903.656C1544.31 903.728 1543.87 903.804 1543.46 903.857L1543.04 903.901L1543.04 903.902L1542.63 903.934C1542.08 903.971 1541.53 903.985 1540.96 903.978C1544.17 903.312 1546.98 901.953 1549.11 900.433L1549.11 900.433C1554.45 896.627 1559.24 889.837 1560.99 882.266C1562.88 874.047 1562.7 866.619 1560.18 859.111L1559.92 858.383C1557.8 852.415 1551.81 847.389 1545.5 843.696L1544.89 843.342C1540.31 840.733 1536.39 839.738 1532.98 839.84Z" fill="#DCA83B" stroke="#530D11" stroke-width="1.0582"/>
<path d="M1528.47 840.808C1533.5 838.061 1539.07 838.596 1544.45 841.706C1549.84 844.824 1555.01 850.519 1559.1 858.004C1563.14 865.395 1563.52 875.302 1560.81 884.053C1558.15 892.668 1552.54 900.048 1544.66 902.803L1544.28 902.93C1531.34 907.177 1517.82 898.138 1513.64 884.909L1513.44 884.277C1507.33 863.242 1517.36 847.213 1527.97 841.092L1528.47 840.808Z" fill="#F1BD46" stroke="#530D11" stroke-width="1.0582"/>
<path d="M1546.41 868.647L1548 890.508L1528.27 879.378L1536.44 870.972L1546.41 868.647ZM1544.89 864.521L1534.59 867.149L1526.44 875.659C1525.87 873.792 1526.01 859.895 1526.16 853.18L1544.89 864.521Z" fill="#530D11"/>
<path d="M1514.45 856.215C1516.02 852.418 1518.23 848.969 1521.09 846.146L1552.68 896.584C1551.45 897.892 1550.14 899.044 1548.8 900.001C1547.31 901.067 1545.47 902.049 1543.4 902.76L1514.45 856.215ZM1511.72 867.535C1517.33 876.557 1526.61 891.544 1534.12 903.694C1531.52 903.331 1528.79 902.413 1526.05 900.729C1515.37 894.167 1510.56 880.433 1511.72 867.535Z" fill="#FFD77C"/>
<path d="M1544.09 869.697L1545.68 891.558L1525.95 880.427L1534.12 872.022L1544.09 869.697ZM1542.57 865.568L1532.27 868.196L1524.11 876.706C1523.55 874.839 1523.69 860.942 1523.84 854.227L1542.57 865.568Z" fill="#FFE6AE"/>
<path d="M1532.99 873.186L1543.85 890.526L1525.95 880.427L1532.99 873.186ZM1530.81 869.712L1524.11 876.707C1523.65 875.177 1523.66 865.571 1523.76 858.457L1530.81 869.712Z" fill="#FFFCF6"/>
<path d="M13.3614 196.785C13.9719 196.677 14.6036 196.593 15.2496 196.55L15.6981 196.526L15.699 196.526C24.4142 196.18 32.0142 198.443 37.7185 204.173L38.2654 204.739C38.473 204.961 38.6733 205.157 38.8517 205.335C39.0283 205.51 39.1817 205.665 39.3189 205.82L42.8681 210.659C43.2659 211.333 43.6198 211.947 43.9613 212.598L44.3043 213.27L44.304 213.271C45.0076 214.694 45.7406 216.394 46.2647 218.049L46.4759 218.754C48.8617 227.23 48.7953 236.516 44.7145 245.011L44.7148 245.01C42.9504 248.671 40.6248 251.836 37.8964 254.349L37.3445 254.843C34.6647 257.174 32.5314 258.292 30.8186 258.964C29.956 259.302 29.196 259.528 28.4986 259.745C27.8533 259.946 27.2454 260.145 26.6961 260.417C26.2047 260.435 25.66 260.514 25.1333 260.601C24.6909 260.673 24.2565 260.749 23.8391 260.802L23.427 260.847L23.4258 260.847L23.0095 260.88C22.4659 260.916 21.9097 260.93 21.3428 260.923C24.5533 260.257 27.3583 258.898 29.4896 257.378L29.4906 257.379C34.8336 253.572 39.6236 246.782 41.3702 239.211C43.266 230.992 43.0825 223.564 40.5588 216.056L40.3076 215.329C38.1851 209.36 32.1933 204.334 25.8814 200.641L25.2695 200.287C20.693 197.678 16.7764 196.683 13.3614 196.785Z" fill="#DCA83B" stroke="#530D11" stroke-width="1.0582"/>
<path d="M8.8551 197.753C13.8792 195.006 19.4546 195.541 24.8347 198.652C30.227 201.769 35.3919 207.465 39.4844 214.95C43.5247 222.34 43.9002 232.247 41.195 240.998C38.5315 249.613 32.9206 256.993 25.043 259.748L24.6661 259.875C11.7195 264.122 -1.80026 255.083 -5.98072 241.854L-6.17308 241.222C-12.2843 220.187 -2.25365 204.158 8.35027 198.037L8.8551 197.753Z" fill="#F1BD46" stroke="#530D11" stroke-width="1.0582"/>
<path d="M26.7889 225.592L28.3826 247.453L8.65484 236.323L16.8235 227.918L26.7889 225.592ZM25.2765 221.466L14.9726 224.094L6.81847 232.604C6.25136 230.736 6.39852 216.84 6.54279 210.125L25.2765 221.466Z" fill="#530D11"/>
<path d="M-5.1643 213.159C-3.59395 209.362 -1.38416 205.914 1.46845 203.091L33.0669 253.529C31.834 254.837 30.5264 255.989 29.1831 256.946C27.6886 258.012 25.8559 258.994 23.7831 259.705L-5.1643 213.159ZM-7.89406 224.479C-2.28269 233.501 6.99388 248.49 14.5058 260.64C11.9 260.277 9.17453 259.358 6.43271 257.674C-4.2473 251.112 -9.06008 237.377 -7.89406 224.479Z" fill="#FFD77C"/>
<path d="M24.4706 226.642L26.0652 248.503L6.33742 237.372L14.5049 228.967L24.4706 226.642ZM22.9533 222.513L12.6493 225.141L4.49523 233.651C3.92806 231.784 4.07527 217.887 4.21954 211.172L22.9533 222.513Z" fill="#FFE6AE"/>
<path d="M13.3722 230.133L24.2345 247.471L6.33634 237.372L13.3722 230.133ZM11.1951 226.657L4.49366 233.652C4.02897 232.122 4.04513 222.517 4.14479 215.403L11.1951 226.657Z" fill="#FFFCF6"/>
<path d="M123.724 515.349C124.507 517.689 124.57 520.008 123.729 522.256L123.619 522.537L123.619 522.538C123.571 522.656 123.53 522.767 123.497 522.858C123.464 522.948 123.436 523.017 123.409 523.08L122.264 525.135C122.151 525.297 122.045 525.448 121.937 525.594L121.584 526.051L121.584 526.052C121.192 526.534 120.711 527.066 120.216 527.515L120.003 527.702C117.382 529.929 114.089 531.404 110.437 531.338L110.438 531.338C108.861 531.307 107.372 530.998 106.052 530.445L105.79 530.331C104.538 529.765 103.811 529.2 103.311 528.717C103.115 528.528 102.953 528.35 102.798 528.179C102.819 528.192 102.839 528.206 102.86 528.22L103.283 528.481C105.611 529.82 108.937 530.438 112.038 529.8C115.264 529.136 117.905 527.877 120.194 525.804L120.648 525.378C122.598 523.482 123.423 520.247 123.688 517.255C123.749 516.571 123.758 515.936 123.724 515.349Z" fill="#DCA83B" stroke="#530D11" stroke-width="1.0582"/>
<path d="M121.375 511.131C123.089 512.409 123.795 514.391 123.57 516.767C123.344 519.157 122.172 521.912 120.169 524.599C118.231 527.198 114.8 528.941 111.255 529.404C107.82 529.853 104.396 529.087 102.184 526.876L101.973 526.657C98.502 522.906 99.3697 516.863 103.201 513.229L103.58 512.885C109.95 507.382 117.111 508.235 121.008 510.871L121.375 511.131Z" fill="#F1BD46" stroke="#530D11" stroke-width="1.0582"/>
<path d="M113.679 508.363C115.311 508.301 116.922 508.528 118.414 509.092L105.425 528.859C104.747 528.63 104.114 528.349 103.545 528.021C102.913 527.658 102.254 527.159 101.654 526.528L113.679 508.363ZM109.136 509.25C106.806 512.771 102.926 518.603 99.7797 523.328C99.4799 522.327 99.3612 521.191 99.5156 519.922C100.118 514.978 104.283 510.964 109.136 509.25Z" fill="#FFD77C"/>
<ellipse cx="115.784" cy="519.413" rx="1.97557" ry="2.60174" transform="rotate(37.6884 115.784 519.413)" fill="#53082B"/>
<ellipse cx="108.48" cy="515.158" rx="1.97557" ry="2.60174" transform="rotate(37.6884 108.48 515.158)" fill="#53082B"/>
<ellipse cx="104.901" cy="518.264" rx="1.93945" ry="0.422109" transform="rotate(29.7032 104.901 518.264)" fill="#6F200F"/>
<ellipse cx="114.388" cy="524.042" rx="1.93945" ry="0.422109" transform="rotate(29.7032 114.388 524.042)" fill="#6F200F"/>
<path d="M112.763 521.537C112.302 521.986 111.81 522.349 111.314 522.604C110.818 522.859 110.327 523.003 109.871 523.025C109.415 523.047 109.001 522.949 108.655 522.735C108.308 522.521 108.034 522.195 107.849 521.777C107.664 521.359 107.573 520.857 107.578 520.299C107.584 519.741 107.687 519.138 107.882 518.525C107.952 518.306 108.211 518.219 108.406 518.34L108.672 518.504C108.727 518.538 108.749 518.604 108.729 518.664C108.568 519.171 108.487 519.655 108.483 520.088C108.479 520.521 108.55 520.889 108.679 521.181C108.808 521.471 108.992 521.686 109.216 521.825C109.441 521.963 109.715 522.031 110.031 522.016C110.35 522 110.711 521.899 111.097 521.701C111.482 521.503 111.878 521.214 112.259 520.843C112.304 520.798 112.374 520.789 112.428 520.822L112.693 520.986C112.889 521.106 112.928 521.377 112.763 521.537Z" fill="#53082B"/>
<path fill-rule="evenodd" clip-rule="evenodd" d="M1600 751.375C1610.18 750.687 1620.36 747.644 1629.71 742.041C1661.3 723.122 1671.56 682.179 1652.64 650.593C1633.73 619.006 1592.78 608.738 1561.2 627.657C1535.81 642.866 1524.19 672.305 1530.44 699.676C1514.09 695.774 1496.26 698.011 1480.7 707.33C1455.61 722.362 1443.97 751.296 1449.74 778.394C1446.84 779.611 1443.99 781.048 1441.22 782.71C1409.63 801.629 1399.36 842.572 1418.28 874.158C1423.46 882.803 1430.29 889.851 1438.12 895.141C1429.62 894.217 1420.69 894.662 1412.64 897.744C1400.69 902.315 1394.96 911.654 1392.54 920.545C1378.94 901.308 1356.52 888.748 1331.16 888.748C1289.67 888.748 1256.03 922.386 1256.03 963.88C1256.03 978.77 1260.36 992.649 1267.83 1004.32H185.979V1080.46H1367.73L1600 1080.46V751.375ZM85.4447 698.018C85.4447 701.252 85.2143 704.433 84.7691 707.544C110.979 716.523 129.82 741.375 129.82 770.629C129.82 798.731 112.432 822.773 87.8266 832.581C90.1389 839.276 90.6755 845.439 90.4029 849.335C98.0536 851.258 114.198 857.657 117.571 867.875C118.284 870.035 118.758 872.111 119.05 874.068C130.789 863.749 146.186 857.492 163.044 857.492C190.286 857.492 213.711 873.831 224.054 897.244C224.662 897.223 225.272 897.212 225.885 897.212C255.106 897.212 278.795 920.901 278.795 950.123C278.795 979.344 255.106 1003.03 225.885 1003.03C210.65 1003.03 196.919 996.594 187.265 986.289C186.838 986.455 186.41 986.618 185.979 986.775V1080.46H-4.95911e-05V803.193C1.32919 802.878 2.82094 802.56 4.44924 802.251C-0.630009 792.841 -3.513 782.072 -3.513 770.629C-3.513 767.394 -3.28266 764.213 -2.83749 761.102C-29.0471 752.124 -47.8887 727.271 -47.8887 698.018C-47.8887 661.199 -18.041 631.351 18.778 631.351C55.597 631.351 85.4447 661.199 85.4447 698.018Z" fill="#CDFDFD" fill-opacity="0.5"/>
<path d="M10.5381 883.324C15.6906 883.324 26.6513 884.313 29.2744 888.268C31.8975 892.223 32.8656 894.722 33.0217 895.478" stroke="#8EA3CA" stroke-width="1.0582"/>
<path d="M117.336 889.092L101.879 886.002" stroke="#8EA3CA" stroke-width="1.0582"/>
<path d="M163.734 935.792C165.898 934.82 175.333 934.929 179.049 937.584C182.766 940.24 188.351 951.553 188.203 956.056" stroke="#8EA3CA" stroke-width="1.0582"/>
<path d="M1359.25 949.335C1359.96 947.069 1366.28 940.065 1370.73 939.035C1375.18 938.005 1387.36 941.301 1390.64 944.391" stroke="#8EA3CA" stroke-width="1.0582"/>
<path d="M1485.47 880.337C1488.05 879.513 1494.63 878.195 1500.35 879.513C1506.06 880.831 1506.32 880.612 1505.73 880.337" stroke="#8EA3CA" stroke-width="1.0582"/>
<path d="M521.128 958.525C523.962 959.384 526.323 961.221 528.182 962.887C529.125 963.731 530.117 964.703 530.794 965.32C531.574 966.031 532.084 966.415 532.412 966.542C532.734 966.668 532.984 966.72 533.17 966.734L533.297 966.738C533.434 966.738 533.599 966.723 533.803 966.694C533.936 966.676 534.073 966.653 534.225 966.628C534.372 966.604 534.535 966.576 534.698 966.553C535.302 966.467 536.221 966.376 537.039 966.874L537.257 967.012C538.364 967.743 539.691 969.071 539.259 970.971L539.204 971.174C539.056 971.642 538.778 972.063 538.472 972.428C538.115 972.856 537.659 973.278 537.153 973.692C536.142 974.518 534.819 975.4 533.405 976.308C530.71 978.04 527.649 979.898 525.271 981.875L524.806 982.271C523.399 983.499 522.236 985.306 521.309 987.306C520.388 989.296 519.731 991.411 519.308 993.19L519.261 993.367C518.739 995.127 516.835 996.27 515.007 995.638L514.825 995.569L502.169 990.35C500.38 989.613 499.633 987.42 500.781 985.769L501.28 985.06C502.517 983.325 504.249 981.045 506.38 978.549L506.603 978.296C508.926 975.735 512.69 973.891 516.064 972.669C516.082 972.642 516.108 972.595 516.139 972.519C516.228 972.294 516.299 971.963 516.319 971.589C516.339 971.216 516.307 970.865 516.24 970.607C516.202 970.46 516.165 970.389 516.151 970.364C514.532 969.346 513.811 968.853 513.092 968.188C512.741 967.863 512.396 967.501 511.956 967.044C511.734 966.813 511.482 966.55 511.184 966.245L510.137 965.188C509.335 964.392 508.446 964.275 507.496 964.524C506.612 964.755 505.716 965.302 504.967 965.92L504.656 966.187C503.912 966.855 502.8 967.177 501.749 966.767C500.386 966.236 499.711 964.701 500.242 963.338L503.014 956.223C503.523 954.919 504.992 954.274 506.297 954.782L506.775 954.969C507.883 955.4 508.432 956.648 508 957.756C507.995 957.769 507.996 957.774 507.996 957.777C507.997 957.782 508.001 957.795 508.013 957.81C508.024 957.825 508.039 957.835 508.051 957.841C508.061 957.845 508.073 957.849 508.091 957.847L508.729 957.795C512.028 957.541 516.908 957.456 520.554 958.367L521.128 958.525Z" fill="#E7370A" stroke="#341D1A" stroke-width="2.1164"/>
<path d="M1600 1107.32H0V941.294C15.1452 940.607 39.3464 945.414 56.4434 967.043C66.5063 979.774 66.2017 999.52 65.5771 1001.86C71.2761 996.637 86.9365 986.077 103.986 985.582C121.036 985.088 137.165 992.517 143.099 996.294C149.578 993.204 166.379 988.425 181.743 994.028C197.107 999.631 205.554 1007.9 207.271 1011.95C212.112 1008.1 216.874 1004.53 229.989 1004.53C233.065 1004.53 236.006 1005.26 238.653 1006.33V1007.44H239.726C251.234 990.526 270.636 979.419 292.634 979.419C307.293 979.419 320.8 984.352 331.586 992.646C338.039 982.342 349.493 975.488 362.548 975.488C379.005 975.488 392.916 986.378 397.475 1001.34C403.545 996.843 411.06 994.179 419.197 994.179C429.013 994.179 437.924 998.053 444.484 1004.36C454.86 987.749 473.306 976.702 494.33 976.702C515.453 976.702 533.971 987.854 544.319 1004.59C554.679 995.426 568.3 989.863 583.219 989.863C594.342 989.863 604.744 992.957 613.61 998.329C617.623 991.864 624.786 987.559 632.954 987.559C643.567 987.559 652.483 994.826 654.997 1004.66C666.68 989.318 685.136 979.419 705.903 979.419C720.562 979.419 734.069 984.352 744.855 992.646C751.309 982.342 762.762 975.488 775.817 975.488C792.274 975.488 806.185 986.378 810.744 1001.34C816.814 996.842 824.33 994.179 832.467 994.179C842.283 994.179 851.194 998.054 857.755 1004.36C868.13 987.75 886.575 976.702 907.6 976.702C928.723 976.702 947.241 987.854 957.589 1004.59C967.948 995.426 981.569 989.863 996.488 989.863C1007.61 989.863 1018.01 992.957 1026.88 998.329C1030.89 991.864 1038.06 987.559 1046.22 987.559C1057.22 987.559 1066.39 995.361 1068.51 1005.73C1079.02 995.89 1093.14 989.863 1108.66 989.863C1119.51 989.863 1129.68 992.807 1138.4 997.937C1141.52 981.848 1155.68 969.699 1172.68 969.698C1189.46 969.698 1203.48 981.543 1206.83 997.33C1212.78 992.653 1220.27 989.863 1228.42 989.863C1241.22 989.863 1252.41 996.752 1258.49 1007.02C1270.96 988.719 1291.98 976.702 1315.8 976.702C1339.8 976.702 1360.95 988.902 1373.39 1007.44H1376.81C1380.43 1005.71 1385.21 1004.53 1392.73 1004.53C1402.46 1004.53 1410.84 1011.81 1412.87 1014.21C1416.7 1010.92 1428.38 1004.53 1444.49 1005.36C1460.6 1006.18 1471.19 1019.3 1474.47 1025.75C1477.28 1019.16 1485.61 1005.19 1496.48 1002.06C1507.35 998.93 1517.25 1000.76 1520.84 1002.06C1518.81 991.419 1523.15 971.156 1541.92 956.743C1558.55 943.972 1580.95 943.766 1586.88 943.972C1582.51 936.213 1575.83 917.687 1584.07 905.657C1592.32 893.627 1598.13 888.971 1600 888.147V1107.32Z" fill="white"/>
<path d="M103.044 1033.99C105.542 1029.73 113.302 1020.72 124.357 1018.75C135.411 1016.77 144.888 1023.14 148.245 1026.57" stroke="#8EA3CA" stroke-width="1.0582"/>
<path d="M132.321 1039.76C134.195 1035.36 140.144 1026.53 148.95 1026.37C157.756 1026.2 162.143 1031.79 163.236 1034.61" stroke="#8EA3CA" stroke-width="1.0582"/>
<path d="M146.373 1012.77C150.355 1011.19 160.004 1008.98 166.749 1012.77C173.494 1016.56 176.429 1020.81 177.054 1022.45" stroke="#8EA3CA" stroke-width="1.0582"/>
<path d="M216.634 1031.72C216.712 1026.64 214.105 1015.08 203.05 1009.48C191.996 1003.87 177.366 1011.13 171.433 1015.45" stroke="#8EA3CA" stroke-width="1.0582"/>
<path d="M208.438 1038.32C209.922 1035.84 214.668 1030.86 221.788 1030.69C228.908 1030.53 234.435 1032.96 236.309 1034.2" stroke="#8EA3CA" stroke-width="1.0582"/>
<path d="M362.548 1042.44C363.641 1039.55 367.326 1033.29 373.321 1031.31C379.317 1029.33 382.065 1028.57 382.689 1028.43" stroke="#8EA3CA" stroke-width="1.0582"/>
<path d="M777.32 1042.44C778.413 1039.55 782.098 1033.29 788.094 1031.31C794.089 1029.33 796.837 1028.57 797.462 1028.43" stroke="#8EA3CA" stroke-width="1.0582"/>
<path d="M1190.42 1042.44C1191.51 1039.55 1195.19 1033.29 1201.19 1031.31C1207.18 1029.33 1209.93 1028.57 1210.56 1028.43" stroke="#8EA3CA" stroke-width="1.0582"/>
<path d="M14.751 961.481C18.8105 960.726 27.5386 960.204 29.9743 964.159C32.41 968.114 33.7996 970.339 34.19 970.957C36.2197 970.133 40.8414 968.979 43.0897 970.957C45.3381 972.934 45.7441 974.802 45.666 975.488" stroke="#8EA3CA" stroke-width="1.0582"/>
<path d="M65.34 1002.27L58.7822 1011.95" stroke="#8EA3CA" stroke-width="1.0582"/>
<path d="M59.4824 1017.72C61.5122 1017.51 65.8528 1018.13 66.977 1022.25C68.1011 1026.37 67.4454 1028.5 66.977 1029.05" stroke="#8EA3CA" stroke-width="1.0582"/>
<path d="M100.003 1038.93C103.048 1028.63 108.206 1019.16 117.568 1011.13C127.171 1002.89 142.511 995.676 150.474 993.616" stroke="#8EA3CA" stroke-width="1.0582"/>
<path d="M431.457 1027.98C433.955 1023.73 441.715 1014.72 452.77 1012.74C463.824 1010.76 473.302 1017.13 476.659 1020.57" stroke="#8EA3CA" stroke-width="1.0582"/>
<path d="M460.734 1033.75C462.608 1029.36 468.557 1020.53 477.363 1020.36C486.169 1020.2 490.556 1025.79 491.649 1028.6" stroke="#8EA3CA" stroke-width="1.0582"/>
<path d="M474.786 1006.77C478.768 1005.19 488.417 1002.98 495.162 1006.77C501.907 1010.56 504.842 1014.8 505.467 1016.45" stroke="#8EA3CA" stroke-width="1.0582"/>
<path d="M545.047 1025.72C545.125 1020.64 542.518 1009.07 531.463 1003.47C520.409 997.867 505.779 1005.12 499.846 1009.44" stroke="#8EA3CA" stroke-width="1.0582"/>
<path d="M536.852 1032.31C538.335 1029.84 543.081 1024.85 550.201 1024.69C557.321 1024.52 562.848 1026.95 564.722 1028.19" stroke="#8EA3CA" stroke-width="1.0582"/>
<path d="M428.416 1032.93C431.461 1022.63 436.619 1013.15 445.981 1005.12C455.584 996.879 470.924 989.669 478.887 987.609" stroke="#8EA3CA" stroke-width="1.0582"/>
<path d="M845.704 1027.98C848.202 1023.73 855.962 1014.72 867.017 1012.74C878.071 1010.76 887.549 1017.13 890.906 1020.57" stroke="#8EA3CA" stroke-width="1.0582"/>
<path d="M874.982 1033.75C876.856 1029.36 882.805 1020.53 891.611 1020.36C900.417 1020.2 904.804 1025.79 905.897 1028.6" stroke="#8EA3CA" stroke-width="1.0582"/>
<path d="M889.034 1006.77C893.016 1005.19 902.665 1002.98 909.41 1006.77C916.155 1010.56 919.09 1014.8 919.715 1016.45" stroke="#8EA3CA" stroke-width="1.0582"/>
<path d="M959.295 1025.72C959.373 1020.64 956.766 1009.07 945.711 1003.47C934.657 997.867 920.027 1005.12 914.094 1009.44" stroke="#8EA3CA" stroke-width="1.0582"/>
<path d="M951.1 1032.31C952.583 1029.84 957.329 1024.85 964.449 1024.69C971.569 1024.52 977.096 1026.95 978.97 1028.19" stroke="#8EA3CA" stroke-width="1.0582"/>
<path d="M842.663 1032.93C845.708 1022.63 850.866 1013.15 860.228 1005.12C869.831 996.879 885.171 989.669 893.134 987.609" stroke="#8EA3CA" stroke-width="1.0582"/>
<path d="M222.78 1005.8C225.289 1004.47 231.86 1002.67 238.075 1006.15C244.289 1009.63 247.839 1014.49 248.837 1016.48" stroke="#8EA3CA" stroke-width="1.0582"/>
<path d="M1525.29 1042.44C1526.38 1039.55 1530.07 1033.29 1536.06 1031.31C1542.06 1029.33 1544.81 1028.57 1545.43 1028.43" stroke="#8EA3CA" stroke-width="1.0582"/>
<path d="M1371.18 1038.32C1372.66 1035.84 1377.41 1030.86 1384.53 1030.69C1391.65 1030.53 1397.18 1032.96 1399.05 1034.2" stroke="#8EA3CA" stroke-width="1.0582"/>
<path d="M1368.82 1019.24C1369.23 1016.39 1371.67 1009.95 1378.17 1007.04C1384.67 1004.13 1390.7 1004.23 1392.91 1004.64" stroke="#8EA3CA" stroke-width="1.0582"/>
<g clip-path="url(#clip1_78_381)">
<path d="M1487.34 928.131C1489.44 926.039 1492.17 924.826 1494.52 923.975C1495.71 923.543 1497.04 923.127 1497.9 922.823C1498.89 922.471 1499.47 922.203 1499.74 921.975C1500 921.75 1500.17 921.554 1500.27 921.397L1500.33 921.287C1500.4 921.166 1500.46 921.014 1500.53 920.82C1500.58 920.694 1500.62 920.563 1500.67 920.417C1500.72 920.276 1500.77 920.119 1500.83 919.964C1501.04 919.392 1501.39 918.538 1502.22 918.053L1502.44 917.926C1503.61 917.296 1505.41 916.754 1506.88 918.033L1507.03 918.177C1507.37 918.529 1507.61 918.973 1507.79 919.415C1508 919.932 1508.16 920.533 1508.28 921.175C1508.53 922.456 1508.68 924.039 1508.82 925.713C1509.07 928.908 1509.26 932.484 1509.88 935.513L1510.01 936.11C1510.43 937.93 1511.47 939.809 1512.79 941.571C1514.11 943.323 1515.67 944.902 1517.03 946.115L1517.17 946.241C1518.47 947.532 1518.58 949.75 1517.16 951.062L1517.01 951.19L1506.43 959.878C1504.94 961.106 1502.65 960.728 1501.74 958.937L1501.35 958.161C1500.41 956.252 1499.21 953.648 1498.02 950.59L1497.9 950.274C1496.74 947.016 1496.9 942.828 1497.42 939.277C1497.4 939.249 1497.37 939.203 1497.32 939.14C1497.16 938.955 1496.9 938.737 1496.58 938.542C1496.26 938.348 1495.94 938.211 1495.68 938.147C1495.53 938.112 1495.45 938.111 1495.42 938.111C1493.76 939.057 1492.99 939.46 1492.06 939.778C1491.61 939.934 1491.13 940.068 1490.52 940.239C1490.21 940.325 1489.86 940.424 1489.45 940.542L1488.02 940.966C1486.94 941.296 1486.42 942.024 1486.19 942.979C1485.97 943.867 1486.03 944.916 1486.22 945.868L1486.31 946.268C1486.55 947.239 1486.31 948.372 1485.45 949.104C1484.34 950.054 1482.67 949.923 1481.71 948.812L1476.75 943.006C1475.85 941.942 1475.97 940.342 1477.04 939.433L1477.43 939.099C1478.33 938.327 1479.69 938.433 1480.46 939.337C1480.47 939.347 1480.48 939.349 1480.48 939.35C1480.48 939.352 1480.5 939.354 1480.52 939.351C1480.53 939.348 1480.55 939.34 1480.56 939.332C1480.57 939.325 1480.58 939.316 1480.59 939.299L1480.84 938.712C1482.18 935.686 1484.41 931.345 1486.93 928.561L1487.34 928.131Z" fill="#E7370A" stroke="#341D1A" stroke-width="2.1164"/>
</g>
<path d="M91.9138 898.879C93.8124 898.87 95.9356 899.007 98.0846 899.476L98.7072 899.621L98.708 899.622C110.884 902.635 120.46 908.863 125.931 919.225L126.188 919.722C126.381 920.099 126.573 920.44 126.745 920.751C126.917 921.061 127.068 921.339 127.197 921.612L130.114 929.584C130.389 930.658 130.629 931.635 130.838 932.658L131.037 933.709L131.038 933.711C131.461 936.08 131.806 938.896 131.828 941.509L131.829 942.029C131.731 954.489 127.981 967.094 119.075 977.045L119.076 977.044C115.231 981.328 110.817 984.72 106.108 987.065L105.163 987.519C100.594 989.636 97.2406 990.318 94.6321 990.558C93.3214 990.678 92.1944 990.687 91.1673 990.707C90.1983 990.726 89.3007 990.756 88.4589 990.911C87.7903 990.738 87.0123 990.635 86.2425 990.542C85.6178 990.467 84.9949 990.398 84.4014 990.304L83.8197 990.202L83.8184 990.203L83.2363 990.082C82.0688 989.827 80.8828 989.488 79.6854 989.072L79.0856 988.858C79.063 988.85 79.0402 988.842 79.0177 988.834C83.9867 989.569 88.7365 988.95 92.5708 987.732L93.3649 987.468C102.047 984.427 111.159 977.147 116.473 967.624C122.251 957.268 124.909 947.174 124.441 936.058L124.385 934.979C123.859 926.141 117.764 917.027 110.674 909.556L109.985 908.838C104.646 903.336 99.6018 900.459 94.8369 899.348C93.8481 899.118 92.8737 898.965 91.9138 898.879Z" fill="#DCA83B" stroke="#530D11" stroke-width="1.0582"/>
<path d="M88.853 898.599C96.8276 896.832 104.242 899.786 110.347 906.154C116.461 912.531 121.234 922.314 123.844 934.086C126.43 945.753 123.026 959.379 115.901 970.207C108.886 980.867 98.3322 988.714 86.4895 989.357L85.925 989.382C66.5701 990.055 51.7356 972.373 51.2666 952.724L51.255 951.787C51.2385 920.793 71.1919 902.936 88.0523 898.787L88.853 898.599Z" fill="#F1BD46" stroke="#530D11" stroke-width="1.0582"/>
<path d="M63.8669 914.168C67.4855 909.643 71.833 905.841 76.8056 903.139L99.7964 983.866C97.611 985.155 95.3848 986.203 93.1875 986.972C90.7462 987.828 87.8805 988.442 84.796 988.592L63.8669 914.168ZM55.7193 928.43C59.7763 942.854 66.4549 966.801 71.8579 986.211C68.4707 984.696 65.139 982.381 62.0866 979.023C50.197 965.94 49.0728 945.443 55.7193 928.43Z" fill="#FFD77C"/>
<ellipse cx="98.4313" cy="934.134" rx="7.01017" ry="9.23213" transform="rotate(-11.5192 98.4313 934.134)" fill="#53082B"/>
<ellipse cx="70.071" cy="943.894" rx="7.01017" ry="9.23213" transform="rotate(-11.5192 70.071 943.894)" fill="#53082B"/>
<ellipse cx="70.1151" cy="960.709" rx="6.88203" ry="1.49783" transform="rotate(-19.5044 70.1151 960.709)" fill="#6F200F"/>
<ellipse cx="107.629" cy="948.618" rx="6.88203" ry="1.49783" transform="rotate(-19.5044 107.629 948.618)" fill="#6F200F"/>
<path d="M95.4965 946.086C96.2738 945.841 97.0865 946.363 97.1363 947.176V947.176C97.2756 949.456 97.1084 951.62 96.6437 953.545C96.179 955.47 95.4253 957.118 94.4274 958.396C93.4295 959.673 92.2059 960.555 90.8267 960.99C89.4475 961.426 87.9396 961.407 86.389 960.934C84.8385 960.462 83.2755 959.545 81.7897 958.236C80.3037 956.927 78.9236 955.251 77.7286 953.306V953.306C77.302 952.611 77.6668 951.717 78.4442 951.472L79.4994 951.138C79.715 951.07 79.9474 951.161 80.0657 951.354V951.354C81.0531 952.962 82.166 954.3 83.3206 955.317C84.4745 956.334 85.6297 956.994 86.7122 957.324C87.7892 957.652 88.7919 957.654 89.6841 957.372C90.5764 957.091 91.3959 956.513 92.0891 955.626C92.7858 954.734 93.3523 953.53 93.7131 952.035C94.0742 950.54 94.2163 948.805 94.1012 946.921V946.921C94.0874 946.696 94.2254 946.488 94.4411 946.42L95.4965 946.086Z" fill="#53082B"/>
<circle cx="-45.3766" cy="793.877" r="106.878" fill="white"/>
<circle cx="65.1339" cy="787.344" r="47.0899" fill="white"/>
<circle cx="106.251" cy="847.93" r="15.3439" fill="white"/>
<circle cx="55.3126" cy="737.792" r="25.9259" fill="white"/>
<circle cx="21.2897" cy="889.115" r="66.6667" fill="white"/>
<circle cx="292.116" cy="995" r="66.6667" fill="white"/>
<path d="M-26.3291 738.32C-22.2696 737.565 -13.5415 737.043 -11.1058 740.998C-8.67007 744.953 -7.28046 747.178 -6.89012 747.796C-4.86034 746.972 -0.238704 745.818 2.00966 747.796C4.25803 749.773 4.66398 751.641 4.58591 752.328" stroke="#8EA3CA" stroke-width="1.0582"/>
<path d="M24.2599 779.107L17.7021 788.788" stroke="#8EA3CA" stroke-width="1.0582"/>
<path d="M18.4023 794.556C20.4321 794.35 24.7727 794.968 25.8969 799.088C27.0211 803.207 26.3653 805.336 25.8969 805.885" stroke="#8EA3CA" stroke-width="1.0582"/>
<path d="M1.18457 787.344C4.22923 777.044 9.38759 767.568 18.7499 759.535C28.3523 751.295 43.6927 744.085 51.6557 742.025" stroke="#8EA3CA" stroke-width="1.0582"/>
<path d="M-10.8672 845.583C-6.88571 844.003 2.76351 841.792 9.5086 845.583C16.2537 849.373 19.189 853.616 19.8136 855.264" stroke="#8EA3CA" stroke-width="1.0582"/>
<path d="M59.3939 864.534C59.4719 859.453 56.8644 847.89 45.81 842.287C34.7555 836.684 20.1256 843.935 14.1924 848.261" stroke="#8EA3CA" stroke-width="1.0582"/>
<path d="M51.1982 871.126C52.6815 868.654 57.4281 863.669 64.5479 863.504C71.6677 863.339 77.195 865.77 79.0686 867.006" stroke="#8EA3CA" stroke-width="1.0582"/>
<circle cx="365.32" cy="1047.64" r="106.878" fill="white"/>
<circle cx="454.428" cy="999.015" r="47.0899" fill="white"/>
<circle cx="455.98" cy="953.697" r="25.9259" fill="white"/>
<circle cx="410.585" cy="1100.79" r="66.6667" fill="white"/>
<path d="M362.966 949.992C367.025 949.236 375.753 948.715 378.189 952.67C380.625 956.625 382.014 958.849 382.405 959.467C384.435 958.643 389.056 957.49 391.305 959.467C393.553 961.445 393.959 963.313 393.881 963.999" stroke="#8EA3CA" stroke-width="1.0582"/>
<path d="M413.555 990.778L406.997 1000.46" stroke="#8EA3CA" stroke-width="1.0582"/>
<path d="M407.697 1006.23C409.727 1006.02 414.068 1006.64 415.192 1010.76C416.316 1014.88 415.66 1017.01 415.192 1017.56" stroke="#8EA3CA" stroke-width="1.0582"/>
<path d="M390.479 999.015C393.523 988.716 398.682 979.24 408.044 971.206C417.646 962.966 432.987 955.757 440.95 953.697" stroke="#8EA3CA" stroke-width="1.0582"/>
<path d="M269.186 1014.04C269.622 1003.31 272.309 992.865 279.424 982.787C286.723 972.451 299.836 961.711 307.055 957.768" stroke="#8EA3CA" stroke-width="1.0582"/>
<ellipse cx="110.919" cy="106.878" rx="110.919" ry="106.878" transform="matrix(-0.999522 0.0309192 0.0309192 0.999522 1749.39 678.78)" fill="white"/>
<ellipse cx="48.8704" cy="47.0899" rx="48.8704" ry="47.0899" transform="matrix(-0.999522 0.0309192 0.0309192 0.999522 1574.38 737.475)" fill="white"/>
<ellipse cx="15.9241" cy="15.3439" rx="15.9241" ry="15.3439" transform="matrix(-0.999522 0.0309192 0.0309192 0.999522 1501.65 832.1)" fill="white"/>
<ellipse cx="26.9062" cy="25.9259" rx="26.9062" ry="25.9259" transform="matrix(-0.999522 0.0309192 0.0309192 0.999522 1561.74 709.465)" fill="white"/>
<ellipse cx="69.1874" cy="66.6667" rx="69.1874" ry="66.6667" transform="matrix(-0.999522 0.0309192 0.0309192 0.999522 1642.71 817.595)" fill="white"/>
<ellipse cx="69.1874" cy="66.6667" rx="69.1874" ry="66.6667" transform="matrix(-0.999522 0.0309192 0.0309192 0.999522 1365.05 932.119)" fill="white"/>
<path d="M1620.35 734.118C1616.12 733.493 1607.05 733.252 1604.64 737.283C1602.24 741.314 1600.86 743.583 1600.48 744.213C1598.35 743.454 1593.52 742.45 1591.25 744.498C1588.98 746.547 1588.61 748.427 1588.71 749.111" stroke="#8EA3CA" stroke-width="1.0582"/>
<path d="M1569.14 776.508L1576.24 785.975" stroke="#8EA3CA" stroke-width="1.0582"/>
<path d="M1575.69 791.762C1573.58 791.622 1569.09 792.379 1568.05 796.532C1567.02 800.686 1567.76 802.793 1568.26 803.327" stroke="#8EA3CA" stroke-width="1.0582"/>
<path d="M1593.33 784.001C1589.85 773.804 1584.21 764.498 1574.25 756.769C1564.03 748.841 1547.89 742.127 1539.57 740.324" stroke="#8EA3CA" stroke-width="1.0582"/>
<path d="M1607.63 841.825C1603.45 840.375 1593.37 838.474 1586.49 842.479C1579.61 846.484 1576.7 850.82 1576.1 852.487" stroke="#8EA3CA" stroke-width="1.0582"/>
<path d="M1535.33 863.022C1535.09 857.946 1537.44 846.305 1548.73 840.35C1560.03 834.395 1575.43 841.173 1581.72 845.306" stroke="#8EA3CA" stroke-width="1.0582"/>
<path d="M1544.04 869.348C1542.42 866.925 1537.34 862.094 1529.95 862.158C1522.56 862.222 1516.9 864.829 1515 866.124" stroke="#8EA3CA" stroke-width="1.0582"/>
<ellipse cx="110.919" cy="106.878" rx="110.919" ry="106.878" transform="matrix(-0.999522 0.0309192 0.0309192 0.999522 1331.21 945.601)" fill="white"/>
<ellipse cx="48.8704" cy="47.0899" rx="48.8704" ry="47.0899" transform="matrix(-0.999522 0.0309192 0.0309192 0.999522 1177.11 961.537)" fill="white"/>
<ellipse cx="26.9062" cy="25.9259" rx="26.9062" ry="25.9259" transform="matrix(-0.999522 0.0309192 0.0309192 0.999522 1152.8 949.763)" fill="white"/>
<path d="M1223.07 958.18C1218.84 957.555 1209.77 957.314 1207.37 961.345C1204.96 965.377 1203.59 967.645 1203.2 968.275C1201.07 967.517 1196.24 966.512 1193.97 968.561C1191.7 970.609 1191.34 972.489 1191.44 973.173" stroke="#8EA3CA" stroke-width="1.0582"/>
<path d="M1171.86 1000.57L1178.96 1010.04" stroke="#8EA3CA" stroke-width="1.0582"/>
<path d="M1178.41 1015.82C1176.3 1015.68 1171.82 1016.44 1170.78 1020.59C1169.74 1024.75 1170.49 1026.86 1170.99 1027.39" stroke="#8EA3CA" stroke-width="1.0582"/>
<path d="M1196.05 1008.06C1192.57 997.866 1186.93 988.561 1176.97 980.831C1166.75 972.904 1150.62 966.19 1142.29 964.386" stroke="#8EA3CA" stroke-width="1.0582"/>
<path d="M1322.33 1019.19C1321.55 1008.48 1318.44 998.124 1310.75 988.279C1302.86 978.182 1288.92 967.868 1281.31 964.158" stroke="#8EA3CA" stroke-width="1.0582"/>
<g clip-path="url(#clip2_78_381)">
<path d="M1373.38 939.678C1369.46 941.281 1366.11 939.501 1364.77 938.286C1364.67 938.188 1364.58 938.076 1364.5 937.955L1363.61 936.621C1363.39 936.289 1363.25 935.894 1363.38 935.516C1363.75 934.393 1365.22 932.594 1369.19 931.317C1373.43 929.954 1376.77 932.144 1378.32 933.838C1378.68 934.224 1378.82 934.761 1378.62 935.245C1378.11 936.472 1376.66 938.341 1373.38 939.678Z" fill="#A0EBB5"/>
<path d="M1334.47 944.777C1338.41 938.798 1345.19 934.442 1353 934.995L1353.59 935.051C1354.97 935.219 1356.43 935.628 1357.71 936.168L1357.72 936.168L1358 936.297C1358.08 936.337 1358.16 936.374 1358.22 936.408L1358.43 936.511C1358.49 936.537 1358.53 936.555 1358.58 936.569C1358.64 936.585 1358.71 936.596 1358.81 936.6C1358.97 936.421 1359.07 936.252 1359.19 936.067L1359.28 935.908C1359.39 935.742 1359.52 935.557 1359.71 935.386C1359.96 935.153 1360.3 934.97 1360.76 934.824L1360.76 934.824L1360.9 934.783C1361.66 934.598 1362.79 934.685 1363.6 935.586L1363.6 935.586C1364.32 936.343 1364.51 937.186 1364.38 938.003L1364.39 938.003C1364.32 938.434 1364.21 938.758 1364.04 939.028C1363.96 939.159 1363.87 939.269 1363.78 939.366L1363.52 939.618C1363.38 939.754 1363.24 939.878 1363.11 940.05C1363.15 940.114 1363.19 940.195 1363.25 940.293C1363.41 940.551 1363.63 940.865 1363.87 941.206L1364.29 941.817C1364.36 941.92 1364.43 942.021 1364.49 942.12L1364.67 942.405L1364.86 942.763C1365.24 943.474 1365.54 944.16 1365.8 944.906L1365.93 945.285L1366.04 945.643C1366.54 947.337 1366.8 949.345 1366.75 950.972L1366.73 951.315C1366.21 960.517 1359.7 968.973 1351.02 971.445L1350.6 971.558C1345.63 972.853 1342.34 971.921 1340.4 971.171L1339.64 970.867C1339.3 970.727 1339.06 970.626 1338.87 970.57C1338.79 970.545 1338.73 970.537 1338.71 970.533C1338.61 970.6 1338.53 970.697 1338.43 970.846L1338.3 971.053C1338.12 971.326 1337.89 971.715 1337.47 971.999C1337.09 972.258 1336.61 972.403 1335.98 972.404L1335.71 972.396C1334.08 972.298 1332.99 970.814 1333.14 969.458C1333.02 969.032 1333.17 968.635 1333.34 968.35C1333.53 968.026 1333.81 967.719 1334.01 967.487L1334.18 967.298C1334.23 967.24 1334.28 967.187 1334.32 967.138C1334.35 967.099 1334.36 967.069 1334.38 967.048C1334.36 966.987 1334.32 966.902 1334.25 966.788C1334.18 966.671 1334.1 966.542 1334 966.401L1333.68 965.942C1333.47 965.648 1333.23 965.32 1333.02 964.987L1332.83 964.654C1329.33 958.452 1330.52 950.75 1334.47 944.777Z" fill="#F2B645" stroke="#341D1A" stroke-width="1.0582"/>
<path fill-rule="evenodd" clip-rule="evenodd" d="M1333.85 969.373C1334.53 969.648 1336.08 968.973 1336.67 968.563C1338.57 967.241 1336.59 966.87 1342.42 966.318C1343.46 966.219 1344.45 966.116 1345.45 965.974C1347.59 965.668 1349.92 965.108 1352 964.086C1352.76 963.715 1353.44 963.4 1354.15 962.866C1355.16 962.096 1356.03 961.524 1356.96 960.558C1359.54 957.894 1361.43 954.548 1362.25 951.134C1362.52 949.986 1362.63 949.04 1362.71 948.011C1363.06 943.184 1360.92 940.586 1361.35 939.11C1361.7 937.921 1362.41 938.169 1363.38 935.907C1362.69 935.141 1361.7 935.105 1361.09 935.295C1359.79 935.704 1360.02 936.312 1359.21 937.093C1358.49 937.134 1358.36 936.911 1357.68 936.622C1356.26 936.023 1354.62 935.594 1353.13 935.489C1337.96 934.417 1326.71 952.393 1333.46 964.361C1334.07 965.45 1335.17 966.632 1335.09 967.111C1334.95 967.631 1333.5 968.585 1333.85 969.373Z" fill="#FFD954"/>
<path fill-rule="evenodd" clip-rule="evenodd" d="M1333.85 969.373C1333.65 970.456 1334.54 971.752 1335.91 971.834C1337.98 971.96 1337.8 970.479 1338.69 969.996C1339.54 969.622 1343.03 972.992 1350.64 971.012C1359.3 968.756 1365.85 960.384 1366.37 951.25C1366.47 949.524 1366.19 947.234 1365.6 945.416C1365.27 944.421 1364.9 943.56 1364.37 942.632C1363.87 941.736 1362.64 940.301 1362.72 939.913C1363.27 939.021 1363.85 939.094 1364.03 937.892C1364.13 937.222 1363.99 936.542 1363.38 935.908C1362.41 938.17 1361.7 937.922 1361.35 939.111C1360.92 940.586 1363.06 943.185 1362.71 948.012C1362.63 949.04 1362.52 949.987 1362.25 951.135C1361.43 954.549 1359.55 957.894 1356.97 960.559C1356.03 961.525 1355.16 962.097 1354.15 962.867C1353.44 963.4 1352.76 963.715 1352 964.086C1349.92 965.109 1347.59 965.669 1345.45 965.975C1344.45 966.117 1343.46 966.22 1342.42 966.318C1336.59 966.871 1338.57 967.242 1336.67 968.564C1336.08 968.974 1334.53 969.649 1333.85 969.373Z" fill="#F2B645"/>
<path fill-rule="evenodd" clip-rule="evenodd" d="M1344.32 940.453C1343.81 941.01 1343.58 940.978 1343.18 941.804C1343.16 942.104 1343.21 942.114 1343.19 942.473C1343.1 943.805 1344.35 943.565 1344.84 943.779C1345.62 943.371 1345.75 943.446 1346.12 943.012C1346.53 942.542 1346.65 941.994 1346.63 941.528C1346.57 940.217 1345.04 940.003 1344.32 940.453Z" fill="white"/>
<path fill-rule="evenodd" clip-rule="evenodd" d="M1344.14 940.356L1344.32 940.454C1345.04 940.004 1346.57 940.218 1346.63 941.529C1346.65 941.995 1346.53 942.543 1346.12 943.012C1345.75 943.446 1345.62 943.372 1344.84 943.78C1343.77 944.13 1343.42 943.566 1342.97 942.729C1342.92 942.999 1342.84 943.007 1343.06 943.31C1343.22 943.533 1343.47 943.659 1343.7 943.805C1344.22 944.148 1344.31 944.131 1344.8 944.031C1346.81 943.617 1347.34 941.178 1346.41 940.562C1345.83 940.176 1344.94 939.691 1344.14 940.356Z" fill="#F2EA77"/>
<path fill-rule="evenodd" clip-rule="evenodd" d="M1342.97 942.727C1343.42 943.564 1343.77 944.128 1344.84 943.777C1344.35 943.564 1343.1 943.804 1343.19 942.472C1343.21 942.113 1343.16 942.102 1343.17 941.803C1343.58 940.977 1343.81 941.008 1344.32 940.452L1344.14 940.354C1343.96 940.582 1343.83 940.599 1343.64 940.765C1343.44 940.95 1343.25 941.231 1343.12 941.47C1342.84 941.998 1342.78 942.311 1342.97 942.727Z" fill="#F5F3B7"/>
<path fill-rule="evenodd" clip-rule="evenodd" d="M1339.36 960.812C1340.09 961.116 1339.5 961.223 1340.33 960.853C1340.94 960.589 1342.56 958.78 1343.71 958.518C1343.41 959.134 1342.95 959.88 1342.41 960.647C1340.55 963.245 1340.99 962.13 1341.41 963.08C1341.5 963.058 1341.56 962.957 1341.65 962.99C1341.75 963.032 1341.82 962.931 1341.88 962.892L1343.06 961.641C1343.9 960.447 1346.22 957.425 1345.96 955.991C1345.08 955.715 1345.28 955.797 1344.37 956.433L1340.75 959.116C1339.95 959.722 1339.51 960.021 1339.36 960.812Z" fill="#7E252E"/>
<path fill-rule="evenodd" clip-rule="evenodd" d="M1352.14 950.424C1352.64 950.417 1358.89 947.475 1358.67 946.057C1357.29 945.6 1356.37 947.468 1354.43 947.826C1354.6 947.106 1354.82 946.725 1355.19 946.001C1355.78 944.833 1355.75 944.841 1355.44 944.167C1354.96 944.276 1355.43 943.766 1354.63 944.592C1354.63 944.592 1354.22 945.331 1354.22 945.347L1352.5 948.702C1351.92 949.689 1351.81 949.585 1352.14 950.424Z" fill="#7E252E"/>
<path fill-rule="evenodd" clip-rule="evenodd" d="M1353.14 959.783L1352.01 958.945C1353.35 957.422 1353.7 956.823 1355.32 956.57L1352.54 953.785C1352.33 955.149 1350.91 956.042 1349.86 956.541C1349.87 955.787 1349.28 956.774 1350.12 955.595L1352.47 953.651C1351.29 954.022 1351.02 955.078 1349.53 955.545C1348.85 956.232 1349.01 955.968 1348.79 956.647C1349.73 956.327 1348.71 955.994 1349.93 957.139C1350.18 957.372 1350.73 958.065 1351.07 958.402C1351.82 959.17 1352.13 959.647 1353.14 959.783Z" fill="#F5625C"/>
<path fill-rule="evenodd" clip-rule="evenodd" d="M1352.47 953.65L1352.54 953.785L1355.32 956.57C1356.73 959.102 1355.22 961.204 1353.14 959.783C1352.13 959.646 1351.82 959.169 1351.07 958.401C1350.73 958.065 1350.18 957.372 1349.93 957.139C1348.71 955.993 1349.73 956.326 1348.79 956.647C1349.88 959.142 1353.8 962.011 1355.81 960.264C1358.24 958.163 1353.9 952.058 1352 953.162L1349.53 955.545C1351.02 955.077 1351.29 954.021 1352.47 953.65Z" fill="#7E252E"/>
<path fill-rule="evenodd" clip-rule="evenodd" d="M1353.14 959.783C1355.22 961.204 1356.73 959.102 1355.32 956.57C1353.7 956.824 1353.35 957.422 1352.01 958.945L1353.14 959.783Z" fill="#FC867D"/>
<path fill-rule="evenodd" clip-rule="evenodd" d="M1336.72 957.031C1338 956.402 1338.6 955.188 1340.29 954.488C1341.54 953.961 1343.18 954.187 1343.86 953.249C1342.11 951.331 1335.01 955.546 1336.72 957.031Z" fill="#7E252E"/>
<path fill-rule="evenodd" clip-rule="evenodd" d="M1348.59 949.061C1349.52 948.363 1349.1 946.839 1349.58 945.481C1350.68 942.367 1351.99 942.885 1350.83 941.686C1349.29 942.341 1346.83 947.874 1348.59 949.061Z" fill="#7E252E"/>
<path fill-rule="evenodd" clip-rule="evenodd" d="M1352.54 953.785L1352.47 953.65L1350.12 955.595C1349.28 956.774 1349.87 955.787 1349.86 956.541C1350.9 956.041 1352.33 955.148 1352.54 953.785Z" fill="#F4D7D8"/>
<path d="M1363.47 935.29C1363.89 935.333 1364.31 935.436 1364.68 935.595C1366.12 936.212 1368.14 936.607 1370.74 936.238C1374.17 935.752 1376.89 934.921 1378.59 934.253C1378.73 934.566 1378.76 934.917 1378.62 935.245C1378.11 936.472 1376.66 938.342 1373.38 939.678C1369.46 941.281 1366.11 939.501 1364.77 938.286C1364.67 938.188 1364.58 938.076 1364.5 937.955L1363.61 936.621C1363.39 936.289 1363.25 935.893 1363.38 935.516C1363.4 935.443 1363.43 935.368 1363.47 935.29Z" fill="#6EAF80"/>
<path fill-rule="evenodd" clip-rule="evenodd" d="M1369.03 930.813C1373.54 929.363 1377.08 931.703 1378.71 933.48C1379.18 933.987 1379.4 934.738 1379.11 935.447C1378.54 936.824 1376.97 938.786 1373.58 940.168C1369.41 941.873 1365.85 939.979 1364.42 938.677C1364.27 938.543 1364.15 938.394 1364.05 938.247L1364.5 937.955L1364.05 938.247L1363.17 936.913C1362.92 936.526 1362.68 935.954 1362.88 935.349L1363.37 935.513L1362.88 935.349C1363.33 934.004 1364.98 932.118 1369.03 930.813ZM1377.93 934.196C1376.45 932.586 1373.32 930.545 1369.36 931.82C1365.47 933.07 1364.18 934.783 1363.88 935.683C1363.83 935.833 1363.87 936.051 1364.05 936.329L1364.94 937.663C1365 937.758 1365.06 937.833 1365.13 937.894L1364.78 938.28L1365.13 937.894C1366.37 939.023 1369.51 940.689 1373.18 939.188C1376.35 937.897 1377.68 936.12 1378.13 935.042C1378.24 934.785 1378.18 934.461 1377.93 934.196Z" fill="#341D1A"/>
</g>
<g clip-path="url(#clip3_78_381)">
<path d="M26.0744 672.607C24.0109 674.096 21.7949 674.177 20.8344 674.019C20.7575 674.007 20.6883 673.984 20.6241 673.957L19.9143 673.651C19.7375 673.575 19.599 673.457 19.6176 673.286C19.6727 672.778 20.2712 671.768 22.4083 670.392C24.6886 668.924 26.9578 669.001 28.1145 669.291C28.3776 669.357 28.54 669.527 28.4931 669.755C28.3741 670.333 27.7952 671.366 26.0744 672.607Z" fill="#A0EBB5"/>
<path d="M19.7592 673.3C20.2088 673.129 20.6877 673.001 21.1373 672.914C21.9496 672.756 22.925 672.449 24.032 671.902C25.8217 671.019 27.2092 670.161 28.1196 669.535C28.3429 669.772 28.4136 670.086 28.2439 670.393C27.924 670.973 27.2783 671.739 26.0753 672.607C24.1219 674.016 22.0319 674.164 20.9997 674.043C20.8139 674.021 20.6366 673.961 20.4688 673.889C20.142 673.749 19.8689 673.539 19.7592 673.3Z" fill="#6EAF80"/>
<path fill-rule="evenodd" clip-rule="evenodd" d="M22.9031 695.308C23.9947 693.827 23.7648 693.037 24.1684 692.189C25.0743 692.119 26.9187 693.142 27.6171 693.596C33.5803 697.483 33.5208 706.241 28.2956 710.156C26.3708 711.596 23.5517 712.83 20.3995 712.275C17.5674 711.776 15.5077 710.501 14.0423 708.741C8.47086 702.059 12.9541 691.638 22.528 691.868C22.7952 693.203 20.305 695.541 22.9031 695.308ZM6.42616 690.968C6.14761 691.4 6.4887 691.008 6.03831 691.314C4.51521 692.353 2.79848 692.462 3.59108 693.519C4.31976 694.502 6.97535 692.453 7.66785 692.262C8.3861 692.895 9.09355 694.486 9.4352 695.506C10.8454 699.719 9.01279 704.426 5.5508 706.957C3.72454 708.29 0.893867 709.062 -1.42889 708.78C-5.34216 708.304 -8.57788 705.855 -9.93422 702.446C-13.1675 694.302 -5.4624 685.81 3.33486 689.012C4.05142 689.273 5.95817 690.248 6.42616 690.968ZM22.862 690.308C20.0077 690.637 18.8145 690.177 15.6558 692.085C14.2285 692.947 12.6179 694.458 11.7941 695.973C11.6415 696.258 11.5806 696.428 11.3187 696.627C10.9681 695.623 11.1675 695.468 10.4226 693.741C10.0307 692.831 9.35581 692.074 9.03083 691.316C9.27982 690.95 10.3539 690.17 10.8003 689.76C11.4421 689.177 11.8383 688.798 12.4356 688.143C18.0709 681.983 18.8254 675.731 19.1277 675.25C19.579 675.708 20.5435 677.548 20.8779 678.219C21.4179 679.303 21.8713 680.39 22.2757 681.703C22.6728 682.991 22.9775 684.382 23.0405 685.831C23.0809 686.703 23.0744 689.58 22.862 690.308ZM19.9046 673.602C19.7814 672.996 20.7442 671.915 21.1011 671.516C21.5654 670.991 22.2403 670.431 22.9233 670.08C24.2833 669.385 27.0875 669.253 28.3695 670.016C28.2369 670.567 27.4501 671.551 27.0813 671.973C25.2411 674.1 22.2431 674.535 19.9046 673.602ZM8.61479 670.787C9.78164 669.916 12.7016 669.869 14.0366 670.427C15.2377 670.926 16.9051 672.351 17.4637 673.585C16.3812 674.478 13.3291 674.51 11.965 673.947C10.8066 673.472 8.83728 671.715 8.61479 670.787ZM9.67036 704.821C9.82976 704.545 9.83841 704.356 10.151 704.138C10.1713 704.166 10.1857 704.204 10.1963 704.229L10.3304 704.622C10.365 704.769 10.3805 704.919 10.4224 705.087C10.4913 705.371 10.5741 705.602 10.6647 705.865C11.2221 707.477 11.8376 708.522 12.9257 709.828C17.1799 714.928 25.1232 715.334 30.0928 710.629C32.8547 708.013 34.8415 703.306 33.108 698.297C31.7216 694.283 28.6846 691.66 24.4885 690.6L24.5808 686.221C24.5266 684.669 24.3623 683.503 24.0121 682.098C23.1478 678.628 21.8361 677.187 21.2279 675.505C25.3714 675.629 27.3534 674.749 29.4523 671.351C29.857 670.696 30.897 669.291 29.6333 668.749C27.7493 667.946 24.8828 667.634 22.7984 668.441C21.4162 668.977 20.2689 670.02 19.4039 671.139C19.2418 671.345 18.7565 672.157 18.5665 672.305C18.3759 672.194 17.7088 671.308 17.5241 671.1C17.0975 670.619 16.9146 670.456 16.4333 670.054C12.6773 666.942 6.97573 669.348 6.72043 670.129C6.47671 670.877 7.83043 672.49 8.18369 672.903C10.9898 676.191 13.4386 676.33 17.3784 675.347C17.4321 676.476 16.3169 678.998 15.9363 679.941C14.8766 682.57 12.9836 685.238 11.1918 687.205C10.6406 687.808 8.72852 689.658 7.91913 690.062C7.35312 689.792 6.63423 688.896 5.13314 688.113C1.53116 686.234 -2.71544 686.348 -6.12514 688.244C-9.85224 690.316 -13.1605 694.976 -12.0245 700.801C-10.4632 708.802 -1.68828 712.746 5.40085 708.873C7.0323 707.978 8.74364 706.415 9.67036 704.821Z" fill="#341D1A"/>
<path d="M13.914 674.17C11.3734 674.028 9.60078 672.696 8.95348 671.969C8.90166 671.911 8.86193 671.85 8.82939 671.788L8.47002 671.104C8.38056 670.934 8.34713 670.755 8.46916 670.634C8.83178 670.274 9.93267 669.865 12.4594 670.141C15.1554 670.436 16.8703 671.924 17.5869 672.877C17.75 673.093 17.7687 673.328 17.589 673.476C17.1328 673.85 16.0327 674.288 13.914 674.17Z" fill="#A0EBB5"/>
<path d="M8.57092 670.733C9.02782 670.883 9.48024 671.085 9.88455 671.3C10.615 671.689 11.5674 672.064 12.7716 672.336C14.7184 672.777 16.3365 672.983 17.4382 673.069C17.4625 673.394 17.3189 673.682 16.9934 673.815C16.3799 674.064 15.3959 674.253 13.9149 674.17C11.5104 674.036 9.79396 672.835 9.06829 672.091C8.93778 671.957 8.83624 671.8 8.75133 671.639C8.58577 671.323 8.50529 670.988 8.57092 670.733Z" fill="#6EAF80"/>
<path fill-rule="evenodd" clip-rule="evenodd" d="M22.9011 695.31C20.3031 695.543 22.7932 693.204 22.526 691.869C12.9521 691.639 8.46888 702.06 14.0403 708.743C15.5057 710.503 17.5654 711.777 20.3976 712.277C23.5497 712.831 26.3688 711.597 28.2936 710.158C33.5188 706.242 33.5783 697.484 27.6151 693.597C26.9167 693.143 25.0723 692.12 24.1664 692.191C23.7628 693.038 23.9928 693.829 22.9011 695.31Z" fill="#F7405E"/>
<path fill-rule="evenodd" clip-rule="evenodd" d="M6.42487 690.969C5.95688 690.249 4.05013 689.274 3.33357 689.013C-5.46369 685.811 -13.1688 694.303 -9.93551 702.448C-8.57917 705.856 -5.34345 708.305 -1.43018 708.781C0.892576 709.063 3.72325 708.291 5.54951 706.958C9.0115 704.428 10.8441 699.72 9.43391 695.508C9.09226 694.487 8.38481 692.896 7.66656 692.263C6.97406 692.454 4.31847 694.503 3.58979 693.52C2.79719 692.463 4.51392 692.354 6.03702 691.315C6.4874 691.009 6.14632 691.401 6.42487 690.969Z" fill="#F7405E"/>
<path fill-rule="evenodd" clip-rule="evenodd" d="M-2.46405 705.003C-2.77293 704.238 -2.79654 703.776 -2.82291 702.82C-2.82415 702.6 -2.82928 701.686 -2.78827 701.507C-2.60412 700.635 -2.88522 701.077 -2.36239 700.665L1.20936 700.802C1.69589 701.409 1.90034 704.149 1.16734 704.542C1.19537 705.791 0.631654 706.404 -0.268437 706.965C-1.80204 706.932 -2.06767 706.387 -2.46405 705.003ZM-3.1617 700.47C-3.761 702.227 -3.4949 704.725 -2.66703 706.265C-0.682168 709.971 3.35919 705.832 2.1239 700.944C1.83402 699.822 0.995765 700.173 -0.306371 700.212C-1.23048 700.238 -2.32303 700.192 -3.1617 700.47Z" fill="#341D1A"/>
<path fill-rule="evenodd" clip-rule="evenodd" d="M-2.46304 705.003C-2.3006 704.004 -2.06984 703.95 -0.809299 703.985C0.0205773 704.012 0.515435 704.23 1.16836 704.541C1.90136 704.148 1.69691 701.408 1.21037 700.802C1.15072 701.401 1.38945 700.895 1.0136 701.297C0.142715 701.448 -2.28066 701.945 -2.36137 700.664C-2.8842 701.077 -2.60311 700.634 -2.78725 701.507C-2.82826 701.686 -2.82313 702.599 -2.82189 702.82C-2.79552 703.776 -2.77192 704.238 -2.46304 705.003Z" fill="#F5625C"/>
<path fill-rule="evenodd" clip-rule="evenodd" d="M-2.46303 705.003C-2.06665 706.387 -1.80102 706.932 -0.267413 706.965C0.632678 706.404 1.19639 705.791 1.16837 704.542C0.51544 704.23 0.0205819 704.012 -0.809295 703.986C-2.06983 703.951 -2.3006 704.004 -2.46303 705.003Z" fill="#FC867D"/>
<path fill-rule="evenodd" clip-rule="evenodd" d="M6.21238 697.55C4.01628 701.112 10.6659 701.337 8.11286 697.455L6.21238 697.55Z" fill="#341D1A"/>
<path fill-rule="evenodd" clip-rule="evenodd" d="M1.20944 700.802L-2.3623 700.664C-2.28159 701.945 0.141781 701.448 1.01267 701.297C1.38851 700.895 1.14979 701.401 1.20944 700.802Z" fill="#F4D7D8"/>
<path fill-rule="evenodd" clip-rule="evenodd" d="M23.5041 704.128C24.0561 704.896 24.2952 704.327 25.2992 704.945C21.2978 706.84 24.8601 710.278 26.7639 708.336C29.1552 705.91 24.6067 702.711 23.5041 704.128Z" fill="#341D1A"/>
<path fill-rule="evenodd" clip-rule="evenodd" d="M16.6833 698.33C16.7131 699.207 17.5717 699.471 18.4191 700.943C17.1799 701.048 16.2955 699.507 15.2851 700.204C15.3786 700.441 14.8479 700.347 16.1969 700.934C17.546 701.521 18.5049 702.261 19.3892 701.75C19.4775 700.876 18.3155 699.489 17.6722 698.73C16.8809 697.81 17.1465 698.302 16.6833 698.33Z" fill="#341D1A"/>
<path fill-rule="evenodd" clip-rule="evenodd" d="M19.4901 706.556C19.0331 705.708 19.3972 705.439 18.7104 704.596C18.1923 705.637 19.0348 706.946 19.2879 707.082C20.0771 707.259 20.7554 707.233 21.299 706.635C20.3559 706.01 20.7649 706.781 19.4901 706.556Z" fill="#341D1A"/>
</g>
<g clip-path="url(#clip4_78_381)">
<path d="M1588.57 535.293C1589.3 535.015 1590.12 535.077 1590.8 535.46L1599.18 540.167L1599.38 540.292C1600.29 540.916 1600.72 542.044 1600.45 543.114L1600.38 543.341L1589.1 575.78C1588.57 577.306 1586.82 577.993 1585.4 577.267L1585.27 577.193L1555.64 559.814C1554.56 559.181 1554.08 557.878 1554.47 556.691L1557.33 548.174L1557.38 548.035C1557.66 547.348 1558.21 546.805 1558.9 546.542L1588.57 535.293Z" fill="#341D1A" stroke="#341D1A" stroke-width="1.0582"/>
<path fill-rule="evenodd" clip-rule="evenodd" d="M1587.84 577.45C1588.48 576.795 1589.17 574.132 1589.52 573.228C1590.11 571.665 1590.61 570.303 1591.14 568.708L1595.11 557.452C1595.37 556.767 1595.64 555.992 1595.88 555.274C1596.39 553.706 1596.89 552.258 1597.46 550.726L1600.6 541.768L1585.1 547.571L1587.84 577.45Z" fill="#E1E1E1"/>
<path fill-rule="evenodd" clip-rule="evenodd" d="M1585.88 577.707L1568.98 553.393L1554.91 558.736C1556.92 560.409 1573.63 570.121 1578.06 573.034C1579.17 573.756 1584.95 577.495 1585.88 577.707Z" fill="#E1E1E1"/>
<path d="M1584.6 547.47L1569.44 553.219L1586.89 577.448L1584.6 547.47Z" fill="#FFFCF4"/>
<path fill-rule="evenodd" clip-rule="evenodd" d="M1569.29 552.706L1573.71 541.632L1558.63 547.322C1559.08 547.839 1568.52 552.424 1569.29 552.706Z" fill="#FFFCF4"/>
<path fill-rule="evenodd" clip-rule="evenodd" d="M1585.28 546.825C1585.57 546.34 1586.26 544.76 1586.51 544.11L1589.69 535.78L1575 541.308C1575.4 541.915 1584.13 546.413 1585.28 546.825Z" fill="#FFFCF4"/>
<path fill-rule="evenodd" clip-rule="evenodd" d="M1586.4 546.779L1600.48 541.449L1590.84 535.754C1590.14 536.735 1589.07 539.846 1588.6 541.099C1588.22 542.157 1586.54 545.744 1586.4 546.779Z" fill="#FFFCF4"/>
<path fill-rule="evenodd" clip-rule="evenodd" d="M1554.67 558.104L1568.77 552.822C1568.22 552.392 1559.21 547.759 1558.13 547.512L1554.67 558.104Z" fill="#FFFCF4"/>
<path fill-rule="evenodd" clip-rule="evenodd" d="M1569.97 552.177L1583.51 547.038L1578.87 544.442C1577.16 543.593 1575.99 542.873 1574.21 542.057C1573.54 542.572 1572.41 545.85 1571.93 546.937L1569.97 552.177Z" fill="#FFFCF4"/>
<path fill-rule="evenodd" clip-rule="evenodd" d="M1581.87 551.265C1581.95 554.673 1576.8 556.339 1574.63 554.311L1581.87 551.265ZM1573.34 554.18C1575.02 558.159 1584.25 555.503 1582.59 550.322C1580.43 550.424 1574.8 552.749 1573.34 554.18Z" fill="#843C43"/>
<path fill-rule="evenodd" clip-rule="evenodd" d="M1581.45 545.944C1582.99 546.334 1585.25 544.73 1587.02 544.422C1588.65 544.139 1590.93 544.658 1591.84 543.599C1591.23 542.446 1591.36 542.681 1589.81 542.697C1588.05 542.712 1581.16 543.539 1581.45 545.944Z" fill="#7E252E"/>
<path fill-rule="evenodd" clip-rule="evenodd" d="M1561.32 554.773C1562.78 555.062 1565.52 552.081 1567.57 551.305C1568.05 551.12 1569.01 550.902 1569.36 550.737C1571.33 549.894 1570.26 550.314 1570.66 549.638C1570.07 549.116 1571.06 548.435 1567.41 549.837C1565.46 550.576 1563.56 551.661 1562.1 553.045C1560.97 554.108 1561.23 553.74 1561.32 554.773Z" fill="#7E252E"/>
<path fill-rule="evenodd" clip-rule="evenodd" d="M1574.63 554.311C1576.8 556.339 1581.95 554.673 1581.87 551.265L1574.63 554.311Z" fill="#FC867D"/>
</g>
<path d="M19.8977 353.504C22.1643 354.734 23.0034 357.569 21.7731 359.837C21.0101 361.243 19.6303 362.097 18.153 362.253L18.162 362.743L18.1625 362.764L18.1613 362.787C18.1242 363.368 18.1447 363.996 18.1803 364.646L18.219 365.301L18.2202 365.32L18.2201 365.334C18.2442 365.72 18.2688 366.11 18.2824 366.487L18.2921 366.862L18.2928 366.867L18.2952 367.264L18.2948 367.265L18.303 368.165C18.3079 368.489 18.3158 368.829 18.33 369.159C18.3512 369.653 18.3859 370.098 18.4368 370.43L18.5692 370.457L19.1723 370.572L18.9689 371.151C18.8505 371.488 18.8363 371.685 18.8504 371.792C18.8612 371.872 18.8873 371.904 18.9282 371.935C18.9902 371.982 19.106 372.034 19.3131 372.079C19.5171 372.124 19.7557 372.151 20.0412 372.183L20.0546 372.185C20.2979 372.213 20.5692 372.244 20.8393 372.293L21.2108 372.356L22.8242 372.64C23.1438 372.7 23.4655 372.765 23.7421 372.828C23.8284 372.567 23.9373 372.309 24.073 372.059C25.3035 369.792 28.1381 368.95 30.4049 370.179C32.6717 371.41 33.5114 374.245 32.2812 376.513C31.0507 378.781 28.2154 379.622 25.9484 378.392C25.3349 378.059 24.8262 377.607 24.4341 377.081L24.4003 377.113L24.3927 377.119C22.7909 378.6 20.4953 380.724 18.7079 382.464C19.1009 384.215 18.9602 385.934 18.1476 387.432C16.8391 389.843 14.1154 391.097 10.912 391.28C7.69888 391.463 3.91308 390.581 0.299197 388.62C-3.31476 386.659 -6.11749 383.965 -7.71558 381.172C-9.30889 378.386 -9.74278 375.419 -8.43416 373.008C-7.64877 371.56 -6.34667 370.526 -4.74128 369.894C-4.24399 367.441 -3.7755 364.801 -3.64485 363.872L-3.64524 363.871C-3.5485 363.191 -3.43488 362.676 -3.33671 362.281C-3.76585 362.19 -4.18931 362.038 -4.59369 361.819C-6.86068 360.589 -7.70051 357.753 -6.47004 355.485C-5.23946 353.218 -2.40414 352.376 -0.13727 353.606C2.12955 354.836 2.96925 357.672 1.73908 359.94C1.64888 360.106 1.54811 360.264 1.44129 360.415C1.9543 361.073 2.74704 361.98 3.5304 362.802C3.9869 363.28 4.43285 363.723 4.80947 364.065C4.99787 364.236 5.16453 364.378 5.30358 364.485C5.33172 364.507 5.35978 364.524 5.38382 364.542C5.67465 364.381 5.92791 364.224 6.19091 364.06L6.19761 364.056L6.21279 364.046C6.61523 363.795 7.03991 363.531 7.62352 363.246L7.84361 363.133C8.38297 362.845 9.09929 362.388 9.90024 361.876L9.93145 361.858L9.94266 361.849L9.95114 361.844L9.95916 361.839C10.1773 361.7 10.3997 361.558 10.6231 361.416L11.3016 360.991L12.0958 360.514C12.3573 360.362 12.614 360.219 12.8608 360.089L12.8626 360.088L13.4127 359.803C13.005 359.028 12.8578 358.129 13.0129 357.25C13.0619 356.614 13.2419 355.978 13.5649 355.383C14.7954 353.115 17.6307 352.274 19.8977 353.504Z" fill="#FF9B43" stroke="#341D1A" stroke-width="1.0582"/>
<path fill-rule="evenodd" clip-rule="evenodd" d="M9.73412 379.264C8.931 381.976 13.4769 383.562 14.1416 380.513C14.7841 377.629 10.5867 376.367 9.73412 379.264Z" fill="white"/>
<path fill-rule="evenodd" clip-rule="evenodd" d="M3.40694 376.254C5.76117 374.426 3.02674 370.92 0.5319 372.773C-1.91496 374.584 1.10369 378.05 3.40694 376.254Z" fill="white"/>
<path fill-rule="evenodd" clip-rule="evenodd" d="M9.73518 379.265C10.5878 376.368 14.7852 377.63 14.1427 380.514C13.478 383.563 8.93206 381.976 9.73518 379.265ZM12.3192 376.935C8.00469 376.684 7.72741 382.372 11.7292 382.919C15.6312 383.462 16.049 377.157 12.3192 376.935Z" fill="#7E252E"/>
<path fill-rule="evenodd" clip-rule="evenodd" d="M3.40648 376.253C1.10323 378.05 -1.91542 374.584 0.531434 372.772C3.02628 370.919 5.7607 374.425 3.40648 376.253ZM2.95376 371.692C-0.757133 370.609 -2.98792 375.703 1.01085 377.331C4.43215 378.714 6.89867 372.843 2.95376 371.692Z" fill="#7E252E"/>
<path fill-rule="evenodd" clip-rule="evenodd" d="M5.85986 382.044C5.38237 382.191 5.04828 382.23 4.46108 381.877C4.12527 381.67 4.0711 381.598 3.883 381.352C3.47467 380.826 3.63982 381.161 3.61975 380.668C3.50574 380.098 3.4462 380.286 3.82052 379.643C4.72427 380.082 4.88896 379.935 5.66436 380.034C5.92031 380.638 6.05237 380.769 6.69019 381.2C6.41823 381.966 6.51476 381.866 5.85986 382.044ZM8.38374 380.714C7.56557 380.6 7.87194 381.19 6.93682 380.792C6.19182 380.481 6.09706 380.032 6.05794 379.512C5.47789 379.442 4.17483 379.894 3.7027 378.69C3.41088 377.965 3.95668 378.659 3.375 377.844C3.09392 378.783 3.24923 378.419 3.364 379.065C3.5143 379.942 2.50251 381.136 4.30146 382.172C6.16577 383.242 6.62639 381.614 7.43179 381.315C7.91339 381.145 7.95753 381.515 8.38374 380.714Z" fill="#843C43"/>
<path fill-rule="evenodd" clip-rule="evenodd" d="M3.61775 380.666C4.27341 380.565 5.18801 381.078 5.54962 381.41C6.20203 382.001 5.8759 381.604 5.85786 382.043C6.51276 381.865 6.41623 381.965 6.68819 381.199C6.05037 380.768 5.91831 380.637 5.66236 380.033C4.88696 379.933 4.72228 380.081 3.81852 379.641C3.4442 380.284 3.50374 380.097 3.61775 380.666Z" fill="#F5625C"/>
<path fill-rule="evenodd" clip-rule="evenodd" d="M11.1692 375.888C12.1076 376.186 12.4828 375.915 13.4166 376.253C15.09 376.865 14.6165 377.488 15.6342 377.405C15.3978 376.219 12.3102 374.612 11.1692 375.888Z" fill="#693638"/>
<path fill-rule="evenodd" clip-rule="evenodd" d="M3.40783 369.189C4.3577 369.543 4.48013 369.068 5.11324 370.334C5.48163 371.059 5.32206 371.649 6.07755 372.143C6.63029 370.844 4.11883 367.239 3.40783 369.189Z" fill="#7E252E"/>
<path fill-rule="evenodd" clip-rule="evenodd" d="M5.85665 382.042C5.87469 381.604 6.20082 382.001 5.54841 381.41C5.1868 381.078 4.2722 380.565 3.61654 380.666C3.63661 381.159 3.47147 380.824 3.87979 381.35C4.06789 381.596 4.12206 381.668 4.45787 381.876C5.04507 382.228 5.37916 382.189 5.85665 382.042Z" fill="#FC867D"/>
<path d="M-8.47408 374.538C-5.66812 378.135 -1.75797 381.469 2.99489 384.048C7.58672 386.539 12.3399 387.989 16.7558 388.437C13.6867 391.605 6.88534 391.591 0.55212 388.154C-5.87227 384.668 -9.60882 378.858 -8.47408 374.538ZM19.7966 354.055C19.723 354.014 19.6497 353.973 19.5757 353.932C19.5991 353.944 19.6225 353.956 19.6457 353.969C19.6969 353.997 19.7471 354.026 19.7966 354.055Z" fill="#C06E25"/>
<path d="M0.908943 355.137C1.82841 356.377 2.0029 358.094 1.21323 359.549C0.130154 361.545 -2.35374 362.291 -4.33462 361.216C-5.16745 360.765 -5.77792 360.062 -6.12633 359.252C-5.78485 359.712 -5.34139 360.108 -4.80535 360.399C-2.82446 361.473 -0.340907 360.726 0.7421 358.73C1.36937 357.574 1.38845 356.253 0.908943 355.137Z" fill="#C06E25"/>
<path d="M20.7002 354.971C21.6205 356.211 21.7948 357.929 21.0049 359.385C19.9218 361.381 17.4375 362.128 15.4566 361.053C14.6241 360.601 14.0142 359.899 13.6657 359.089C14.0071 359.549 14.4505 359.944 14.9863 360.234C16.9673 361.309 19.4515 360.562 20.5346 358.566C21.1622 357.41 21.1805 356.088 20.7002 354.971Z" fill="#C06E25"/>
<path d="M31.2366 371.591C32.158 372.832 32.3328 374.551 31.5425 376.007C30.4593 378.003 27.9755 378.749 25.9946 377.674C25.1622 377.223 24.5518 376.521 24.2033 375.711C24.5447 376.171 24.9881 376.566 25.5239 376.857C27.5049 377.932 29.9891 377.185 31.0722 375.189C31.7001 374.031 31.7177 372.708 31.2366 371.591Z" fill="#C06E25"/>
</g>
<defs>
<clipPath id="clip0_78_381">
<rect width="1600" height="1039.15" fill="white" transform="translate(0 0.153442)"/>
</clipPath>
<clipPath id="clip1_78_381">
<rect x="1446" y="920.859" width="57.1429" height="101.587" rx="11.6402" transform="rotate(-40.5108 1446 920.859)" fill="white"/>
</clipPath>
<clipPath id="clip2_78_381">
<rect x="1323.83" y="901.744" width="57.1429" height="101.587" rx="11.6402" fill="white"/>
</clipPath>
<clipPath id="clip3_78_381">
<rect x="13.5791" y="631.758" width="57.1429" height="101.587" rx="11.6402" transform="rotate(28.5332 13.5791 631.758)" fill="white"/>
</clipPath>
<clipPath id="clip4_78_381">
<rect x="1536.39" y="522.257" width="57.1429" height="101.587" rx="11.6402" transform="rotate(-20.7642 1536.39 522.257)" fill="white"/>
</clipPath>
</defs>
</svg>