<svg width="106" height="18" viewBox="0 0 106 18" fill="none" xmlns="http://www.w3.org/2000/svg">
<g clip-path="url(#clip0_2035_339)">
<path d="M17.9531 7.2886C17.8353 6.9294 17.512 6.67427 17.1296 6.6403L11.9343 6.1754L9.8799 1.4366C9.72843 1.08931 9.38345 0.864502 9.00015 0.864502C8.61686 0.864502 8.27188 1.08931 8.1204 1.43741L6.06604 6.1754L0.869924 6.6403C0.488139 6.67508 0.165682 6.9294 0.0471639 7.2886C-0.0713542 7.6478 0.0380999 8.04179 0.32691 8.29014L4.25394 11.6843L3.09595 16.7114C3.01121 17.081 3.15679 17.4631 3.46798 17.6848C3.63525 17.8039 3.83095 17.8645 4.0283 17.8645C4.19845 17.8645 4.36724 17.8193 4.51871 17.73L9.00015 15.0904L13.4799 17.73C13.8078 17.9243 14.221 17.9066 14.5315 17.6848C14.8428 17.4624 14.9883 17.0802 14.9035 16.7114L13.7455 11.6843L17.6726 8.29082C17.9614 8.04179 18.0717 7.64848 17.9531 7.2886Z" fill="#FFC107"/>
</g>
<g clip-path="url(#clip1_2035_339)">
<path d="M39.9532 7.2886C39.8354 6.9294 39.5121 6.67427 39.1296 6.6403L33.9344 6.1754L31.88 1.4366C31.7285 1.08931 31.3835 0.864502 31.0002 0.864502C30.6169 0.864502 30.272 1.08931 30.1205 1.43741L28.0661 6.1754L22.87 6.6403C22.4882 6.67508 22.1658 6.9294 22.0473 7.2886C21.9287 7.6478 22.0382 8.04179 22.327 8.29014L26.254 11.6843L25.096 16.7114C25.0113 17.081 25.1569 17.4631 25.4681 17.6848C25.6353 17.8039 25.831 17.8645 26.0284 17.8645C26.1985 17.8645 26.3673 17.8193 26.5188 17.73L31.0002 15.0904L35.48 17.73C35.8078 17.9243 36.2211 17.9066 36.5316 17.6848C36.8429 17.4624 36.9884 17.0802 36.9036 16.7114L35.7456 11.6843L39.6727 8.29082C39.9615 8.04179 40.0717 7.64848 39.9532 7.2886Z" fill="#FFC107"/>
</g>
<g clip-path="url(#clip2_2035_339)">
<path d="M61.9535 7.2886C61.8356 6.9294 61.5124 6.67427 61.1299 6.6403L55.9346 6.1754L53.8802 1.4366C53.7288 1.08931 53.3838 0.864502 53.0005 0.864502C52.6172 0.864502 52.2722 1.08931 52.1207 1.43741L50.0664 6.1754L44.8703 6.6403C44.4885 6.67508 44.166 6.9294 44.0475 7.2886C43.929 7.6478 44.0384 8.04179 44.3272 8.29014L48.2543 11.6843L47.0963 16.7114C47.0115 17.081 47.1571 17.4631 47.4683 17.6848C47.6356 17.8039 47.8313 17.8645 48.0286 17.8645C48.1988 17.8645 48.3676 17.8193 48.519 17.73L53.0005 15.0904L57.4803 17.73C57.8081 17.9243 58.2213 17.9066 58.5318 17.6848C58.8432 17.4624 58.9886 17.0802 58.9039 16.7114L57.7459 11.6843L61.6729 8.29082C61.9617 8.04179 62.072 7.64848 61.9535 7.2886Z" fill="#FFC107"/>
</g>
<g clip-path="url(#clip3_2035_339)">
<path d="M83.9536 7.2886C83.8358 6.9294 83.5125 6.67427 83.13 6.6403L77.9348 6.1754L75.8804 1.4366C75.7289 1.08931 75.3839 0.864502 75.0006 0.864502C74.6173 0.864502 74.2724 1.08931 74.1209 1.43741L72.0665 6.1754L66.8704 6.6403C66.4886 6.67508 66.1662 6.9294 66.0477 7.2886C65.9291 7.6478 66.0386 8.04179 66.3274 8.29014L70.2544 11.6843L69.0964 16.7114C69.0117 17.081 69.1573 17.4631 69.4685 17.6848C69.6357 17.8039 69.8314 17.8645 70.0288 17.8645C70.1989 17.8645 70.3677 17.8193 70.5192 17.73L75.0006 15.0904L79.4804 17.73C79.8082 17.9243 80.2215 17.9066 80.532 17.6848C80.8433 17.4624 80.9888 17.0802 80.904 16.7114L79.746 11.6843L83.6731 8.29082C83.9619 8.04179 84.0721 7.64848 83.9536 7.2886Z" fill="#FFC107"/>
</g>
<g clip-path="url(#clip4_2035_339)">
<path d="M105.954 7.2886C105.836 6.9294 105.513 6.67427 105.13 6.6403L99.9349 6.1754L97.8806 1.4366C97.7291 1.08931 97.3841 0.864502 97.0008 0.864502C96.6175 0.864502 96.2725 1.08931 96.1211 1.43741L94.0667 6.1754L88.8706 6.6403C88.4888 6.67508 88.1664 6.9294 88.0478 7.2886C87.9293 7.6478 88.0388 8.04179 88.3276 8.29014L92.2546 11.6843L91.0966 16.7114C91.0119 17.081 91.1575 17.4631 91.4687 17.6848C91.6359 17.8039 91.8316 17.8645 92.029 17.8645C92.1991 17.8645 92.3679 17.8193 92.5194 17.73L97.0008 15.0904L101.481 17.73C101.808 17.9243 102.222 17.9066 102.532 17.6848C102.844 17.4624 102.989 17.0802 102.904 16.7114L101.746 11.6843L105.673 8.29082C105.962 8.04179 106.072 7.64848 105.954 7.2886Z" fill="#FFC107"/>
</g>
<defs>
<clipPath id="clip0_2035_339">
<rect width="18.0001" height="18" fill="white" transform="translate(0 -0.000366211)"/>
</clipPath>
<clipPath id="clip1_2035_339">
<rect width="18.0002" height="18" fill="white" transform="translate(22 -0.000366211)"/>
</clipPath>
<clipPath id="clip2_2035_339">
<rect width="18.0002" height="18" fill="white" transform="translate(44.0003 -0.000366211)"/>
</clipPath>
<clipPath id="clip3_2035_339">
<rect width="18.0002" height="18" fill="white" transform="translate(66.0004 -0.000366211)"/>
</clipPath>
<clipPath id="clip4_2035_339">
<rect width="18.0002" height="18" fill="white" transform="translate(88.0006 -0.000366211)"/>
</clipPath>
</defs>
</svg>
