<svg width="16" height="16" viewBox="0 0 16 16" fill="none" xmlns="http://www.w3.org/2000/svg">
<g clip-path="url(#clip0_2035_366)">
<path d="M14.0366 4.88761C14.1453 4.81561 14.23 4.71294 14.2806 4.59294C14.314 4.51494 15.092 2.67028 15.322 1.45695C15.3706 1.19895 15.264 0.936278 15.0486 0.785612C14.832 0.634945 14.5493 0.625612 14.324 0.760945C12.8773 1.62894 10.986 1.99894 8.00064 1.99894C5.01531 1.99894 3.12331 1.62894 1.67664 0.761612C1.45131 0.626278 1.16798 0.636278 0.951978 0.786278C0.736644 0.936945 0.629978 1.19961 0.678644 1.45761C0.908644 2.67028 1.68664 4.51494 1.71998 4.59361C1.78198 4.73961 1.89398 4.85894 2.03598 4.92961C2.23731 5.03028 2.45131 5.12161 2.67264 5.20828C2.68464 6.03961 2.72064 6.93495 2.77264 7.83495C2.34331 7.92361 2.09664 7.99094 2.06664 7.99961C1.53464 8.14761 1.22398 8.69761 1.37064 9.22894C1.51864 9.76095 2.06931 10.0743 2.60064 9.92694C2.60531 9.92561 2.71598 9.89628 2.90998 9.85295C3.09664 12.2756 3.32531 14.3049 3.34131 14.4469C3.40131 14.9976 3.90864 15.3923 4.44798 15.3276C4.99664 15.2649 5.39064 14.7696 5.32798 14.2209C5.32398 14.1856 5.08131 12.0336 4.89131 9.51961C5.74398 9.41628 6.79998 9.33361 8.00064 9.33361C9.20131 9.33361 10.258 9.41628 11.11 9.51961C10.92 12.0329 10.6773 14.1849 10.6733 14.2209C10.6106 14.7696 11.0046 15.2649 11.5533 15.3276C12.092 15.3923 12.6 14.9983 12.66 14.4469C12.676 14.3056 12.9046 12.2756 13.0913 9.85295C13.4473 9.92761 13.4086 9.95294 13.6673 9.96361C14.1053 9.96361 14.5073 9.67361 14.63 9.23095C14.778 8.69895 14.466 8.14761 13.934 7.99961C13.904 7.99094 13.6573 7.92361 13.228 7.83495C13.2786 6.95095 13.3146 6.07028 13.3273 5.25095C13.5886 5.14495 13.8306 5.02561 14.0366 4.88761ZM4.68398 5.74828C5.38464 5.86895 6.15464 5.94628 6.99998 5.97961V7.35228C6.16331 7.38161 5.40998 7.44428 4.75864 7.52028C4.72531 6.91628 4.69998 6.31961 4.68398 5.74828ZM11.2413 7.51961C10.59 7.44361 9.83665 7.38095 8.99998 7.35161V5.97894C9.67998 5.95228 10.5026 5.89228 11.3153 5.76561C11.3 6.33161 11.274 6.92161 11.2413 7.51961Z" fill="#E7370A"/>
</g>
<defs>
<clipPath id="clip0_2035_366">
<rect width="16" height="16" fill="white" transform="translate(0 -0.000366211)"/>
</clipPath>
</defs>
</svg>
