<svg width="17" height="17" viewBox="0 0 17 17" fill="none" xmlns="http://www.w3.org/2000/svg">
<path d="M10.6414 4.19409C10.5288 3.96809 10.5528 3.69809 10.7048 3.49609C11.3101 2.68809 12.0274 1.97009 12.8374 1.36276C13.0741 1.18476 13.4014 1.18476 13.6381 1.36276C14.4481 1.97076 15.1654 2.68809 15.7708 3.49609C15.9228 3.69809 15.9468 3.96809 15.8341 4.19409C15.7208 4.42009 15.4901 4.56276 15.2374 4.56276H14.2374V6.22942C14.2374 6.78209 13.7894 7.22942 13.2374 7.22942C12.6854 7.22942 12.2374 6.78209 12.2374 6.22942V4.56276H11.2374C10.9848 4.56276 10.7548 4.42009 10.6414 4.19409ZM15.9048 9.89609C15.9048 12.3814 15.4114 14.7514 15.3908 14.8514C15.3348 15.1161 15.1248 15.3214 14.8574 15.3701C14.7394 15.3914 11.9268 15.8968 8.57143 15.8968C5.21609 15.8968 2.40343 15.3921 2.28543 15.3701C2.01543 15.3208 1.80343 15.1121 1.75009 14.8428C1.72943 14.7361 1.23743 12.2101 1.23743 9.72942C1.25609 8.19676 1.40743 6.39409 1.65409 5.17342C1.94209 3.93142 2.97609 3.64342 3.78809 3.54876C4.80209 3.41342 6.40943 3.24209 8.21609 3.20342C8.76476 3.16942 9.22609 3.62942 9.23743 4.18142C9.24876 4.73342 8.81076 5.19076 8.25876 5.20276C6.54409 5.23942 5.01609 5.40276 4.03609 5.53342C3.77876 5.56342 3.65076 5.59809 3.59076 5.61876C3.58143 5.66542 3.57076 5.75142 3.57076 5.89609C3.57076 6.02609 3.57943 6.10876 3.58743 6.15742C3.65209 6.17809 3.77943 6.20942 4.01743 6.23609C5.15076 6.39609 7.09676 6.56276 9.23743 6.56276C9.81076 6.56276 10.3828 6.54676 10.9334 6.52276C11.0794 7.66942 12.0514 8.56276 13.2374 8.56276C14.4054 8.56276 15.3674 7.69676 15.5361 6.57542C15.6988 6.75009 15.8034 6.98142 15.8101 7.23809C15.8101 7.23809 15.9048 8.27209 15.9048 9.89609ZM13.5714 11.2294C13.5714 10.6774 13.1234 10.2294 12.5714 10.2294C12.0194 10.2294 11.5714 10.6774 11.5714 11.2294C11.5714 11.7814 12.0194 12.2294 12.5714 12.2294C13.1234 12.2294 13.5714 11.7814 13.5714 11.2294Z" fill="#E7370A"/>
</svg>
