<svg width="16" height="16" viewBox="0 0 16 16" fill="none" xmlns="http://www.w3.org/2000/svg">
<g clip-path="url(#clip0_107_3297)">
<path d="M10.07 3.63134C9.95735 3.40534 9.98135 3.13534 10.1333 2.93334C10.7387 2.12534 11.456 1.40734 12.266 0.800004C12.5027 0.622004 12.83 0.622004 13.0667 0.800004C13.8767 1.408 14.594 2.12534 15.1993 2.93334C15.3513 3.13534 15.3753 3.40534 15.2627 3.63134C15.1493 3.85734 14.9187 4 14.666 4H13.666V5.66667C13.666 6.21934 13.218 6.66667 12.666 6.66667C12.114 6.66667 11.666 6.21934 11.666 5.66667V4H10.666C10.4133 4 10.1833 3.85734 10.07 3.63134ZM15.3333 9.33334C15.3333 11.8187 14.84 14.1887 14.8193 14.2887C14.7633 14.5533 14.5533 14.7587 14.286 14.8073C14.168 14.8287 11.3553 15.334 8.00002 15.334C4.64468 15.334 1.83202 14.8293 1.71402 14.8073C1.44402 14.758 1.23202 14.5493 1.17868 14.28C1.15802 14.1733 0.666016 11.6473 0.666016 9.16667C0.684682 7.634 0.836016 5.83134 1.08268 4.61067C1.37068 3.36867 2.40468 3.08067 3.21668 2.986C4.23068 2.85067 5.83802 2.67934 7.64468 2.64067C8.19335 2.60667 8.65468 3.06667 8.66602 3.61867C8.67735 4.17067 8.23935 4.628 7.68735 4.64C5.97268 4.67667 4.44468 4.84 3.46468 4.97067C3.20735 5.00067 3.07935 5.03534 3.01935 5.056C3.01002 5.10267 2.99935 5.18867 2.99935 5.33334C2.99935 5.46334 3.00802 5.546 3.01602 5.59467C3.08068 5.61534 3.20802 5.64667 3.44602 5.67334C4.57935 5.83334 6.52535 6 8.66602 6C9.23935 6 9.81135 5.984 10.362 5.96C10.508 7.10667 11.48 8 12.666 8C13.834 8 14.796 7.134 14.9647 6.01267C15.1273 6.18734 15.232 6.41867 15.2387 6.67534C15.2387 6.67534 15.3333 7.70934 15.3333 9.33334ZM13 10.6667C13 10.1147 12.552 9.66667 12 9.66667C11.448 9.66667 11 10.1147 11 10.6667C11 11.2187 11.448 11.6667 12 11.6667C12.552 11.6667 13 11.2187 13 10.6667Z" fill="white"/>
</g>
<defs>
<clipPath id="clip0_107_3297">
<rect width="16" height="16" fill="white"/>
</clipPath>
</defs>
</svg>
