<svg width="16" height="16" viewBox="0 0 16 16" fill="none" xmlns="http://www.w3.org/2000/svg">
<path d="M9.33334 1.3335H6.66669C2.99134 1.3335 0 4.32415 0 8.00015C0 11.6762 2.99134 14.6668 6.66666 14.6668H9.33331C13.0093 14.6668 16 11.6762 16 8.00015C16 4.32415 13.0093 1.3335 9.33334 1.3335ZM2.70666 8.71681C2.71531 8.79547 2.73131 8.87146 2.742 8.94881C2.76466 9.10481 2.788 9.26081 2.82066 9.41281C2.84 9.50215 2.866 9.58881 2.88866 9.67615C2.924 9.8135 2.96066 9.9495 3.00466 10.0828C3.03466 10.1735 3.06931 10.2622 3.10266 10.3508C3.15066 10.4768 3.2 10.6015 3.25466 10.7235C3.29466 10.8121 3.33731 10.8981 3.38066 10.9848C3.44 11.1022 3.502 11.2182 3.568 11.3322C3.61666 11.4155 3.666 11.4975 3.718 11.5788C3.78934 11.6902 3.864 11.7982 3.94134 11.9048C3.99734 11.9815 4.05269 12.0575 4.11069 12.1308C4.19469 12.2368 4.28334 12.3382 4.37334 12.4388C4.434 12.5062 4.49269 12.5748 4.556 12.6395C4.65534 12.7421 4.76 12.8381 4.866 12.9341C4.91466 12.9781 4.95866 13.0268 5.00866 13.0695C2.87734 12.3708 1.33334 10.3622 1.33334 8.00015C1.33334 5.63815 2.87734 3.6295 5.00866 2.93081C4.95866 2.97346 4.91466 3.02215 4.866 3.06615C4.76 3.16215 4.65534 3.25815 4.556 3.36015C4.49266 3.4255 4.434 3.49415 4.37334 3.5615C4.28334 3.66215 4.19469 3.7635 4.11134 3.86884C4.05269 3.94284 3.99669 4.01884 3.94134 4.0955C3.864 4.20215 3.78934 4.31015 3.718 4.4215C3.666 4.50284 3.61666 4.58484 3.568 4.66815C3.502 4.78215 3.44 4.8975 3.38066 5.0155C3.33731 5.10215 3.29466 5.18815 3.25466 5.27615C3.2 5.39881 3.15066 5.5235 3.10266 5.6495C3.06931 5.73815 3.03466 5.82684 3.00466 5.9175C2.96066 6.05084 2.92466 6.18684 2.88866 6.3235C2.866 6.4115 2.84 6.49815 2.82066 6.5875C2.788 6.7395 2.76466 6.8955 2.742 7.0515C2.73134 7.12884 2.71534 7.20484 2.70666 7.2835C2.68131 7.51884 2.66666 7.7575 2.66666 8.00015C2.66666 8.24215 2.68134 8.4815 2.70666 8.71681ZM11.8667 5.7335L10 8.22215V9.3335H10.6667C11.0353 9.3335 11.3333 9.63215 11.3333 10.0002C11.3333 10.3682 11.0353 10.6668 10.6667 10.6668H10V11.3335C10 11.7015 9.702 12.0001 9.33334 12.0001C8.96469 12.0001 8.66669 11.7015 8.66669 11.3335V10.6668H8C7.63134 10.6668 7.33334 10.3682 7.33334 10.0002C7.33334 9.63215 7.63134 9.3335 8 9.3335H8.66666V8.22215L6.8 5.7335C6.57866 5.43884 6.63866 5.02084 6.934 4.80015C7.228 4.57881 7.646 4.63881 7.86666 4.9335L9.33331 6.88884L10.8 4.9335C11.0206 4.63884 11.4393 4.57884 11.7333 4.80015C12.028 5.02081 12.088 5.43881 11.8667 5.7335Z" fill="white"/>
</svg>
