<svg width="17" height="17" viewBox="0 0 17 17" fill="none" xmlns="http://www.w3.org/2000/svg">
<g clip-path="url(#clip0_2008_715)">
<path d="M9.61905 1.8961H6.95239C3.27705 1.8961 0.285706 4.88675 0.285706 8.56275C0.285706 12.2388 3.27705 15.2294 6.95236 15.2294H9.61902C13.295 15.2294 16.2857 12.2388 16.2857 8.56275C16.2857 4.88675 13.295 1.8961 9.61905 1.8961ZM2.99236 9.27941C3.00102 9.35806 3.01702 9.43406 3.02771 9.51141C3.05036 9.66741 3.07371 9.82341 3.10636 9.97541C3.12571 10.0648 3.15171 10.1514 3.17436 10.2388C3.20971 10.3761 3.24636 10.5121 3.29036 10.6454C3.32036 10.7361 3.35502 10.8248 3.38836 10.9134C3.43636 11.0394 3.48571 11.1641 3.54036 11.2861C3.58036 11.3747 3.62302 11.4607 3.66636 11.5474C3.72571 11.6648 3.78771 11.7808 3.85371 11.8948C3.90236 11.9781 3.95171 12.0601 4.00371 12.1414C4.07505 12.2528 4.14971 12.3608 4.22705 12.4674C4.28305 12.5441 4.33839 12.6201 4.39639 12.6934C4.48039 12.7994 4.56905 12.9008 4.65905 13.0014C4.71971 13.0688 4.77839 13.1374 4.84171 13.2021C4.94105 13.3047 5.04571 13.4007 5.15171 13.4967C5.20036 13.5407 5.24436 13.5894 5.29436 13.6321C3.16305 12.9334 1.61905 10.9248 1.61905 8.56275C1.61905 6.20075 3.16305 4.1921 5.29436 3.49341C5.24436 3.53606 5.20036 3.58475 5.15171 3.62875C5.04571 3.72475 4.94105 3.82075 4.84171 3.92275C4.77836 3.9881 4.71971 4.05675 4.65905 4.1241C4.56905 4.22475 4.48039 4.3261 4.39705 4.43144C4.33839 4.50544 4.28239 4.58144 4.22705 4.6581C4.14971 4.76475 4.07505 4.87275 4.00371 4.9841C3.95171 5.06544 3.90236 5.14744 3.85371 5.23075C3.78771 5.34475 3.72571 5.4601 3.66636 5.5781C3.62302 5.66475 3.58036 5.75075 3.54036 5.83875C3.48571 5.96141 3.43636 6.0861 3.38836 6.2121C3.35502 6.30075 3.32036 6.38944 3.29036 6.48009C3.24636 6.61344 3.21036 6.74944 3.17436 6.8861C3.15171 6.97409 3.12571 7.06075 3.10636 7.15009C3.07371 7.30209 3.05036 7.4581 3.02771 7.6141C3.01705 7.69144 3.00105 7.76744 2.99236 7.8461C2.96702 8.08144 2.95236 8.3201 2.95236 8.56275C2.95236 8.80475 2.96705 9.0441 2.99236 9.27941ZM12.1524 6.29609L10.2857 8.78475V9.8961H10.9524C11.321 9.8961 11.619 10.1948 11.619 10.5628C11.619 10.9308 11.321 11.2294 10.9524 11.2294H10.2857V11.8961C10.2857 12.2641 9.98771 12.5627 9.61905 12.5627C9.25039 12.5627 8.95239 12.2641 8.95239 11.8961V11.2294H8.28571C7.91705 11.2294 7.61905 10.9308 7.61905 10.5628C7.61905 10.1948 7.91705 9.8961 8.28571 9.8961H8.95236V8.78475L7.08571 6.29609C6.86436 6.00144 6.92436 5.58344 7.21971 5.36275C7.51371 5.14141 7.93171 5.20141 8.15236 5.4961L9.61902 7.45144L11.0857 5.4961C11.3063 5.20144 11.725 5.14144 12.019 5.36275C12.3137 5.58341 12.3737 6.00141 12.1524 6.29609Z" fill="#E7370A"/>
</g>
<defs>
<clipPath id="clip0_2008_715">
<rect width="16" height="16" fill="white" transform="translate(0.285706 0.562752)"/>
</clipPath>
</defs>
</svg>
