<svg xmlns="http://www.w3.org/2000/svg" xmlns:xlink="http://www.w3.org/1999/xlink"><defs><symbol fill="none" viewBox="0 0 40 24" id="arrow-left"><path d="M13.333.333c0 1.236-1.222 3.083-2.457 4.635-1.591 1.997-3.49 3.743-5.67 5.076C3.575 11.04 1.593 12 0 12m0 0c1.593 0 3.575.959 5.206 1.956 2.18 1.333 4.079 3.078 5.67 5.076 1.236 1.552 2.457 3.399 2.457 4.635M0 12h40" /></symbol><symbol viewBox="0 0 64.01 280" id="border"><path d="M31.01 0h2v280h-2z" /><path d="M31.16 108.76a.86.86 0 0 1 1.7 0l1 8.49a23.89 23.89 0 0 0 20.9 20.9l8.49 1a.86.86 0 0 1 0 1.7l-8.49 1a23.89 23.89 0 0 0-20.9 20.9l-1 8.49a.86.86 0 0 1-1.7 0l-1-8.49a23.89 23.89 0 0 0-20.9-20.9l-8.49-1a.86.86 0 0 1 0-1.7l8.49-1a23.89 23.89 0 0 0 20.9-20.9Z" /></symbol><symbol fill="none" viewBox="0 0 1600 24" id="border-2"><path fill="#DED8D4" d="M0 12.5v-1h1600v1z" /><path fill="#DED8D4" d="M799.681.284c.044-.379.594-.379.638 0l.379 3.182a8.95 8.95 0 0 0 7.836 7.836l3.182.38c.379.043.379.593 0 .637l-3.182.379a8.95 8.95 0 0 0-7.836 7.836l-.379 3.182c-.044.379-.594.379-.638 0l-.379-3.183a8.95 8.95 0 0 0-7.836-7.835l-3.182-.38c-.379-.043-.379-.593 0-.637l3.182-.379a8.95 8.95 0 0 0 7.836-7.836z" /></symbol><symbol fill="none" viewBox="0 0 1600 24" id="border-2-1"><path fill="#2E2E30" d="M0 12.5v-1h1600v1z" /><path fill="#2E2E30" d="M799.681.284c.044-.379.594-.379.638 0l.379 3.182a8.95 8.95 0 0 0 7.836 7.836l3.182.38c.379.043.379.593 0 .637l-3.182.379a8.95 8.95 0 0 0-7.836 7.836l-.379 3.182c-.044.379-.594.379-.638 0l-.379-3.183a8.95 8.95 0 0 0-7.836-7.835l-3.182-.38c-.379-.043-.379-.593 0-.637l3.182-.379a8.95 8.95 0 0 0 7.836-7.836z" /></symbol><symbol viewBox="0 0 288 16" id="border-3"><path d="M0 7h288v1H0z" style="fill:url(#_Безымянный_градиент)" /><path d="M143.79.19c.03-.25.4-.25.43 0l.25 2.12a5.95 5.95 0 0 0 5.22 5.22l2.12.25c.25.03.25.4 0 .43l-2.12.25a5.95 5.95 0 0 0-5.22 5.22l-.25 2.12c-.03.25-.4.25-.43 0l-.25-2.12a5.95 5.95 0 0 0-5.22-5.22l-2.12-.25c-.25-.03-.25-.4 0-.43l2.12-.25a5.95 5.95 0 0 0 5.22-5.22z" style="fill:#ded8d4" /></symbol><symbol fill="none" viewBox="0 0 32 234" id="border-4"><path fill="url(#border-4_a)" d="M0 0h2v234H0z" transform="translate(15)" /><path fill="#DED8D4" d="M15.575 101.379c.059-.505.791-.505.85 0l.505 4.243a11.94 11.94 0 0 0 10.448 10.448l4.243.505c.505.059.505.791 0 .85l-4.243.505a11.94 11.94 0 0 0-10.448 10.448l-.505 4.243c-.059.505-.791.505-.85 0l-.505-4.243A11.94 11.94 0 0 0 4.622 117.93l-4.243-.505c-.505-.059-.505-.791 0-.85l4.243-.505a11.94 11.94 0 0 0 10.448-10.448z" /><defs></defs></symbol><linearGradient id="border-4_a" x1="1" x2="1" y1="0" y2="234" gradientUnits="userSpaceOnUse"><stop offset="0" stop-color="#DED8D4" stop-opacity="0" /><stop offset=".592" stop-color="#DED8D4" /><stop offset="1" stop-color="#DED8D4" stop-opacity="0" /></linearGradient><symbol fill="none" viewBox="0 0 32 32" id="close"><path stroke="#131315" stroke-width="1.414" d="m8 8 16 16M24 8 8 24" /></symbol><symbol fill="none" viewBox="0 0 32 32" id="download"><path stroke="#DED8D4" d="M27.988 4.012 4 28m22.574-2.775c-1.048-1.047-1.576-3.65-1.843-6.013-.343-3.043-.21-6.134.51-9.112.538-2.23 1.407-4.725 2.759-6.076M6.775 5.426c1.047 1.048 3.65 1.576 6.013 1.842 3.043.344 6.134.211 9.112-.508 2.23-.54 4.725-1.409 6.076-2.76" /></symbol><symbol fill="none" viewBox="0 0 48 48" id="icon-1"><g clip-path="url(#icon-1_a)"><path stroke="#8E7E71" d="M0 25h28.928m14.144 0H48m-28-5v-5s-3-2-8-2-8 2-8 2v5m28 28V37h-7v-.5l.143-.3A50 50 0 0 0 30 14.703v-.657C31.378 13.531 33.423 13 36 13s4.622.531 6 1.046v.657c0 7.438 1.66 14.782 4.857 21.497l.143.3v.5h-7v11M11.7 9S8.5 7 8.5 4.5A3.5 3.5 0 0 1 12 1a3.493 3.493 0 0 1 3.491 3.5C15.491 7 12.3 9 12.3 9zm24 0s-3.2-2-3.2-4.5A3.5 3.5 0 0 1 36 1a3.493 3.493 0 0 1 3.491 3.5C39.491 7 36.3 9 36.3 9z" /></g><defs></defs></symbol><clipPath id="icon-1_a"><path fill="#fff" d="M0 0h48v48H0z" /></clipPath><symbol fill="none" viewBox="0 0 48 48" id="icon-2"><path stroke="#8E7E71" d="M24 13v1m0-1c0-6.627 5.373-12 12-12h1v13c0 7.18-5.82 13-13 13m0-14c0-6.627-5.373-12-12-12h-1v13c0 7.18 5.82 13 13 13m0 0v19m0-19v18m0 2h-9C8.373 47 3 41.627 3 35h9c6.627 0 12 5.373 12 12Zm0 0h9c6.627 0 12-5.373 12-12h-9c-6.627 0-12 5.373-12 12Z" /></symbol><symbol fill="none" viewBox="0 0 48 48" id="icon-3"><path stroke="#8E7E71" d="M12 29H3V3h42v26h-9m-1 19c0-3.923 1.089-7.769 3.145-11.11L39 35.5V35H9v.5l.855 1.39A21.2 21.2 0 0 1 13 48m19-18v-7s-3-2-8-2-8 2-8 2v7m7.7-13s-3.2-2-3.2-4.5A3.5 3.5 0 0 1 24 9a3.493 3.493 0 0 1 3.491 3.5c0 2.5-3.191 4.5-3.191 4.5z" /></symbol><symbol fill="none" viewBox="0 0 48 48" id="icon-4"><g clip-path="url(#icon-4_a)"><path stroke="#8E7E71" d="M30 43c-2 0-3.5-3-3.5-3-1.5-3-1.5-5-1.5-8l-9-5v-.5l.923-2.5M27 20v-2a5 5 0 0 0-5-5h-2l-6.183 3.533a1.622 1.622 0 0 0 .152 2.893L25.5 24.5M11 40c0-2 3-3.5 3-3.5 2.654-1.327 4.526-1.48 7-1.498M0 47h47v-.5S37 27 37 20a7 7 0 0 1 7-7M23.704 9s-3.2-2-3.2-4.5a3.5 3.5 0 0 1 3.5-3.5 3.493 3.493 0 0 1 3.492 3.5c0 2.5-3.192 4.5-3.192 4.5z" /></g><defs></defs></symbol><clipPath id="icon-4_a"><path fill="#fff" d="M0 0h48v48H0z" /></clipPath><symbol fill="none" viewBox="0 0 48 48" id="icon-5"><path stroke="#8E7E71" d="M25 32v15h18V27l-3.6-4.8A12 12 0 0 1 37 15V1h-6v14a12 12 0 0 1-2.4 7.2L26 25.667M10 39a7 7 0 0 1-7-7c0-.582.071-1.163.213-1.728L5 23h10l1.787 7.272A7 7 0 0 1 17 32a7 7 0 0 1-7 7Zm0 0v8m0 0h6m-6 0H4" /></symbol><symbol fill="none" viewBox="0 0 48 48" id="icon-6"><g clip-path="url(#icon-6_a)"><path stroke="#8E7E71" d="M10 27h28m-14 0v21M13 22v-9h-2.344a6 6 0 0 0-5.812 4.51L1 32.5v.5h14v3c0 3 0 5 1.5 8 0 0 1.5 3 3.5 3m15-25v-9h2.344a6 6 0 0 1 5.812 4.51L47 32.5v.5H33v3c0 3 0 5-1.5 8 0 0-1.5 3-3.5 3M12.7 9S9.5 7 9.5 4.5A3.5 3.5 0 0 1 13 1a3.493 3.493 0 0 1 3.491 3.5C16.491 7 13.3 9 13.3 9zm22.6 0s3.2-2 3.2-4.5A3.5 3.5 0 0 0 35 1a3.493 3.493 0 0 0-3.491 3.5C31.509 7 34.7 9 34.7 9z" /></g><defs></defs></symbol><clipPath id="icon-6_a"><path fill="#fff" d="M0 0h48v48H0z" /></clipPath><symbol fill="none" viewBox="0 0 48 48" id="icon-7"><g clip-path="url(#icon-7_a)"><path stroke="#8E7E71" d="M0 47a6 6 0 0 0 6-6 6 6 0 1 0 12 0 6 6 0 1 0 12 0 6 6 0 1 0 12 0 6 6 0 0 0 6 6M6 6V5a4 4 0 1 1 8 0v20c0 3.575.799 7.948 3.11 9.552.544.377 1.228.448 1.89.448m7-29V5a4 4 0 1 1 8 0v20c0 3.575.799 7.948 3.11 9.552.544.377 1.228.448 1.89.448M14 19h20m-20-8h20M14.083 27h20" /></g><defs></defs></symbol><clipPath id="icon-7_a"><path fill="#fff" d="M0 0h48v48H0z" /></clipPath><symbol fill="none" viewBox="0 0 48 48" id="icon-8"><path stroke="#8E7E71" d="M31 48V1h1a9 9 0 0 1 9 9v19h-1a5 5 0 0 0-5 5M14 48V19m0 0a7 7 0 0 0 7-7V0m-7 19a7 7 0 0 1-7-7V0m7 0v15" /></symbol><symbol fill="none" viewBox="0 0 48 48" id="icon-9"><path stroke="#8E7E71" d="M28 48V35a4 4 0 0 1 4-4V15s-3-2-8-2-8 2-8 2v16a4 4 0 0 1 4 4v13M7 48V35a4 4 0 0 0-4-4V15s3-2 8-2m30 35V35a4 4 0 0 1 4-4V15s-3-2-8-2M23.7 9s-3.2-2-3.2-4.5A3.5 3.5 0 0 1 24 1a3.493 3.493 0 0 1 3.491 3.5C27.491 7 24.3 9 24.3 9zm-13 0S7.5 7 7.5 4.5A3.5 3.5 0 0 1 11 1a3.493 3.493 0 0 1 3.491 3.5C14.491 7 11.3 9 11.3 9zm26 0s-3.2-2-3.2-4.5A3.5 3.5 0 0 1 37 1a3.493 3.493 0 0 1 3.491 3.5C40.491 7 37.3 9 37.3 9z" /></symbol><symbol viewBox="0 0 80 41" id="menu"><defs><style>#menu .cls-1{fill:none}</style></defs><path d="M0 .5h80M0 20.5h80M0 40.5h80" class="cls-1" /></symbol><symbol viewBox="0 0 512 512" id="pin"><path fill="#e74c3c" d="M256 32.31c85.36 0 154.53 69.2 154.53 154.53 0 64-114.82 220.49-154.53 292.07-38.07-68.7-154.53-231.83-154.53-292.07 0-85.33 69.2-154.53 154.53-154.53m69.07 148.71c0-38.03-31.02-69.05-69.07-69.05-38.02 0-69.04 31.02-69.04 69.05 0 38.02 31.02 69.04 69.04 69.04 38.05 0 69.07-31.02 69.07-69.04" /></symbol><symbol fill="none" viewBox="0 0 72 72" id="play"><rect width="71" height="71" x=".5" y=".5" fill="#fff" fill-opacity=".16" rx="35.5" /><path stroke="#fff" stroke-linecap="round" stroke-width="1.5" d="m32 42 10-6-10-6z" /><rect width="71" height="71" x=".5" y=".5" stroke="#fff" rx="35.5" /></symbol><symbol fill="none" viewBox="0 0 64 72" id="promo-line"><path fill="#fff" d="M31.5 0h1v72h-1z" /><path fill="#fff" d="M31.681 24.284c.044-.379.594-.379.638 0l.379 3.182a8.95 8.95 0 0 0 7.836 7.836l3.182.38c.379.043.379.593 0 .637l-3.182.379a8.95 8.95 0 0 0-7.836 7.835l-.38 3.183c-.043.379-.593.379-.637 0l-.379-3.183a8.95 8.95 0 0 0-7.836-7.835l-3.182-.38c-.379-.043-.379-.593 0-.637l3.182-.379a8.95 8.95 0 0 0 7.836-7.836z" /></symbol><symbol fill="none" viewBox="0 0 24 24" id="star"><path fill="#DED8D4" d="M11.681.284c.044-.379.594-.379.638 0l.379 3.182a8.95 8.95 0 0 0 7.836 7.836l3.182.38c.379.043.379.593 0 .637l-3.182.379a8.95 8.95 0 0 0-7.836 7.836l-.38 3.182c-.043.379-.593.379-.637 0l-.379-3.183a8.95 8.95 0 0 0-7.836-7.835l-3.182-.38c-.379-.043-.379-.593 0-.637l3.182-.379a8.95 8.95 0 0 0 7.836-7.836z" /></symbol><symbol fill="none" viewBox="0 0 56 56" id="telegram"><path fill="#fff" fill-rule="evenodd" d="M36.57 38.297v-.003l.023-.057 3.964-19.984v-.065c0-.498-.184-.933-.585-1.193-.35-.229-.753-.245-1.035-.223-.299.022-.58.097-.776.159a4 4 0 0 0-.316.115l-.018.007-22.1 8.67-.006.002-.046.017a2.99 2.99 0 0 0-.602.316c-.284.195-.825.655-.734 1.385.076.604.493.988.774 1.187a2.7 2.7 0 0 0 .575.31l.014.005.009.003 3.866 1.302c-.013.242.011.49.075.733l1.937 7.347a1.983 1.983 0 0 0 3.747.26l3.024-3.233 5.193 3.981.074.032c.471.206.912.271 1.315.216s.723-.223.963-.416a2.3 2.3 0 0 0 .65-.838l.01-.023.003-.009zm-15-7.819a.4.4 0 0 1 .17-.436l13.115-8.328s.771-.468.744 0c0 0 .138.083-.276.468-.392.366-9.347 9.012-10.253 9.887a.37.37 0 0 0-.102.179l-1.462 5.577z" clip-rule="evenodd" /><rect width="55" height="55" x=".5" y=".5" stroke="#fff" rx="27.5" /></symbol><symbol fill="none" viewBox="0 0 56 56" id="whatsapp"><rect width="55" height="55" x=".5" y=".5" stroke="#fff" rx="27.5" /><path fill="#fff" fill-rule="evenodd" d="m17.56 39.25 3.597-.602a12.69 12.69 0 1 0-3.805-3.805l-.601 3.596a.704.704 0 0 0 .81.81m11.865-9.82a8.74 8.74 0 0 1-2.855-2.855l.657-1.095a1.33 1.33 0 0 0-.102-1.52l-1.702-2.126a1.333 1.333 0 0 0-1.991-.102l-.946.961a4 4 0 0 0-.534 4.947 21.6 21.6 0 0 0 6.408 6.408 4 4 0 0 0 4.947-.534l.961-.945a1.333 1.333 0 0 0-.102-1.992l-2.127-1.702a1.33 1.33 0 0 0-1.519-.102z" clip-rule="evenodd" /></symbol></defs></svg>