<svg width="856" height="509" viewBox="0 0 856 509" fill="none" xmlns="http://www.w3.org/2000/svg">
<path d="M784.36 234.906V210.994C784.36 208.737 783.915 206.501 783.05 204.415C782.186 202.329 780.918 200.434 779.321 198.838C777.723 197.241 775.827 195.975 773.739 195.111C771.652 194.247 769.415 193.802 767.155 193.802H719.583C715.02 193.802 710.644 191.991 707.418 188.767C704.191 185.542 702.379 181.169 702.379 176.61V152.698C702.379 143.203 723.235 135.506 732.737 135.506H734.654C739.217 135.506 743.593 133.695 746.82 130.471C750.046 127.246 751.859 122.873 751.859 118.314V94.4023C751.859 92.1446 751.414 89.909 750.549 87.8231C749.685 85.7372 748.417 83.8419 746.82 82.2455C745.222 80.649 743.326 79.3826 741.238 78.5186C739.151 77.6547 736.914 77.21 734.654 77.21H153.376C151.117 77.21 148.88 77.6547 146.793 78.5186C144.705 79.3826 142.809 80.649 141.211 82.2455C139.613 83.8419 138.346 85.7372 137.482 87.8231C136.617 89.909 136.172 92.1446 136.172 94.4023V118.314C136.172 120.571 136.617 122.807 137.482 124.893C138.346 126.979 139.613 128.874 141.211 130.471C142.809 132.067 144.705 133.333 146.793 134.197C148.88 135.061 151.117 135.506 153.376 135.506C157.939 135.506 162.315 137.317 165.542 140.542C168.768 143.766 170.581 148.139 170.581 152.698V176.61C170.581 181.169 168.768 185.542 165.542 188.767C162.315 191.991 157.939 193.802 153.377 193.802H86.8451C84.5858 193.802 82.3486 194.247 80.2612 195.111C78.1739 195.975 76.2773 197.241 74.6797 198.838C73.0821 200.434 71.8148 202.329 70.9502 204.415C70.0856 206.501 69.6406 208.737 69.6406 210.994V234.906C69.6406 239.466 71.4532 243.839 74.6797 247.063C77.9062 250.287 82.2822 252.098 86.8451 252.098H112.951C117.514 252.098 121.89 253.91 125.116 257.134C128.343 260.358 130.156 264.731 130.156 269.291V293.202C130.156 295.46 129.711 297.695 128.846 299.781C127.981 301.867 126.714 303.762 125.116 305.359C123.519 306.955 121.622 308.222 119.535 309.086C117.448 309.95 115.21 310.394 112.951 310.394H112.888C108.325 310.394 103.949 312.206 100.722 315.43C97.496 318.654 95.6834 323.027 95.6834 327.587V351.498C95.6834 353.756 96.1284 355.991 96.993 358.077C97.8576 360.163 99.1249 362.058 100.722 363.655C102.32 365.251 104.217 366.518 106.304 367.382C108.391 368.246 110.629 368.69 112.888 368.69H116.665C121.228 368.69 125.604 370.502 128.83 373.726C132.057 376.95 133.869 381.323 133.869 385.883V409.794C133.869 414.354 132.057 418.727 128.83 421.951C125.604 425.175 121.228 426.987 116.665 426.987H94.1396C91.8803 426.987 89.6431 427.431 87.5557 428.295C85.4684 429.159 83.5718 430.426 81.9742 432.022C80.3766 433.618 79.1093 435.514 78.2447 437.6C77.3801 439.686 76.9351 441.921 76.9351 444.179V468.09C76.9351 472.65 78.7477 477.023 81.9742 480.247C85.2006 483.471 89.5767 485.283 94.1396 485.283H730.737C735.3 485.283 739.676 483.471 742.903 480.247C746.129 477.023 747.942 472.65 747.942 468.09V444.179C747.942 441.921 747.497 439.686 746.632 437.6C745.767 435.514 744.5 433.618 742.903 432.022C741.305 430.426 739.408 429.159 737.321 428.295C735.234 427.431 732.996 426.987 730.737 426.987H715.82C711.257 426.987 706.881 425.175 703.655 421.951C700.428 418.727 698.615 414.354 698.615 409.794V385.883C698.615 381.323 700.428 376.95 703.655 373.726C706.881 370.502 711.257 368.69 715.82 368.69H750.993C755.556 368.69 759.932 366.879 763.159 363.655C766.385 360.431 768.198 356.058 768.198 351.498V327.587C768.198 323.027 766.385 318.654 763.159 315.43C759.932 312.206 755.556 310.394 750.993 310.394H740.323C735.76 310.394 731.384 308.583 728.158 305.359C724.931 302.135 723.119 297.762 723.119 293.202V269.291C723.119 264.731 724.931 260.358 728.158 257.134C731.384 253.91 735.76 252.098 740.323 252.098H767.155C771.718 252.098 776.094 250.287 779.321 247.063C782.547 243.839 784.36 239.466 784.36 234.906Z" fill="#8789A7" fill-opacity="0.23"/>
<path d="M291.229 193.01C291.226 201.728 287.759 210.088 281.591 216.255C275.423 222.421 267.058 225.889 258.334 225.897H135.411C129.153 225.897 123.116 223.586 118.46 219.407C113.805 215.229 110.859 209.478 110.19 203.26C109.521 197.043 111.176 190.798 114.836 185.726C118.497 180.654 123.904 177.113 130.019 175.784C130.508 168.385 133.792 161.448 139.205 156.377C144.619 151.306 151.758 148.48 159.178 148.47C162.183 148.47 165.169 148.947 168.024 149.882C172.356 141.509 179.15 134.663 187.492 130.265C195.833 125.866 205.323 124.126 214.685 125.279C224.046 126.431 232.829 130.421 239.853 136.711C246.878 143.001 251.806 151.29 253.974 160.463C258.619 159.836 263.345 160.209 267.833 161.557C272.322 162.906 276.47 165.198 279.999 168.281C283.528 171.364 286.355 175.166 288.292 179.431C290.23 183.696 291.231 188.326 291.229 193.01Z" fill="#F9AE2B"/>
<path d="M504.976 386.123L480.538 349.817C500.239 332.325 512.655 308.083 515.331 281.884C518.006 255.685 510.747 229.436 494.988 208.328C479.229 187.22 456.117 172.79 430.223 167.89C404.33 162.991 377.539 167.979 355.148 181.868C332.757 195.758 316.397 217.537 309.303 242.9C302.208 268.263 304.896 295.363 316.834 318.842C328.772 342.32 349.091 360.467 373.774 369.695C398.457 378.923 425.707 378.56 450.135 368.677L473.957 403.909C475.126 405.945 476.684 407.73 478.543 409.163C480.402 410.597 482.526 411.65 484.793 412.264C487.059 412.877 489.424 413.038 491.753 412.738C494.082 412.438 496.329 411.682 498.366 410.514C500.403 409.347 502.189 407.789 503.624 405.931C505.058 404.073 506.112 401.951 506.726 399.686C507.34 397.422 507.501 395.058 507.201 392.731C506.901 390.403 506.145 388.158 504.976 386.123Z" fill="#454872"/>
<path d="M410.864 346.007C452.308 346.007 485.904 312.434 485.904 271.02C485.904 229.606 452.308 196.033 410.864 196.033C369.421 196.033 335.824 229.606 335.824 271.02C335.824 312.434 369.421 346.007 410.864 346.007Z" fill="#EE781D"/>
<path d="M410.864 196.034C407.282 196.037 403.704 196.295 400.158 196.806C418.02 199.378 434.356 208.296 446.172 221.927C457.988 235.557 464.493 252.987 464.493 271.021C464.493 289.054 457.988 306.484 446.172 320.114C434.356 333.745 418.02 342.663 400.158 345.235C410.359 346.705 420.754 346.059 430.694 343.337C440.634 340.616 449.906 335.877 457.933 329.417C465.96 322.957 472.569 314.914 477.348 305.789C482.127 296.664 484.974 286.654 485.711 276.381C486.448 266.108 485.06 255.794 481.632 246.081C478.205 236.368 472.812 227.465 465.789 219.927C458.767 212.388 450.266 206.376 440.816 202.265C431.366 198.155 421.17 196.033 410.864 196.034Z" fill="#E06714"/>
<path d="M370.672 284.087C377.086 284.087 382.286 278.891 382.286 272.482C382.286 266.072 377.086 260.876 370.672 260.876C364.258 260.876 359.059 266.072 359.059 272.482C359.059 278.891 364.258 284.087 370.672 284.087Z" fill="#F9AE2B"/>
<path d="M448.413 264.771C452.853 264.771 456.452 261.174 456.452 256.737C456.452 252.3 452.853 248.703 448.413 248.703C443.973 248.703 440.373 252.3 440.373 256.737C440.373 261.174 443.973 264.771 448.413 264.771Z" fill="#E06714"/>
<path d="M403.518 246.309C406.479 246.309 408.879 243.911 408.879 240.953C408.879 237.995 406.479 235.597 403.518 235.597C400.558 235.597 398.158 237.995 398.158 240.953C398.158 243.911 400.558 246.309 403.518 246.309Z" fill="#E06714"/>
<path d="M405.505 317.641C408.465 317.641 410.865 315.243 410.865 312.285C410.865 309.326 408.465 306.928 405.505 306.928C402.544 306.928 400.145 309.326 400.145 312.285C400.145 315.243 402.544 317.641 405.505 317.641Z" fill="#E06714"/>
<path d="M436.48 299.914C440.485 299.914 443.732 296.67 443.732 292.668C443.732 288.666 440.485 285.421 436.48 285.421C432.475 285.421 429.229 288.666 429.229 292.668C429.229 296.67 432.475 299.914 436.48 299.914Z" fill="#F9AE2B"/>
<path d="M354.938 344.364C357.213 344.364 359.058 342.521 359.058 340.247C359.058 337.973 357.213 336.13 354.938 336.13C352.663 336.13 350.818 337.973 350.818 340.247C350.818 342.521 352.663 344.364 354.938 344.364Z" fill="#1E2158"/>
<path d="M490.024 230.991C492.299 230.991 494.144 229.148 494.144 226.874C494.144 224.6 492.299 222.757 490.024 222.757C487.749 222.757 485.904 224.6 485.904 226.874C485.904 229.148 487.749 230.991 490.024 230.991Z" fill="#1E2158"/>
<path d="M487.523 315.094C485.022 320.397 481.956 325.416 478.378 330.062C474.677 334.681 470.524 338.92 465.98 342.714C461.341 346.446 456.35 349.72 451.079 352.491C440.415 357.962 428.706 361.098 416.734 361.691C413.749 361.719 410.771 361.829 407.797 361.648C404.828 361.482 401.869 361.152 398.936 360.659C387.253 358.785 376.152 354.271 366.479 347.461C376.893 352.32 388.046 355.406 399.478 356.593C410.738 357.691 422.105 356.76 433.036 353.844C438.474 352.365 443.775 350.423 448.88 348.039C453.969 345.573 458.854 342.708 463.49 339.471C468.089 336.112 472.421 332.4 476.446 328.371C480.443 324.208 484.144 319.772 487.523 315.094ZM324.182 288.551C320.056 273.372 320.386 257.327 325.133 242.33C327.484 234.775 330.864 227.58 335.18 220.948C337.341 217.629 339.73 214.465 342.331 211.479C344.912 208.471 347.69 205.639 350.649 203.003C353.63 200.39 356.771 197.966 360.053 195.744C361.736 194.699 363.359 193.557 365.102 192.612L367.683 191.142L370.34 189.811C372.098 188.902 373.951 188.187 375.756 187.383C377.616 186.704 379.434 185.921 381.331 185.355C385.079 184.103 388.912 183.125 392.801 182.428C400.55 181.061 408.45 180.754 416.283 181.516C424.033 182.306 431.629 184.213 438.832 187.178C431.408 185.277 423.789 184.241 416.126 184.093C408.56 183.98 401.008 184.77 393.629 186.447C386.316 188.169 379.246 190.792 372.581 194.257C369.257 195.977 366.039 197.893 362.942 199.994C359.869 202.126 356.929 204.444 354.138 206.934C342.845 216.899 334.209 229.514 329.006 243.642C323.797 258.004 322.142 273.412 324.182 288.551Z" fill="#1E2158"/>
<path d="M266.876 348.571V379.021C266.876 405.466 268.48 407.469 296.948 410.273V421.493H203.125V410.273C233.196 407.469 235.201 405.065 235.201 378.62V348.571H129.35V336.551C167.44 282.46 208.738 223.963 248.834 168.269H266.876V329.338H306.17V348.571L266.876 348.571ZM235.201 210.34C209.941 247.201 181.874 288.069 154.209 329.337H235.201V210.34ZM663.014 348.571V379.021C663.014 405.466 664.619 407.469 693.086 410.273V421.493H599.263V410.273C629.334 407.469 631.339 405.065 631.339 378.62V348.571H525.488V336.551C563.578 282.46 604.876 223.963 644.972 168.269H663.014V329.338H702.308V348.571L663.014 348.571ZM631.339 210.34C606.079 247.201 578.012 288.069 550.347 329.337H631.339V210.34Z" fill="#454872"/>
<path d="M726.169 100.385C726.164 111.869 721.598 122.881 713.474 131.003C705.35 139.125 694.332 143.692 682.84 143.703H520.932C512.69 143.703 504.738 140.659 498.606 135.155C492.474 129.651 488.594 122.077 487.713 113.887C486.832 105.698 489.011 97.4721 493.832 90.7914C498.654 84.1107 505.776 79.4468 513.83 77.6965C514.474 67.9511 518.799 58.8142 525.93 52.1349C533.061 45.4556 542.464 41.7327 552.238 41.7196C556.196 41.7198 560.128 42.3477 563.889 43.5796C569.594 32.5518 578.543 23.5345 589.53 17.741C600.518 11.9474 613.018 9.6554 625.348 11.1733C637.678 12.6912 649.247 17.9463 658.499 26.2315C667.751 34.5166 674.242 45.4346 677.098 57.5165C683.216 56.6903 689.441 57.1818 695.353 58.958C701.265 60.7341 706.729 63.7538 711.377 67.8143C716.025 71.8748 719.749 76.8821 722.301 82.4999C724.852 88.1177 726.171 94.216 726.169 100.385ZM725.942 439.088C725.938 447.807 722.471 456.167 716.303 462.333C710.135 468.5 701.771 471.967 693.046 471.975H570.123C563.865 471.976 557.828 469.664 553.173 465.486C548.517 461.307 545.572 455.556 544.903 449.339C544.234 443.121 545.888 436.876 549.549 431.804C553.209 426.732 558.616 423.191 564.731 421.862C565.22 414.464 568.504 407.527 573.918 402.456C579.331 397.385 586.471 394.558 593.891 394.548C596.896 394.549 599.881 395.025 602.736 395.96C607.068 387.588 613.862 380.742 622.204 376.343C630.546 371.945 640.036 370.205 649.397 371.357C658.758 372.51 667.541 376.499 674.566 382.789C681.59 389.08 686.518 397.369 688.687 406.542C693.331 405.914 698.057 406.287 702.546 407.636C707.034 408.984 711.182 411.277 714.711 414.36C718.24 417.443 721.068 421.244 723.005 425.509C724.942 429.774 725.943 434.404 725.942 439.088Z" fill="#F9AE2B"/>
<path d="M156.326 68.3499H198.817" stroke="#888AA7" stroke-width="3" stroke-miterlimit="10" stroke-linecap="round"/>
<path d="M156.326 80.5874H198.817" stroke="#888AA7" stroke-width="3" stroke-miterlimit="10" stroke-linecap="round"/>
<path d="M156.326 92.8262H198.817" stroke="#888AA7" stroke-width="3" stroke-miterlimit="10" stroke-linecap="round"/>
<path d="M359.383 431.047H401.874" stroke="#888AA7" stroke-width="3" stroke-miterlimit="10" stroke-linecap="round"/>
<path d="M359.383 443.286H401.874" stroke="#888AA7" stroke-width="3" stroke-miterlimit="10" stroke-linecap="round"/>
<path d="M359.383 455.523H401.874" stroke="#888AA7" stroke-width="3" stroke-miterlimit="10" stroke-linecap="round"/>
<path d="M704.697 269.008H747.187" stroke="#888AA7" stroke-width="3" stroke-miterlimit="10" stroke-linecap="round"/>
<path d="M704.697 281.247H747.187" stroke="#888AA7" stroke-width="3" stroke-miterlimit="10" stroke-linecap="round"/>
<path d="M704.697 293.484H747.187" stroke="#888AA7" stroke-width="3" stroke-miterlimit="10" stroke-linecap="round"/>
<path d="M105.933 458.386C117.868 458.386 127.542 448.718 127.542 436.792C127.542 424.866 117.868 415.198 105.933 415.198C93.999 415.198 84.3242 424.866 84.3242 436.792C84.3242 448.718 93.999 458.386 105.933 458.386Z" fill="#888AA7"/>
<path d="M133.129 413.39C139.345 413.39 144.385 408.354 144.385 402.142C144.385 395.93 139.345 390.894 133.129 390.894C126.912 390.894 121.873 395.93 121.873 402.142C121.873 408.354 126.912 413.39 133.129 413.39Z" fill="#888AA7"/>
<path d="M189.074 462.18C194.454 462.18 198.816 457.821 198.816 452.445C198.816 447.068 194.454 442.71 189.074 442.71C183.694 442.71 179.332 447.068 179.332 452.445C179.332 457.821 183.694 462.18 189.074 462.18Z" fill="#888AA7"/>
<path d="M166.448 430.077C170.034 430.077 172.941 427.172 172.941 423.589C172.941 420.005 170.034 417.1 166.448 417.1C162.862 417.1 159.955 420.005 159.955 423.589C159.955 427.172 162.862 430.077 166.448 430.077Z" fill="#888AA7"/>
<path d="M151.165 471.972C159.761 471.972 166.73 465.009 166.73 456.418C166.73 447.828 159.761 440.865 151.165 440.865C142.568 440.865 135.6 447.828 135.6 456.418C135.6 465.009 142.568 471.972 151.165 471.972Z" fill="#888AA7"/>
<path d="M405.01 146.415C416.944 146.415 426.619 136.747 426.619 124.821C426.619 112.895 416.944 103.228 405.01 103.228C393.075 103.228 383.4 112.895 383.4 124.821C383.4 136.747 393.075 146.415 405.01 146.415Z" fill="#888AA7"/>
<path d="M362.144 156.15C367.524 156.15 371.886 151.791 371.886 146.415C371.886 141.039 367.524 136.68 362.144 136.68C356.764 136.68 352.402 141.039 352.402 146.415C352.402 151.791 356.764 156.15 362.144 156.15Z" fill="#888AA7"/>
<path d="M350.202 124.821C358.798 124.821 365.767 117.857 365.767 109.267C365.767 100.677 358.798 93.7134 350.202 93.7134C341.605 93.7134 334.637 100.677 334.637 109.267C334.637 117.857 341.605 124.821 350.202 124.821Z" fill="#888AA7"/>
</svg>
