<svg width="42" height="35" viewBox="0 0 42 35" fill="none" xmlns="http://www.w3.org/2000/svg">
<path d="M33.25 10H8.75C7.78487 10 7 9.32726 7 8.5C7 7.67274 7.78487 7 8.75 7H33.25C34.2148 7 35 7.67274 35 8.5C35 9.32726 34.2148 10 33.25 10Z" fill="white"/>
<path d="M33.25 19H8.75C7.78487 19 7 18.3273 7 17.5C7 16.6727 7.78487 16 8.75 16H33.25C34.2148 16 35 16.6727 35 17.5C35 18.3273 34.2148 19 33.25 19Z" fill="white"/>
<path d="M33.25 28H8.75C7.78487 28 7 27.3273 7 26.5C7 25.6727 7.78487 25 8.75 25H33.25C34.2148 25 35 25.6727 35 26.5C35 27.3273 34.2148 28 33.25 28Z" fill="white"/>
</svg>
