<svg width="58" height="144" viewBox="0 0 58 144" fill="none" xmlns="http://www.w3.org/2000/svg">
<path d="M37.7547 102.065L21.8773 117.942C21.2518 118.568 20.3072 118.64 19.7711 118.104C19.235 117.568 19.3076 116.624 19.9331 115.998L35.8105 100.121C36.4357 99.4953 37.3806 99.4224 37.9167 99.9585C38.4528 100.495 38.3799 101.44 37.7547 102.065Z" fill="white"/>
<path d="M35.9217 117.758L20.0443 101.88C19.4188 101.255 19.3461 100.31 19.8822 99.7741C20.4184 99.238 21.363 99.3106 21.9884 99.9361L37.8659 115.814C38.4911 116.439 38.564 117.384 38.0279 117.92C37.4918 118.456 36.5469 118.383 35.9217 117.758Z" fill="white"/>
<path d="M41.25 29H16.75C15.7849 29 15 28.3273 15 27.5C15 26.6727 15.7849 26 16.75 26H41.25C42.2148 26 43 26.6727 43 27.5C43 28.3273 42.2148 29 41.25 29Z" fill="white"/>
<path d="M41.25 38H16.75C15.7849 38 15 37.3273 15 36.5C15 35.6727 15.7849 35 16.75 35H41.25C42.2148 35 43 35.6727 43 36.5C43 37.3273 42.2148 38 41.25 38Z" fill="white"/>
<path d="M41.25 47H16.75C15.7849 47 15 46.3273 15 45.5C15 44.6727 15.7849 44 16.75 44H41.25C42.2148 44 43 44.6727 43 45.5C43 46.3273 42.2148 47 41.25 47Z" fill="white"/>
</svg>
