<svg width="42" height="35" viewBox="0 0 42 35" fill="none" xmlns="http://www.w3.org/2000/svg">
<path d="M29.7547 11.0646L13.8773 26.9421C13.2518 27.5675 12.3072 27.6402 11.7711 27.1041C11.235 26.568 11.3076 25.6234 11.9331 24.9979L27.8105 9.12045C28.4357 8.49524 29.3806 8.42233 29.9167 8.95844C30.4528 9.49455 30.3799 10.4394 29.7547 11.0646Z" fill="white"/>
<path d="M27.9217 26.7579L12.0443 10.8804C11.4188 10.255 11.3461 9.31036 11.8822 8.77425C12.4184 8.23814 13.363 8.3108 13.9884 8.93626L29.8659 24.8137C30.4911 25.4389 30.564 26.3838 30.0279 26.9199C29.4918 27.456 28.5469 27.3831 27.9217 26.7579Z" fill="white"/>
</svg>
