<svg width="97" height="98" viewBox="0 0 97 98" fill="none" xmlns="http://www.w3.org/2000/svg">
<path d="M29.0754 37.5312C30.4414 37.5314 31.544 38.6884 31.5442 40.0995V41.4218C31.5442 42.2989 31.1774 43.3493 30.636 44.0517L30.5256 44.1874L23.0881 52.7997C22.7864 53.1493 22.3689 53.3289 21.9485 53.329C21.6278 53.329 21.3066 53.2245 21.0354 53.0146L20.9221 52.9189C20.2956 52.3311 20.2459 51.3278 20.8088 50.6757L28.2454 42.0634L28.3176 41.9462C28.3442 41.8931 28.3717 41.8275 28.3977 41.7567C28.4496 41.6158 28.4817 41.4853 28.4817 41.4218V40.7128H21.2415C20.391 40.7128 19.7102 39.9958 19.7102 39.122C19.7102 38.2482 20.391 37.5312 21.2415 37.5312H29.0754Z" fill="white" stroke="white" stroke-width="0.25"/>
<path d="M48.1951 37.5312C49.561 37.5314 50.6638 38.6883 50.6638 40.0995V41.4218C50.6638 42.2989 50.2971 43.3493 49.7556 44.0517L49.6453 44.1874L42.2078 52.7997C41.906 53.1493 41.4885 53.3289 41.0681 53.329C40.7474 53.329 40.4262 53.2245 40.155 53.0146L40.0417 52.9189C39.4154 52.3311 39.3655 51.3278 39.9285 50.6757L47.365 42.0634L47.4363 41.9462C47.4629 41.8931 47.4912 41.8276 47.5173 41.7567C47.5692 41.6158 47.6013 41.4853 47.6013 41.4218V40.7128H40.3611C39.5106 40.7128 38.8298 39.9958 38.8298 39.122C38.8299 38.2482 39.5106 37.5312 40.3611 37.5312H48.1951Z" fill="white" stroke="white" stroke-width="0.25"/>
<path d="M33.1106 32.5341C33.8041 32.5342 34.4468 32.7548 34.9846 33.1259C35.5227 32.7544 36.1666 32.5341 36.8606 32.5341H52.6331C53.3268 32.5341 53.9701 32.7546 54.5081 33.1259C55.0461 32.7546 55.6893 32.5341 56.3831 32.5341H72.1555C74.0384 32.5341 75.5617 34.1292 75.5618 36.079V54.7812C75.5617 56.731 74.0385 58.326 72.1555 58.3261H56.3831C55.689 58.3261 55.0452 58.1058 54.5071 57.7343C53.9692 58.1053 53.3266 58.326 52.6331 58.3261H36.8596C36.1656 58.326 35.5227 58.1049 34.9846 57.7333C34.4466 58.1047 33.8035 58.3261 33.1096 58.3261H17.3372C15.4542 58.3261 13.931 56.731 13.9309 54.7812V36.079C13.9311 34.1292 15.4542 32.5341 17.3372 32.5341H33.1106ZM17.3372 35.7157C17.1571 35.7157 16.9936 35.8785 16.9934 36.079V54.7812C16.9935 54.9818 17.157 55.1444 17.3372 55.1444H33.1096C33.2897 55.1444 33.4532 54.9818 33.4534 54.7812V36.079C33.4532 35.8785 33.2897 35.7157 33.1096 35.7157H17.3372ZM36.8596 35.7157C36.6797 35.716 36.5161 35.8786 36.5159 36.079V54.7812C36.516 54.9816 36.6797 55.1442 36.8596 55.1444H52.6331C52.8131 55.1444 52.9767 54.9817 52.9768 54.7812V36.079C52.9766 35.8785 52.8131 35.7158 52.6331 35.7157H36.8596ZM56.3831 35.7157C56.203 35.7158 56.0395 35.8785 56.0393 36.079V54.7812C56.0394 54.9818 56.203 55.1444 56.3831 55.1444H72.1555C72.3356 55.1444 72.4991 54.9818 72.4993 54.7812V36.079C72.4991 35.8785 72.3356 35.7157 72.1555 35.7157H56.3831Z" fill="white" stroke="white" stroke-width="0.25"/>
<path d="M67.7178 37.5312C69.0839 37.5314 70.1863 38.6884 70.1865 40.0995V41.4218C70.1865 42.2988 69.8198 43.3493 69.2783 44.0517L69.168 44.1874L61.7314 52.7997C61.4297 53.1493 61.0113 53.329 60.5908 53.329C60.2701 53.329 59.9489 53.2245 59.6777 53.0146L59.5645 52.9189C58.938 52.3311 58.8883 51.3278 59.4512 50.6757L66.8877 42.0634L66.96 41.9462C66.9865 41.8933 67.0141 41.8283 67.04 41.7577C67.092 41.6166 67.124 41.4853 67.124 41.4218V40.7128H59.8838C59.0333 40.7128 58.3525 39.9958 58.3525 39.122C58.3526 38.2482 59.0333 37.5312 59.8838 37.5312H67.7178Z" fill="white" stroke="white" stroke-width="0.25"/>
<path d="M20.9514 66.1583C22.8343 66.1583 24.3575 67.7534 24.3577 69.7032V83.0518C24.3577 85.0018 22.8345 86.5977 20.9514 86.5977H16.6389C14.7557 86.5977 13.2327 85.0018 13.2327 83.0518V69.7032C13.2329 67.7534 14.756 66.1583 16.6389 66.1583H20.9514ZM16.6389 69.3399C16.4588 69.3399 16.2954 69.5027 16.2952 69.7032V83.0518C16.2952 83.2526 16.4587 83.4161 16.6389 83.4161H20.9514C21.1316 83.4161 21.2952 83.2526 21.2952 83.0518V69.7032C21.2949 69.5027 21.1315 69.3399 20.9514 69.3399H16.6389Z" fill="white" stroke="white" stroke-width="0.25"/>
<path d="M18.83 71.4676C19.6804 71.4676 20.3612 72.1846 20.3612 73.0584V79.6971C20.3612 80.571 19.6804 81.2879 18.83 81.2879C17.9795 81.2879 17.2987 80.571 17.2987 79.6971V73.0584L17.3065 72.8963C17.3845 72.0977 18.0327 71.4676 18.83 71.4676Z" fill="white" stroke="white" stroke-width="0.25"/>
<path d="M70.5049 72.2041C73.4476 72.2041 75.8329 74.698 75.833 77.7529C75.833 80.8077 73.4479 83.3017 70.5049 83.3017C67.5621 83.3017 65.1769 80.8077 65.1768 77.7529L65.1836 77.4687C65.3261 74.5448 67.6539 72.2041 70.5049 72.2041ZM70.5049 75.3857C69.2607 75.3857 68.2396 76.4429 68.2393 77.7529L68.251 77.9961C68.3679 79.1915 69.3386 80.1201 70.5049 80.1201C71.7491 80.1201 72.7705 79.063 72.7705 77.7529C72.7704 76.4429 71.7492 75.3857 70.5049 75.3857Z" fill="white" stroke="white" stroke-width="0.25"/>
<mask id="path-8-outside-1_3005_4880" maskUnits="userSpaceOnUse" x="-0.5625" y="-0.1875" width="98" height="98" fill="black">
<rect fill="white" x="-0.5625" y="-0.1875" width="98" height="98"/>
<path d="M96.4375 39.8286C96.4375 36.2146 93.6167 33.2743 90.1495 33.2743C86.6824 33.2743 83.8617 36.2146 83.8617 39.8286C83.8617 42.9389 85.9512 45.5483 88.7432 46.2162V69.0792H87.4253V68.8671C87.4253 67.5199 86.374 66.424 85.0816 66.424H80.869V62.8735C81.7763 62.2643 82.3799 61.2044 82.3799 59.9983V30.8081C82.3799 29.602 81.7763 28.5419 80.869 27.9329V19.2154C80.869 17.3295 79.3969 15.7951 77.5877 15.7951H59.0854V14.0155C59.0854 12.6683 58.0341 11.5724 56.7417 11.5724H53.6372L52.7926 3.09884C52.6647 1.81671 51.5961 0.8125 50.3594 0.8125H39.2969C38.0706 0.8125 36.9968 1.80693 36.8526 3.07656L35.8872 11.5726H32.7513C31.4588 11.5726 30.4075 12.6685 30.4075 14.0157V15.7953H11.9054C10.0962 15.7953 8.62412 17.3297 8.62412 19.2156V27.9331C7.71681 28.5421 7.11325 29.6022 7.11325 30.8083V59.9985C7.11325 61.2046 7.71681 62.2645 8.62412 62.8737V88.4005H2.78125C1.48881 88.4005 0.4375 89.4963 0.4375 90.8435V94.3694C0.4375 95.7166 1.48881 96.8125 2.78125 96.8125H16.9373C17.7139 96.8125 18.3436 96.1564 18.3436 95.3466C18.3436 94.5369 17.7139 93.8808 16.9373 93.8808H3.25V91.3322H86.2431V93.8808H23.5C22.7234 93.8808 22.0938 94.5369 22.0938 95.3466C22.0938 96.1564 22.7234 96.8125 23.5 96.8125H86.7119C88.0043 96.8125 89.0556 95.7166 89.0556 94.3694V90.8435C89.0556 89.4963 88.0043 88.4005 86.7119 88.4005H80.869V86.9712H85.0816C86.374 86.9712 87.4253 85.8753 87.4253 84.5281V84.316H89.3339C92.0763 84.316 94.3075 81.9904 94.3075 79.1316V74.2638C94.3075 72.2372 93.1855 70.4797 91.5557 69.6274V46.2162C94.3478 45.5485 96.4375 42.9389 96.4375 39.8286ZM39.6089 3.74401H50.0292L50.8098 11.5724H48.8324C48.8335 11.5332 48.838 11.4948 48.838 11.4552C48.838 9.13052 47.0236 7.23899 44.7934 7.23899C42.5633 7.23899 40.7489 9.13052 40.7489 11.4552C40.7489 11.4946 40.7534 11.533 40.7545 11.5724H38.7194L39.6089 3.74401ZM46.0253 11.4552C46.0253 11.4946 46.0231 11.5337 46.0197 11.5724H43.567C43.5636 11.5339 43.5614 11.4948 43.5614 11.4552C43.5614 10.7469 44.1141 10.1707 44.7934 10.1707C45.4726 10.1707 46.0253 10.7469 46.0253 11.4552ZM33.22 14.5041H56.2728V15.7951H33.22V14.5041ZM38.2638 88.0844H28.5944V86.2943H38.2638V88.0844ZM38.2638 83.3626H28.5944V81.5727H38.2638V83.3626ZM46.9405 85.8057V88.4001H41.0763V85.8057C41.0763 85.4582 41.0052 85.1279 40.8792 84.8285C41.0052 84.5291 41.0763 84.1987 41.0763 83.8512V81.0841C41.0763 79.7369 40.0249 78.641 38.7325 78.641H30.0704V70.7311C30.0704 70.4663 30.2851 70.2425 30.5391 70.2425H58.9536C59.2077 70.2425 59.4224 70.4663 59.4224 70.7311V83.3626H49.2842C47.9918 83.3626 46.9405 84.4585 46.9405 85.8057ZM49.753 88.0844V86.2943H59.4226V88.0844H49.753ZM78.0565 88.4003H62.2351V70.7313C62.2351 68.8452 60.763 67.311 58.9538 67.311H30.5391C28.7299 67.311 27.2579 68.8452 27.2579 70.7313V78.8167C26.3943 79.1771 25.7817 80.0568 25.7817 81.0843V83.8514C25.7817 84.1989 25.8528 84.5292 25.9788 84.8287C25.8528 85.1281 25.7817 85.4584 25.7817 85.8059V88.4003H11.4366V63.4184H78.0565V88.4003ZM79.5672 59.9981C79.5672 60.2629 79.3525 60.4867 79.0984 60.4867H10.3945C10.1404 60.4867 9.92575 60.2629 9.92575 59.9981V30.8081C9.92575 30.5433 10.1404 30.3195 10.3945 30.3195H63.8125C64.5891 30.3195 65.2188 29.6634 65.2188 28.8537C65.2188 28.0439 64.5891 27.3878 63.8125 27.3878H11.4366V19.2156C11.4366 18.9508 11.6513 18.727 11.9054 18.727H77.5877C77.8418 18.727 78.0565 18.9508 78.0565 19.2156V27.3878H70.1875C69.4109 27.3878 68.7812 28.0439 68.7812 28.8537C68.7812 29.6634 69.4109 30.3195 70.1875 30.3195H79.0984C79.3525 30.3195 79.5672 30.5433 79.5672 30.8081V59.9981ZM91.495 79.1314C91.495 80.3735 90.5254 81.3841 89.3339 81.3841H87.4253V79.8884C87.4253 79.0786 86.7957 78.4225 86.0191 78.4225C85.2424 78.4225 84.6128 79.0786 84.6128 79.8884V84.0393H80.869V69.3555H84.6128V73.8293C84.6128 74.639 85.2424 75.2952 86.0191 75.2952C86.7957 75.2952 87.4253 74.639 87.4253 73.8293V72.0107H89.3339C90.5254 72.0107 91.495 73.0213 91.495 74.2634V79.1314ZM90.1495 43.4518C88.2332 43.4518 86.6742 41.8264 86.6742 39.8286C86.6742 37.8309 88.2332 36.206 90.1495 36.206C92.0659 36.206 93.625 37.8309 93.625 39.8286C93.625 41.8264 92.0659 43.4518 90.1495 43.4518Z"/>
</mask>
<path d="M96.4375 39.8286C96.4375 36.2146 93.6167 33.2743 90.1495 33.2743C86.6824 33.2743 83.8617 36.2146 83.8617 39.8286C83.8617 42.9389 85.9512 45.5483 88.7432 46.2162V69.0792H87.4253V68.8671C87.4253 67.5199 86.374 66.424 85.0816 66.424H80.869V62.8735C81.7763 62.2643 82.3799 61.2044 82.3799 59.9983V30.8081C82.3799 29.602 81.7763 28.5419 80.869 27.9329V19.2154C80.869 17.3295 79.3969 15.7951 77.5877 15.7951H59.0854V14.0155C59.0854 12.6683 58.0341 11.5724 56.7417 11.5724H53.6372L52.7926 3.09884C52.6647 1.81671 51.5961 0.8125 50.3594 0.8125H39.2969C38.0706 0.8125 36.9968 1.80693 36.8526 3.07656L35.8872 11.5726H32.7513C31.4588 11.5726 30.4075 12.6685 30.4075 14.0157V15.7953H11.9054C10.0962 15.7953 8.62412 17.3297 8.62412 19.2156V27.9331C7.71681 28.5421 7.11325 29.6022 7.11325 30.8083V59.9985C7.11325 61.2046 7.71681 62.2645 8.62412 62.8737V88.4005H2.78125C1.48881 88.4005 0.4375 89.4963 0.4375 90.8435V94.3694C0.4375 95.7166 1.48881 96.8125 2.78125 96.8125H16.9373C17.7139 96.8125 18.3436 96.1564 18.3436 95.3466C18.3436 94.5369 17.7139 93.8808 16.9373 93.8808H3.25V91.3322H86.2431V93.8808H23.5C22.7234 93.8808 22.0938 94.5369 22.0938 95.3466C22.0938 96.1564 22.7234 96.8125 23.5 96.8125H86.7119C88.0043 96.8125 89.0556 95.7166 89.0556 94.3694V90.8435C89.0556 89.4963 88.0043 88.4005 86.7119 88.4005H80.869V86.9712H85.0816C86.374 86.9712 87.4253 85.8753 87.4253 84.5281V84.316H89.3339C92.0763 84.316 94.3075 81.9904 94.3075 79.1316V74.2638C94.3075 72.2372 93.1855 70.4797 91.5557 69.6274V46.2162C94.3478 45.5485 96.4375 42.9389 96.4375 39.8286ZM39.6089 3.74401H50.0292L50.8098 11.5724H48.8324C48.8335 11.5332 48.838 11.4948 48.838 11.4552C48.838 9.13052 47.0236 7.23899 44.7934 7.23899C42.5633 7.23899 40.7489 9.13052 40.7489 11.4552C40.7489 11.4946 40.7534 11.533 40.7545 11.5724H38.7194L39.6089 3.74401ZM46.0253 11.4552C46.0253 11.4946 46.0231 11.5337 46.0197 11.5724H43.567C43.5636 11.5339 43.5614 11.4948 43.5614 11.4552C43.5614 10.7469 44.1141 10.1707 44.7934 10.1707C45.4726 10.1707 46.0253 10.7469 46.0253 11.4552ZM33.22 14.5041H56.2728V15.7951H33.22V14.5041ZM38.2638 88.0844H28.5944V86.2943H38.2638V88.0844ZM38.2638 83.3626H28.5944V81.5727H38.2638V83.3626ZM46.9405 85.8057V88.4001H41.0763V85.8057C41.0763 85.4582 41.0052 85.1279 40.8792 84.8285C41.0052 84.5291 41.0763 84.1987 41.0763 83.8512V81.0841C41.0763 79.7369 40.0249 78.641 38.7325 78.641H30.0704V70.7311C30.0704 70.4663 30.2851 70.2425 30.5391 70.2425H58.9536C59.2077 70.2425 59.4224 70.4663 59.4224 70.7311V83.3626H49.2842C47.9918 83.3626 46.9405 84.4585 46.9405 85.8057ZM49.753 88.0844V86.2943H59.4226V88.0844H49.753ZM78.0565 88.4003H62.2351V70.7313C62.2351 68.8452 60.763 67.311 58.9538 67.311H30.5391C28.7299 67.311 27.2579 68.8452 27.2579 70.7313V78.8167C26.3943 79.1771 25.7817 80.0568 25.7817 81.0843V83.8514C25.7817 84.1989 25.8528 84.5292 25.9788 84.8287C25.8528 85.1281 25.7817 85.4584 25.7817 85.8059V88.4003H11.4366V63.4184H78.0565V88.4003ZM79.5672 59.9981C79.5672 60.2629 79.3525 60.4867 79.0984 60.4867H10.3945C10.1404 60.4867 9.92575 60.2629 9.92575 59.9981V30.8081C9.92575 30.5433 10.1404 30.3195 10.3945 30.3195H63.8125C64.5891 30.3195 65.2188 29.6634 65.2188 28.8537C65.2188 28.0439 64.5891 27.3878 63.8125 27.3878H11.4366V19.2156C11.4366 18.9508 11.6513 18.727 11.9054 18.727H77.5877C77.8418 18.727 78.0565 18.9508 78.0565 19.2156V27.3878H70.1875C69.4109 27.3878 68.7812 28.0439 68.7812 28.8537C68.7812 29.6634 69.4109 30.3195 70.1875 30.3195H79.0984C79.3525 30.3195 79.5672 30.5433 79.5672 30.8081V59.9981ZM91.495 79.1314C91.495 80.3735 90.5254 81.3841 89.3339 81.3841H87.4253V79.8884C87.4253 79.0786 86.7957 78.4225 86.0191 78.4225C85.2424 78.4225 84.6128 79.0786 84.6128 79.8884V84.0393H80.869V69.3555H84.6128V73.8293C84.6128 74.639 85.2424 75.2952 86.0191 75.2952C86.7957 75.2952 87.4253 74.639 87.4253 73.8293V72.0107H89.3339C90.5254 72.0107 91.495 73.0213 91.495 74.2634V79.1314ZM90.1495 43.4518C88.2332 43.4518 86.6742 41.8264 86.6742 39.8286C86.6742 37.8309 88.2332 36.206 90.1495 36.206C92.0659 36.206 93.625 37.8309 93.625 39.8286C93.625 41.8264 92.0659 43.4518 90.1495 43.4518Z" fill="white"/>
<path d="M96.4375 39.8286C96.4375 36.2146 93.6167 33.2743 90.1495 33.2743C86.6824 33.2743 83.8617 36.2146 83.8617 39.8286C83.8617 42.9389 85.9512 45.5483 88.7432 46.2162V69.0792H87.4253V68.8671C87.4253 67.5199 86.374 66.424 85.0816 66.424H80.869V62.8735C81.7763 62.2643 82.3799 61.2044 82.3799 59.9983V30.8081C82.3799 29.602 81.7763 28.5419 80.869 27.9329V19.2154C80.869 17.3295 79.3969 15.7951 77.5877 15.7951H59.0854V14.0155C59.0854 12.6683 58.0341 11.5724 56.7417 11.5724H53.6372L52.7926 3.09884C52.6647 1.81671 51.5961 0.8125 50.3594 0.8125H39.2969C38.0706 0.8125 36.9968 1.80693 36.8526 3.07656L35.8872 11.5726H32.7513C31.4588 11.5726 30.4075 12.6685 30.4075 14.0157V15.7953H11.9054C10.0962 15.7953 8.62412 17.3297 8.62412 19.2156V27.9331C7.71681 28.5421 7.11325 29.6022 7.11325 30.8083V59.9985C7.11325 61.2046 7.71681 62.2645 8.62412 62.8737V88.4005H2.78125C1.48881 88.4005 0.4375 89.4963 0.4375 90.8435V94.3694C0.4375 95.7166 1.48881 96.8125 2.78125 96.8125H16.9373C17.7139 96.8125 18.3436 96.1564 18.3436 95.3466C18.3436 94.5369 17.7139 93.8808 16.9373 93.8808H3.25V91.3322H86.2431V93.8808H23.5C22.7234 93.8808 22.0938 94.5369 22.0938 95.3466C22.0938 96.1564 22.7234 96.8125 23.5 96.8125H86.7119C88.0043 96.8125 89.0556 95.7166 89.0556 94.3694V90.8435C89.0556 89.4963 88.0043 88.4005 86.7119 88.4005H80.869V86.9712H85.0816C86.374 86.9712 87.4253 85.8753 87.4253 84.5281V84.316H89.3339C92.0763 84.316 94.3075 81.9904 94.3075 79.1316V74.2638C94.3075 72.2372 93.1855 70.4797 91.5557 69.6274V46.2162C94.3478 45.5485 96.4375 42.9389 96.4375 39.8286ZM39.6089 3.74401H50.0292L50.8098 11.5724H48.8324C48.8335 11.5332 48.838 11.4948 48.838 11.4552C48.838 9.13052 47.0236 7.23899 44.7934 7.23899C42.5633 7.23899 40.7489 9.13052 40.7489 11.4552C40.7489 11.4946 40.7534 11.533 40.7545 11.5724H38.7194L39.6089 3.74401ZM46.0253 11.4552C46.0253 11.4946 46.0231 11.5337 46.0197 11.5724H43.567C43.5636 11.5339 43.5614 11.4948 43.5614 11.4552C43.5614 10.7469 44.1141 10.1707 44.7934 10.1707C45.4726 10.1707 46.0253 10.7469 46.0253 11.4552ZM33.22 14.5041H56.2728V15.7951H33.22V14.5041ZM38.2638 88.0844H28.5944V86.2943H38.2638V88.0844ZM38.2638 83.3626H28.5944V81.5727H38.2638V83.3626ZM46.9405 85.8057V88.4001H41.0763V85.8057C41.0763 85.4582 41.0052 85.1279 40.8792 84.8285C41.0052 84.5291 41.0763 84.1987 41.0763 83.8512V81.0841C41.0763 79.7369 40.0249 78.641 38.7325 78.641H30.0704V70.7311C30.0704 70.4663 30.2851 70.2425 30.5391 70.2425H58.9536C59.2077 70.2425 59.4224 70.4663 59.4224 70.7311V83.3626H49.2842C47.9918 83.3626 46.9405 84.4585 46.9405 85.8057ZM49.753 88.0844V86.2943H59.4226V88.0844H49.753ZM78.0565 88.4003H62.2351V70.7313C62.2351 68.8452 60.763 67.311 58.9538 67.311H30.5391C28.7299 67.311 27.2579 68.8452 27.2579 70.7313V78.8167C26.3943 79.1771 25.7817 80.0568 25.7817 81.0843V83.8514C25.7817 84.1989 25.8528 84.5292 25.9788 84.8287C25.8528 85.1281 25.7817 85.4584 25.7817 85.8059V88.4003H11.4366V63.4184H78.0565V88.4003ZM79.5672 59.9981C79.5672 60.2629 79.3525 60.4867 79.0984 60.4867H10.3945C10.1404 60.4867 9.92575 60.2629 9.92575 59.9981V30.8081C9.92575 30.5433 10.1404 30.3195 10.3945 30.3195H63.8125C64.5891 30.3195 65.2188 29.6634 65.2188 28.8537C65.2188 28.0439 64.5891 27.3878 63.8125 27.3878H11.4366V19.2156C11.4366 18.9508 11.6513 18.727 11.9054 18.727H77.5877C77.8418 18.727 78.0565 18.9508 78.0565 19.2156V27.3878H70.1875C69.4109 27.3878 68.7812 28.0439 68.7812 28.8537C68.7812 29.6634 69.4109 30.3195 70.1875 30.3195H79.0984C79.3525 30.3195 79.5672 30.5433 79.5672 30.8081V59.9981ZM91.495 79.1314C91.495 80.3735 90.5254 81.3841 89.3339 81.3841H87.4253V79.8884C87.4253 79.0786 86.7957 78.4225 86.0191 78.4225C85.2424 78.4225 84.6128 79.0786 84.6128 79.8884V84.0393H80.869V69.3555H84.6128V73.8293C84.6128 74.639 85.2424 75.2952 86.0191 75.2952C86.7957 75.2952 87.4253 74.639 87.4253 73.8293V72.0107H89.3339C90.5254 72.0107 91.495 73.0213 91.495 74.2634V79.1314ZM90.1495 43.4518C88.2332 43.4518 86.6742 41.8264 86.6742 39.8286C86.6742 37.8309 88.2332 36.206 90.1495 36.206C92.0659 36.206 93.625 37.8309 93.625 39.8286C93.625 41.8264 92.0659 43.4518 90.1495 43.4518Z" stroke="white" stroke-width="0.5" mask="url(#path-8-outside-1_3005_4880)"/>
<path d="M17.8352 21.5204C18.6898 21.5204 19.3743 22.2411 19.3743 23.119C19.3742 23.9968 18.6897 24.7176 17.8352 24.7176C16.9809 24.7174 16.2972 23.9966 16.2971 23.119C16.2971 22.2413 16.9809 21.5206 17.8352 21.5204Z" fill="white" stroke="white" stroke-width="0.25"/>
<path d="M24.5852 21.5204C25.4398 21.5204 26.1243 22.2411 26.1243 23.119C26.1242 23.9968 25.4397 24.7176 24.5852 24.7176C23.7309 24.7174 23.0472 23.9966 23.0471 23.119C23.0471 22.2413 23.7309 21.5206 24.5852 21.5204Z" fill="white" stroke="white" stroke-width="0.25"/>
<path d="M31.3352 21.5204C32.1898 21.5204 32.8743 22.2411 32.8743 23.119C32.8742 23.9968 32.1897 24.7176 31.3352 24.7176C30.4809 24.7174 29.7972 23.9966 29.7971 23.119C29.7971 22.2413 30.4809 21.5206 31.3352 21.5204Z" fill="white" stroke="white" stroke-width="0.25"/>
<path d="M38.0852 21.5204C38.9398 21.5204 39.6243 22.2411 39.6243 23.119C39.6242 23.9968 38.9397 24.7176 38.0852 24.7176C37.2309 24.7174 36.5472 23.9966 36.5471 23.119C36.5471 22.2413 37.2309 21.5206 38.0852 21.5204Z" fill="white" stroke="white" stroke-width="0.25"/>
<path d="M44.8352 21.5204C45.6898 21.5204 46.3743 22.2411 46.3743 23.119C46.3742 23.9968 45.6897 24.7176 44.8352 24.7176C43.9809 24.7174 43.2972 23.9966 43.2971 23.119C43.2971 22.2413 43.9809 21.5206 44.8352 21.5204Z" fill="white" stroke="white" stroke-width="0.25"/>
<path d="M51.5852 21.5204C52.4398 21.5204 53.1243 22.2411 53.1243 23.119C53.1242 23.9968 52.4397 24.7176 51.5852 24.7176C50.7309 24.7174 50.0472 23.9966 50.0471 23.119C50.0471 22.2413 50.7309 21.5206 51.5852 21.5204Z" fill="white" stroke="white" stroke-width="0.25"/>
<path d="M58.3352 21.5204C59.1898 21.5204 59.8743 22.2411 59.8743 23.119C59.8742 23.9968 59.1897 24.7176 58.3352 24.7176C57.4809 24.7174 56.7972 23.9966 56.7971 23.119C56.7971 22.2413 57.4809 21.5206 58.3352 21.5204Z" fill="white" stroke="white" stroke-width="0.25"/>
<path d="M65.0853 21.5205C65.9398 21.5205 66.6244 22.2414 66.6244 23.1192C66.6242 23.9968 65.9397 24.7168 65.0853 24.7168C64.2311 24.7167 63.5474 23.9967 63.5472 23.1192C63.5472 22.2415 64.231 21.5207 65.0853 21.5205Z" fill="white" stroke="white" stroke-width="0.25"/>
<path d="M71.8352 21.5204C72.6898 21.5204 73.3743 22.2411 73.3743 23.119C73.3742 23.9968 72.6897 24.7176 71.8352 24.7176C70.9809 24.7174 70.2972 23.9966 70.2971 23.119C70.2971 22.2413 70.9809 21.5206 71.8352 21.5204Z" fill="white" stroke="white" stroke-width="0.25"/>
</svg>
