<svg width="97" height="97" viewBox="0 0 97 97" fill="none" xmlns="http://www.w3.org/2000/svg">
<mask id="path-1-inside-1_3005_4988" fill="white">
<path d="M60.4322 28.0364L53.6271 26.8871L50.4127 20.9306C50.0013 20.1682 49.1911 19.6907 48.3083 19.6905H48.3075C47.4249 19.6905 46.6147 20.1674 46.2029 20.9292L42.9829 26.8871L36.1824 28.0364C35.3125 28.1835 34.5977 28.7883 34.3251 29.6078C34.0524 30.4273 34.2672 31.3269 34.8826 31.9443L39.6931 36.7711L38.7128 43.4366C38.5874 44.2893 38.9559 45.14 39.6701 45.6461C40.0841 45.9395 40.5747 46.0892 41.0684 46.0892C41.4265 46.0892 41.786 46.0104 42.1189 45.8505L48.3075 42.877L54.496 45.8505C55.2886 46.2312 56.2313 46.1524 56.9457 45.6455C57.6599 45.139 58.0281 44.2878 57.902 43.4348L56.9171 36.7709L61.7314 31.9449C62.3472 31.3275 62.5624 30.4277 62.2899 29.6078C62.0175 28.7881 61.3023 28.1829 60.4322 28.036V28.0364ZM52.6898 34.3502C52.1743 34.8671 51.934 35.5881 52.0397 36.3023L52.5473 39.7368L49.3582 38.2045C48.6955 37.8861 47.919 37.8861 47.2564 38.2045L44.0639 39.7384L44.5696 36.3006C44.6745 35.5875 44.4343 34.8675 43.9198 34.3511L41.4394 31.8623L44.9471 31.2696C45.6742 31.1467 46.3016 30.7015 46.6458 30.0648L48.3057 26.9937L49.9622 30.0634C50.3064 30.7012 50.9342 31.1467 51.6617 31.2694L55.1716 31.8621L52.6894 34.35L52.6898 34.3502ZM95.9746 18.5139C94.6679 12.9619 90.1674 9.51306 84.2297 9.51306H79.6488C79.6885 9.29957 79.7123 9.08086 79.7123 8.85634V4.09966C79.7123 2.10803 78.0498 0.487823 76.0065 0.487823H20.6028C18.5624 0.487823 16.9023 2.10803 16.9023 4.09966V8.85634C16.9023 9.08067 16.9263 9.29957 16.9658 9.51306H12.5594C6.62845 9.51306 2.12831 12.9608 0.815056 18.5112C0.0532357 21.7313 0.459328 25.1457 1.01156 28.3546C3.73543 44.2433 11.654 52.5872 25.9323 54.6133L30.4648 55.2553C33.1262 57.654 36.2359 59.4671 39.6534 60.6039C39.0318 65.3143 37.3303 69.8253 34.4888 74.3134H32.9065C29.6853 74.3134 27.0648 76.869 27.0648 80.0103V81.0673H24.5203C22.1484 81.0673 20.2187 82.9509 20.2187 85.2662V92.1736C20.2187 94.5525 22.2014 96.4878 24.6385 96.4878H71.9765C74.4136 96.4878 76.3963 94.5525 76.3963 92.1736V85.2662C76.3963 82.9509 74.4666 81.0673 72.0945 81.0673H69.5445V80.0103C69.5445 76.8692 66.9263 74.3134 63.7083 74.3134H62.1259C59.2845 69.8253 57.583 65.3141 56.9613 60.6037C60.3628 59.4716 63.459 57.6689 66.1121 55.2861L70.8629 54.6129C85.1406 52.587 93.0592 44.2431 95.7831 28.3557C96.3341 25.1525 96.7386 21.7429 95.9746 18.5135V18.5139ZM76.5908 21.1261H84.2297C84.2885 21.1261 84.3401 21.1272 84.3851 21.129C84.7164 22.5539 84.2645 25.1776 84.047 26.4409C82.5609 35.1025 79.7541 39.673 74.1983 41.8529C74.5338 40.5287 74.7731 39.1713 74.9121 37.7892L76.5908 21.1261ZM21.6612 5.13302H74.9534V7.90001H21.6612V5.13302ZM21.6971 37.7901C21.8369 39.1713 22.0766 40.5281 22.4121 41.8512C16.8603 39.6707 14.0531 35.1007 12.5632 26.4462C12.3316 25.0768 11.9007 22.5306 12.2297 21.129C12.2747 21.127 12.3262 21.1259 12.3851 21.1259H20.0218L21.6971 37.7901ZM5.70483 27.5868C5.23389 24.8505 4.87757 21.9841 5.45181 19.5566C6.2634 16.1259 8.85403 14.1583 12.5592 14.1583H19.3212L19.5548 16.4809H12.3851C9.11973 16.4809 7.97621 18.4417 7.59431 20.0772C7.09145 22.1888 7.47196 24.8627 7.86894 27.2095C8.89349 33.1612 10.5179 37.3972 12.9808 40.5405C15.6753 43.9791 19.4307 46.1931 24.4295 47.2913C24.8766 48.1898 25.3738 49.0625 25.9194 49.9071C14.1205 48.0127 8.05572 41.3 5.70483 27.5868ZM71.6372 91.8428H24.9776V85.7125H71.6372V91.8428ZM64.7854 80.0103V81.0673H31.8235V80.0103C31.8235 79.4403 32.3194 78.9586 32.9063 78.9586H63.7079C64.2918 78.9586 64.7852 79.4401 64.7852 80.0103H64.7854ZM53.8123 56.6754C52.6976 56.9529 51.9459 57.9691 52.0268 59.0891C52.4015 64.2867 53.9527 69.3916 56.6421 74.3136H39.9729C42.6622 69.3916 44.2134 64.2867 44.5882 59.0891C44.6689 57.9689 43.9172 56.9527 42.8022 56.6754C33.8212 54.4412 27.3959 46.8488 26.4334 37.3349L23.9411 12.5452H72.6735L70.1762 37.3347C69.2338 46.7014 62.6574 54.4737 53.8123 56.6754ZM91.0896 27.5881C88.7252 41.3785 82.6043 48.0891 70.6723 49.9389C71.226 49.0847 71.7294 48.2012 72.1819 47.2919C77.1827 46.1941 80.9391 43.9797 83.6334 40.5403C86.0965 37.3959 87.7193 33.1596 88.7403 27.2099C89.1406 24.8858 89.5255 22.2268 89.0207 20.0782C88.4534 17.6911 86.8415 16.4809 84.2297 16.4809H77.0588L77.2928 14.1583H84.2297C87.9392 14.1583 90.5294 16.1249 91.3373 19.5566C91.9143 21.9961 91.5593 24.8577 91.0896 27.5881Z"/>
</mask>
<path d="M60.4322 28.0364L53.6271 26.8871L50.4127 20.9306C50.0013 20.1682 49.1911 19.6907 48.3083 19.6905H48.3075C47.4249 19.6905 46.6147 20.1674 46.2029 20.9292L42.9829 26.8871L36.1824 28.0364C35.3125 28.1835 34.5977 28.7883 34.3251 29.6078C34.0524 30.4273 34.2672 31.3269 34.8826 31.9443L39.6931 36.7711L38.7128 43.4366C38.5874 44.2893 38.9559 45.14 39.6701 45.6461C40.0841 45.9395 40.5747 46.0892 41.0684 46.0892C41.4265 46.0892 41.786 46.0104 42.1189 45.8505L48.3075 42.877L54.496 45.8505C55.2886 46.2312 56.2313 46.1524 56.9457 45.6455C57.6599 45.139 58.0281 44.2878 57.902 43.4348L56.9171 36.7709L61.7314 31.9449C62.3472 31.3275 62.5624 30.4277 62.2899 29.6078C62.0175 28.7881 61.3023 28.1829 60.4322 28.036V28.0364ZM52.6898 34.3502C52.1743 34.8671 51.934 35.5881 52.0397 36.3023L52.5473 39.7368L49.3582 38.2045C48.6955 37.8861 47.919 37.8861 47.2564 38.2045L44.0639 39.7384L44.5696 36.3006C44.6745 35.5875 44.4343 34.8675 43.9198 34.3511L41.4394 31.8623L44.9471 31.2696C45.6742 31.1467 46.3016 30.7015 46.6458 30.0648L48.3057 26.9937L49.9622 30.0634C50.3064 30.7012 50.9342 31.1467 51.6617 31.2694L55.1716 31.8621L52.6894 34.35L52.6898 34.3502ZM95.9746 18.5139C94.6679 12.9619 90.1674 9.51306 84.2297 9.51306H79.6488C79.6885 9.29957 79.7123 9.08086 79.7123 8.85634V4.09966C79.7123 2.10803 78.0498 0.487823 76.0065 0.487823H20.6028C18.5624 0.487823 16.9023 2.10803 16.9023 4.09966V8.85634C16.9023 9.08067 16.9263 9.29957 16.9658 9.51306H12.5594C6.62845 9.51306 2.12831 12.9608 0.815056 18.5112C0.0532357 21.7313 0.459328 25.1457 1.01156 28.3546C3.73543 44.2433 11.654 52.5872 25.9323 54.6133L30.4648 55.2553C33.1262 57.654 36.2359 59.4671 39.6534 60.6039C39.0318 65.3143 37.3303 69.8253 34.4888 74.3134H32.9065C29.6853 74.3134 27.0648 76.869 27.0648 80.0103V81.0673H24.5203C22.1484 81.0673 20.2187 82.9509 20.2187 85.2662V92.1736C20.2187 94.5525 22.2014 96.4878 24.6385 96.4878H71.9765C74.4136 96.4878 76.3963 94.5525 76.3963 92.1736V85.2662C76.3963 82.9509 74.4666 81.0673 72.0945 81.0673H69.5445V80.0103C69.5445 76.8692 66.9263 74.3134 63.7083 74.3134H62.1259C59.2845 69.8253 57.583 65.3141 56.9613 60.6037C60.3628 59.4716 63.459 57.6689 66.1121 55.2861L70.8629 54.6129C85.1406 52.587 93.0592 44.2431 95.7831 28.3557C96.3341 25.1525 96.7386 21.7429 95.9746 18.5135V18.5139ZM76.5908 21.1261H84.2297C84.2885 21.1261 84.3401 21.1272 84.3851 21.129C84.7164 22.5539 84.2645 25.1776 84.047 26.4409C82.5609 35.1025 79.7541 39.673 74.1983 41.8529C74.5338 40.5287 74.7731 39.1713 74.9121 37.7892L76.5908 21.1261ZM21.6612 5.13302H74.9534V7.90001H21.6612V5.13302ZM21.6971 37.7901C21.8369 39.1713 22.0766 40.5281 22.4121 41.8512C16.8603 39.6707 14.0531 35.1007 12.5632 26.4462C12.3316 25.0768 11.9007 22.5306 12.2297 21.129C12.2747 21.127 12.3262 21.1259 12.3851 21.1259H20.0218L21.6971 37.7901ZM5.70483 27.5868C5.23389 24.8505 4.87757 21.9841 5.45181 19.5566C6.2634 16.1259 8.85403 14.1583 12.5592 14.1583H19.3212L19.5548 16.4809H12.3851C9.11973 16.4809 7.97621 18.4417 7.59431 20.0772C7.09145 22.1888 7.47196 24.8627 7.86894 27.2095C8.89349 33.1612 10.5179 37.3972 12.9808 40.5405C15.6753 43.9791 19.4307 46.1931 24.4295 47.2913C24.8766 48.1898 25.3738 49.0625 25.9194 49.9071C14.1205 48.0127 8.05572 41.3 5.70483 27.5868ZM71.6372 91.8428H24.9776V85.7125H71.6372V91.8428ZM64.7854 80.0103V81.0673H31.8235V80.0103C31.8235 79.4403 32.3194 78.9586 32.9063 78.9586H63.7079C64.2918 78.9586 64.7852 79.4401 64.7852 80.0103H64.7854ZM53.8123 56.6754C52.6976 56.9529 51.9459 57.9691 52.0268 59.0891C52.4015 64.2867 53.9527 69.3916 56.6421 74.3136H39.9729C42.6622 69.3916 44.2134 64.2867 44.5882 59.0891C44.6689 57.9689 43.9172 56.9527 42.8022 56.6754C33.8212 54.4412 27.3959 46.8488 26.4334 37.3349L23.9411 12.5452H72.6735L70.1762 37.3347C69.2338 46.7014 62.6574 54.4737 53.8123 56.6754ZM91.0896 27.5881C88.7252 41.3785 82.6043 48.0891 70.6723 49.9389C71.226 49.0847 71.7294 48.2012 72.1819 47.2919C77.1827 46.1941 80.9391 43.9797 83.6334 40.5403C86.0965 37.3959 87.7193 33.1596 88.7403 27.2099C89.1406 24.8858 89.5255 22.2268 89.0207 20.0782C88.4534 17.6911 86.8415 16.4809 84.2297 16.4809H77.0588L77.2928 14.1583H84.2297C87.9392 14.1583 90.5294 16.1249 91.3373 19.5566C91.9143 21.9961 91.5593 24.8577 91.0896 27.5881Z" fill="white" stroke="white" stroke-width="2" mask="url(#path-1-inside-1_3005_4988)"/>
</svg>
