<svg width="97" height="96" viewBox="0 0 97 96" fill="none" xmlns="http://www.w3.org/2000/svg">
<mask id="path-1-inside-1_3005_4972" fill="white">
<path fill-rule="evenodd" clip-rule="evenodd" d="M32.6089 36.6024C47.5855 36.6024 59.7235 48.6811 59.7235 63.5803C59.7235 78.4814 47.5855 90.5601 32.6089 90.5601C17.6323 90.5601 5.49434 78.4814 5.49434 63.5803C5.49434 48.6811 17.6342 36.6024 32.6089 36.6024ZM34.529 40.5019V45.9777C36.3835 46.1755 38.153 46.6574 39.7914 47.3774L42.5451 42.635C40.0808 41.4753 37.3773 40.7323 34.529 40.5019ZM30.6888 45.9777V40.5019C27.8406 40.7342 25.1389 41.4773 22.6728 42.635L25.4245 47.3774C27.0629 46.6574 28.8344 46.1755 30.6888 45.9777ZM22.0996 49.2917L19.3478 44.5473C17.0592 46.1313 15.0696 48.107 13.4795 50.3861L18.2479 53.124C19.3285 51.6571 20.6253 50.3669 22.0996 49.2917ZM16.324 56.4321L11.5575 53.6942C10.392 56.148 9.64518 58.8379 9.41361 61.6699H14.9172C15.1159 59.8248 15.6003 58.0622 16.324 56.4321ZM14.9153 65.4907H9.41361C9.64518 68.3246 10.392 71.0145 11.5575 73.4683L16.3259 70.7285C15.6003 69.0984 15.1159 67.3358 14.9153 65.4907ZM18.246 74.0366L13.4776 76.7765C15.0619 79.0497 17.0592 81.0389 19.3459 82.6152L22.0996 77.8728C20.6292 76.7995 19.3228 75.4997 18.246 74.0366ZM25.4226 79.7832L22.6708 84.5275C25.137 85.6872 27.8406 86.4302 30.6888 86.6625V81.1867C28.8324 80.987 27.0629 80.5032 25.4226 79.7832ZM34.529 81.1848V86.6606C37.3773 86.4302 40.0789 85.6872 42.547 84.5275L39.7952 79.7851C38.1549 80.5051 36.3835 80.987 34.529 81.1848ZM43.1182 77.8709L45.8719 82.6133C48.1644 81.0254 50.1463 79.0555 51.7402 76.7745L46.9719 74.0347C45.8931 75.5016 44.5906 76.7995 43.1182 77.8709ZM48.8939 70.7285L53.6622 73.4683C54.8278 71.0145 55.5746 68.3246 55.8061 65.4907H50.3026C50.1019 67.3358 49.6175 69.0965 48.8939 70.7285ZM50.3026 61.6699H55.8061C55.5746 58.836 54.8258 56.1461 53.6603 53.6942L48.8919 56.4321C49.6175 58.0622 50.1019 59.8248 50.3026 61.6699ZM46.9699 53.124L51.7383 50.3861C50.1521 48.1128 48.1548 46.1256 45.87 44.5473L43.1182 49.2917C44.5886 50.363 45.8931 51.6609 46.9699 53.124ZM82.8937 15.0715C70.281 18.4065 50.1385 18.4085 37.5259 15.0715C32.8077 13.8254 29.8861 12.539 29.8861 11.5195C29.8861 10.4981 32.8057 9.21358 37.5259 7.96558C50.1424 4.62862 70.2791 4.62862 82.8956 7.96558C87.6138 9.21358 90.5354 10.5 90.5354 11.5195C90.5335 12.539 87.6119 13.8254 82.8937 15.0715ZM56.2616 36.0072C65.3274 36.2913 75.5376 35.723 84.2831 33.4094C86.6933 32.772 88.7967 32.004 90.5335 31.1246V37.6814C90.5335 38.7029 87.6119 39.9873 82.8937 41.2353C77.7568 42.5928 70.8213 43.4913 63.06 43.668C64.187 45.3729 65.1634 47.1643 65.9835 49.0229C73.0386 48.6984 79.3816 47.7921 84.2831 46.4961C86.6933 45.8587 88.7967 45.0926 90.5335 44.2113V50.6472C90.5335 51.6705 87.6119 52.9531 82.8937 54.2011C78.9513 55.2437 73.9475 56.0155 68.3243 56.3957C68.6832 58.1697 68.909 59.9803 68.9997 61.8101C74.8448 61.3934 80.0917 60.5678 84.2831 59.46C86.6933 58.8225 88.7967 58.0545 90.5335 57.1752V63.7301C90.5335 64.7515 87.6119 66.036 82.8937 67.284C79.0072 68.3112 74.0903 69.0753 68.5636 69.4613C68.2548 71.3505 67.7936 73.2033 67.1935 75.0062C73.7642 74.6395 79.6653 73.764 84.2831 72.5409C91.5292 70.6248 96.0139 67.5336 96.0139 63.7281V11.5195C96.0139 7.71022 91.5292 4.62094 84.2831 2.70286C70.7075 -0.883701 49.7101 -0.883701 36.1326 2.70286C28.8884 4.61902 24.4037 7.71022 24.4037 11.5195V24.5985V28.2561C27.856 27.4651 31.3932 27.1848 34.9246 27.4037C31.754 26.4033 29.8822 25.4165 29.8822 24.5985V18.0475C31.619 18.9269 33.7224 19.6949 36.1307 20.3323C49.7101 23.9227 70.6978 23.9208 84.2793 20.3323C86.6895 19.6949 88.7948 18.9269 90.5296 18.0475V24.5966C90.5296 25.6181 87.608 26.9025 82.8899 28.1505C71.8634 31.0651 56.9717 31.2264 45.5709 29.6942C49.4477 31.163 53.064 33.2885 56.2616 36.0072ZM58.199 28.356H61.852V24.7195H58.199V28.356ZM48.5986 27.7973L48.8649 24.1723L45.2197 23.9054L44.9534 27.5304L48.5986 27.7973ZM37.0666 25.812L37.5104 22.2024L33.8845 21.7589L33.4387 25.3685L37.0666 25.812ZM71.1841 24.1723L71.4504 27.7973L75.0957 27.5304L74.8294 23.9054L71.1841 24.1723ZM82.5386 22.2043L82.9825 25.8139L86.6084 25.3704L86.1646 21.7608L82.5386 22.2043ZM61.85 41.9534V38.3189H58.7104C59.8258 39.4613 60.8678 40.6747 61.8269 41.9534H61.85ZM71.1841 37.7717L71.4504 41.3966L75.0957 41.1297L74.8294 37.5048L71.1841 37.7717ZM82.5386 35.3256L82.9825 38.9352L86.6104 38.4917L86.1646 34.8821L82.5386 35.3256ZM86.1646 47.6251L82.5386 48.0686L82.9825 51.6782L86.6104 51.2347L86.1646 47.6251ZM75.0957 53.8728L74.8294 50.2478L71.1861 50.5147L71.4524 54.1397L75.0957 53.8728ZM74.8275 63.4728L71.1841 63.7397L71.4504 67.3646L75.0957 67.0977L74.8275 63.4728ZM82.5386 61.2917L82.9825 64.9013L86.6104 64.4577L86.1646 60.8481L82.5386 61.2917ZM34.7606 50.3169H30.4592V52.9742C25.1196 54.7291 23.7553 60.4949 27.69 63.8337C30.2778 66.0321 33.2959 65.3486 34.7413 66.5755C36.1866 67.8005 35.2816 69.4574 33.8053 70.0104C32.0686 70.6613 30.6155 69.5669 29.394 68.4897L26.4068 71.5445C27.6707 72.6984 28.7745 73.5893 30.4592 74.1173V76.8475H34.7606V74.1921C40.1985 72.4027 41.3969 66.612 37.5316 63.3307C34.9477 61.1361 31.9277 61.8177 30.4804 60.5909C29.0524 59.3813 29.8996 57.7205 31.4163 57.1541C33.1531 56.5032 34.6062 57.5976 35.8277 58.6766L38.8149 55.62C37.5529 54.4661 36.4471 53.5752 34.7606 53.0472V50.3169ZM32.6089 31.1496C14.6084 31.1496 0.013916 45.6705 0.013916 63.5803C0.013916 81.492 14.6084 96.0129 32.6089 96.0129C50.6094 96.0129 65.2039 81.492 65.2039 63.5803C65.2039 45.6705 50.6113 31.1496 32.6089 31.1496Z"/>
</mask>
<path fill-rule="evenodd" clip-rule="evenodd" d="M32.6089 36.6024C47.5855 36.6024 59.7235 48.6811 59.7235 63.5803C59.7235 78.4814 47.5855 90.5601 32.6089 90.5601C17.6323 90.5601 5.49434 78.4814 5.49434 63.5803C5.49434 48.6811 17.6342 36.6024 32.6089 36.6024ZM34.529 40.5019V45.9777C36.3835 46.1755 38.153 46.6574 39.7914 47.3774L42.5451 42.635C40.0808 41.4753 37.3773 40.7323 34.529 40.5019ZM30.6888 45.9777V40.5019C27.8406 40.7342 25.1389 41.4773 22.6728 42.635L25.4245 47.3774C27.0629 46.6574 28.8344 46.1755 30.6888 45.9777ZM22.0996 49.2917L19.3478 44.5473C17.0592 46.1313 15.0696 48.107 13.4795 50.3861L18.2479 53.124C19.3285 51.6571 20.6253 50.3669 22.0996 49.2917ZM16.324 56.4321L11.5575 53.6942C10.392 56.148 9.64518 58.8379 9.41361 61.6699H14.9172C15.1159 59.8248 15.6003 58.0622 16.324 56.4321ZM14.9153 65.4907H9.41361C9.64518 68.3246 10.392 71.0145 11.5575 73.4683L16.3259 70.7285C15.6003 69.0984 15.1159 67.3358 14.9153 65.4907ZM18.246 74.0366L13.4776 76.7765C15.0619 79.0497 17.0592 81.0389 19.3459 82.6152L22.0996 77.8728C20.6292 76.7995 19.3228 75.4997 18.246 74.0366ZM25.4226 79.7832L22.6708 84.5275C25.137 85.6872 27.8406 86.4302 30.6888 86.6625V81.1867C28.8324 80.987 27.0629 80.5032 25.4226 79.7832ZM34.529 81.1848V86.6606C37.3773 86.4302 40.0789 85.6872 42.547 84.5275L39.7952 79.7851C38.1549 80.5051 36.3835 80.987 34.529 81.1848ZM43.1182 77.8709L45.8719 82.6133C48.1644 81.0254 50.1463 79.0555 51.7402 76.7745L46.9719 74.0347C45.8931 75.5016 44.5906 76.7995 43.1182 77.8709ZM48.8939 70.7285L53.6622 73.4683C54.8278 71.0145 55.5746 68.3246 55.8061 65.4907H50.3026C50.1019 67.3358 49.6175 69.0965 48.8939 70.7285ZM50.3026 61.6699H55.8061C55.5746 58.836 54.8258 56.1461 53.6603 53.6942L48.8919 56.4321C49.6175 58.0622 50.1019 59.8248 50.3026 61.6699ZM46.9699 53.124L51.7383 50.3861C50.1521 48.1128 48.1548 46.1256 45.87 44.5473L43.1182 49.2917C44.5886 50.363 45.8931 51.6609 46.9699 53.124ZM82.8937 15.0715C70.281 18.4065 50.1385 18.4085 37.5259 15.0715C32.8077 13.8254 29.8861 12.539 29.8861 11.5195C29.8861 10.4981 32.8057 9.21358 37.5259 7.96558C50.1424 4.62862 70.2791 4.62862 82.8956 7.96558C87.6138 9.21358 90.5354 10.5 90.5354 11.5195C90.5335 12.539 87.6119 13.8254 82.8937 15.0715ZM56.2616 36.0072C65.3274 36.2913 75.5376 35.723 84.2831 33.4094C86.6933 32.772 88.7967 32.004 90.5335 31.1246V37.6814C90.5335 38.7029 87.6119 39.9873 82.8937 41.2353C77.7568 42.5928 70.8213 43.4913 63.06 43.668C64.187 45.3729 65.1634 47.1643 65.9835 49.0229C73.0386 48.6984 79.3816 47.7921 84.2831 46.4961C86.6933 45.8587 88.7967 45.0926 90.5335 44.2113V50.6472C90.5335 51.6705 87.6119 52.9531 82.8937 54.2011C78.9513 55.2437 73.9475 56.0155 68.3243 56.3957C68.6832 58.1697 68.909 59.9803 68.9997 61.8101C74.8448 61.3934 80.0917 60.5678 84.2831 59.46C86.6933 58.8225 88.7967 58.0545 90.5335 57.1752V63.7301C90.5335 64.7515 87.6119 66.036 82.8937 67.284C79.0072 68.3112 74.0903 69.0753 68.5636 69.4613C68.2548 71.3505 67.7936 73.2033 67.1935 75.0062C73.7642 74.6395 79.6653 73.764 84.2831 72.5409C91.5292 70.6248 96.0139 67.5336 96.0139 63.7281V11.5195C96.0139 7.71022 91.5292 4.62094 84.2831 2.70286C70.7075 -0.883701 49.7101 -0.883701 36.1326 2.70286C28.8884 4.61902 24.4037 7.71022 24.4037 11.5195V24.5985V28.2561C27.856 27.4651 31.3932 27.1848 34.9246 27.4037C31.754 26.4033 29.8822 25.4165 29.8822 24.5985V18.0475C31.619 18.9269 33.7224 19.6949 36.1307 20.3323C49.7101 23.9227 70.6978 23.9208 84.2793 20.3323C86.6895 19.6949 88.7948 18.9269 90.5296 18.0475V24.5966C90.5296 25.6181 87.608 26.9025 82.8899 28.1505C71.8634 31.0651 56.9717 31.2264 45.5709 29.6942C49.4477 31.163 53.064 33.2885 56.2616 36.0072ZM58.199 28.356H61.852V24.7195H58.199V28.356ZM48.5986 27.7973L48.8649 24.1723L45.2197 23.9054L44.9534 27.5304L48.5986 27.7973ZM37.0666 25.812L37.5104 22.2024L33.8845 21.7589L33.4387 25.3685L37.0666 25.812ZM71.1841 24.1723L71.4504 27.7973L75.0957 27.5304L74.8294 23.9054L71.1841 24.1723ZM82.5386 22.2043L82.9825 25.8139L86.6084 25.3704L86.1646 21.7608L82.5386 22.2043ZM61.85 41.9534V38.3189H58.7104C59.8258 39.4613 60.8678 40.6747 61.8269 41.9534H61.85ZM71.1841 37.7717L71.4504 41.3966L75.0957 41.1297L74.8294 37.5048L71.1841 37.7717ZM82.5386 35.3256L82.9825 38.9352L86.6104 38.4917L86.1646 34.8821L82.5386 35.3256ZM86.1646 47.6251L82.5386 48.0686L82.9825 51.6782L86.6104 51.2347L86.1646 47.6251ZM75.0957 53.8728L74.8294 50.2478L71.1861 50.5147L71.4524 54.1397L75.0957 53.8728ZM74.8275 63.4728L71.1841 63.7397L71.4504 67.3646L75.0957 67.0977L74.8275 63.4728ZM82.5386 61.2917L82.9825 64.9013L86.6104 64.4577L86.1646 60.8481L82.5386 61.2917ZM34.7606 50.3169H30.4592V52.9742C25.1196 54.7291 23.7553 60.4949 27.69 63.8337C30.2778 66.0321 33.2959 65.3486 34.7413 66.5755C36.1866 67.8005 35.2816 69.4574 33.8053 70.0104C32.0686 70.6613 30.6155 69.5669 29.394 68.4897L26.4068 71.5445C27.6707 72.6984 28.7745 73.5893 30.4592 74.1173V76.8475H34.7606V74.1921C40.1985 72.4027 41.3969 66.612 37.5316 63.3307C34.9477 61.1361 31.9277 61.8177 30.4804 60.5909C29.0524 59.3813 29.8996 57.7205 31.4163 57.1541C33.1531 56.5032 34.6062 57.5976 35.8277 58.6766L38.8149 55.62C37.5529 54.4661 36.4471 53.5752 34.7606 53.0472V50.3169ZM32.6089 31.1496C14.6084 31.1496 0.013916 45.6705 0.013916 63.5803C0.013916 81.492 14.6084 96.0129 32.6089 96.0129C50.6094 96.0129 65.2039 81.492 65.2039 63.5803C65.2039 45.6705 50.6113 31.1496 32.6089 31.1496Z" fill="white" stroke="white" stroke-width="2" mask="url(#path-1-inside-1_3005_4972)"/>
</svg>
