<svg width="97" height="97" viewBox="0 0 97 97" fill="none" xmlns="http://www.w3.org/2000/svg">
<path d="M82 57.1249C83.2771 57.1249 84.3125 58.1602 84.3125 59.4374C84.3125 60.7146 83.2772 61.7499 82 61.7499C80.7228 61.7499 79.6875 60.7146 79.6875 59.4374C79.6875 58.1602 80.7228 57.1249 82 57.1249Z" fill="white" stroke="white"/>
<path d="M70.5625 57.1249C71.882 57.1249 73.0625 58.2009 73.0625 59.4374C73.0625 60.674 71.882 61.7499 70.5625 61.7499C69.2854 61.7499 68.25 60.7145 68.25 59.4374C68.25 58.1603 69.2854 57.1249 70.5625 57.1249Z" fill="white" stroke="white"/>
<path d="M59.3125 57.1249C60.5896 57.1249 61.625 58.1602 61.625 59.4374C61.625 60.7146 60.5897 61.7499 59.3125 61.7499C58.0353 61.7499 57 60.7146 57 59.4374C57 58.1602 58.0353 57.1249 59.3125 57.1249Z" fill="white" stroke="white"/>
<path d="M36.8125 57.1249C38.0896 57.1249 39.125 58.1602 39.125 59.4374C39.125 60.7146 38.0897 61.7499 36.8125 61.7499C35.5353 61.7499 34.5 60.7146 34.5 59.4374C34.5 58.1602 35.5353 57.1249 36.8125 57.1249Z" fill="white" stroke="white"/>
<path d="M25.375 57.1249C26.6521 57.1249 27.6875 58.1602 27.6875 59.4374C27.6875 60.7146 26.6522 61.7499 25.375 61.7499C24.0978 61.7499 23.0625 60.7146 23.0625 59.4374C23.0625 58.1602 24.0978 57.1249 25.375 57.1249Z" fill="white" stroke="white"/>
<path d="M14.125 57.1249C15.4021 57.1249 16.4375 58.1602 16.4375 59.4374C16.4375 60.7146 15.4022 61.7499 14.125 61.7499C12.8478 61.7499 11.8125 60.7146 11.8125 59.4374C11.8125 58.1602 12.8478 57.1249 14.125 57.1249Z" fill="white" stroke="white"/>
<path d="M48.0823 34.3635C48.9035 34.3635 49.6585 34.7984 50.0725 35.4983L50.1506 35.6418L53.4817 42.3029L53.5559 42.4524L53.7053 42.5266L60.3665 45.8576C61.1498 46.2493 61.6448 47.05 61.6448 47.926L61.6389 48.0901C61.5854 48.8468 61.163 49.5299 60.51 49.9162L60.3665 49.9944L53.7053 53.3254L53.5559 53.4006L53.4817 53.549L50.1506 60.2102C49.7589 60.9937 48.958 61.4885 48.0823 61.4885C47.2611 61.4885 46.506 61.0538 46.092 60.3537L46.0139 60.2102L42.6829 53.549L42.6086 53.4006L42.4592 53.3254L35.7981 49.9944C35.0147 49.6026 34.5198 48.8019 34.5198 47.926C34.5198 47.1048 34.9547 46.3497 35.6545 45.9358L35.7981 45.8576L42.4592 42.5266L42.6086 42.4524L42.6829 42.3029L46.0139 35.6418C46.4057 34.8583 47.2063 34.3635 48.0823 34.3635ZM46.4006 45.2102C46.2048 45.6016 45.9026 45.928 45.5305 46.1535L45.3665 46.2444L42.0032 47.926L45.3665 49.6076C45.7581 49.8035 46.0843 50.1063 46.3098 50.4787L46.4006 50.6418L47.635 53.1115L48.0823 54.0051L48.5295 53.1115L49.7639 50.6418C49.9598 50.2503 50.2621 49.9238 50.634 49.6985L50.7981 49.6076L54.1614 47.926L50.7981 46.2444C50.4066 46.0485 50.0801 45.7463 49.8547 45.3742L49.7639 45.2102L48.0823 41.8469L46.4006 45.2102Z" fill="white" stroke="white"/>
<path d="M8.5 84.4375C6.67305 84.4375 5.1875 85.923 5.1875 87.75C5.18751 89.577 6.67305 91.0625 8.5 91.0625H87.625C89.4519 91.0624 90.9375 89.5769 90.9375 87.75C90.9375 85.9231 89.4519 84.4376 87.625 84.4375H8.5ZM10.8125 79.8125H85.3125V73H10.8125V79.8125ZM45.5713 16.5234L27.2969 43.8477C26.8662 44.4917 26.1433 44.875 25.375 44.875L25.2266 44.8701C24.4549 44.8205 23.7628 44.3891 23.377 43.7266L23.3037 43.5908L10.582 17.9814L9.87207 16.5518L9.63965 18.1309L5.24414 47.9727L5.22949 48.0713L5.25391 48.167L8.0957 59.5371C8.3368 60.5018 7.93416 61.5038 7.1123 62.0371L6.94238 62.1377C5.86046 62.7159 5.1875 63.837 5.1875 65.0625C5.18753 66.8894 6.67306 68.375 8.5 68.375H87.625C89.4519 68.3749 90.9375 66.8894 90.9375 65.0625C90.9375 63.837 90.2643 62.7152 89.1816 62.1377H89.1807C88.3046 61.6688 87.8328 60.6975 87.9893 59.7305L88.0283 59.5381L90.8711 48.168L90.8955 48.0713L90.8809 47.9736L86.4805 18.0986L86.25 16.5342L85.5391 17.9463L80.3301 28.2959L80.3115 28.334L80.2988 28.374C80.2505 28.5307 80.1863 28.6832 80.1045 28.8291L80.0166 28.9727C80.0152 28.9744 80.0126 28.9784 80.0078 28.9844C80.0041 28.989 79.996 29.0002 79.9893 29.0088C79.9814 29.0188 79.9715 29.0314 79.9609 29.0459L79.9365 29.0791L79.9189 29.1152L72.6279 43.6025C72.2804 44.2928 71.6126 44.7604 70.8525 44.8564L70.6992 44.8711C70.6525 44.8737 70.6066 44.875 70.5615 44.875C69.8376 44.8749 69.1553 44.535 68.7188 43.958L68.6348 43.8398L50.5459 16.5322L50.3506 16.2373L50.0078 16.3232C49.3804 16.4807 48.7294 16.5625 48.0664 16.5625L47.9336 16.5615C47.3056 16.5513 46.6959 16.4659 46.1104 16.3174L45.7676 16.2305L45.5713 16.5234ZM61.3145 24.4141L69.8125 37.2432L70.2891 37.9619L70.6768 37.1914L74.8223 28.9541L75.0381 28.5254L74.6182 28.292C70.987 26.2777 66.6194 24.6979 61.8389 23.6494L60.6328 23.3848L61.3145 24.4141ZM34.1924 23.6699C29.4119 24.7264 25.0468 26.3152 21.4229 28.3389L21.0068 28.5713L21.2188 28.998L25.2871 37.1875L25.6709 37.96L26.1504 37.2432L34.7158 24.4365L35.4082 23.4014L34.1924 23.6699ZM8.49902 5.3125C6.75332 5.31271 5.31062 6.67331 5.19531 8.40234L5.1875 8.57129C5.15787 10.3979 6.61965 11.9069 8.44629 11.9365V11.9355C10.2228 11.9656 11.688 10.5951 11.8047 8.84863L11.8125 8.67871C11.8423 6.84899 10.3856 5.34358 8.55664 5.3125H8.49902ZM48.0615 5.3125C46.3158 5.31267 44.8731 6.67328 44.7578 8.40234L44.75 8.57129C44.7204 10.3979 46.1821 11.9069 48.0088 11.9365V11.9355C49.7872 11.9658 51.2506 10.5934 51.3672 8.84863L51.374 8.67871C51.4038 6.84901 49.9481 5.34363 48.1191 5.3125H48.0615ZM87.624 5.3125C85.8782 5.31262 84.4346 6.67322 84.3193 8.40234L84.3125 8.57129C84.2829 10.3979 85.7446 11.9069 87.5713 11.9365V11.9355C89.3449 11.9655 90.813 10.5974 90.9297 8.84863L90.9365 8.67871C90.9663 6.84904 89.5106 5.34368 87.6816 5.3125H87.624ZM6.1875 72.6631L5.85449 72.5449C2.77362 71.4522 0.562523 68.51 0.5625 65.0625C0.5625 62.8598 1.46844 60.7996 3.01465 59.3232L3.22559 59.1221L3.1543 58.8398L0.631836 48.748C0.57678 48.5278 0.55447 48.3011 0.56543 48.0752L0.586914 47.8506L5.24121 16.2529L5.29395 15.8945L4.96973 15.7324C2.39989 14.4508 0.626233 11.8197 0.564453 8.79004L0.563477 8.49609C0.634539 4.12127 4.25654 0.623206 8.62891 0.688477C12.8788 0.757513 16.2884 4.14485 16.4326 8.34473L16.4365 8.75391C16.4035 10.7852 15.6135 12.6835 14.208 14.1367L13.9629 14.3906L14.1201 14.707L18.7148 23.958L18.9473 24.4248L19.4033 24.1738C24.7356 21.2488 31.4349 19.1577 38.6943 18.1826L38.918 18.1523L39.0439 17.9648L41.7266 13.9541L41.9238 13.6592L41.7109 13.376C40.7546 12.1004 40.1725 10.5329 40.1279 8.83691L40.126 8.49609C40.197 4.12143 43.8176 0.623262 48.1914 0.688477C52.4412 0.757512 55.8508 4.14494 55.9951 8.34473L55.999 8.75391C55.9713 10.4532 55.4145 12.0591 54.4121 13.3887L54.1992 13.6709L54.3945 13.9658L57.0381 17.958L57.1641 18.1475L57.3887 18.1777C64.6384 19.1469 71.3318 21.2284 76.665 24.1426L77.1182 24.3906L77.3506 23.9287L81.9961 14.6982L82.1553 14.3818L81.9102 14.127C80.5925 12.7581 79.7619 10.9223 79.6924 8.90234L79.6885 8.49609C79.7573 4.25775 83.156 0.841925 87.3467 0.692383L87.7539 0.688477C92.0037 0.75759 95.4134 4.1449 95.5576 8.34473L95.5615 8.75391C95.5112 11.853 93.7085 14.4641 91.1562 15.7354L90.8311 15.8975L90.8838 16.2559L95.5381 47.8506C95.5711 48.075 95.5703 48.3027 95.5371 48.5264L95.4932 48.748L92.9707 58.8398L92.8994 59.1221L93.1104 59.3232C94.6564 60.7996 95.5625 62.8598 95.5625 65.0625C95.5625 68.51 93.3513 71.4521 90.2705 72.5449L89.9375 72.6631V80.1494L90.2705 80.2676C93.3513 81.3604 95.5625 84.3025 95.5625 87.75C95.5625 92.1262 92.0012 95.6874 87.625 95.6875H8.5C4.12372 95.6875 0.562508 92.1263 0.5625 87.75C0.5625 84.4101 2.6377 81.5441 5.56836 80.375L5.85449 80.2676L6.1875 80.1494V72.6631Z" fill="white" stroke="white"/>
</svg>
