<svg width="98" height="98" viewBox="0 0 98 98" fill="none" xmlns="http://www.w3.org/2000/svg">
<path d="M41.3826 87.7706V91.1173H25.6492V87.7706H41.3826Z" fill="white" stroke="white" stroke-width="0.25"/>
<path d="M58.29 1.06096C62.628 1.06096 66.1572 4.59021 66.1572 8.92815V16.5453C83.2445 16.6129 97.1248 30.5344 97.125 47.6371C97.125 64.7401 83.2446 78.6604 66.1572 78.728V89.4438C66.1572 93.7817 62.628 97.311 58.29 97.311H8.74219C4.40425 97.311 0.875 93.7817 0.875 89.4438V8.92815C0.875 4.59021 4.40425 1.06096 8.74219 1.06096H58.29ZM4.22168 89.4438C4.22168 91.9358 6.25019 93.9643 8.74219 93.9643H58.29C60.782 93.9643 62.8105 91.9358 62.8105 89.4438V84.9242H4.22168V89.4438ZM4.22168 81.5776H62.8105V78.561C50.3695 77.2734 40.0865 68.6229 36.4014 57.0531H7.06836V53.7065H35.5381C35.3521 52.7712 35.2094 51.8221 35.1094 50.8598H7.06836V16.5444H61.5117V16.9096C61.9381 16.8415 62.3713 16.7639 62.8105 16.7143V13.6977H4.22168V81.5776ZM53.6494 72.4311C56.9077 74.0662 60.5273 75.0652 64.3584 75.2953V70.8998C61.3245 70.6832 58.456 69.8876 55.8506 68.6186L53.6494 72.4311ZM76.2246 68.6381C73.5698 69.9275 70.681 70.6949 67.7061 70.9067V75.2953C71.5368 75.0652 75.1559 74.0646 78.4141 72.4311L76.2246 68.6381ZM42.9072 62.9223C44.9695 66.0321 47.6369 68.7017 50.748 70.7641L52.9434 66.9604C50.4935 65.2951 48.3751 63.1785 46.71 60.727L42.9072 62.9223ZM66.0322 27.6332C55.0026 27.6332 46.0286 36.6075 46.0283 47.6371C46.0283 58.6669 55.0024 67.642 66.0322 67.642C70.8869 67.642 75.5677 65.8813 79.2129 62.684L79.3076 62.601L79.3896 62.6957L81.4307 65.0238L81.5127 65.1176L81.4189 65.2006C80.6876 65.842 79.91 66.4133 79.1143 66.9506L81.3154 70.7641C84.4269 68.7016 87.0942 66.0319 89.1582 62.9203L85.3467 60.7192C84.822 61.4963 84.2664 62.2554 83.6436 62.9711L83.5615 63.0658L83.4668 62.9838L81.1318 60.9487L81.0381 60.8666L81.1201 60.7729C84.2899 57.1353 86.0361 52.4705 86.0361 47.6371C86.0359 36.6075 77.0619 27.6332 66.0322 27.6332ZM38.374 49.311C38.6041 53.1417 39.6049 56.7608 41.2383 60.019L45.0518 57.8178C43.7815 55.2124 42.9861 52.3446 42.7695 49.311H38.374ZM89.3037 49.311C89.0905 52.2845 88.3206 55.1732 87.0312 57.8295L90.8252 60.019C92.4601 56.7608 93.4604 53.1419 93.6904 49.311H89.3037ZM10.415 47.5121H34.9404C34.9885 35.438 41.9699 24.9983 52.0859 19.892H10.415V47.5121ZM87.0127 37.4565C88.2832 40.0621 89.0784 42.9303 89.2949 45.9643H93.6904C93.4604 42.1331 92.4589 38.5138 90.8252 35.2553L87.0127 37.4565ZM41.2383 35.2553C39.6032 38.5136 38.604 42.1332 38.374 45.9643H42.7695C42.9861 42.9305 43.7804 40.062 45.0508 37.4565L41.2383 35.2553ZM50.7461 24.5131C47.637 26.5752 44.9683 29.2439 42.9062 32.353L46.707 34.5483C48.3723 32.0967 50.4913 29.9777 52.9414 28.3139L50.7461 24.5131ZM79.1221 28.3129C81.5721 29.978 83.6911 32.0949 85.3564 34.5463L89.1582 32.352C87.0943 29.2422 84.4271 26.5725 81.3174 24.5102L79.1221 28.3129ZM67.7061 24.3744C70.7395 24.5911 73.6077 25.387 76.2129 26.6557L78.4141 22.8432C75.156 21.2084 71.5368 20.209 67.7061 19.9789V24.3744ZM64.3584 19.978C60.5274 20.2081 56.9077 21.2085 53.6494 22.8422L55.8506 26.6547C58.4561 25.3857 61.3246 24.5916 64.3584 24.3735V19.978ZM8.74219 4.40764C6.25019 4.40764 4.22168 6.43615 4.22168 8.92815V10.351H62.8105V8.92815C62.8105 6.43615 60.782 4.40764 58.29 4.40764H8.74219Z" fill="white" stroke="white" stroke-width="0.25"/>
<path d="M66.1206 31.4238L76.4517 41.7539L76.6968 42.0117C77.89 43.3274 78.5444 45.0171 78.5444 46.8076C78.5444 50.7043 75.4112 53.8804 71.5298 53.9521L72.8784 58.4404L72.9263 58.6015H59.1362L59.1851 58.4404L60.5317 53.9521C56.6523 53.8798 53.52 50.7039 53.52 46.8076C53.52 44.8978 54.2641 43.1042 55.6128 41.7539L65.9438 31.4238L66.0317 31.3359L66.1206 31.4238ZM57.979 44.1201C57.2624 44.8383 56.8667 45.7911 56.8667 46.8076C56.8667 49.429 59.6475 51.4365 62.2397 50.2519L65.3481 48.834L65.5991 48.7197L65.52 48.9834L63.6353 55.2549H68.4272L66.5425 48.9834L66.4634 48.7197L66.7144 48.834L69.8237 50.2519L70.0669 50.3545C72.5881 51.3125 75.1978 49.3471 75.1978 46.8076C75.1977 45.8558 74.8496 44.9573 74.2153 44.2568L74.0854 44.1201L66.0317 36.0674L57.979 44.1201Z" fill="white" stroke="white" stroke-width="0.25"/>
<path d="M10.4153 59.8997V63.2464H7.0686V59.8997H10.4153Z" fill="white" stroke="white" stroke-width="0.25"/>
<path d="M30.5444 59.8997V63.2464H13.2622V59.8997H30.5444Z" fill="white" stroke="white" stroke-width="0.25"/>
</svg>
