<svg width="96" height="106" viewBox="0 0 96 106" fill="none" xmlns="http://www.w3.org/2000/svg">
<mask id="path-1-inside-1_3005_4935" fill="white">
<path d="M94.0016 16.2204C79.1261 16.2204 67.5057 18.0575 59.3246 21.683C60.4796 19.5902 61.9545 17.6435 63.7089 15.8962C66.6861 13.1473 66.6083 8.82946 63.5335 6.16359C60.4587 3.49771 55.5079 3.45579 52.3744 6.06909C50.9832 7.35085 49.7134 8.72885 48.5775 10.1896C42.2668 0.677966 34.4033 0.533296 34.0516 0.533296C33.2866 0.532612 32.5882 0.912977 32.2531 1.51287C29.4249 6.92559 27.8675 12.7774 27.6729 18.7233C19.2748 16.9246 10.6446 16.0832 1.99835 16.2204C1.24143 16.2204 0.549483 16.5934 0.210981 17.1839C-0.127521 17.7744 -0.0544696 18.481 0.399678 19.0092C3.55253 22.5337 7.03995 25.8204 10.825 28.8345C10.2941 29.1881 9.78829 29.5693 9.31025 29.9762C4.47628 34.2135 3.42915 40.2356 6.52058 44.4571C5.56522 45.3702 4.7473 46.3859 4.08661 47.4795C0.489604 53.4406 1.91641 60.7264 7.27395 63.7191C7.95912 64.0969 8.69815 64.3946 9.47211 64.6046C9.04145 65.4255 8.70671 66.2821 8.47295 67.1616C7.05013 72.5649 9.67195 77.8358 14.418 79.7792C14.1897 80.6572 14.0725 81.5544 14.0683 82.4547C14.0683 88.2224 18.5505 92.9128 24.06 92.9128C24.2498 92.9128 24.4356 92.8832 24.6235 92.871C25.6011 96.7918 29.4585 99.6614 34.0516 99.8848C35.333 99.8742 36.595 99.6102 37.7425 99.1127C39.5972 102.651 43.5824 104.974 48.04 105.114C52.4976 104.974 56.4827 102.651 58.3374 99.1127C59.485 99.61 60.7469 99.874 62.0283 99.8848C66.6224 99.6628 70.4813 96.7927 71.4584 92.871C71.6463 92.8832 71.8301 92.9128 72.02 92.9128C77.5294 92.9128 82.0116 88.2224 82.0116 82.4547C82.0106 81.5553 81.8967 80.6587 81.6719 79.781C86.422 77.8375 89.0398 72.5684 87.615 67.1563C87.3815 66.2791 87.0468 65.4247 86.6158 64.6063C87.3896 64.3959 88.1286 64.0982 88.814 63.7209C94.1735 60.7281 95.6083 53.4371 92.0113 47.49C91.3557 46.3888 90.5344 45.3688 89.5693 44.4571C92.6548 40.2565 91.6076 34.2204 86.7717 29.9762C86.2936 29.568 85.7863 29.1867 85.2529 28.8345C89.013 25.8193 92.4744 22.5325 95.6003 19.0092C96.0545 18.481 96.1275 17.7744 95.789 17.1839C95.4505 16.5934 94.7586 16.2204 94.0016 16.2204ZM55.208 8.52848C56.7811 7.25912 59.222 7.29788 60.7411 8.61633C62.2602 9.93479 62.3168 12.0636 60.8693 13.442C57.4907 16.7634 54.9874 20.6901 53.5354 24.9459C53.4794 24.986 53.4355 25.0296 53.3795 25.0696C52.8 25.4967 52.2545 25.9272 51.7609 26.3612C51.6989 26.4152 51.645 26.471 51.585 26.5251C51.1094 26.9527 50.6724 27.3803 50.2741 27.8079L50.1642 27.9212C49.7645 28.3622 49.4048 28.7927 49.0751 29.2372C49.0152 29.3139 48.9572 29.3906 48.8993 29.4673C48.5888 29.8902 48.3104 30.3085 48.0639 30.7222C48.046 30.7518 48.02 30.7832 48.002 30.8129C47.966 30.7501 47.9181 30.6856 47.8801 30.6211C47.8062 30.5009 47.7262 30.3823 47.6483 30.2621C47.4365 29.9361 47.2047 29.6084 46.9569 29.279C46.8769 29.1744 46.803 29.0698 46.7191 28.9635C46.39 28.5475 46.0276 28.1304 45.632 27.712C45.544 27.6197 45.4481 27.5273 45.3562 27.4349C45.1744 27.2484 44.9985 27.0619 44.8007 26.8771C44.9126 26.3542 45.0465 25.8453 45.1843 25.3311C45.3222 24.8169 45.4441 24.294 45.606 23.7816C45.8238 23.1018 46.0916 22.436 46.3514 21.7666C46.5352 21.2995 46.6931 20.8254 46.8969 20.3722C47.2266 19.6262 47.6143 18.8942 48 18.1604C48.1998 17.7891 48.3597 17.4109 48.5695 17.0431C49.193 15.9485 49.8724 14.8695 50.6218 13.8098C51.937 11.9158 53.474 10.1459 55.208 8.52848ZM63.0495 38.89C63.3912 38.822 63.7289 38.7488 64.0686 38.6773C65.2876 38.4193 66.4866 38.1405 67.6656 37.8407C67.8654 37.7884 68.0833 37.75 68.2851 37.6977C68.391 37.75 68.4969 37.7988 68.6028 37.8546C68.7567 37.94 68.9106 38.0289 69.0604 38.1213C69.2783 38.2555 69.4901 38.3984 69.6979 38.5501C69.8318 38.6477 69.9697 38.7435 70.0976 38.8464C70.3194 39.0207 70.5312 39.2142 70.741 39.4076C70.847 39.507 70.9569 39.5976 71.0588 39.7005C71.3673 40.0099 71.6568 40.3334 71.926 40.6696C73.2514 42.3112 73.9803 44.2624 74.0183 46.2699C74.0838 48.0605 73.3362 49.8013 71.938 51.1137C71.6621 51.3744 71.3546 51.6082 71.0208 51.8109C70.5984 52.0641 70.142 52.2713 69.6619 52.4279C69.4901 52.4854 69.3042 52.5064 69.1264 52.5517C68.817 52.6366 68.5011 52.7024 68.1812 52.7486C67.9653 52.7748 67.7415 52.7661 67.5217 52.7748C67.2222 52.7896 66.922 52.7896 66.6225 52.7748C66.3887 52.7591 66.1529 52.7155 65.9191 52.6824C65.6198 52.6461 65.323 52.596 65.0298 52.5325C64.792 52.4767 64.5562 52.3965 64.3204 52.3233C64.0266 52.2327 63.7349 52.149 63.4471 52.027C63.2153 51.9312 62.9875 51.8179 62.7577 51.7063C62.4759 51.5686 62.1942 51.4274 61.9224 51.2653C61.7006 51.1346 61.4868 50.9882 61.2729 50.84C61.0092 50.6657 60.7494 50.4688 60.4976 50.2614C60.2977 50.0958 60.0979 49.9128 59.8981 49.7384C59.7662 49.613 59.6423 49.4753 59.5144 49.3428C59.5923 49.0761 59.6323 48.8059 59.6923 48.5358C59.7402 48.3214 59.7962 48.1087 59.8321 47.8926C60.0736 46.5874 60.0823 45.2575 59.8581 43.9499C59.8281 43.7599 59.7842 43.5752 59.7462 43.3852C59.6563 42.9407 59.5464 42.5032 59.4065 42.071C59.3425 41.8775 59.2826 41.6857 59.2067 41.4958C59.0251 41.013 58.8116 40.5399 58.5672 40.0787C58.5152 39.9776 58.4733 39.8695 58.4173 39.7702C58.4053 39.7475 58.3973 39.7231 58.3853 39.7022C58.4433 39.6935 58.4992 39.6795 58.5592 39.6708C60.0879 39.4495 61.5787 39.1828 63.0495 38.89ZM63.7549 82.3658C63.6829 82.3658 63.613 82.3658 63.543 82.3658C63.1288 82.3456 62.7182 82.2872 62.3181 82.1915C62.2321 82.1724 62.1482 82.148 62.0643 82.1253C61.6494 82.0141 61.2479 81.8682 60.8653 81.6896C60.8073 81.6634 60.7514 81.6285 60.6934 81.5989C60.3078 81.4072 59.9414 81.1874 59.5983 80.9418C59.5644 80.9174 59.5264 80.8965 59.4904 80.8703V80.8512C59.6447 80.324 59.7655 79.7899 59.8521 79.2511C59.8741 79.1204 59.8921 78.9896 59.9101 78.8572C60.0868 77.6759 60.0713 76.4789 59.8641 75.3014C59.8461 75.1864 59.8321 75.0731 59.8102 74.9528C59.6988 74.353 59.5419 73.7602 59.3405 73.1784C59.3006 73.0669 59.2566 72.9588 59.2146 72.8473C58.9978 72.2599 58.7347 71.6862 58.4273 71.1304L58.3933 71.0799C58.0843 70.5462 57.731 70.033 57.3362 69.5443C57.2943 69.4902 57.2643 69.4292 57.2223 69.37C57.2923 69.2863 57.3462 69.1957 57.4221 69.105C57.5321 68.9621 57.632 68.8139 57.7379 68.6658C58.0189 68.2719 58.2745 67.8645 58.5032 67.4457C58.5952 67.2714 58.6931 67.1145 58.777 66.942C58.813 66.867 58.8609 66.7973 58.8969 66.7223C59.2482 67.0383 59.6177 67.3385 60.004 67.6217C60.0819 67.6793 60.1659 67.7281 60.2458 67.7856C60.5875 68.0261 60.9352 68.2527 61.2929 68.4601C61.4308 68.5403 61.5727 68.6135 61.7126 68.6902C62.0256 68.8575 62.344 69.0126 62.6678 69.1556C62.8196 69.2218 62.9675 69.288 63.1214 69.3473C63.4651 69.4833 63.8128 69.6 64.1645 69.6959C64.2924 69.736 64.4203 69.7831 64.5502 69.8179C65.0022 69.9383 65.4628 70.0326 65.929 70.1003C66.1189 70.1282 66.3087 70.1369 66.5006 70.1543C66.7843 70.1822 67.0681 70.2066 67.3539 70.2136C67.4458 70.2136 67.5357 70.2328 67.6276 70.2328C67.8594 70.2328 68.0932 70.2153 68.3251 70.1996H68.423L68.447 70.2293C68.7325 70.6363 68.9836 71.061 69.1983 71.4999C69.2503 71.608 69.3022 71.7161 69.3502 71.8259C69.5597 72.2791 69.7307 72.7452 69.8618 73.2203C70.1565 74.335 70.2201 75.4866 70.0496 76.6209V76.6383C69.8376 78.6844 68.5774 80.5375 66.6205 81.6808C66.1273 81.9312 65.5957 82.119 65.0418 82.2386C64.6203 82.3263 64.1882 82.369 63.7549 82.3658ZM36.5076 80.9331C36.1526 81.1878 35.7736 81.4158 35.3745 81.6146C35.3306 81.6373 35.2866 81.6634 35.2406 81.6861C34.8446 81.8705 34.429 82.0211 33.9997 82.1358C33.9297 82.1549 33.8598 82.1741 33.7998 82.1898C33.3887 82.2876 32.9665 82.3461 32.5409 82.3641C32.4809 82.3641 32.421 82.3641 32.363 82.3641C31.9273 82.3754 31.4916 82.3391 31.0661 82.256C30.5094 82.1363 29.9751 81.9479 29.4794 81.6965C27.5194 80.5499 26.2584 78.6922 26.0483 76.6418C25.9616 76.0822 25.9342 75.5168 25.9664 74.9528C25.9986 74.3771 26.0888 73.8049 26.2361 73.2429C26.3679 72.7678 26.5395 72.3017 26.7497 71.8485C26.7977 71.7422 26.8456 71.6376 26.8956 71.5348C27.112 71.0894 27.3665 70.6588 27.657 70.2467L27.6729 70.2275H27.9687C28.1266 70.2275 28.2864 70.2502 28.4443 70.2502C28.5482 70.2502 28.6441 70.238 28.754 70.2345C28.864 70.231 28.9958 70.224 29.1177 70.2171C29.4255 70.1979 29.7332 70.1683 30.043 70.1264C30.1249 70.116 30.2048 70.1038 30.2868 70.0898C30.6291 70.0364 30.9702 69.9672 31.3099 69.8824L31.4898 69.8388C31.8415 69.7459 32.1898 69.6378 32.5349 69.5146L32.7048 69.4554C33.0425 69.3299 33.3782 69.187 33.7039 69.0318C33.7679 69.0022 33.8338 68.9761 33.9038 68.9447C34.2175 68.7913 34.5272 68.6205 34.833 68.4409C34.9089 68.3974 34.9868 68.3573 35.0608 68.312C35.3545 68.1377 35.6423 67.9355 35.9261 67.7315C36.004 67.6758 36.0839 67.627 36.1619 67.5677C36.5149 67.3051 36.858 67.0239 37.191 66.7241C37.231 66.8095 37.2849 66.8879 37.3269 66.9733C37.4028 67.1285 37.4908 67.2766 37.5727 67.4283C37.8067 67.8605 38.0689 68.2807 38.358 68.6867C38.464 68.8366 38.5579 68.9865 38.6758 69.1294C38.7437 69.2148 38.7977 69.3037 38.8656 69.3926C38.8237 69.4449 38.7937 69.5077 38.7497 69.5669C38.3563 70.0561 38.0037 70.5693 37.6946 71.1025L37.6606 71.1531C37.3532 71.7089 37.0901 72.2825 36.8733 72.8699C36.8313 72.9815 36.7873 73.0896 36.7474 73.2011C36.546 73.7828 36.3891 74.3756 36.2778 74.9755C36.2558 75.0888 36.2418 75.2038 36.2238 75.3241C36.1167 75.9538 36.0586 76.5891 36.05 77.2257C36.0466 77.7033 36.0766 78.1806 36.1399 78.655V78.6759C36.1399 78.702 36.1519 78.7264 36.1559 78.7508C36.2406 79.3923 36.3741 80.0282 36.5555 80.6542C36.5755 80.7257 36.5795 80.7971 36.6015 80.8686C36.5695 80.886 36.5376 80.9104 36.5076 80.9331ZM48.2798 40.6225H48.4396H48.6275H48.9252H49.167C49.2969 40.6225 49.4428 40.6121 49.5927 40.6051L49.9084 40.5911L50.434 40.5632L50.8336 40.5406L51.4631 40.4988L51.9267 40.4639L52.6501 40.4064L53.1897 40.3576L53.989 40.2809L54.1389 40.2669C54.3007 40.4744 54.4366 40.6992 54.5785 40.9206C54.6944 41.0949 54.8263 41.2692 54.9302 41.4626C55.0761 41.7328 55.184 42.0204 55.3019 42.3028C55.3798 42.4875 55.4738 42.6618 55.5397 42.8501C55.6496 43.1743 55.7196 43.5124 55.7935 43.8488C55.8295 44.0109 55.8874 44.1678 55.9134 44.3334C55.9953 44.8362 56.0354 45.3436 56.0333 45.8515C56.0333 46.9935 55.8235 48.128 55.4118 49.2121C54.9506 50.4354 54.1896 51.5566 53.1817 52.4976C51.8715 53.78 50.0089 54.5295 48.04 54.5666C47.7499 54.5668 47.4601 54.5499 47.1727 54.516C46.7742 54.4663 46.3821 54.3834 46.0017 54.2685C45.6712 54.1746 45.3498 54.058 45.0405 53.9199C45.0125 53.9077 44.9825 53.899 44.9545 53.8851C44.188 53.5192 43.4938 53.0484 42.8983 52.4907C42.4012 52.0309 41.9649 51.524 41.5973 50.9795C41.2191 50.4191 40.9096 49.8255 40.6741 49.2086C40.0749 47.6317 39.9059 45.9546 40.1805 44.3107C40.2145 44.1138 40.2804 43.9238 40.3244 43.7303C40.3943 43.4305 40.4543 43.1272 40.5542 42.8379C40.6381 42.5904 40.754 42.3568 40.8639 42.1163C40.9739 41.8757 41.0438 41.6683 41.1577 41.4557C41.2716 41.243 41.4435 41.0077 41.5893 40.7864C41.7092 40.6033 41.8212 40.4134 41.955 40.2408L42.2168 40.2652L42.6884 40.3105C42.9702 40.3367 43.248 40.3628 43.5117 40.3837C43.7236 40.4029 43.9114 40.4168 44.1112 40.4325L44.6228 40.4709L45.3122 40.5162L45.558 40.5301C47.0248 40.6138 47.8981 40.619 47.956 40.619H48.2758L48.2798 40.6225ZM55.9634 62.6193C55.7621 64.6969 54.7785 66.658 53.1657 68.1969C51.8606 69.4758 50.0026 70.2214 48.04 70.2537C47.7499 70.2539 47.4601 70.237 47.1727 70.2031C45.5251 69.9768 44.0163 69.2643 42.8983 68.1847C41.2876 66.6341 40.309 64.663 40.1146 62.5775C40.0669 62.2328 40.0442 61.8858 40.0466 61.5386C40.0522 60.9702 40.1097 60.4031 40.2185 59.8427C40.2505 59.6684 40.2944 59.5098 40.3364 59.3442C40.4301 58.9537 40.5503 58.5684 40.6961 58.1903C40.76 58.0265 40.822 57.8609 40.8959 57.7023C41.0945 57.2643 41.331 56.8401 41.6033 56.4333C41.6413 56.3741 41.6713 56.3096 41.7112 56.2591L41.7352 56.2329C42.1804 56.5099 42.6479 56.7587 43.1341 56.9772L43.238 57.0225C46.2401 58.4007 49.8279 58.4007 52.83 57.0225L52.9339 56.9772C53.4199 56.7591 53.8874 56.511 54.3327 56.2346H54.3467L54.3707 56.2608C54.4107 56.3183 54.4406 56.3828 54.4786 56.4351C54.751 56.8418 54.9875 57.266 55.186 57.704C55.2579 57.8626 55.3199 58.0282 55.3858 58.1921C55.5317 58.5702 55.6518 58.9555 55.7455 59.3459C55.7875 59.5115 55.8315 59.6753 55.8634 59.8444C55.9715 60.4043 56.0283 60.9709 56.0333 61.5386C56.0365 61.8998 56.0131 62.2607 55.9634 62.6193ZM42.8843 83.8596C41.9393 82.9794 41.2127 81.9387 40.75 80.8024C40.425 79.9797 40.2104 79.1269 40.1106 78.2611C40.0644 77.9175 40.043 77.5717 40.0466 77.2257C40.0522 76.6573 40.1097 76.0902 40.2185 75.5298C40.2505 75.3555 40.2944 75.1968 40.3364 75.0313C40.4301 74.6408 40.5503 74.2555 40.6961 73.8774C40.76 73.7135 40.822 73.548 40.8959 73.3893C41.0945 72.9513 41.331 72.5271 41.6033 72.1204C41.6413 72.0612 41.6713 71.9967 41.7112 71.9461L41.7352 71.92C42.1805 72.1975 42.648 72.4468 43.1341 72.666L43.236 72.7113C46.2399 74.0832 49.8241 74.0832 52.828 72.7113L52.9359 72.6625C53.422 72.4453 53.8895 72.1977 54.3347 71.9217L54.3547 71.9461C54.3927 71.9984 54.4166 72.0559 54.4526 72.1082C54.7283 72.5208 54.9681 72.9507 55.17 73.3946C55.242 73.5532 55.3019 73.7153 55.3699 73.8774C55.5173 74.2577 55.6387 74.6454 55.7336 75.0382C55.7735 75.2021 55.8175 75.3659 55.8495 75.5332C56.1981 77.3007 56.015 79.1169 55.3179 80.8041C54.8432 81.9423 54.1129 82.9864 53.1697 83.8753C51.8598 85.1517 50.0034 85.8992 48.04 85.9408C47.7499 85.941 47.4601 85.9241 47.1727 85.8902C45.519 85.6611 44.0054 84.9444 42.8843 83.8596ZM25.6386 39.141C25.7226 39.0677 25.8045 38.9893 25.8924 38.9178C26.4164 38.4938 26.9851 38.1139 27.591 37.7831C27.651 37.75 27.7149 37.7187 27.7769 37.6873C27.9028 37.7204 28.0226 37.7465 28.1485 37.7779C28.8147 37.9511 29.4701 38.1126 30.1149 38.2625L30.6904 38.3984C31.4898 38.5815 32.2771 38.747 33.0345 38.9022C33.1324 38.9231 33.2223 38.9388 33.3182 38.9562C33.9697 39.0852 34.5972 39.202 35.2067 39.3048L35.8961 39.4233C36.3817 39.5052 36.8473 39.5802 37.2949 39.6482L37.6666 39.7092C37.6546 39.7336 37.6446 39.7597 37.6306 39.7841C37.5807 39.873 37.5447 39.9671 37.4988 40.056C37.2495 40.5274 37.032 41.011 36.8473 41.5045C36.7774 41.691 36.7194 41.8775 36.6595 42.0657C36.5195 42.5026 36.4048 42.9453 36.3157 43.3922C36.2778 43.5787 36.2338 43.7617 36.2058 43.9499C35.9816 45.2586 35.9904 46.5897 36.2318 47.8961C36.2678 48.1087 36.3237 48.3179 36.3697 48.5288C36.4296 48.8007 36.4716 49.0761 36.5495 49.3445C36.4236 49.477 36.2998 49.613 36.1679 49.7367C35.968 49.9215 35.7682 50.1027 35.5684 50.2718C35.3226 50.474 35.0688 50.6588 34.809 50.8365C34.5912 50.9882 34.3714 51.1398 34.1436 51.274C33.8758 51.4327 33.602 51.5721 33.3242 51.7063C33.0924 51.8196 32.8586 51.9364 32.6228 52.034C32.3371 52.149 32.0473 52.2397 31.7555 52.3286C31.5197 52.4018 31.2839 52.4837 31.0441 52.5395C30.7475 52.6029 30.4474 52.6529 30.1449 52.6894C29.9151 52.7225 29.6833 52.7661 29.4555 52.7817C29.1464 52.7949 28.8368 52.7914 28.5282 52.7713C28.3164 52.7713 28.1046 52.7713 27.8968 52.7486C27.5663 52.7013 27.2403 52.6326 26.9216 52.543C26.7537 52.5011 26.5779 52.4819 26.416 52.4279C25.9346 52.2718 25.4775 52.064 25.0551 51.8091C24.6997 51.5924 24.3732 51.3416 24.0819 51.0614C22.717 49.7556 21.9919 48.0359 22.0616 46.2699C22.0978 44.2637 22.8239 42.3133 24.1459 40.6713C24.5877 40.1217 25.0874 39.6094 25.6386 39.141ZM22.0416 60.017C22.0273 59.5551 22.046 59.0929 22.0976 58.633C22.1136 58.4831 22.1475 58.335 22.1715 58.1868C22.2195 57.8766 22.2714 57.5663 22.3494 57.2595C22.3953 57.0852 22.4553 56.9109 22.5112 56.7366C22.5952 56.463 22.6871 56.1893 22.795 55.9209C22.8709 55.7361 22.9569 55.5531 23.0428 55.3701C23.1087 55.2289 23.1847 55.0912 23.2586 54.9518C23.3765 55.0145 23.5044 55.0511 23.6243 55.1104C23.9702 55.2826 24.3272 55.4374 24.6934 55.574C24.8933 55.6507 25.1091 55.7239 25.3189 55.7884C25.7041 55.9034 26.0964 55.9994 26.4939 56.076C26.6938 56.1144 26.8756 56.1597 27.0694 56.1876C27.5877 56.2605 28.1113 56.3012 28.6361 56.3096C28.7121 56.3096 28.788 56.3235 28.864 56.3235H28.9199C29.5102 56.3197 30.0993 56.2778 30.6824 56.198C30.8423 56.1771 30.9982 56.1423 31.158 56.1144C31.6105 56.0413 32.0581 55.9471 32.4989 55.832C32.6988 55.7797 32.8846 55.7222 33.0784 55.6577C33.506 55.5254 33.9255 55.3741 34.3354 55.2045C34.5112 55.1331 34.6871 55.0668 34.861 54.9884C35.4134 54.7397 35.9474 54.4608 36.4596 54.1535C36.4856 54.1361 36.5156 54.1239 36.5416 54.1082C37.0922 53.7663 37.6169 53.3937 38.1122 52.9926C38.1582 52.9578 38.2062 52.9316 38.2521 52.895C38.442 53.167 38.6518 53.4301 38.8516 53.6881C38.8077 53.7421 38.7777 53.8066 38.7337 53.8624C38.3405 54.3502 37.9886 54.8622 37.6806 55.3945L37.6486 55.4433C37.3412 55.9991 37.0781 56.5728 36.8613 57.1602C36.8193 57.27 36.7754 57.3781 36.7354 57.4914C36.5338 58.0725 36.3769 58.6647 36.2658 59.264C36.2438 59.3773 36.2298 59.4923 36.2118 59.6126C36.1074 60.2506 36.0533 60.8941 36.05 61.5386C36.05 61.7826 36.05 62.0249 36.0699 62.2689C36.028 62.3299 35.982 62.391 35.9381 62.452C35.5432 63.0183 35.0918 63.5532 34.5892 64.0503C34.5332 64.0921 34.4813 64.1357 34.4293 64.1828C33.9144 64.665 33.3431 65.0991 32.7247 65.4778C31.1239 66.5355 29.0843 66.9523 27.1114 66.6247C26.4984 66.5165 25.9145 66.3077 25.3908 66.0094C24.8839 65.7271 24.4285 65.3799 24.04 64.9793C22.7524 63.5685 22.0497 61.8202 22.0416 60.017ZM70.733 65.999C70.1762 66.3069 69.5591 66.5226 68.9126 66.6352C68.5186 66.7099 68.1167 66.7485 67.7136 66.7502C67.5137 66.7502 67.2919 66.7171 67.0801 66.6997C66.8683 66.6822 66.6804 66.6805 66.4806 66.6474C66.2808 66.6143 66.0609 66.548 65.8511 66.494C65.6413 66.44 65.4514 66.4051 65.2516 66.3389C65.0518 66.2726 64.8519 66.182 64.6681 66.1018C64.4843 66.0216 64.2445 65.9362 64.0386 65.8334C63.8328 65.7306 63.6789 65.6277 63.5011 65.5249C63.2893 65.4011 63.0774 65.2844 62.8736 65.1449C62.7017 65.0281 62.5399 64.8922 62.374 64.7649C62.1742 64.6098 61.9743 64.4599 61.7745 64.2891C61.6147 64.1444 61.4648 63.9858 61.3129 63.8307C61.161 63.6756 60.9532 63.4716 60.7853 63.2782C60.6175 63.0847 60.4956 62.9139 60.3557 62.7291C60.2398 62.5775 60.1239 62.4241 60.016 62.2637C60.03 62.0232 60.03 61.7809 60.03 61.5386C60.0242 60.8969 59.9681 60.2563 59.8621 59.6213C59.8441 59.5063 59.8301 59.393 59.8082 59.2727C59.697 58.6728 59.5402 58.08 59.3385 57.4983C59.2986 57.385 59.2546 57.277 59.2127 57.1672C58.9958 56.5797 58.7327 56.0061 58.4253 55.4503L58.3933 55.4015C58.0854 54.8692 57.7334 54.3571 57.3402 53.8694C57.2962 53.8136 57.2663 53.7509 57.2223 53.6951C57.4341 53.4371 57.636 53.1722 57.8218 52.902C57.8698 52.9386 57.9197 52.9665 57.9677 53.0049C58.4594 53.4014 58.9794 53.7705 59.5244 54.1099C59.5783 54.143 59.6383 54.1674 59.6923 54.2006C60.1755 54.4884 60.678 54.7509 61.197 54.9867C61.3968 55.0755 61.5967 55.1488 61.7965 55.2289C62.1842 55.3858 62.5739 55.5287 62.9695 55.6525C63.1873 55.7205 63.4052 55.785 63.625 55.8425C64.0281 55.9469 64.4369 56.0335 64.8499 56.1022C65.0498 56.1353 65.2376 56.1789 65.4335 56.2033C66.0062 56.2796 66.5846 56.3198 67.164 56.3235H67.196C67.3379 56.3235 67.4758 56.3009 67.6156 56.2974C68.0775 56.2836 68.538 56.2452 68.9945 56.1824C69.2123 56.151 69.4241 56.1004 69.638 56.0586C70.0163 55.9842 70.3899 55.8922 70.757 55.7832C70.9748 55.717 71.1887 55.642 71.4025 55.5636C71.7692 55.4254 72.1268 55.2695 72.4736 55.0965C72.5895 55.0389 72.7154 55.0041 72.8313 54.9413C72.9072 55.0877 72.9872 55.2342 73.0571 55.3823C73.1271 55.5305 73.221 55.7309 73.2929 55.9052C73.4028 56.1771 73.4927 56.4543 73.5807 56.7314C73.6346 56.9057 73.6946 57.08 73.7385 57.2543C73.8165 57.5611 73.8684 57.8696 73.9164 58.1798C73.9404 58.3298 73.9743 58.4779 73.9903 58.6278C74.0423 59.0911 74.061 59.5568 74.0463 60.0222C74.1136 62.3647 72.8807 64.5912 70.733 65.999ZM35.2506 4.21279C37.4488 4.73569 42.1948 6.6408 46.1316 13.5762C45.8078 14.0817 45.5321 14.5976 45.2223 15.1101C45.0844 15.3454 44.9346 15.579 44.8027 15.8177C44.1965 16.9054 43.6476 18.0093 43.156 19.1295C43.0461 19.3752 42.9562 19.6245 42.8523 19.872C42.4659 20.8016 42.1202 21.7382 41.8152 22.6817C41.7192 22.9728 41.6153 23.2621 41.5354 23.5532C41.4734 23.7641 41.3935 23.9698 41.3356 24.179L41.3196 24.1702C40.7201 23.7868 40.1046 23.4208 39.4591 23.0652C39.2593 22.9536 39.0475 22.8456 38.8416 22.7375C38.35 22.4795 37.8431 22.2285 37.3209 21.9845C37.1071 21.8852 36.8973 21.7841 36.6794 21.6865C35.956 21.3657 35.2127 21.0537 34.4333 20.7592C34.3514 20.7278 34.2615 20.6999 34.1795 20.6703C33.4741 20.4071 32.7427 20.1578 31.9933 19.919C31.8794 19.8824 31.7775 19.8406 31.6636 19.8058C31.6767 14.4533 32.8955 9.15532 35.2506 4.21279ZM6.27478 19.7604C14.0063 19.8216 21.6907 20.8189 29.1077 22.7235C30.019 22.985 30.8823 23.2674 31.7236 23.5585C35.2505 24.6916 38.4804 26.4312 41.2216 28.6742C41.6639 29.0507 42.0669 29.4295 42.4306 29.8106C42.5705 29.9553 42.6824 30.1 42.8123 30.2446C43.0222 30.4782 43.242 30.7135 43.4258 30.9418C43.5557 31.1057 43.6596 31.266 43.7755 31.4281C43.9294 31.6408 44.0913 31.8534 44.2251 32.0608C44.3351 32.2351 44.425 32.3955 44.5149 32.5646C44.6288 32.7615 44.7527 32.9602 44.8506 33.1537C44.9346 33.328 44.9965 33.4762 45.0704 33.6383C45.1544 33.8283 45.2483 34.02 45.3202 34.203C45.3742 34.3442 45.4142 34.4784 45.4621 34.6161C42.7936 32.7961 39.9853 31.1375 37.0571 29.652C36.1061 29.1738 34.8909 29.4542 34.3354 30.2801C33.78 31.1059 34.0922 32.1679 35.0348 32.6587C37.4791 33.9001 39.8391 35.2636 42.1029 36.7426C41.8411 36.7147 41.5893 36.6903 41.3156 36.6589C40.9339 36.6153 40.5262 36.5683 40.0946 36.5125C36.0226 35.9923 32.004 35.1921 28.0766 34.1193C27.7309 34.0304 27.3852 33.9328 27.0315 33.8335L26.6858 33.7376C25.3599 33.3271 24.0764 32.8192 22.849 32.2195C22.3294 31.9754 21.8198 31.7593 21.2883 31.4735C19.2171 30.347 17.2471 29.0849 15.3952 27.6981C12.1267 25.2596 9.07761 22.606 6.27478 19.7604ZM12.1399 32.4426C12.6827 31.9658 13.2762 31.5351 13.9124 31.1562C13.9923 31.2137 14.0703 31.2608 14.1502 31.3166C14.8476 31.8029 15.5491 32.2683 16.2245 32.7023C16.3524 32.7842 16.4803 32.8574 16.6082 32.9376C17.1957 33.3036 17.7792 33.647 18.3567 33.9729C18.5446 34.0793 18.7324 34.1856 18.9202 34.2867C19.5997 34.6562 20.2751 35.0065 20.9386 35.322L21.1384 35.4109C21.7379 35.6915 22.3374 35.9443 22.9369 36.1778C23.0328 36.2162 23.1367 36.265 23.2267 36.3016C22.9549 36.5212 22.7051 36.7652 22.4493 36.9988C22.3114 37.126 22.1635 37.2428 22.0296 37.3753C21.6092 37.7932 21.2169 38.232 20.8546 38.6895C20.4423 39.2171 20.0718 39.7686 19.7456 40.3401C19.6416 40.5144 19.5597 40.7062 19.4638 40.8892C19.264 41.2849 19.0641 41.6823 18.9082 42.0901C18.8223 42.3097 18.7504 42.5294 18.6764 42.7507C18.5485 43.1359 18.4426 43.5211 18.3567 43.9098C18.3068 44.1399 18.2568 44.3665 18.2208 44.5966C18.2008 44.7238 18.1609 44.8493 18.1449 44.9765C18.0829 44.9905 18.023 44.9957 17.963 45.0079C17.6421 45.0767 17.3173 45.1308 16.9898 45.17C16.8799 45.1822 16.77 45.1857 16.6601 45.1944C16.3923 45.2171 16.1246 45.2345 15.8608 45.2363C15.7349 45.2363 15.615 45.2363 15.4911 45.2363C15.2493 45.2275 15.0075 45.2136 14.7717 45.1875C14.6438 45.1735 14.5159 45.1561 14.39 45.1369C14.1682 45.102 13.9484 45.0602 13.7346 45.0097C13.6067 44.9783 13.4808 44.9487 13.3569 44.9121C13.157 44.8528 12.9572 44.7831 12.7574 44.7081C12.6375 44.6628 12.5176 44.6192 12.4017 44.5687C12.2018 44.4798 12.002 44.377 11.8242 44.2724C11.7262 44.2166 11.6243 44.1695 11.5304 44.1103C11.2545 43.9391 10.9952 43.7485 10.755 43.5403L10.6351 43.4357C7.67361 40.7009 8.34905 35.7682 12.1439 32.4426H12.1399ZM7.61966 49.1075C8.07743 48.352 8.63039 47.6435 9.26829 46.995C9.34422 47.042 9.42615 47.0804 9.50409 47.1239C9.58202 47.1675 9.66396 47.2128 9.74389 47.2564C10.2791 47.5529 10.8436 47.8072 11.4305 48.0164C11.4984 48.0408 11.5684 48.0582 11.6303 48.0808C12.2496 48.2891 12.8889 48.449 13.5407 48.5584C13.5747 48.5584 13.6107 48.5584 13.6446 48.5724C14.3255 48.6776 15.0154 48.7319 15.7069 48.7345H15.7729H15.8088C16.0646 48.7345 16.3204 48.717 16.5782 48.7031C16.7301 48.6944 16.8799 48.6944 17.0338 48.6804C17.3396 48.656 17.6453 48.6107 17.953 48.5654C18.061 48.5497 18.1669 48.5427 18.2728 48.5236H18.3028C18.4267 49.0504 18.5957 49.5683 18.8083 50.0731C18.8523 50.1777 18.8923 50.2823 18.9382 50.3868C19.1603 50.8773 19.4276 51.3512 19.7376 51.8039C19.8175 51.919 19.8994 52.0305 19.9834 52.1525C20.0673 52.2745 20.1172 52.3477 20.1832 52.4384C20.1252 52.5308 20.0693 52.6231 20.0133 52.7155C19.6846 53.262 19.3943 53.8255 19.1441 54.4027C19.0601 54.598 19.0002 54.7984 18.9242 54.9971C18.7764 55.3823 18.6305 55.7675 18.5246 56.1597C18.4586 56.3933 18.4167 56.6286 18.3627 56.8569C18.2808 57.2229 18.2028 57.589 18.1629 57.9602C18.1289 58.206 18.1129 58.4535 18.0949 58.701C18.0789 58.9067 18.043 59.1124 18.037 59.318C17.8791 59.4522 17.7192 59.5847 17.5534 59.7067C17.3875 59.8287 17.1817 59.9839 16.9898 60.1059C16.7254 60.2699 16.4512 60.4218 16.1685 60.5608C15.9687 60.6619 15.7689 60.7734 15.569 60.8589C15.2843 60.9728 14.9921 61.0718 14.6938 61.1552C14.4939 61.2144 14.2941 61.2929 14.0943 61.3295C13.6716 61.4247 13.2392 61.4831 12.8033 61.5038C12.7414 61.5038 12.6794 61.5229 12.6175 61.5247C11.491 61.5648 10.3768 61.3078 9.42016 60.7874C5.83714 58.7794 5.00983 53.4319 7.61966 49.1075ZM12.3577 67.9494C12.6368 66.8806 13.1249 65.8618 13.8005 64.9375L13.8625 64.927C14.1362 64.8957 14.408 64.8434 14.6818 64.7928C14.8097 64.7684 14.9396 64.7527 15.0675 64.7248C15.469 64.6365 15.8646 64.5288 16.2525 64.4024C16.3384 64.3745 16.4223 64.3362 16.5082 64.3065C16.814 64.2002 17.1197 64.0904 17.4195 63.9579C17.5634 63.8969 17.7033 63.8202 17.8451 63.7522C18.0849 63.6407 18.3227 63.5291 18.5565 63.4036L18.6245 63.3705C18.6545 63.4594 18.7044 63.5448 18.7364 63.625C18.8855 64.0356 19.0617 64.4383 19.264 64.8312C19.3239 64.9462 19.3759 65.0647 19.4398 65.1798C19.7033 65.6465 20.008 66.0946 20.351 66.5201C20.425 66.6108 20.5089 66.6944 20.5868 66.7816C20.8719 67.1116 21.1831 67.4237 21.5181 67.7159C21.634 67.8169 21.7499 67.918 21.8698 68.0156C22.2989 68.3635 22.7615 68.6784 23.2526 68.9569C23.4065 69.044 23.5644 69.1312 23.7222 69.2026C23.6783 69.2724 23.6503 69.3508 23.6083 69.424C23.4085 69.7552 23.2466 70.0951 23.0868 70.4402C23.0148 70.597 22.9329 70.7487 22.8669 70.9073C22.6597 71.4028 22.4862 71.9086 22.3474 72.422L22.3334 72.4638C22.1983 72.9949 22.1008 73.5328 22.0416 74.0743C22.0296 74.1929 22.0157 74.3097 22.0057 74.423C21.9548 74.9563 21.9428 75.4919 21.9697 76.0265C21.8658 76.0858 21.7699 76.159 21.66 76.213C21.5061 76.2949 21.3502 76.3664 21.1923 76.4361C20.9252 76.554 20.6495 76.6564 20.367 76.7429C20.2072 76.7917 20.0473 76.8422 19.8854 76.8789C19.596 76.9424 19.3013 76.9867 19.0042 77.0113C18.8603 77.0235 18.7164 77.0497 18.5725 77.0532C18.1396 77.0684 17.7062 77.0379 17.2816 76.9625C17.2217 76.9521 17.1617 76.9433 17.1018 76.9364C13.3829 76.1416 11.2586 72.1239 12.3577 67.9494ZM18.065 82.4547C18.064 81.8156 18.1403 81.1782 18.2928 80.5531H18.3467H18.3867C18.4966 80.5531 18.6045 80.5305 18.7144 80.527C19.0242 80.5095 19.3339 80.4851 19.6436 80.4485C19.9534 80.4119 20.2431 80.3771 20.5449 80.3178C20.9785 80.2351 21.4056 80.1285 21.8238 79.9988C21.9697 79.9535 22.1116 79.8995 22.2555 79.8472C22.4353 79.7827 22.6172 79.7304 22.795 79.6572C22.859 79.8071 22.9429 79.9483 23.0148 80.0947C23.1028 80.2812 23.1887 80.4677 23.2886 80.6472C23.3885 80.8268 23.5084 81.0063 23.6243 81.1841C23.7402 81.3619 23.8242 81.5118 23.9421 81.6669C24.06 81.822 24.2138 82.0155 24.3557 82.1898C24.4716 82.331 24.5855 82.4722 24.7094 82.6064C24.8633 82.772 25.0251 82.9254 25.189 83.0805C25.3209 83.206 25.4508 83.3315 25.5887 83.45C25.6446 83.4971 25.6926 83.5511 25.7485 83.5964C25.7366 83.6156 25.7286 83.6348 25.7166 83.6539C25.6646 83.7376 25.6266 83.8282 25.5747 83.9136C25.3172 84.3499 25.0916 84.7999 24.8993 85.261C24.8253 85.4353 24.7634 85.62 24.6994 85.8031C24.5553 86.2151 24.4359 86.6334 24.3417 87.0563C24.3018 87.2306 24.2578 87.4136 24.2258 87.5966C24.1202 88.2024 24.0648 88.814 24.06 89.4268C20.7547 89.4268 18.065 86.2998 18.065 82.4547ZM34.0516 96.3988C31.186 96.3988 28.6561 93.9185 28.1545 90.6016C28.0886 90.2126 28.0558 89.8199 28.0566 89.4268C28.0596 88.9938 28.0983 88.5616 28.1725 88.1335C28.1925 88.0097 28.2205 87.8877 28.2465 87.7657C28.3115 87.461 28.3956 87.1596 28.4983 86.8628C28.5382 86.746 28.5742 86.6292 28.6202 86.5142C28.77 86.1317 28.9538 85.7599 29.1697 85.4022C29.4869 85.4998 29.8098 85.583 30.1369 85.6514C30.4816 85.7213 30.8305 85.7743 31.182 85.81C31.3079 85.8222 31.4338 85.8222 31.5597 85.8309C31.7855 85.8449 32.0113 85.8641 32.2391 85.8641H32.2731C32.393 85.8641 32.5129 85.8501 32.6328 85.8466C32.8546 85.8466 33.0764 85.8344 33.2983 85.8135C33.4501 85.7996 33.6 85.7717 33.7499 85.7525C33.9497 85.7246 34.1495 85.7002 34.3494 85.6619C34.5112 85.6322 34.6691 85.5904 34.829 85.5521C34.9888 85.5137 35.2027 85.4667 35.3865 85.4126C35.5704 85.3586 35.7122 85.308 35.8741 85.254C36.036 85.2 36.2298 85.1355 36.4057 85.0658C36.5815 84.996 36.7234 84.9316 36.8833 84.8601C37.0431 84.7886 37.229 84.7085 37.3988 84.623C37.5687 84.5376 37.7006 84.4627 37.8505 84.379C37.9624 84.3163 38.0803 84.2622 38.1902 84.2047L38.2262 84.2518C38.3081 84.3686 38.398 84.4784 38.4839 84.6004C38.6058 84.766 38.7237 84.935 38.8536 85.0937C38.8097 85.1477 38.7797 85.2104 38.7377 85.268C38.3414 85.7595 37.9868 86.2757 37.6766 86.8123L37.6546 86.8471C37.3457 87.4037 37.0819 87.9786 36.8653 88.5675C36.8233 88.6773 36.7794 88.7836 36.7414 88.8934C36.54 89.4752 36.3831 90.0679 36.2718 90.6678C36.2498 90.7828 36.2358 90.8961 36.2178 91.0164C36.1129 91.6445 36.0568 92.2781 36.05 92.9128C36.0465 93.3933 36.0772 93.8736 36.1419 94.3508V94.3682C36.1419 94.4519 36.1739 94.5338 36.1858 94.6175C36.2398 95.0009 36.3018 95.3826 36.3857 95.7556C36.3857 95.7766 36.3857 95.801 36.3977 95.8219C35.6904 96.1969 34.8793 96.3964 34.0516 96.3988ZM48.04 101.628C44.414 101.382 41.3919 99.1093 40.5802 96.0171C40.3487 95.342 40.1914 94.6492 40.1106 93.9481C40.0644 93.6045 40.043 93.2587 40.0466 92.9128C40.0522 92.3444 40.1097 91.7773 40.2185 91.2169C40.2505 91.0425 40.2944 90.8839 40.3364 90.7183C40.4301 90.3279 40.5503 89.9426 40.6961 89.5645C40.76 89.4006 40.822 89.235 40.8959 89.0764C41.0945 88.6384 41.331 88.2142 41.6033 87.8075C41.6413 87.7483 41.6713 87.6838 41.7112 87.6332L41.7352 87.6071C42.1804 87.8841 42.6479 88.1328 43.1341 88.3513L43.238 88.3967C46.2404 89.7736 49.8275 89.7736 52.83 88.3967L52.9359 88.3479C53.4223 88.1311 53.8899 87.8835 54.3347 87.6071H54.3487L54.3727 87.6332C54.4127 87.6907 54.4426 87.7552 54.4806 87.8075C54.753 88.2142 54.9895 88.6384 55.188 89.0764C55.2599 89.235 55.3219 89.4006 55.3878 89.5645C55.5337 89.9426 55.6538 90.3279 55.7475 90.7183C55.7895 90.8839 55.8335 91.0478 55.8654 91.2169C55.9729 91.7774 56.029 92.3445 56.0333 92.9128C56.0334 93.9625 55.8542 95.0064 55.5017 96.0101C54.691 99.1047 51.6683 101.38 48.04 101.628ZM62.0283 96.3988C61.2004 96.3975 60.3886 96.1993 59.6803 95.8254C59.7242 95.6511 59.7442 95.4558 59.7802 95.2728C59.8162 95.0898 59.8461 94.9382 59.8721 94.7691C60.0859 93.5162 60.0825 92.2423 59.8621 90.9903C59.8441 90.8752 59.8301 90.7619 59.8082 90.6417C59.697 90.0417 59.5402 89.449 59.3385 88.8673C59.2986 88.754 59.2546 88.6459 59.2127 88.5361C58.9958 87.9487 58.7327 87.375 58.4253 86.8192L58.3933 86.7704C58.0854 86.2381 57.7334 85.7261 57.3402 85.2383C57.2962 85.1825 57.2663 85.1198 57.2223 85.064C57.4221 84.8287 57.596 84.583 57.7719 84.3337L57.8258 84.2622C57.8438 84.2361 57.8658 84.2117 57.8838 84.1855C57.9957 84.2518 58.1116 84.3076 58.2255 84.3703C58.3754 84.454 58.5252 84.5446 58.6771 84.6143C58.829 84.684 59.0188 84.7747 59.1907 84.8514C59.3625 84.9281 59.5124 84.996 59.6743 85.0605C59.8361 85.125 60.014 85.1808 60.1838 85.2348C60.3537 85.2889 60.5256 85.3551 60.6994 85.4091C60.8733 85.4632 61.0311 85.4928 61.197 85.5329C61.3629 85.573 61.5607 85.6235 61.7445 85.6584C61.9284 85.6933 62.0663 85.7072 62.2281 85.7299C62.39 85.7525 62.6078 85.7891 62.7997 85.8065C62.9575 85.8222 63.1174 85.824 63.2773 85.8309C63.4371 85.8379 63.629 85.8571 63.8068 85.8571H63.8588C64.0186 85.8571 64.1765 85.8397 64.3344 85.8327C64.5342 85.8222 64.7181 85.8205 64.9079 85.8013C65.2586 85.7648 65.6068 85.7119 65.951 85.6427C66.2755 85.5748 66.5957 85.4922 66.9102 85.3952C67.1262 85.7529 67.3099 86.1247 67.4598 86.5072C67.5057 86.6223 67.5417 86.7391 67.5817 86.8558C67.6844 87.1514 67.7684 87.4517 67.8335 87.7552C67.8594 87.879 67.8874 88.001 67.9074 88.1265C67.982 88.5569 68.0207 88.9915 68.0233 89.4268C68.0236 89.8293 67.9895 90.2313 67.9214 90.6294C67.4238 93.9185 64.8939 96.3988 62.0283 96.3988ZM72.02 89.4268C72.0147 88.8128 71.9586 88.2 71.8521 87.5931C71.8201 87.4188 71.7762 87.2323 71.7362 87.0528C71.642 86.6299 71.5226 86.2116 71.3785 85.7996C71.3146 85.6253 71.2526 85.4353 71.1787 85.2575C70.9864 84.7964 70.7608 84.3464 70.5032 83.9101C70.4513 83.8247 70.4133 83.7359 70.3614 83.6504C70.3494 83.6313 70.3414 83.6121 70.3294 83.5929C70.3773 83.5546 70.4193 83.5075 70.4673 83.4674C70.6351 83.3245 70.795 83.1711 70.9549 83.0177C71.1147 82.8643 71.2246 82.7615 71.3545 82.6255C71.4844 82.4896 71.6423 82.2944 71.7802 82.1253C71.9181 81.9562 72.02 81.8377 72.1299 81.6861C72.2398 81.5344 72.3737 81.3235 72.4896 81.1388C72.5915 80.9801 72.6894 80.8233 72.7893 80.6577C72.8892 80.4921 72.9892 80.269 73.0831 80.0703C73.149 79.9309 73.227 79.7984 73.2829 79.6572C73.4688 79.7339 73.6606 79.7914 73.8484 79.8577C73.9743 79.903 74.0982 79.95 74.2241 79.9919C74.6695 80.1328 75.1255 80.2463 75.589 80.3318C75.8368 80.3806 76.0826 80.4102 76.3304 80.4398C76.6981 80.4851 77.0678 80.5165 77.4435 80.5322C77.5254 80.5322 77.6073 80.5531 77.6912 80.5531H77.7292H77.7852C77.9383 81.1782 78.0153 81.8156 78.015 82.4547C78.015 86.2998 75.3252 89.4268 72.02 89.4268ZM78.9782 76.9416C78.9182 76.9486 78.8583 76.9573 78.7983 76.9678C78.3737 77.0429 77.9404 77.0739 77.5074 77.0601C77.3615 77.0601 77.2156 77.0305 77.0698 77.0165C76.778 76.9918 76.4888 76.9481 76.2045 76.8858C76.0346 76.8475 75.8668 76.7934 75.6969 76.7429C75.4234 76.6593 75.1564 76.5603 74.8976 76.4466C74.7337 76.3751 74.5718 76.3002 74.41 76.2165C74.3061 76.1625 74.2101 76.091 74.1062 76.0317C74.1311 75.4971 74.1191 74.9616 74.0703 74.4282C74.0703 74.3097 74.0463 74.1929 74.0343 74.0796C73.9754 73.5368 73.878 72.9978 73.7425 72.4656C73.6016 71.9403 73.4247 71.4229 73.213 70.916C73.143 70.7417 73.0571 70.5901 72.9812 70.4262C72.8233 70.0776 72.6574 69.7534 72.4696 69.4275C72.4276 69.356 72.3977 69.2776 72.3557 69.2061C72.5209 69.1271 72.6868 69.0434 72.8533 68.9551C73.3405 68.6765 73.7992 68.3616 74.2241 68.0139C74.346 67.9163 74.4619 67.8152 74.5778 67.7124C74.9067 67.4219 75.2131 67.1127 75.4951 66.7868C75.575 66.6945 75.6609 66.6125 75.7369 66.5167C76.0773 66.0928 76.3793 65.6464 76.6401 65.1815C76.7041 65.0665 76.758 64.9445 76.818 64.8329C77.0183 64.4435 77.1924 64.0443 77.3395 63.6372C77.3715 63.5501 77.4215 63.4716 77.4514 63.3827C77.4714 63.3932 77.4934 63.4019 77.5134 63.4141C77.7972 63.5692 78.0849 63.7069 78.3747 63.8411C78.4646 63.883 78.5525 63.9318 78.6444 63.9719C79.4025 64.3037 80.1999 64.562 81.0225 64.7423C81.0724 64.7545 81.1244 64.758 81.1763 64.7684C81.5198 64.842 81.8672 64.9001 82.2175 64.9427L82.2774 64.9514C82.9519 65.8727 83.4386 66.8887 83.7162 67.9546C84.8213 72.1239 82.6971 76.1416 78.9782 76.9416ZM86.6498 60.7856C85.689 61.3227 84.5576 61.5802 83.4185 61.5212C82.926 61.5079 82.4371 61.4441 81.9617 61.3312C81.7958 61.2946 81.632 61.2284 81.4681 61.1796C81.1384 61.0892 80.8159 60.9797 80.5029 60.8519C80.3131 60.7717 80.1292 60.6671 79.9434 60.573C79.6473 60.428 79.3604 60.2692 79.0841 60.0972C78.8982 59.9786 78.7204 59.8444 78.5385 59.7137C78.3567 59.583 78.2028 59.4488 78.035 59.3128C78.035 59.1054 77.995 58.9015 77.979 58.6958C77.961 58.4483 77.945 58.2042 77.9111 57.9585C77.8611 57.5855 77.7832 57.216 77.6992 56.8447C77.6473 56.6146 77.6053 56.3845 77.5414 56.1475C77.4295 55.7466 77.2836 55.3562 77.1417 54.964C77.0698 54.774 77.0118 54.5805 76.9299 54.3923C76.6806 53.8163 76.3916 53.2541 76.0646 52.7085L75.8867 52.4209C75.9687 52.3216 76.0346 52.2118 76.1126 52.1089C76.1905 52.0061 76.2345 51.9434 76.2944 51.8597C76.6298 51.3798 76.9179 50.876 77.1557 50.3537C77.1917 50.2736 77.2236 50.1899 77.2576 50.108C77.4795 49.5897 77.6546 49.057 77.7812 48.5149H77.8111C77.929 48.5358 78.047 48.5445 78.1668 48.5619C78.4606 48.6038 78.7544 48.6473 79.0461 48.6717C79.234 48.6892 79.4198 48.6892 79.6057 48.6979C79.8275 48.7083 80.0493 48.7258 80.2691 48.7258H80.3111H80.389C81.067 48.721 81.7434 48.6674 82.4113 48.5654L82.5532 48.548C83.1935 48.4387 83.822 48.2818 84.4316 48.0791C84.5116 48.0512 84.5935 48.0303 84.6734 48.0024C85.2523 47.7953 85.8092 47.5445 86.338 47.2529C86.424 47.2059 86.5119 47.1605 86.5958 47.11C86.6797 47.0594 86.7577 47.0281 86.8336 46.9793C87.4731 47.6257 88.0225 48.336 88.4703 49.0953C91.0701 53.4319 90.2428 58.7794 86.6498 60.7856ZM85.4728 43.4113L85.3349 43.5316C85.0936 43.7399 84.8337 43.9311 84.5575 44.1033C84.4676 44.1608 84.3677 44.2061 84.2738 44.2584C84.084 44.3682 83.8879 44.4694 83.6862 44.5617C83.5723 44.6105 83.4524 44.6523 83.3365 44.6977C83.1367 44.7726 82.9369 44.8441 82.737 44.9051C82.6131 44.9399 82.4872 44.9696 82.3594 45.0009C82.1455 45.0515 81.9257 45.0933 81.7039 45.1282C81.576 45.1474 81.4501 45.1648 81.3222 45.1787C81.0844 45.2049 80.8446 45.2188 80.6028 45.2275C80.4789 45.2275 80.357 45.238 80.2331 45.2275C79.9693 45.2275 79.7016 45.2084 79.4338 45.1857C79.3239 45.1857 79.216 45.1735 79.1061 45.1613C78.7793 45.1221 78.4551 45.068 78.1349 44.9992C78.0729 44.987 78.013 44.9818 77.951 44.9678C77.935 44.8406 77.8951 44.7151 77.8751 44.5879C77.8391 44.3578 77.7892 44.1312 77.7392 43.9011C77.6533 43.5124 77.5394 43.1272 77.4195 42.742C77.3455 42.5206 77.2736 42.301 77.1877 42.0814C77.0258 41.6735 76.836 41.2761 76.6301 40.8787C76.5362 40.6957 76.4543 40.511 76.3504 40.3314C76.0234 39.7596 75.6529 39.2076 75.2413 38.6791C74.8709 38.2168 74.4706 37.7733 74.0423 37.3509C73.9024 37.2132 73.7505 37.0912 73.6047 36.9587C73.3609 36.7339 73.1231 36.5003 72.8653 36.2929C72.9512 36.2615 73.0411 36.2162 73.1271 36.1813C73.7425 35.9408 74.364 35.6776 74.9915 35.3865C75.0434 35.3621 75.0934 35.3429 75.1434 35.3185C75.8208 34.9996 76.5082 34.644 77.1997 34.2727C77.3675 34.1821 77.5354 34.0862 77.7052 33.9921C78.3127 33.6435 78.9255 33.2798 79.5437 32.901C79.6456 32.8382 79.7435 32.7807 79.8455 32.7162C80.5489 32.27 81.2583 31.7907 81.9717 31.2887C82.0396 31.2434 82.1036 31.2033 82.1715 31.1562C82.8074 31.5322 83.4009 31.96 83.944 32.4339C87.7229 35.7613 88.4063 40.68 85.4728 43.4113ZM80.6768 27.6981C77.3914 30.3067 73.5737 32.3542 69.4221 33.7341L68.9006 33.884C68.5968 33.9712 68.3011 34.0583 67.9354 34.149C66.8896 34.4337 65.8298 34.6998 64.756 34.9473C61.4702 35.7025 58.133 36.2759 54.7644 36.6641C54.4906 36.6955 54.2448 36.7182 53.987 36.7461C56.2513 35.2677 58.6113 33.9042 61.0551 32.6622C61.9977 32.1714 62.3099 31.1094 61.7545 30.2836C61.199 29.4577 59.9838 29.1773 59.0328 29.6555C56.0586 31.1646 53.2093 32.8536 50.5059 34.7102C50.5519 34.5725 50.6098 34.4296 50.6638 34.2884C50.7377 34.0897 50.8017 33.8945 50.8936 33.6888C50.9855 33.4831 51.0934 33.2984 51.1913 33.1032C51.2893 32.908 51.3912 32.6779 51.5251 32.46C51.6589 32.2421 51.7928 32.0591 51.9247 31.8587C52.0566 31.6582 52.2045 31.4177 52.3744 31.1928C52.5442 30.968 52.7361 30.7675 52.9179 30.5531C53.0998 30.3388 53.2656 30.1226 53.4714 29.9065C53.7092 29.659 53.993 29.4097 54.2708 29.1622C54.4706 28.9792 54.6385 28.7979 54.8523 28.6167C55.3859 28.1662 55.9455 27.7398 56.5289 27.339C63.2793 22.6991 74.4439 20.1578 89.7592 19.7674C86.9698 22.6127 83.9333 25.2664 80.6768 27.7051V27.6981Z"/>
</mask>
<path d="M94.0016 16.2204C79.1261 16.2204 67.5057 18.0575 59.3246 21.683C60.4796 19.5902 61.9545 17.6435 63.7089 15.8962C66.6861 13.1473 66.6083 8.82946 63.5335 6.16359C60.4587 3.49771 55.5079 3.45579 52.3744 6.06909C50.9832 7.35085 49.7134 8.72885 48.5775 10.1896C42.2668 0.677966 34.4033 0.533296 34.0516 0.533296C33.2866 0.532612 32.5882 0.912977 32.2531 1.51287C29.4249 6.92559 27.8675 12.7774 27.6729 18.7233C19.2748 16.9246 10.6446 16.0832 1.99835 16.2204C1.24143 16.2204 0.549483 16.5934 0.210981 17.1839C-0.127521 17.7744 -0.0544696 18.481 0.399678 19.0092C3.55253 22.5337 7.03995 25.8204 10.825 28.8345C10.2941 29.1881 9.78829 29.5693 9.31025 29.9762C4.47628 34.2135 3.42915 40.2356 6.52058 44.4571C5.56522 45.3702 4.7473 46.3859 4.08661 47.4795C0.489604 53.4406 1.91641 60.7264 7.27395 63.7191C7.95912 64.0969 8.69815 64.3946 9.47211 64.6046C9.04145 65.4255 8.70671 66.2821 8.47295 67.1616C7.05013 72.5649 9.67195 77.8358 14.418 79.7792C14.1897 80.6572 14.0725 81.5544 14.0683 82.4547C14.0683 88.2224 18.5505 92.9128 24.06 92.9128C24.2498 92.9128 24.4356 92.8832 24.6235 92.871C25.6011 96.7918 29.4585 99.6614 34.0516 99.8848C35.333 99.8742 36.595 99.6102 37.7425 99.1127C39.5972 102.651 43.5824 104.974 48.04 105.114C52.4976 104.974 56.4827 102.651 58.3374 99.1127C59.485 99.61 60.7469 99.874 62.0283 99.8848C66.6224 99.6628 70.4813 96.7927 71.4584 92.871C71.6463 92.8832 71.8301 92.9128 72.02 92.9128C77.5294 92.9128 82.0116 88.2224 82.0116 82.4547C82.0106 81.5553 81.8967 80.6587 81.6719 79.781C86.422 77.8375 89.0398 72.5684 87.615 67.1563C87.3815 66.2791 87.0468 65.4247 86.6158 64.6063C87.3896 64.3959 88.1286 64.0982 88.814 63.7209C94.1735 60.7281 95.6083 53.4371 92.0113 47.49C91.3557 46.3888 90.5344 45.3688 89.5693 44.4571C92.6548 40.2565 91.6076 34.2204 86.7717 29.9762C86.2936 29.568 85.7863 29.1867 85.2529 28.8345C89.013 25.8193 92.4744 22.5325 95.6003 19.0092C96.0545 18.481 96.1275 17.7744 95.789 17.1839C95.4505 16.5934 94.7586 16.2204 94.0016 16.2204ZM55.208 8.52848C56.7811 7.25912 59.222 7.29788 60.7411 8.61633C62.2602 9.93479 62.3168 12.0636 60.8693 13.442C57.4907 16.7634 54.9874 20.6901 53.5354 24.9459C53.4794 24.986 53.4355 25.0296 53.3795 25.0696C52.8 25.4967 52.2545 25.9272 51.7609 26.3612C51.6989 26.4152 51.645 26.471 51.585 26.5251C51.1094 26.9527 50.6724 27.3803 50.2741 27.8079L50.1642 27.9212C49.7645 28.3622 49.4048 28.7927 49.0751 29.2372C49.0152 29.3139 48.9572 29.3906 48.8993 29.4673C48.5888 29.8902 48.3104 30.3085 48.0639 30.7222C48.046 30.7518 48.02 30.7832 48.002 30.8129C47.966 30.7501 47.9181 30.6856 47.8801 30.6211C47.8062 30.5009 47.7262 30.3823 47.6483 30.2621C47.4365 29.9361 47.2047 29.6084 46.9569 29.279C46.8769 29.1744 46.803 29.0698 46.7191 28.9635C46.39 28.5475 46.0276 28.1304 45.632 27.712C45.544 27.6197 45.4481 27.5273 45.3562 27.4349C45.1744 27.2484 44.9985 27.0619 44.8007 26.8771C44.9126 26.3542 45.0465 25.8453 45.1843 25.3311C45.3222 24.8169 45.4441 24.294 45.606 23.7816C45.8238 23.1018 46.0916 22.436 46.3514 21.7666C46.5352 21.2995 46.6931 20.8254 46.8969 20.3722C47.2266 19.6262 47.6143 18.8942 48 18.1604C48.1998 17.7891 48.3597 17.4109 48.5695 17.0431C49.193 15.9485 49.8724 14.8695 50.6218 13.8098C51.937 11.9158 53.474 10.1459 55.208 8.52848ZM63.0495 38.89C63.3912 38.822 63.7289 38.7488 64.0686 38.6773C65.2876 38.4193 66.4866 38.1405 67.6656 37.8407C67.8654 37.7884 68.0833 37.75 68.2851 37.6977C68.391 37.75 68.4969 37.7988 68.6028 37.8546C68.7567 37.94 68.9106 38.0289 69.0604 38.1213C69.2783 38.2555 69.4901 38.3984 69.6979 38.5501C69.8318 38.6477 69.9697 38.7435 70.0976 38.8464C70.3194 39.0207 70.5312 39.2142 70.741 39.4076C70.847 39.507 70.9569 39.5976 71.0588 39.7005C71.3673 40.0099 71.6568 40.3334 71.926 40.6696C73.2514 42.3112 73.9803 44.2624 74.0183 46.2699C74.0838 48.0605 73.3362 49.8013 71.938 51.1137C71.6621 51.3744 71.3546 51.6082 71.0208 51.8109C70.5984 52.0641 70.142 52.2713 69.6619 52.4279C69.4901 52.4854 69.3042 52.5064 69.1264 52.5517C68.817 52.6366 68.5011 52.7024 68.1812 52.7486C67.9653 52.7748 67.7415 52.7661 67.5217 52.7748C67.2222 52.7896 66.922 52.7896 66.6225 52.7748C66.3887 52.7591 66.1529 52.7155 65.9191 52.6824C65.6198 52.6461 65.323 52.596 65.0298 52.5325C64.792 52.4767 64.5562 52.3965 64.3204 52.3233C64.0266 52.2327 63.7349 52.149 63.4471 52.027C63.2153 51.9312 62.9875 51.8179 62.7577 51.7063C62.4759 51.5686 62.1942 51.4274 61.9224 51.2653C61.7006 51.1346 61.4868 50.9882 61.2729 50.84C61.0092 50.6657 60.7494 50.4688 60.4976 50.2614C60.2977 50.0958 60.0979 49.9128 59.8981 49.7384C59.7662 49.613 59.6423 49.4753 59.5144 49.3428C59.5923 49.0761 59.6323 48.8059 59.6923 48.5358C59.7402 48.3214 59.7962 48.1087 59.8321 47.8926C60.0736 46.5874 60.0823 45.2575 59.8581 43.9499C59.8281 43.7599 59.7842 43.5752 59.7462 43.3852C59.6563 42.9407 59.5464 42.5032 59.4065 42.071C59.3425 41.8775 59.2826 41.6857 59.2067 41.4958C59.0251 41.013 58.8116 40.5399 58.5672 40.0787C58.5152 39.9776 58.4733 39.8695 58.4173 39.7702C58.4053 39.7475 58.3973 39.7231 58.3853 39.7022C58.4433 39.6935 58.4992 39.6795 58.5592 39.6708C60.0879 39.4495 61.5787 39.1828 63.0495 38.89ZM63.7549 82.3658C63.6829 82.3658 63.613 82.3658 63.543 82.3658C63.1288 82.3456 62.7182 82.2872 62.3181 82.1915C62.2321 82.1724 62.1482 82.148 62.0643 82.1253C61.6494 82.0141 61.2479 81.8682 60.8653 81.6896C60.8073 81.6634 60.7514 81.6285 60.6934 81.5989C60.3078 81.4072 59.9414 81.1874 59.5983 80.9418C59.5644 80.9174 59.5264 80.8965 59.4904 80.8703V80.8512C59.6447 80.324 59.7655 79.7899 59.8521 79.2511C59.8741 79.1204 59.8921 78.9896 59.9101 78.8572C60.0868 77.6759 60.0713 76.4789 59.8641 75.3014C59.8461 75.1864 59.8321 75.0731 59.8102 74.9528C59.6988 74.353 59.5419 73.7602 59.3405 73.1784C59.3006 73.0669 59.2566 72.9588 59.2146 72.8473C58.9978 72.2599 58.7347 71.6862 58.4273 71.1304L58.3933 71.0799C58.0843 70.5462 57.731 70.033 57.3362 69.5443C57.2943 69.4902 57.2643 69.4292 57.2223 69.37C57.2923 69.2863 57.3462 69.1957 57.4221 69.105C57.5321 68.9621 57.632 68.8139 57.7379 68.6658C58.0189 68.2719 58.2745 67.8645 58.5032 67.4457C58.5952 67.2714 58.6931 67.1145 58.777 66.942C58.813 66.867 58.8609 66.7973 58.8969 66.7223C59.2482 67.0383 59.6177 67.3385 60.004 67.6217C60.0819 67.6793 60.1659 67.7281 60.2458 67.7856C60.5875 68.0261 60.9352 68.2527 61.2929 68.4601C61.4308 68.5403 61.5727 68.6135 61.7126 68.6902C62.0256 68.8575 62.344 69.0126 62.6678 69.1556C62.8196 69.2218 62.9675 69.288 63.1214 69.3473C63.4651 69.4833 63.8128 69.6 64.1645 69.6959C64.2924 69.736 64.4203 69.7831 64.5502 69.8179C65.0022 69.9383 65.4628 70.0326 65.929 70.1003C66.1189 70.1282 66.3087 70.1369 66.5006 70.1543C66.7843 70.1822 67.0681 70.2066 67.3539 70.2136C67.4458 70.2136 67.5357 70.2328 67.6276 70.2328C67.8594 70.2328 68.0932 70.2153 68.3251 70.1996H68.423L68.447 70.2293C68.7325 70.6363 68.9836 71.061 69.1983 71.4999C69.2503 71.608 69.3022 71.7161 69.3502 71.8259C69.5597 72.2791 69.7307 72.7452 69.8618 73.2203C70.1565 74.335 70.2201 75.4866 70.0496 76.6209V76.6383C69.8376 78.6844 68.5774 80.5375 66.6205 81.6808C66.1273 81.9312 65.5957 82.119 65.0418 82.2386C64.6203 82.3263 64.1882 82.369 63.7549 82.3658ZM36.5076 80.9331C36.1526 81.1878 35.7736 81.4158 35.3745 81.6146C35.3306 81.6373 35.2866 81.6634 35.2406 81.6861C34.8446 81.8705 34.429 82.0211 33.9997 82.1358C33.9297 82.1549 33.8598 82.1741 33.7998 82.1898C33.3887 82.2876 32.9665 82.3461 32.5409 82.3641C32.4809 82.3641 32.421 82.3641 32.363 82.3641C31.9273 82.3754 31.4916 82.3391 31.0661 82.256C30.5094 82.1363 29.9751 81.9479 29.4794 81.6965C27.5194 80.5499 26.2584 78.6922 26.0483 76.6418C25.9616 76.0822 25.9342 75.5168 25.9664 74.9528C25.9986 74.3771 26.0888 73.8049 26.2361 73.2429C26.3679 72.7678 26.5395 72.3017 26.7497 71.8485C26.7977 71.7422 26.8456 71.6376 26.8956 71.5348C27.112 71.0894 27.3665 70.6588 27.657 70.2467L27.6729 70.2275H27.9687C28.1266 70.2275 28.2864 70.2502 28.4443 70.2502C28.5482 70.2502 28.6441 70.238 28.754 70.2345C28.864 70.231 28.9958 70.224 29.1177 70.2171C29.4255 70.1979 29.7332 70.1683 30.043 70.1264C30.1249 70.116 30.2048 70.1038 30.2868 70.0898C30.6291 70.0364 30.9702 69.9672 31.3099 69.8824L31.4898 69.8388C31.8415 69.7459 32.1898 69.6378 32.5349 69.5146L32.7048 69.4554C33.0425 69.3299 33.3782 69.187 33.7039 69.0318C33.7679 69.0022 33.8338 68.9761 33.9038 68.9447C34.2175 68.7913 34.5272 68.6205 34.833 68.4409C34.9089 68.3974 34.9868 68.3573 35.0608 68.312C35.3545 68.1377 35.6423 67.9355 35.9261 67.7315C36.004 67.6758 36.0839 67.627 36.1619 67.5677C36.5149 67.3051 36.858 67.0239 37.191 66.7241C37.231 66.8095 37.2849 66.8879 37.3269 66.9733C37.4028 67.1285 37.4908 67.2766 37.5727 67.4283C37.8067 67.8605 38.0689 68.2807 38.358 68.6867C38.464 68.8366 38.5579 68.9865 38.6758 69.1294C38.7437 69.2148 38.7977 69.3037 38.8656 69.3926C38.8237 69.4449 38.7937 69.5077 38.7497 69.5669C38.3563 70.0561 38.0037 70.5693 37.6946 71.1025L37.6606 71.1531C37.3532 71.7089 37.0901 72.2825 36.8733 72.8699C36.8313 72.9815 36.7873 73.0896 36.7474 73.2011C36.546 73.7828 36.3891 74.3756 36.2778 74.9755C36.2558 75.0888 36.2418 75.2038 36.2238 75.3241C36.1167 75.9538 36.0586 76.5891 36.05 77.2257C36.0466 77.7033 36.0766 78.1806 36.1399 78.655V78.6759C36.1399 78.702 36.1519 78.7264 36.1559 78.7508C36.2406 79.3923 36.3741 80.0282 36.5555 80.6542C36.5755 80.7257 36.5795 80.7971 36.6015 80.8686C36.5695 80.886 36.5376 80.9104 36.5076 80.9331ZM48.2798 40.6225H48.4396H48.6275H48.9252H49.167C49.2969 40.6225 49.4428 40.6121 49.5927 40.6051L49.9084 40.5911L50.434 40.5632L50.8336 40.5406L51.4631 40.4988L51.9267 40.4639L52.6501 40.4064L53.1897 40.3576L53.989 40.2809L54.1389 40.2669C54.3007 40.4744 54.4366 40.6992 54.5785 40.9206C54.6944 41.0949 54.8263 41.2692 54.9302 41.4626C55.0761 41.7328 55.184 42.0204 55.3019 42.3028C55.3798 42.4875 55.4738 42.6618 55.5397 42.8501C55.6496 43.1743 55.7196 43.5124 55.7935 43.8488C55.8295 44.0109 55.8874 44.1678 55.9134 44.3334C55.9953 44.8362 56.0354 45.3436 56.0333 45.8515C56.0333 46.9935 55.8235 48.128 55.4118 49.2121C54.9506 50.4354 54.1896 51.5566 53.1817 52.4976C51.8715 53.78 50.0089 54.5295 48.04 54.5666C47.7499 54.5668 47.4601 54.5499 47.1727 54.516C46.7742 54.4663 46.3821 54.3834 46.0017 54.2685C45.6712 54.1746 45.3498 54.058 45.0405 53.9199C45.0125 53.9077 44.9825 53.899 44.9545 53.8851C44.188 53.5192 43.4938 53.0484 42.8983 52.4907C42.4012 52.0309 41.9649 51.524 41.5973 50.9795C41.2191 50.4191 40.9096 49.8255 40.6741 49.2086C40.0749 47.6317 39.9059 45.9546 40.1805 44.3107C40.2145 44.1138 40.2804 43.9238 40.3244 43.7303C40.3943 43.4305 40.4543 43.1272 40.5542 42.8379C40.6381 42.5904 40.754 42.3568 40.8639 42.1163C40.9739 41.8757 41.0438 41.6683 41.1577 41.4557C41.2716 41.243 41.4435 41.0077 41.5893 40.7864C41.7092 40.6033 41.8212 40.4134 41.955 40.2408L42.2168 40.2652L42.6884 40.3105C42.9702 40.3367 43.248 40.3628 43.5117 40.3837C43.7236 40.4029 43.9114 40.4168 44.1112 40.4325L44.6228 40.4709L45.3122 40.5162L45.558 40.5301C47.0248 40.6138 47.8981 40.619 47.956 40.619H48.2758L48.2798 40.6225ZM55.9634 62.6193C55.7621 64.6969 54.7785 66.658 53.1657 68.1969C51.8606 69.4758 50.0026 70.2214 48.04 70.2537C47.7499 70.2539 47.4601 70.237 47.1727 70.2031C45.5251 69.9768 44.0163 69.2643 42.8983 68.1847C41.2876 66.6341 40.309 64.663 40.1146 62.5775C40.0669 62.2328 40.0442 61.8858 40.0466 61.5386C40.0522 60.9702 40.1097 60.4031 40.2185 59.8427C40.2505 59.6684 40.2944 59.5098 40.3364 59.3442C40.4301 58.9537 40.5503 58.5684 40.6961 58.1903C40.76 58.0265 40.822 57.8609 40.8959 57.7023C41.0945 57.2643 41.331 56.8401 41.6033 56.4333C41.6413 56.3741 41.6713 56.3096 41.7112 56.2591L41.7352 56.2329C42.1804 56.5099 42.6479 56.7587 43.1341 56.9772L43.238 57.0225C46.2401 58.4007 49.8279 58.4007 52.83 57.0225L52.9339 56.9772C53.4199 56.7591 53.8874 56.511 54.3327 56.2346H54.3467L54.3707 56.2608C54.4107 56.3183 54.4406 56.3828 54.4786 56.4351C54.751 56.8418 54.9875 57.266 55.186 57.704C55.2579 57.8626 55.3199 58.0282 55.3858 58.1921C55.5317 58.5702 55.6518 58.9555 55.7455 59.3459C55.7875 59.5115 55.8315 59.6753 55.8634 59.8444C55.9715 60.4043 56.0283 60.9709 56.0333 61.5386C56.0365 61.8998 56.0131 62.2607 55.9634 62.6193ZM42.8843 83.8596C41.9393 82.9794 41.2127 81.9387 40.75 80.8024C40.425 79.9797 40.2104 79.1269 40.1106 78.2611C40.0644 77.9175 40.043 77.5717 40.0466 77.2257C40.0522 76.6573 40.1097 76.0902 40.2185 75.5298C40.2505 75.3555 40.2944 75.1968 40.3364 75.0313C40.4301 74.6408 40.5503 74.2555 40.6961 73.8774C40.76 73.7135 40.822 73.548 40.8959 73.3893C41.0945 72.9513 41.331 72.5271 41.6033 72.1204C41.6413 72.0612 41.6713 71.9967 41.7112 71.9461L41.7352 71.92C42.1805 72.1975 42.648 72.4468 43.1341 72.666L43.236 72.7113C46.2399 74.0832 49.8241 74.0832 52.828 72.7113L52.9359 72.6625C53.422 72.4453 53.8895 72.1977 54.3347 71.9217L54.3547 71.9461C54.3927 71.9984 54.4166 72.0559 54.4526 72.1082C54.7283 72.5208 54.9681 72.9507 55.17 73.3946C55.242 73.5532 55.3019 73.7153 55.3699 73.8774C55.5173 74.2577 55.6387 74.6454 55.7336 75.0382C55.7735 75.2021 55.8175 75.3659 55.8495 75.5332C56.1981 77.3007 56.015 79.1169 55.3179 80.8041C54.8432 81.9423 54.1129 82.9864 53.1697 83.8753C51.8598 85.1517 50.0034 85.8992 48.04 85.9408C47.7499 85.941 47.4601 85.9241 47.1727 85.8902C45.519 85.6611 44.0054 84.9444 42.8843 83.8596ZM25.6386 39.141C25.7226 39.0677 25.8045 38.9893 25.8924 38.9178C26.4164 38.4938 26.9851 38.1139 27.591 37.7831C27.651 37.75 27.7149 37.7187 27.7769 37.6873C27.9028 37.7204 28.0226 37.7465 28.1485 37.7779C28.8147 37.9511 29.4701 38.1126 30.1149 38.2625L30.6904 38.3984C31.4898 38.5815 32.2771 38.747 33.0345 38.9022C33.1324 38.9231 33.2223 38.9388 33.3182 38.9562C33.9697 39.0852 34.5972 39.202 35.2067 39.3048L35.8961 39.4233C36.3817 39.5052 36.8473 39.5802 37.2949 39.6482L37.6666 39.7092C37.6546 39.7336 37.6446 39.7597 37.6306 39.7841C37.5807 39.873 37.5447 39.9671 37.4988 40.056C37.2495 40.5274 37.032 41.011 36.8473 41.5045C36.7774 41.691 36.7194 41.8775 36.6595 42.0657C36.5195 42.5026 36.4048 42.9453 36.3157 43.3922C36.2778 43.5787 36.2338 43.7617 36.2058 43.9499C35.9816 45.2586 35.9904 46.5897 36.2318 47.8961C36.2678 48.1087 36.3237 48.3179 36.3697 48.5288C36.4296 48.8007 36.4716 49.0761 36.5495 49.3445C36.4236 49.477 36.2998 49.613 36.1679 49.7367C35.968 49.9215 35.7682 50.1027 35.5684 50.2718C35.3226 50.474 35.0688 50.6588 34.809 50.8365C34.5912 50.9882 34.3714 51.1398 34.1436 51.274C33.8758 51.4327 33.602 51.5721 33.3242 51.7063C33.0924 51.8196 32.8586 51.9364 32.6228 52.034C32.3371 52.149 32.0473 52.2397 31.7555 52.3286C31.5197 52.4018 31.2839 52.4837 31.0441 52.5395C30.7475 52.6029 30.4474 52.6529 30.1449 52.6894C29.9151 52.7225 29.6833 52.7661 29.4555 52.7817C29.1464 52.7949 28.8368 52.7914 28.5282 52.7713C28.3164 52.7713 28.1046 52.7713 27.8968 52.7486C27.5663 52.7013 27.2403 52.6326 26.9216 52.543C26.7537 52.5011 26.5779 52.4819 26.416 52.4279C25.9346 52.2718 25.4775 52.064 25.0551 51.8091C24.6997 51.5924 24.3732 51.3416 24.0819 51.0614C22.717 49.7556 21.9919 48.0359 22.0616 46.2699C22.0978 44.2637 22.8239 42.3133 24.1459 40.6713C24.5877 40.1217 25.0874 39.6094 25.6386 39.141ZM22.0416 60.017C22.0273 59.5551 22.046 59.0929 22.0976 58.633C22.1136 58.4831 22.1475 58.335 22.1715 58.1868C22.2195 57.8766 22.2714 57.5663 22.3494 57.2595C22.3953 57.0852 22.4553 56.9109 22.5112 56.7366C22.5952 56.463 22.6871 56.1893 22.795 55.9209C22.8709 55.7361 22.9569 55.5531 23.0428 55.3701C23.1087 55.2289 23.1847 55.0912 23.2586 54.9518C23.3765 55.0145 23.5044 55.0511 23.6243 55.1104C23.9702 55.2826 24.3272 55.4374 24.6934 55.574C24.8933 55.6507 25.1091 55.7239 25.3189 55.7884C25.7041 55.9034 26.0964 55.9994 26.4939 56.076C26.6938 56.1144 26.8756 56.1597 27.0694 56.1876C27.5877 56.2605 28.1113 56.3012 28.6361 56.3096C28.7121 56.3096 28.788 56.3235 28.864 56.3235H28.9199C29.5102 56.3197 30.0993 56.2778 30.6824 56.198C30.8423 56.1771 30.9982 56.1423 31.158 56.1144C31.6105 56.0413 32.0581 55.9471 32.4989 55.832C32.6988 55.7797 32.8846 55.7222 33.0784 55.6577C33.506 55.5254 33.9255 55.3741 34.3354 55.2045C34.5112 55.1331 34.6871 55.0668 34.861 54.9884C35.4134 54.7397 35.9474 54.4608 36.4596 54.1535C36.4856 54.1361 36.5156 54.1239 36.5416 54.1082C37.0922 53.7663 37.6169 53.3937 38.1122 52.9926C38.1582 52.9578 38.2062 52.9316 38.2521 52.895C38.442 53.167 38.6518 53.4301 38.8516 53.6881C38.8077 53.7421 38.7777 53.8066 38.7337 53.8624C38.3405 54.3502 37.9886 54.8622 37.6806 55.3945L37.6486 55.4433C37.3412 55.9991 37.0781 56.5728 36.8613 57.1602C36.8193 57.27 36.7754 57.3781 36.7354 57.4914C36.5338 58.0725 36.3769 58.6647 36.2658 59.264C36.2438 59.3773 36.2298 59.4923 36.2118 59.6126C36.1074 60.2506 36.0533 60.8941 36.05 61.5386C36.05 61.7826 36.05 62.0249 36.0699 62.2689C36.028 62.3299 35.982 62.391 35.9381 62.452C35.5432 63.0183 35.0918 63.5532 34.5892 64.0503C34.5332 64.0921 34.4813 64.1357 34.4293 64.1828C33.9144 64.665 33.3431 65.0991 32.7247 65.4778C31.1239 66.5355 29.0843 66.9523 27.1114 66.6247C26.4984 66.5165 25.9145 66.3077 25.3908 66.0094C24.8839 65.7271 24.4285 65.3799 24.04 64.9793C22.7524 63.5685 22.0497 61.8202 22.0416 60.017ZM70.733 65.999C70.1762 66.3069 69.5591 66.5226 68.9126 66.6352C68.5186 66.7099 68.1167 66.7485 67.7136 66.7502C67.5137 66.7502 67.2919 66.7171 67.0801 66.6997C66.8683 66.6822 66.6804 66.6805 66.4806 66.6474C66.2808 66.6143 66.0609 66.548 65.8511 66.494C65.6413 66.44 65.4514 66.4051 65.2516 66.3389C65.0518 66.2726 64.8519 66.182 64.6681 66.1018C64.4843 66.0216 64.2445 65.9362 64.0386 65.8334C63.8328 65.7306 63.6789 65.6277 63.5011 65.5249C63.2893 65.4011 63.0774 65.2844 62.8736 65.1449C62.7017 65.0281 62.5399 64.8922 62.374 64.7649C62.1742 64.6098 61.9743 64.4599 61.7745 64.2891C61.6147 64.1444 61.4648 63.9858 61.3129 63.8307C61.161 63.6756 60.9532 63.4716 60.7853 63.2782C60.6175 63.0847 60.4956 62.9139 60.3557 62.7291C60.2398 62.5775 60.1239 62.4241 60.016 62.2637C60.03 62.0232 60.03 61.7809 60.03 61.5386C60.0242 60.8969 59.9681 60.2563 59.8621 59.6213C59.8441 59.5063 59.8301 59.393 59.8082 59.2727C59.697 58.6728 59.5402 58.08 59.3385 57.4983C59.2986 57.385 59.2546 57.277 59.2127 57.1672C58.9958 56.5797 58.7327 56.0061 58.4253 55.4503L58.3933 55.4015C58.0854 54.8692 57.7334 54.3571 57.3402 53.8694C57.2962 53.8136 57.2663 53.7509 57.2223 53.6951C57.4341 53.4371 57.636 53.1722 57.8218 52.902C57.8698 52.9386 57.9197 52.9665 57.9677 53.0049C58.4594 53.4014 58.9794 53.7705 59.5244 54.1099C59.5783 54.143 59.6383 54.1674 59.6923 54.2006C60.1755 54.4884 60.678 54.7509 61.197 54.9867C61.3968 55.0755 61.5967 55.1488 61.7965 55.2289C62.1842 55.3858 62.5739 55.5287 62.9695 55.6525C63.1873 55.7205 63.4052 55.785 63.625 55.8425C64.0281 55.9469 64.4369 56.0335 64.8499 56.1022C65.0498 56.1353 65.2376 56.1789 65.4335 56.2033C66.0062 56.2796 66.5846 56.3198 67.164 56.3235H67.196C67.3379 56.3235 67.4758 56.3009 67.6156 56.2974C68.0775 56.2836 68.538 56.2452 68.9945 56.1824C69.2123 56.151 69.4241 56.1004 69.638 56.0586C70.0163 55.9842 70.3899 55.8922 70.757 55.7832C70.9748 55.717 71.1887 55.642 71.4025 55.5636C71.7692 55.4254 72.1268 55.2695 72.4736 55.0965C72.5895 55.0389 72.7154 55.0041 72.8313 54.9413C72.9072 55.0877 72.9872 55.2342 73.0571 55.3823C73.1271 55.5305 73.221 55.7309 73.2929 55.9052C73.4028 56.1771 73.4927 56.4543 73.5807 56.7314C73.6346 56.9057 73.6946 57.08 73.7385 57.2543C73.8165 57.5611 73.8684 57.8696 73.9164 58.1798C73.9404 58.3298 73.9743 58.4779 73.9903 58.6278C74.0423 59.0911 74.061 59.5568 74.0463 60.0222C74.1136 62.3647 72.8807 64.5912 70.733 65.999ZM35.2506 4.21279C37.4488 4.73569 42.1948 6.6408 46.1316 13.5762C45.8078 14.0817 45.5321 14.5976 45.2223 15.1101C45.0844 15.3454 44.9346 15.579 44.8027 15.8177C44.1965 16.9054 43.6476 18.0093 43.156 19.1295C43.0461 19.3752 42.9562 19.6245 42.8523 19.872C42.4659 20.8016 42.1202 21.7382 41.8152 22.6817C41.7192 22.9728 41.6153 23.2621 41.5354 23.5532C41.4734 23.7641 41.3935 23.9698 41.3356 24.179L41.3196 24.1702C40.7201 23.7868 40.1046 23.4208 39.4591 23.0652C39.2593 22.9536 39.0475 22.8456 38.8416 22.7375C38.35 22.4795 37.8431 22.2285 37.3209 21.9845C37.1071 21.8852 36.8973 21.7841 36.6794 21.6865C35.956 21.3657 35.2127 21.0537 34.4333 20.7592C34.3514 20.7278 34.2615 20.6999 34.1795 20.6703C33.4741 20.4071 32.7427 20.1578 31.9933 19.919C31.8794 19.8824 31.7775 19.8406 31.6636 19.8058C31.6767 14.4533 32.8955 9.15532 35.2506 4.21279ZM6.27478 19.7604C14.0063 19.8216 21.6907 20.8189 29.1077 22.7235C30.019 22.985 30.8823 23.2674 31.7236 23.5585C35.2505 24.6916 38.4804 26.4312 41.2216 28.6742C41.6639 29.0507 42.0669 29.4295 42.4306 29.8106C42.5705 29.9553 42.6824 30.1 42.8123 30.2446C43.0222 30.4782 43.242 30.7135 43.4258 30.9418C43.5557 31.1057 43.6596 31.266 43.7755 31.4281C43.9294 31.6408 44.0913 31.8534 44.2251 32.0608C44.3351 32.2351 44.425 32.3955 44.5149 32.5646C44.6288 32.7615 44.7527 32.9602 44.8506 33.1537C44.9346 33.328 44.9965 33.4762 45.0704 33.6383C45.1544 33.8283 45.2483 34.02 45.3202 34.203C45.3742 34.3442 45.4142 34.4784 45.4621 34.6161C42.7936 32.7961 39.9853 31.1375 37.0571 29.652C36.1061 29.1738 34.8909 29.4542 34.3354 30.2801C33.78 31.1059 34.0922 32.1679 35.0348 32.6587C37.4791 33.9001 39.8391 35.2636 42.1029 36.7426C41.8411 36.7147 41.5893 36.6903 41.3156 36.6589C40.9339 36.6153 40.5262 36.5683 40.0946 36.5125C36.0226 35.9923 32.004 35.1921 28.0766 34.1193C27.7309 34.0304 27.3852 33.9328 27.0315 33.8335L26.6858 33.7376C25.3599 33.3271 24.0764 32.8192 22.849 32.2195C22.3294 31.9754 21.8198 31.7593 21.2883 31.4735C19.2171 30.347 17.2471 29.0849 15.3952 27.6981C12.1267 25.2596 9.07761 22.606 6.27478 19.7604ZM12.1399 32.4426C12.6827 31.9658 13.2762 31.5351 13.9124 31.1562C13.9923 31.2137 14.0703 31.2608 14.1502 31.3166C14.8476 31.8029 15.5491 32.2683 16.2245 32.7023C16.3524 32.7842 16.4803 32.8574 16.6082 32.9376C17.1957 33.3036 17.7792 33.647 18.3567 33.9729C18.5446 34.0793 18.7324 34.1856 18.9202 34.2867C19.5997 34.6562 20.2751 35.0065 20.9386 35.322L21.1384 35.4109C21.7379 35.6915 22.3374 35.9443 22.9369 36.1778C23.0328 36.2162 23.1367 36.265 23.2267 36.3016C22.9549 36.5212 22.7051 36.7652 22.4493 36.9988C22.3114 37.126 22.1635 37.2428 22.0296 37.3753C21.6092 37.7932 21.2169 38.232 20.8546 38.6895C20.4423 39.2171 20.0718 39.7686 19.7456 40.3401C19.6416 40.5144 19.5597 40.7062 19.4638 40.8892C19.264 41.2849 19.0641 41.6823 18.9082 42.0901C18.8223 42.3097 18.7504 42.5294 18.6764 42.7507C18.5485 43.1359 18.4426 43.5211 18.3567 43.9098C18.3068 44.1399 18.2568 44.3665 18.2208 44.5966C18.2008 44.7238 18.1609 44.8493 18.1449 44.9765C18.0829 44.9905 18.023 44.9957 17.963 45.0079C17.6421 45.0767 17.3173 45.1308 16.9898 45.17C16.8799 45.1822 16.77 45.1857 16.6601 45.1944C16.3923 45.2171 16.1246 45.2345 15.8608 45.2363C15.7349 45.2363 15.615 45.2363 15.4911 45.2363C15.2493 45.2275 15.0075 45.2136 14.7717 45.1875C14.6438 45.1735 14.5159 45.1561 14.39 45.1369C14.1682 45.102 13.9484 45.0602 13.7346 45.0097C13.6067 44.9783 13.4808 44.9487 13.3569 44.9121C13.157 44.8528 12.9572 44.7831 12.7574 44.7081C12.6375 44.6628 12.5176 44.6192 12.4017 44.5687C12.2018 44.4798 12.002 44.377 11.8242 44.2724C11.7262 44.2166 11.6243 44.1695 11.5304 44.1103C11.2545 43.9391 10.9952 43.7485 10.755 43.5403L10.6351 43.4357C7.67361 40.7009 8.34905 35.7682 12.1439 32.4426H12.1399ZM7.61966 49.1075C8.07743 48.352 8.63039 47.6435 9.26829 46.995C9.34422 47.042 9.42615 47.0804 9.50409 47.1239C9.58202 47.1675 9.66396 47.2128 9.74389 47.2564C10.2791 47.5529 10.8436 47.8072 11.4305 48.0164C11.4984 48.0408 11.5684 48.0582 11.6303 48.0808C12.2496 48.2891 12.8889 48.449 13.5407 48.5584C13.5747 48.5584 13.6107 48.5584 13.6446 48.5724C14.3255 48.6776 15.0154 48.7319 15.7069 48.7345H15.7729H15.8088C16.0646 48.7345 16.3204 48.717 16.5782 48.7031C16.7301 48.6944 16.8799 48.6944 17.0338 48.6804C17.3396 48.656 17.6453 48.6107 17.953 48.5654C18.061 48.5497 18.1669 48.5427 18.2728 48.5236H18.3028C18.4267 49.0504 18.5957 49.5683 18.8083 50.0731C18.8523 50.1777 18.8923 50.2823 18.9382 50.3868C19.1603 50.8773 19.4276 51.3512 19.7376 51.8039C19.8175 51.919 19.8994 52.0305 19.9834 52.1525C20.0673 52.2745 20.1172 52.3477 20.1832 52.4384C20.1252 52.5308 20.0693 52.6231 20.0133 52.7155C19.6846 53.262 19.3943 53.8255 19.1441 54.4027C19.0601 54.598 19.0002 54.7984 18.9242 54.9971C18.7764 55.3823 18.6305 55.7675 18.5246 56.1597C18.4586 56.3933 18.4167 56.6286 18.3627 56.8569C18.2808 57.2229 18.2028 57.589 18.1629 57.9602C18.1289 58.206 18.1129 58.4535 18.0949 58.701C18.0789 58.9067 18.043 59.1124 18.037 59.318C17.8791 59.4522 17.7192 59.5847 17.5534 59.7067C17.3875 59.8287 17.1817 59.9839 16.9898 60.1059C16.7254 60.2699 16.4512 60.4218 16.1685 60.5608C15.9687 60.6619 15.7689 60.7734 15.569 60.8589C15.2843 60.9728 14.9921 61.0718 14.6938 61.1552C14.4939 61.2144 14.2941 61.2929 14.0943 61.3295C13.6716 61.4247 13.2392 61.4831 12.8033 61.5038C12.7414 61.5038 12.6794 61.5229 12.6175 61.5247C11.491 61.5648 10.3768 61.3078 9.42016 60.7874C5.83714 58.7794 5.00983 53.4319 7.61966 49.1075ZM12.3577 67.9494C12.6368 66.8806 13.1249 65.8618 13.8005 64.9375L13.8625 64.927C14.1362 64.8957 14.408 64.8434 14.6818 64.7928C14.8097 64.7684 14.9396 64.7527 15.0675 64.7248C15.469 64.6365 15.8646 64.5288 16.2525 64.4024C16.3384 64.3745 16.4223 64.3362 16.5082 64.3065C16.814 64.2002 17.1197 64.0904 17.4195 63.9579C17.5634 63.8969 17.7033 63.8202 17.8451 63.7522C18.0849 63.6407 18.3227 63.5291 18.5565 63.4036L18.6245 63.3705C18.6545 63.4594 18.7044 63.5448 18.7364 63.625C18.8855 64.0356 19.0617 64.4383 19.264 64.8312C19.3239 64.9462 19.3759 65.0647 19.4398 65.1798C19.7033 65.6465 20.008 66.0946 20.351 66.5201C20.425 66.6108 20.5089 66.6944 20.5868 66.7816C20.8719 67.1116 21.1831 67.4237 21.5181 67.7159C21.634 67.8169 21.7499 67.918 21.8698 68.0156C22.2989 68.3635 22.7615 68.6784 23.2526 68.9569C23.4065 69.044 23.5644 69.1312 23.7222 69.2026C23.6783 69.2724 23.6503 69.3508 23.6083 69.424C23.4085 69.7552 23.2466 70.0951 23.0868 70.4402C23.0148 70.597 22.9329 70.7487 22.8669 70.9073C22.6597 71.4028 22.4862 71.9086 22.3474 72.422L22.3334 72.4638C22.1983 72.9949 22.1008 73.5328 22.0416 74.0743C22.0296 74.1929 22.0157 74.3097 22.0057 74.423C21.9548 74.9563 21.9428 75.4919 21.9697 76.0265C21.8658 76.0858 21.7699 76.159 21.66 76.213C21.5061 76.2949 21.3502 76.3664 21.1923 76.4361C20.9252 76.554 20.6495 76.6564 20.367 76.7429C20.2072 76.7917 20.0473 76.8422 19.8854 76.8789C19.596 76.9424 19.3013 76.9867 19.0042 77.0113C18.8603 77.0235 18.7164 77.0497 18.5725 77.0532C18.1396 77.0684 17.7062 77.0379 17.2816 76.9625C17.2217 76.9521 17.1617 76.9433 17.1018 76.9364C13.3829 76.1416 11.2586 72.1239 12.3577 67.9494ZM18.065 82.4547C18.064 81.8156 18.1403 81.1782 18.2928 80.5531H18.3467H18.3867C18.4966 80.5531 18.6045 80.5305 18.7144 80.527C19.0242 80.5095 19.3339 80.4851 19.6436 80.4485C19.9534 80.4119 20.2431 80.3771 20.5449 80.3178C20.9785 80.2351 21.4056 80.1285 21.8238 79.9988C21.9697 79.9535 22.1116 79.8995 22.2555 79.8472C22.4353 79.7827 22.6172 79.7304 22.795 79.6572C22.859 79.8071 22.9429 79.9483 23.0148 80.0947C23.1028 80.2812 23.1887 80.4677 23.2886 80.6472C23.3885 80.8268 23.5084 81.0063 23.6243 81.1841C23.7402 81.3619 23.8242 81.5118 23.9421 81.6669C24.06 81.822 24.2138 82.0155 24.3557 82.1898C24.4716 82.331 24.5855 82.4722 24.7094 82.6064C24.8633 82.772 25.0251 82.9254 25.189 83.0805C25.3209 83.206 25.4508 83.3315 25.5887 83.45C25.6446 83.4971 25.6926 83.5511 25.7485 83.5964C25.7366 83.6156 25.7286 83.6348 25.7166 83.6539C25.6646 83.7376 25.6266 83.8282 25.5747 83.9136C25.3172 84.3499 25.0916 84.7999 24.8993 85.261C24.8253 85.4353 24.7634 85.62 24.6994 85.8031C24.5553 86.2151 24.4359 86.6334 24.3417 87.0563C24.3018 87.2306 24.2578 87.4136 24.2258 87.5966C24.1202 88.2024 24.0648 88.814 24.06 89.4268C20.7547 89.4268 18.065 86.2998 18.065 82.4547ZM34.0516 96.3988C31.186 96.3988 28.6561 93.9185 28.1545 90.6016C28.0886 90.2126 28.0558 89.8199 28.0566 89.4268C28.0596 88.9938 28.0983 88.5616 28.1725 88.1335C28.1925 88.0097 28.2205 87.8877 28.2465 87.7657C28.3115 87.461 28.3956 87.1596 28.4983 86.8628C28.5382 86.746 28.5742 86.6292 28.6202 86.5142C28.77 86.1317 28.9538 85.7599 29.1697 85.4022C29.4869 85.4998 29.8098 85.583 30.1369 85.6514C30.4816 85.7213 30.8305 85.7743 31.182 85.81C31.3079 85.8222 31.4338 85.8222 31.5597 85.8309C31.7855 85.8449 32.0113 85.8641 32.2391 85.8641H32.2731C32.393 85.8641 32.5129 85.8501 32.6328 85.8466C32.8546 85.8466 33.0764 85.8344 33.2983 85.8135C33.4501 85.7996 33.6 85.7717 33.7499 85.7525C33.9497 85.7246 34.1495 85.7002 34.3494 85.6619C34.5112 85.6322 34.6691 85.5904 34.829 85.5521C34.9888 85.5137 35.2027 85.4667 35.3865 85.4126C35.5704 85.3586 35.7122 85.308 35.8741 85.254C36.036 85.2 36.2298 85.1355 36.4057 85.0658C36.5815 84.996 36.7234 84.9316 36.8833 84.8601C37.0431 84.7886 37.229 84.7085 37.3988 84.623C37.5687 84.5376 37.7006 84.4627 37.8505 84.379C37.9624 84.3163 38.0803 84.2622 38.1902 84.2047L38.2262 84.2518C38.3081 84.3686 38.398 84.4784 38.4839 84.6004C38.6058 84.766 38.7237 84.935 38.8536 85.0937C38.8097 85.1477 38.7797 85.2104 38.7377 85.268C38.3414 85.7595 37.9868 86.2757 37.6766 86.8123L37.6546 86.8471C37.3457 87.4037 37.0819 87.9786 36.8653 88.5675C36.8233 88.6773 36.7794 88.7836 36.7414 88.8934C36.54 89.4752 36.3831 90.0679 36.2718 90.6678C36.2498 90.7828 36.2358 90.8961 36.2178 91.0164C36.1129 91.6445 36.0568 92.2781 36.05 92.9128C36.0465 93.3933 36.0772 93.8736 36.1419 94.3508V94.3682C36.1419 94.4519 36.1739 94.5338 36.1858 94.6175C36.2398 95.0009 36.3018 95.3826 36.3857 95.7556C36.3857 95.7766 36.3857 95.801 36.3977 95.8219C35.6904 96.1969 34.8793 96.3964 34.0516 96.3988ZM48.04 101.628C44.414 101.382 41.3919 99.1093 40.5802 96.0171C40.3487 95.342 40.1914 94.6492 40.1106 93.9481C40.0644 93.6045 40.043 93.2587 40.0466 92.9128C40.0522 92.3444 40.1097 91.7773 40.2185 91.2169C40.2505 91.0425 40.2944 90.8839 40.3364 90.7183C40.4301 90.3279 40.5503 89.9426 40.6961 89.5645C40.76 89.4006 40.822 89.235 40.8959 89.0764C41.0945 88.6384 41.331 88.2142 41.6033 87.8075C41.6413 87.7483 41.6713 87.6838 41.7112 87.6332L41.7352 87.6071C42.1804 87.8841 42.6479 88.1328 43.1341 88.3513L43.238 88.3967C46.2404 89.7736 49.8275 89.7736 52.83 88.3967L52.9359 88.3479C53.4223 88.1311 53.8899 87.8835 54.3347 87.6071H54.3487L54.3727 87.6332C54.4127 87.6907 54.4426 87.7552 54.4806 87.8075C54.753 88.2142 54.9895 88.6384 55.188 89.0764C55.2599 89.235 55.3219 89.4006 55.3878 89.5645C55.5337 89.9426 55.6538 90.3279 55.7475 90.7183C55.7895 90.8839 55.8335 91.0478 55.8654 91.2169C55.9729 91.7774 56.029 92.3445 56.0333 92.9128C56.0334 93.9625 55.8542 95.0064 55.5017 96.0101C54.691 99.1047 51.6683 101.38 48.04 101.628ZM62.0283 96.3988C61.2004 96.3975 60.3886 96.1993 59.6803 95.8254C59.7242 95.6511 59.7442 95.4558 59.7802 95.2728C59.8162 95.0898 59.8461 94.9382 59.8721 94.7691C60.0859 93.5162 60.0825 92.2423 59.8621 90.9903C59.8441 90.8752 59.8301 90.7619 59.8082 90.6417C59.697 90.0417 59.5402 89.449 59.3385 88.8673C59.2986 88.754 59.2546 88.6459 59.2127 88.5361C58.9958 87.9487 58.7327 87.375 58.4253 86.8192L58.3933 86.7704C58.0854 86.2381 57.7334 85.7261 57.3402 85.2383C57.2962 85.1825 57.2663 85.1198 57.2223 85.064C57.4221 84.8287 57.596 84.583 57.7719 84.3337L57.8258 84.2622C57.8438 84.2361 57.8658 84.2117 57.8838 84.1855C57.9957 84.2518 58.1116 84.3076 58.2255 84.3703C58.3754 84.454 58.5252 84.5446 58.6771 84.6143C58.829 84.684 59.0188 84.7747 59.1907 84.8514C59.3625 84.9281 59.5124 84.996 59.6743 85.0605C59.8361 85.125 60.014 85.1808 60.1838 85.2348C60.3537 85.2889 60.5256 85.3551 60.6994 85.4091C60.8733 85.4632 61.0311 85.4928 61.197 85.5329C61.3629 85.573 61.5607 85.6235 61.7445 85.6584C61.9284 85.6933 62.0663 85.7072 62.2281 85.7299C62.39 85.7525 62.6078 85.7891 62.7997 85.8065C62.9575 85.8222 63.1174 85.824 63.2773 85.8309C63.4371 85.8379 63.629 85.8571 63.8068 85.8571H63.8588C64.0186 85.8571 64.1765 85.8397 64.3344 85.8327C64.5342 85.8222 64.7181 85.8205 64.9079 85.8013C65.2586 85.7648 65.6068 85.7119 65.951 85.6427C66.2755 85.5748 66.5957 85.4922 66.9102 85.3952C67.1262 85.7529 67.3099 86.1247 67.4598 86.5072C67.5057 86.6223 67.5417 86.7391 67.5817 86.8558C67.6844 87.1514 67.7684 87.4517 67.8335 87.7552C67.8594 87.879 67.8874 88.001 67.9074 88.1265C67.982 88.5569 68.0207 88.9915 68.0233 89.4268C68.0236 89.8293 67.9895 90.2313 67.9214 90.6294C67.4238 93.9185 64.8939 96.3988 62.0283 96.3988ZM72.02 89.4268C72.0147 88.8128 71.9586 88.2 71.8521 87.5931C71.8201 87.4188 71.7762 87.2323 71.7362 87.0528C71.642 86.6299 71.5226 86.2116 71.3785 85.7996C71.3146 85.6253 71.2526 85.4353 71.1787 85.2575C70.9864 84.7964 70.7608 84.3464 70.5032 83.9101C70.4513 83.8247 70.4133 83.7359 70.3614 83.6504C70.3494 83.6313 70.3414 83.6121 70.3294 83.5929C70.3773 83.5546 70.4193 83.5075 70.4673 83.4674C70.6351 83.3245 70.795 83.1711 70.9549 83.0177C71.1147 82.8643 71.2246 82.7615 71.3545 82.6255C71.4844 82.4896 71.6423 82.2944 71.7802 82.1253C71.9181 81.9562 72.02 81.8377 72.1299 81.6861C72.2398 81.5344 72.3737 81.3235 72.4896 81.1388C72.5915 80.9801 72.6894 80.8233 72.7893 80.6577C72.8892 80.4921 72.9892 80.269 73.0831 80.0703C73.149 79.9309 73.227 79.7984 73.2829 79.6572C73.4688 79.7339 73.6606 79.7914 73.8484 79.8577C73.9743 79.903 74.0982 79.95 74.2241 79.9919C74.6695 80.1328 75.1255 80.2463 75.589 80.3318C75.8368 80.3806 76.0826 80.4102 76.3304 80.4398C76.6981 80.4851 77.0678 80.5165 77.4435 80.5322C77.5254 80.5322 77.6073 80.5531 77.6912 80.5531H77.7292H77.7852C77.9383 81.1782 78.0153 81.8156 78.015 82.4547C78.015 86.2998 75.3252 89.4268 72.02 89.4268ZM78.9782 76.9416C78.9182 76.9486 78.8583 76.9573 78.7983 76.9678C78.3737 77.0429 77.9404 77.0739 77.5074 77.0601C77.3615 77.0601 77.2156 77.0305 77.0698 77.0165C76.778 76.9918 76.4888 76.9481 76.2045 76.8858C76.0346 76.8475 75.8668 76.7934 75.6969 76.7429C75.4234 76.6593 75.1564 76.5603 74.8976 76.4466C74.7337 76.3751 74.5718 76.3002 74.41 76.2165C74.3061 76.1625 74.2101 76.091 74.1062 76.0317C74.1311 75.4971 74.1191 74.9616 74.0703 74.4282C74.0703 74.3097 74.0463 74.1929 74.0343 74.0796C73.9754 73.5368 73.878 72.9978 73.7425 72.4656C73.6016 71.9403 73.4247 71.4229 73.213 70.916C73.143 70.7417 73.0571 70.5901 72.9812 70.4262C72.8233 70.0776 72.6574 69.7534 72.4696 69.4275C72.4276 69.356 72.3977 69.2776 72.3557 69.2061C72.5209 69.1271 72.6868 69.0434 72.8533 68.9551C73.3405 68.6765 73.7992 68.3616 74.2241 68.0139C74.346 67.9163 74.4619 67.8152 74.5778 67.7124C74.9067 67.4219 75.2131 67.1127 75.4951 66.7868C75.575 66.6945 75.6609 66.6125 75.7369 66.5167C76.0773 66.0928 76.3793 65.6464 76.6401 65.1815C76.7041 65.0665 76.758 64.9445 76.818 64.8329C77.0183 64.4435 77.1924 64.0443 77.3395 63.6372C77.3715 63.5501 77.4215 63.4716 77.4514 63.3827C77.4714 63.3932 77.4934 63.4019 77.5134 63.4141C77.7972 63.5692 78.0849 63.7069 78.3747 63.8411C78.4646 63.883 78.5525 63.9318 78.6444 63.9719C79.4025 64.3037 80.1999 64.562 81.0225 64.7423C81.0724 64.7545 81.1244 64.758 81.1763 64.7684C81.5198 64.842 81.8672 64.9001 82.2175 64.9427L82.2774 64.9514C82.9519 65.8727 83.4386 66.8887 83.7162 67.9546C84.8213 72.1239 82.6971 76.1416 78.9782 76.9416ZM86.6498 60.7856C85.689 61.3227 84.5576 61.5802 83.4185 61.5212C82.926 61.5079 82.4371 61.4441 81.9617 61.3312C81.7958 61.2946 81.632 61.2284 81.4681 61.1796C81.1384 61.0892 80.8159 60.9797 80.5029 60.8519C80.3131 60.7717 80.1292 60.6671 79.9434 60.573C79.6473 60.428 79.3604 60.2692 79.0841 60.0972C78.8982 59.9786 78.7204 59.8444 78.5385 59.7137C78.3567 59.583 78.2028 59.4488 78.035 59.3128C78.035 59.1054 77.995 58.9015 77.979 58.6958C77.961 58.4483 77.945 58.2042 77.9111 57.9585C77.8611 57.5855 77.7832 57.216 77.6992 56.8447C77.6473 56.6146 77.6053 56.3845 77.5414 56.1475C77.4295 55.7466 77.2836 55.3562 77.1417 54.964C77.0698 54.774 77.0118 54.5805 76.9299 54.3923C76.6806 53.8163 76.3916 53.2541 76.0646 52.7085L75.8867 52.4209C75.9687 52.3216 76.0346 52.2118 76.1126 52.1089C76.1905 52.0061 76.2345 51.9434 76.2944 51.8597C76.6298 51.3798 76.9179 50.876 77.1557 50.3537C77.1917 50.2736 77.2236 50.1899 77.2576 50.108C77.4795 49.5897 77.6546 49.057 77.7812 48.5149H77.8111C77.929 48.5358 78.047 48.5445 78.1668 48.5619C78.4606 48.6038 78.7544 48.6473 79.0461 48.6717C79.234 48.6892 79.4198 48.6892 79.6057 48.6979C79.8275 48.7083 80.0493 48.7258 80.2691 48.7258H80.3111H80.389C81.067 48.721 81.7434 48.6674 82.4113 48.5654L82.5532 48.548C83.1935 48.4387 83.822 48.2818 84.4316 48.0791C84.5116 48.0512 84.5935 48.0303 84.6734 48.0024C85.2523 47.7953 85.8092 47.5445 86.338 47.2529C86.424 47.2059 86.5119 47.1605 86.5958 47.11C86.6797 47.0594 86.7577 47.0281 86.8336 46.9793C87.4731 47.6257 88.0225 48.336 88.4703 49.0953C91.0701 53.4319 90.2428 58.7794 86.6498 60.7856ZM85.4728 43.4113L85.3349 43.5316C85.0936 43.7399 84.8337 43.9311 84.5575 44.1033C84.4676 44.1608 84.3677 44.2061 84.2738 44.2584C84.084 44.3682 83.8879 44.4694 83.6862 44.5617C83.5723 44.6105 83.4524 44.6523 83.3365 44.6977C83.1367 44.7726 82.9369 44.8441 82.737 44.9051C82.6131 44.9399 82.4872 44.9696 82.3594 45.0009C82.1455 45.0515 81.9257 45.0933 81.7039 45.1282C81.576 45.1474 81.4501 45.1648 81.3222 45.1787C81.0844 45.2049 80.8446 45.2188 80.6028 45.2275C80.4789 45.2275 80.357 45.238 80.2331 45.2275C79.9693 45.2275 79.7016 45.2084 79.4338 45.1857C79.3239 45.1857 79.216 45.1735 79.1061 45.1613C78.7793 45.1221 78.4551 45.068 78.1349 44.9992C78.0729 44.987 78.013 44.9818 77.951 44.9678C77.935 44.8406 77.8951 44.7151 77.8751 44.5879C77.8391 44.3578 77.7892 44.1312 77.7392 43.9011C77.6533 43.5124 77.5394 43.1272 77.4195 42.742C77.3455 42.5206 77.2736 42.301 77.1877 42.0814C77.0258 41.6735 76.836 41.2761 76.6301 40.8787C76.5362 40.6957 76.4543 40.511 76.3504 40.3314C76.0234 39.7596 75.6529 39.2076 75.2413 38.6791C74.8709 38.2168 74.4706 37.7733 74.0423 37.3509C73.9024 37.2132 73.7505 37.0912 73.6047 36.9587C73.3609 36.7339 73.1231 36.5003 72.8653 36.2929C72.9512 36.2615 73.0411 36.2162 73.1271 36.1813C73.7425 35.9408 74.364 35.6776 74.9915 35.3865C75.0434 35.3621 75.0934 35.3429 75.1434 35.3185C75.8208 34.9996 76.5082 34.644 77.1997 34.2727C77.3675 34.1821 77.5354 34.0862 77.7052 33.9921C78.3127 33.6435 78.9255 33.2798 79.5437 32.901C79.6456 32.8382 79.7435 32.7807 79.8455 32.7162C80.5489 32.27 81.2583 31.7907 81.9717 31.2887C82.0396 31.2434 82.1036 31.2033 82.1715 31.1562C82.8074 31.5322 83.4009 31.96 83.944 32.4339C87.7229 35.7613 88.4063 40.68 85.4728 43.4113ZM80.6768 27.6981C77.3914 30.3067 73.5737 32.3542 69.4221 33.7341L68.9006 33.884C68.5968 33.9712 68.3011 34.0583 67.9354 34.149C66.8896 34.4337 65.8298 34.6998 64.756 34.9473C61.4702 35.7025 58.133 36.2759 54.7644 36.6641C54.4906 36.6955 54.2448 36.7182 53.987 36.7461C56.2513 35.2677 58.6113 33.9042 61.0551 32.6622C61.9977 32.1714 62.3099 31.1094 61.7545 30.2836C61.199 29.4577 59.9838 29.1773 59.0328 29.6555C56.0586 31.1646 53.2093 32.8536 50.5059 34.7102C50.5519 34.5725 50.6098 34.4296 50.6638 34.2884C50.7377 34.0897 50.8017 33.8945 50.8936 33.6888C50.9855 33.4831 51.0934 33.2984 51.1913 33.1032C51.2893 32.908 51.3912 32.6779 51.5251 32.46C51.6589 32.2421 51.7928 32.0591 51.9247 31.8587C52.0566 31.6582 52.2045 31.4177 52.3744 31.1928C52.5442 30.968 52.7361 30.7675 52.9179 30.5531C53.0998 30.3388 53.2656 30.1226 53.4714 29.9065C53.7092 29.659 53.993 29.4097 54.2708 29.1622C54.4706 28.9792 54.6385 28.7979 54.8523 28.6167C55.3859 28.1662 55.9455 27.7398 56.5289 27.339C63.2793 22.6991 74.4439 20.1578 89.7592 19.7674C86.9698 22.6127 83.9333 25.2664 80.6768 27.7051V27.6981Z" fill="white" stroke="white" stroke-width="2" mask="url(#path-1-inside-1_3005_4935)"/>
<path d="M24.6689 26.2141C24.9542 25.6317 25.7498 25.286 26.5166 25.4944L26.6689 25.5442H26.6709C26.6722 25.5447 26.674 25.5461 26.6768 25.5471C26.6825 25.5492 26.6916 25.5525 26.7031 25.5569C26.7262 25.5656 26.761 25.5785 26.8066 25.5959C26.8983 25.6309 27.0345 25.684 27.2109 25.7531C27.5621 25.8908 28.0735 26.0936 28.7129 26.3586V26.3596C29.4095 26.6661 29.6542 27.3191 29.4307 27.8606L29.3799 27.967C29.071 28.5337 28.2777 28.8503 27.5293 28.634L27.3809 28.5832C26.7896 28.3384 26.3133 28.1476 25.9814 28.0168C25.8149 27.9512 25.6836 27.9001 25.5918 27.8654C25.5465 27.8483 25.5088 27.8345 25.4805 27.8244C25.4668 27.8196 25.4514 27.8142 25.4375 27.8098H25.4385C24.707 27.5326 24.4239 26.8763 24.6221 26.3235L24.6689 26.2141Z" fill="white" stroke="white"/>
<path d="M69.4087 25.5368C70.1692 25.2534 70.9944 25.5452 71.3452 26.0944L71.4097 26.2077C71.6734 26.7467 71.45 27.4235 70.772 27.7477L70.6304 27.8073C70.5847 27.8241 70.3998 27.894 70.0972 28.0124L68.687 28.5807L68.6831 28.5827C68.53 28.6478 68.3641 28.6901 68.1929 28.7077L68.0259 28.7067C67.3271 28.7031 66.7805 28.3094 66.6011 27.822L66.5698 27.7233C66.4368 27.2107 66.713 26.629 67.3589 26.3561L67.3579 26.3552C68.0009 26.0886 68.5152 25.8849 68.8677 25.7468C69.0441 25.6776 69.1803 25.6246 69.272 25.5895C69.3176 25.5721 69.3524 25.5592 69.3755 25.5505C69.3868 25.5462 69.3952 25.5428 69.4009 25.5407C69.4037 25.5396 69.4064 25.5383 69.4077 25.5378H69.4097L69.4087 25.5368Z" fill="white" stroke="white"/>
</svg>
