<svg width="21" height="21" viewBox="0 0 21 21" fill="none" xmlns="http://www.w3.org/2000/svg">
<rect x="1" y="1" width="19" height="19" rx="2" stroke="white" stroke-width="2"/>
<path d="M7.8501 4.75781V14H5.95215V4.75781H7.8501ZM11.3096 8.59814V14H9.48145V7.13184H11.1953L11.3096 8.59814ZM11.043 10.3247H10.5479C10.5479 9.81689 10.6134 9.35986 10.7446 8.95361C10.8758 8.54313 11.0599 8.19401 11.2969 7.90625C11.5339 7.61426 11.8153 7.39209 12.1411 7.23975C12.4712 7.08317 12.8394 7.00488 13.2456 7.00488C13.5672 7.00488 13.8613 7.05143 14.1279 7.14453C14.3945 7.23763 14.623 7.38574 14.8135 7.58887C15.0081 7.79199 15.1562 8.06071 15.2578 8.39502C15.3636 8.72933 15.4165 9.1377 15.4165 9.62012V14H13.5757V9.61377C13.5757 9.30908 13.5334 9.0721 13.4487 8.90283C13.3641 8.73356 13.2393 8.61507 13.0742 8.54736C12.9134 8.47542 12.7145 8.43945 12.4775 8.43945C12.2321 8.43945 12.0184 8.48812 11.8364 8.58545C11.6587 8.68278 11.5106 8.8182 11.3921 8.9917C11.2778 9.16097 11.1911 9.35986 11.1318 9.58838C11.0726 9.81689 11.043 10.0623 11.043 10.3247Z" fill="white"/>
</svg>
