<svg width="105" height="36" viewBox="0 0 105 36" fill="none" xmlns="http://www.w3.org/2000/svg">
<path d="M18.2487 25.9157C22.6168 25.9157 26.158 22.3643 26.158 17.9833C26.158 13.6023 22.6168 10.0508 18.2487 10.0508C13.8805 10.0508 10.3394 13.6023 10.3394 17.9833C10.3394 22.3643 13.8805 25.9157 18.2487 25.9157Z" fill="white"/>
<path d="M18.2486 7.93248L21.8348 4.33577V0H14.646V4.33577L18.2486 7.93248Z" fill="white"/>
<path d="M13.2378 9.296L14.5478 4.35257L12.3862 0.575195L6.14722 4.20476L8.30877 7.94928L13.2378 9.296Z" fill="white"/>
<path d="M9.55344 12.9582L8.24341 8.03116L4.47708 5.86328L0.890869 12.1042L4.65721 14.2885L9.55344 12.9582Z" fill="white"/>
<path d="M8.21059 17.9834L4.62439 14.3867H0.284912V21.5966H4.62439L8.21059 17.9834Z" fill="white"/>
<path d="M9.55344 23.0092L4.65721 21.6953L0.890869 23.8632L4.47708 30.1205L8.24341 27.9526L9.55344 23.0092Z" fill="white"/>
<path d="M13.205 26.7041L8.30877 28.018L6.14722 31.7953L12.3862 35.3756L14.5478 31.6147L13.205 26.7041Z" fill="white"/>
<path d="M18.2486 28.0508L14.646 31.6475V35.9997H21.8348V31.6475L18.2486 28.0508Z" fill="white"/>
<path d="M23.2595 26.7041L21.9331 31.6147L24.111 35.3756L30.3337 31.7953L28.1721 28.018L23.2595 26.7041Z" fill="white"/>
<path d="M26.9114 23.0092L28.2214 27.9526L31.9877 30.1205L35.6067 23.8632L31.8404 21.6953L26.9114 23.0092Z" fill="white"/>
<path d="M28.2705 17.9834L31.8567 21.5966H36.1798V14.3867H31.8567L28.2705 17.9834Z" fill="white"/>
<path d="M26.9114 12.9582L31.8404 14.2885L35.6067 12.1042L31.9877 5.86328L28.2542 8.03116L26.9114 12.9582Z" fill="white"/>
<path d="M23.2595 9.296L28.1721 7.98213L30.3337 4.20476L24.111 0.575195L21.9331 4.35257L23.2595 9.296Z" fill="white"/>
<path d="M46.7255 0.508789C49.3947 0.508789 50.7211 1.82266 50.7211 1.82266L49.4274 4.20404C49.4274 4.20404 48.494 3.26791 46.9547 3.26791C45.0224 3.26791 44.2528 4.45039 44.2528 5.78069C44.2528 7.35733 45.2845 8.47412 46.8565 8.47412C47.8226 8.47412 48.5759 7.96499 48.6578 7.83361V7.37375H47.3477V5.1566H51.2123V10.9705H48.7397V10.527C48.7397 10.3628 48.756 10.2314 48.7724 10.1986H48.7069C48.5759 10.3792 47.7571 11.1511 46.1032 11.1511C43.3194 11.1511 41.0269 9.06536 41.0269 5.84638C41.076 2.82448 43.303 0.508789 46.7255 0.508789Z" fill="white"/>
<path d="M63.9361 0.886719H68.3083C70.519 0.886719 72.0255 2.08562 72.0255 4.20424C72.0255 5.3703 71.436 6.45424 70.4862 7.02905V7.0619C70.519 7.11117 70.7155 7.37395 70.9283 7.75168L72.6969 10.9871H69.3891L67.817 7.81738H66.9655V10.9871H63.9197V0.886719H63.9361ZM67.8825 5.46884C68.5703 5.46884 68.9469 5.05825 68.9469 4.40132C68.9469 3.74438 68.6849 3.35022 67.7679 3.35022H66.9655V5.45241L67.8825 5.46884Z" fill="white"/>
<path d="M73.4502 0.886719H77.544C80.6554 0.886719 82.6368 2.72614 82.6368 5.91227C82.6368 9.0984 80.6554 10.9871 77.544 10.9871H73.4502V0.886719ZM77.3475 8.49073C78.7067 8.49073 79.5091 7.6203 79.5091 5.91227C79.5091 4.20424 78.6576 3.36665 77.3475 3.36665H76.496V8.49073H77.3475Z" fill="white"/>
<path d="M95.3113 0.886719H98.2097L100.699 5.0254C101.108 5.71519 101.419 6.5692 101.419 6.5692H101.468C101.468 6.5692 101.354 5.66592 101.354 5.0254V0.886719H104.285V10.9871H101.337L98.832 6.65132C98.4717 6.04365 98.1115 5.12395 98.1115 5.12395H98.0624C98.0624 5.12395 98.177 6.01081 98.177 6.65132V10.9871H95.2949L95.3113 0.886719Z" fill="white"/>
<path d="M41.8456 13.3027H45.1698L46.4307 17.3757C46.6272 18.0162 46.8401 19.0016 46.8401 19.0016H46.8892C46.8892 19.0016 47.1021 18.0327 47.2986 17.3757L48.5595 13.3027H51.8673L52.6042 23.4031H49.7713L49.4929 19.1987C49.4438 18.4432 49.4929 17.5728 49.4929 17.5728H49.4438C49.4438 17.5728 49.1981 18.5582 48.9852 19.1987L48.0682 22.0728H45.6447L44.7113 19.1987C44.5148 18.5582 44.2528 17.5728 44.2528 17.5728H44.2036C44.2036 17.5728 44.2364 18.4268 44.1873 19.1987L43.9253 23.4031H41.0596L41.8456 13.3027Z" fill="white"/>
<path d="M58.7614 13.0566C62.0692 13.0566 64.2799 15.3231 64.2799 18.3121C64.2799 21.3012 62.0692 23.699 58.7614 23.699C55.4536 23.699 53.2429 21.3833 53.2429 18.3121C53.2429 15.2409 55.4536 13.0566 58.7614 13.0566ZM58.7614 20.9563C60.1042 20.9563 61.0867 19.8888 61.0867 18.3285C61.0867 16.7683 60.1206 15.8158 58.7614 15.8158C57.4023 15.8158 56.4361 16.834 56.4361 18.3285C56.4361 19.8231 57.4186 20.9563 58.7614 20.9563Z" fill="white"/>
<path d="M57.5495 0.689453C60.8573 0.689453 63.068 2.95588 63.068 5.94493C63.068 8.93398 60.8573 11.3318 57.5495 11.3318C54.2417 11.3318 52.031 9.0161 52.031 5.94493C52.0474 2.95588 54.2417 0.689453 57.5495 0.689453ZM57.5495 8.58909C58.8923 8.58909 59.8748 7.52157 59.8748 5.96135C59.8748 4.40113 58.9087 3.44858 57.5495 3.44858C56.1904 3.44858 55.2242 4.46682 55.2242 5.96135C55.2242 7.45588 56.2067 8.58909 57.5495 8.58909Z" fill="white"/>
<path d="M88.8757 0.689453C92.1835 0.689453 94.3942 2.95588 94.3942 5.94493C94.3942 8.93398 92.1835 11.3318 88.8757 11.3318C85.5679 11.3318 83.3572 9.0161 83.3572 5.94493C83.3572 2.87376 85.5679 0.689453 88.8757 0.689453ZM88.8757 8.58909C90.2185 8.58909 91.201 7.52157 91.201 5.96135C91.201 4.40113 90.2348 3.44858 88.8757 3.44858C87.5165 3.44858 86.5504 4.46682 86.5504 5.96135C86.5504 7.45588 87.5165 8.58909 88.8757 8.58909Z" fill="white"/>
<path d="M70.3879 13.0566C73.6957 13.0566 75.9064 15.3231 75.9064 18.3121C75.9064 21.3012 73.6957 23.699 70.3879 23.699C67.0801 23.699 64.8694 21.3833 64.8694 18.3121C64.8694 15.2409 67.0964 13.0566 70.3879 13.0566ZM70.3879 20.9563C71.7307 20.9563 72.7132 19.8888 72.7132 18.3285C72.7132 16.7683 71.747 15.8158 70.3879 15.8158C69.0287 15.8158 68.0626 16.834 68.0626 18.3285C68.0626 19.8231 69.0451 20.9563 70.3879 20.9563Z" fill="white"/>
<path d="M76.9216 13.3027H81.0155C84.1268 13.3027 86.1082 15.1422 86.1082 18.3283C86.1082 21.5144 84.1268 23.4031 81.0155 23.4031H76.9216V13.3027ZM80.819 20.9232C82.1781 20.9232 82.9805 20.0527 82.9805 18.3447C82.9805 16.6367 82.129 15.7991 80.819 15.7991H79.9675V20.9232H80.819Z" fill="white"/>
<path d="M88.7939 19.4124L85.4697 13.3193H88.7284L89.6946 15.4051C89.973 16.0456 90.2677 16.9325 90.2677 16.9325H90.3168C90.3168 16.9325 90.6116 16.0456 90.9064 15.4051L91.8561 13.3193H95.1312L91.8561 19.4124V23.4033H88.8103L88.7939 19.4124Z" fill="white"/>
<path d="M58.27 29.5127C58.27 29.0857 58.0572 28.79 57.6641 28.79H57.1401V30.2681H57.746C58.0572 30.2681 58.27 29.9397 58.27 29.5127Z" fill="white"/>
<path d="M57.8279 31.0732H57.1401V32.7648H57.7133C58.2209 32.7648 58.4502 32.4035 58.4502 31.9273C58.4502 31.4181 58.2045 31.0732 57.8279 31.0732Z" fill="white"/>
<path d="M61.578 28.9219H61.5616C61.5616 28.9219 61.4798 29.4803 61.3979 29.8087L61.0212 31.3525H62.102L61.7418 29.8087C61.6599 29.4803 61.578 28.9219 61.578 28.9219Z" fill="white"/>
<path d="M53.2265 28.7734C52.4241 28.7734 51.9329 29.5453 51.9329 30.7442C51.9329 31.9431 52.4077 32.7972 53.2265 32.7972C54.0453 32.7972 54.5038 31.9924 54.5038 30.7607C54.5202 29.5289 54.0289 28.7734 53.2265 28.7734Z" fill="white"/>
<path d="M88.0241 28.7734C87.2217 28.7734 86.7305 29.5453 86.7305 30.7442C86.7305 31.9431 87.2053 32.7972 88.0241 32.7972C88.8429 32.7972 89.3014 31.9924 89.3014 30.7607C89.3014 29.5289 88.8265 28.7734 88.0241 28.7734Z" fill="white"/>
<path d="M99.4706 25.8506H40.9614V35.3104H99.6508L104.187 30.5148L99.4706 25.8506ZM47.4952 33.6353H46.7256V33.4218C46.7256 33.3232 46.7419 33.2083 46.7419 33.2083H46.7256C46.4963 33.5203 46.0378 33.7338 45.5302 33.7338C44.3675 33.7338 43.2867 32.6499 43.2867 30.794C43.2867 28.9382 44.2529 27.8214 45.743 27.8214C46.267 27.8214 46.8566 28.002 47.2496 28.3141L46.8402 29.1353C46.5782 28.8889 46.2015 28.7247 45.7922 28.7247C44.826 28.7247 44.2856 29.5623 44.2856 30.7283C44.2856 31.9601 44.8915 32.7484 45.7103 32.7484C46.0705 32.7484 46.4144 32.617 46.6273 32.3378V31.4345H45.9723V30.5641H47.4788L47.4952 33.6353ZM50.9995 33.6353H48.183V27.9199H49.1655V32.7648H50.9995V33.6353ZM53.2266 33.7338C51.8183 33.7338 50.934 32.502 50.934 30.7447C50.934 28.9874 51.8183 27.8378 53.2266 27.8378C54.6349 27.8378 55.5191 29.0367 55.5191 30.7612C55.5355 32.4856 54.6349 33.7338 53.2266 33.7338ZM57.7298 33.6353H56.1578V27.9199H57.6971C58.5977 27.9199 59.2691 28.4455 59.2691 29.398C59.2691 29.94 59.0235 30.3999 58.5977 30.6134V30.6298C59.1872 30.8104 59.4492 31.3688 59.4492 31.9765C59.4492 33.1261 58.7451 33.6353 57.7298 33.6353ZM62.6097 33.6353L62.2494 32.1572H60.8575L60.5136 33.6353H59.5311L61.0376 27.9199H62.102L63.6086 33.6353H62.6097ZM66.8018 33.6353H63.9852V27.9199H64.9677V32.7648H66.8018V33.6353ZM72.1893 33.6353H71.174L69.7002 30.3999C69.5528 30.0385 69.4055 29.5294 69.4055 29.5294H69.3727C69.3727 29.5294 69.4218 30.0714 69.4218 30.3999V33.6353H68.5048V27.9199H69.5365L71.0102 31.1553C71.1576 31.5002 71.305 32.0258 71.305 32.0258H71.3377C71.3377 32.0258 71.2886 31.4838 71.2886 31.1553V27.9199H72.2056L72.1893 33.6353ZM75.8737 33.6353H73.0735V27.9199H75.7755V28.7904H74.0397V30.3177H75.4316V31.1882H74.0397V32.7648H75.8737V33.6353ZM79.7547 28.7904H78.3792V33.6353H77.413V28.7904H76.0375V27.9199H79.7547V28.7904ZM84.5036 33.6353H83.3736L82.7841 30.2685C82.735 29.8907 82.7023 29.513 82.7023 29.513H82.6695C82.6695 29.513 82.6531 29.8907 82.5876 30.2685L81.9817 33.6353H80.8518L79.8038 27.9199H80.77L81.3922 31.8615C81.4414 32.1407 81.4414 32.502 81.4414 32.502H81.4741C81.4741 32.502 81.4905 32.1407 81.5396 31.8615L82.2274 27.9199H83.1608L83.8158 31.8615C83.8649 32.1407 83.8813 32.502 83.8813 32.502H83.914C83.914 32.502 83.9304 32.1407 83.9632 31.8615L84.5854 27.9199H85.5352L84.5036 33.6353ZM88.0243 33.7338C86.616 33.7338 85.7317 32.502 85.7317 30.7447C85.7317 28.9874 86.616 27.8378 88.0243 27.8378C89.4325 27.8378 90.3168 29.0367 90.3168 30.7612C90.3168 32.4856 89.4162 33.7338 88.0243 33.7338ZM93.4118 33.6353L92.5439 31.5002H91.9216V33.6353H90.9391V27.9199H92.593C92.8059 27.9199 93.1006 27.9692 93.3463 28.1006C93.8539 28.3469 94.1978 28.8889 94.1978 29.628C94.1978 30.367 93.7884 30.9418 93.3626 31.2046V31.221C93.3626 31.221 93.4281 31.3196 93.5264 31.5331L94.4762 33.6517H93.4118V33.6353ZM97.3746 33.6353L96.3266 31.1389H95.9172V33.6353H94.9347V27.9199H95.9172V30.2356H96.3266L97.3582 27.9199H98.4062L97.1945 30.6462V30.6626L98.4717 33.6353H97.3746Z" fill="white"/>
<path d="M92.9039 28.938C92.7729 28.8559 92.5928 28.8066 92.4618 28.8066H91.9214V30.6461H92.4454C92.8384 30.6461 93.215 30.3012 93.215 29.7099C93.215 29.365 93.1004 29.0858 92.9039 28.938Z" fill="white"/>
</svg>
