<svg width="122" height="36" viewBox="0 0 122 36" fill="none" xmlns="http://www.w3.org/2000/svg">
<g clip-path="url(#clip0_61_1213)">
<path d="M45.9547 13.825C46.0354 14.1283 45.9345 14.3103 45.6926 14.3912L43.3738 15.0787C43.0915 15.1595 42.9504 15.0787 42.8496 14.7956C42.4866 13.6026 41.7204 12.9758 40.2888 12.9758C38.1112 12.9758 37.3651 14.2699 37.3651 16.0088V20.0122C37.3651 21.7511 38.091 23.0451 40.2888 23.0451C42.0833 23.0451 43.031 22.2161 43.031 20.3762V19.8505H40.6719C40.4703 19.8505 40.3493 19.7494 40.3493 19.5067V17.2826C40.3291 17.1208 40.4501 16.9591 40.6316 16.9389H45.9144C46.1362 16.9389 46.2572 17.0399 46.2572 17.2624V20.5784C46.2572 23.7326 43.9384 26.1185 40.3291 26.1185C36.0545 26.1185 34.0583 23.5709 34.0583 20.0931V15.8672C34.0583 12.3895 36.0545 9.8418 40.3291 9.8418C43.7771 9.86202 45.3296 11.8435 45.9547 13.825ZM57.7099 17.7679V25.5321C57.7301 25.6939 57.5889 25.8354 57.4276 25.8557H55.0282C54.8669 25.8759 54.7056 25.7546 54.6854 25.5726V24.2583C53.9999 25.4108 52.7699 26.1185 51.419 26.0983C49.1808 26.0983 47.7492 24.6627 47.7492 22.4386C47.7492 20.2144 49.1002 19.0012 52.407 18.7586C53.1127 18.6979 53.8386 18.6979 54.5644 18.7384V17.8689C54.5644 16.7164 53.9595 16.2514 52.9312 16.2514C51.9029 16.2514 51.5803 16.676 51.298 17.3432C51.1972 17.6061 51.0963 17.6465 50.8745 17.5859L48.5154 16.9793C48.2735 16.9186 48.2533 16.7771 48.2936 16.6153C48.6163 14.9169 50.2293 13.6633 53.0522 13.6633C56.0364 13.6835 57.7099 15.1191 57.7099 17.7679ZM54.5644 21.8522V20.7199C53.9394 20.6997 53.2941 20.7199 52.6691 20.7806C51.4593 20.9221 50.8342 21.3063 50.8342 22.2161C50.8342 23.0451 51.3988 23.5102 52.3061 23.5102C53.3546 23.5102 54.1813 22.944 54.5644 21.8522ZM66.2188 13.6835C67.7109 13.6835 68.6989 14.5732 69.1627 15.847C70.0499 14.5529 71.1185 13.6835 72.6106 13.6835C74.6874 13.6835 75.877 15.3415 75.877 17.8083V25.5321C75.877 25.7343 75.6956 25.8557 75.4939 25.8557H73.034C72.8122 25.8557 72.6509 25.7343 72.6509 25.5321V18.3744C72.6509 17.3028 72.1872 16.6558 71.3403 16.6558C70.4934 16.6558 69.8079 17.3837 69.5054 18.4958V25.5321C69.5256 25.6939 69.3845 25.8354 69.2232 25.8557H66.5414C66.3398 25.8557 66.2592 25.7343 66.2592 25.5321V18.3744C66.2592 17.3028 65.7752 16.6558 64.9485 16.6558C64.0412 16.6558 63.396 17.4241 63.1137 18.5362V25.5524C63.1338 25.7141 63.0129 25.8557 62.8516 25.8759H60.19C60.0287 25.8961 59.8875 25.7748 59.8674 25.613V14.2699C59.8674 14.1081 60.0085 13.9666 60.1698 13.9666H62.6902C62.8516 13.9464 62.9927 14.0677 63.0129 14.2497V15.6246C63.6984 14.6136 64.7267 13.6835 66.2188 13.6835ZM89.3663 13.9464C89.4268 14.2294 89.3461 14.4316 89.084 14.5125L86.8056 15.1798C86.5233 15.2606 86.3821 15.1595 86.2813 14.8967C85.9587 13.825 85.3941 12.9556 83.8214 12.9556C81.8656 12.9556 81.2405 14.2497 81.2405 15.9885V19.992C81.2405 21.7309 81.9462 23.0249 83.8214 23.0249C85.4949 23.0249 86.1402 22.0746 86.4023 20.9019C86.4628 20.639 86.6443 20.5177 86.9265 20.6188L89.205 21.3467C89.4671 21.4276 89.5478 21.6298 89.4873 21.9129C88.9429 24.2381 87.2693 26.1387 83.8012 26.1387C79.8896 26.1387 77.9337 23.5911 77.9337 20.1133V15.8874C77.9337 12.4097 79.95 9.86202 83.8012 9.86202C87.1887 9.86202 88.7816 11.6616 89.3663 13.9464ZM100.799 17.7679V25.5321C100.819 25.6939 100.678 25.8354 100.517 25.8557H98.1172C97.9559 25.8759 97.7946 25.7546 97.7744 25.5726V24.2583C97.0889 25.4108 95.8589 26.1185 94.5079 26.0983C92.2698 26.0983 90.8382 24.6627 90.8382 22.4386C90.8382 20.2144 92.1892 19.0012 95.496 18.7586C96.2017 18.6979 96.9275 18.6979 97.6534 18.7384V17.8689C97.6534 16.7164 97.0485 16.2514 96.0202 16.2514C94.9919 16.2514 94.6693 16.676 94.387 17.3432C94.2862 17.6061 94.1853 17.6465 93.9635 17.5859L91.6044 16.9793C91.3625 16.9186 91.3423 16.7771 91.3826 16.6153C91.7052 14.9169 93.3183 13.6633 96.1412 13.6633C99.1253 13.6835 100.799 15.1191 100.799 17.7679ZM97.6333 21.8522V20.7199C97.0082 20.6997 96.363 20.7199 95.7379 20.7806C94.5281 20.9221 93.903 21.3063 93.903 22.2161C93.903 23.0451 94.4676 23.5102 95.375 23.5102C96.4436 23.5102 97.2502 22.944 97.6333 21.8522ZM109.973 14.1688V16.4738C109.973 16.7569 109.872 16.858 109.59 16.858H109.247C107.533 16.858 106.525 17.6263 106.183 18.9204V25.5524C106.203 25.7141 106.082 25.8557 105.92 25.8759H103.198C103.037 25.8759 102.916 25.7343 102.916 25.5726V14.2497C102.916 14.0879 103.037 13.9464 103.178 13.9464H105.658C105.92 13.9464 105.981 14.1081 105.981 14.2901V15.8874C106.545 14.836 107.594 13.8048 109.429 13.8048C109.893 13.8048 109.973 13.8655 109.973 14.1688ZM114.187 20.9019V21.3467C114.187 22.6003 114.833 23.4698 116.345 23.4698C117.857 23.4698 118.24 22.9036 118.623 22.1959C118.825 21.8724 118.906 21.832 119.248 21.9735L120.942 22.843C121.285 23.0249 121.305 23.1867 121.164 23.5102C120.438 25.1682 118.603 26.1185 116.345 26.1185C112.917 26.1185 111.102 24.0763 111.102 21.286V18.5362C111.102 15.8268 112.796 13.7037 116.304 13.7037C119.813 13.7037 121.285 15.8268 121.285 18.4755V20.3762C121.285 20.6997 121.184 20.9221 120.72 20.9221L114.187 20.9019ZM114.187 18.3744V18.7788H118.321V18.3744C118.321 17.2219 117.676 16.312 116.264 16.312C114.853 16.312 114.187 17.2219 114.187 18.3744Z" fill="white"/>
<path d="M15.1251 0.5H0.728505C0.486545 0.5 0.284912 0.702195 0.284912 0.94483V21.9327C0.284912 29.4139 6.3339 35.5 13.8145 35.5H15.1251C22.5855 35.5 28.6345 29.4341 28.6345 21.9327V14.0673C28.6547 6.56586 22.6057 0.5 15.1251 0.5ZM24.3196 22.1551C24.3196 27.2504 20.5692 31.1124 14.7622 31.1124C7.86632 31.1124 4.64019 27.0078 4.64019 21.3868V14.5728C4.64019 8.95176 7.86632 4.8472 14.7622 4.8472C20.3474 4.8472 22.8678 8.04188 23.876 11.2366C24.0171 11.7218 23.8357 12.0049 23.4526 12.1464L19.7022 13.2585C19.2586 13.4001 19.0166 13.2585 18.8755 12.8137C18.2907 10.8928 17.0406 9.86164 14.7622 9.86164C11.2336 9.86164 10.044 11.9443 10.044 14.7548V21.225C10.044 24.0355 11.2134 26.1181 14.7622 26.1181C17.6657 26.1181 19.1981 24.7634 19.1981 21.8114V20.9824H15.3267C15.0243 20.9824 14.8025 20.8004 14.8025 20.4365V16.8576C14.8025 16.5139 15.0041 16.2914 15.3267 16.2914H23.7752C24.1179 16.2914 24.3196 16.4734 24.3196 16.8172V22.1551Z" fill="white"/>
</g>
<defs>
<clipPath id="clip0_61_1213">
<rect width="121" height="35" fill="white" transform="translate(0.284912 0.5)"/>
</clipPath>
</defs>
</svg>
