<svg width="51" height="52" viewBox="0 0 51 52" fill="none" xmlns="http://www.w3.org/2000/svg">
<circle cx="25.5" cy="25.9998" r="24.54" fill="#C9C9C9" fill-opacity="0.29" stroke="white" stroke-width="1.51018"/>
<path d="M14.7796 17.3885V33.0107H12.8055V19.8535L8.82522 21.3047V19.5227L14.4702 17.3885H14.7796ZM30.3805 28.8064C30.3805 29.7525 30.16 30.5564 29.7189 31.218C29.285 31.8725 28.6945 32.3705 27.9476 32.712C27.2077 33.0534 26.3718 33.2242 25.4399 33.2242C24.508 33.2242 23.6685 33.0534 22.9215 32.712C22.1746 32.3705 21.5841 31.8725 21.1502 31.218C20.7162 30.5564 20.4992 29.7525 20.4992 28.8064C20.4992 28.1875 20.6166 27.6219 20.8514 27.1097C21.0933 26.5904 21.4312 26.1386 21.8651 25.7545C22.3062 25.3703 22.8255 25.0751 23.4231 24.8688C24.0278 24.6554 24.6929 24.5487 25.4186 24.5487C26.3718 24.5487 27.2219 24.7336 27.9689 25.1036C28.7159 25.4664 29.3028 25.9679 29.7296 26.6082C30.1636 27.2484 30.3805 27.9812 30.3805 28.8064ZM28.3957 28.7637C28.3957 28.1875 28.2713 27.6788 28.0223 27.2378C27.7733 26.7896 27.4247 26.441 26.9765 26.192C26.5283 25.943 26.009 25.8185 25.4186 25.8185C24.8139 25.8185 24.291 25.943 23.8499 26.192C23.416 26.441 23.0781 26.7896 22.8362 27.2378C22.5943 27.6788 22.4734 28.1875 22.4734 28.7637C22.4734 29.3613 22.5907 29.8735 22.8255 30.3003C23.0674 30.72 23.4089 31.0437 23.8499 31.2714C24.2981 31.4919 24.8281 31.6022 25.4399 31.6022C26.0517 31.6022 26.5781 31.4919 27.0192 31.2714C27.4603 31.0437 27.7982 30.72 28.0329 30.3003C28.2748 29.8735 28.3957 29.3613 28.3957 28.7637ZM30.0177 21.5181C30.0177 22.2722 29.8185 22.9516 29.4202 23.5563C29.0218 24.161 28.4776 24.6376 27.7875 24.9862C27.0974 25.3348 26.3149 25.5091 25.4399 25.5091C24.5506 25.5091 23.7574 25.3348 23.0603 24.9862C22.3702 24.6376 21.8296 24.161 21.4383 23.5563C21.047 22.9516 20.8514 22.2722 20.8514 21.5181C20.8514 20.6147 21.047 19.8463 21.4383 19.2132C21.8367 18.5801 22.3809 18.0963 23.0709 17.762C23.761 17.4276 24.5471 17.2604 25.4292 17.2604C26.3185 17.2604 27.1081 17.4276 27.7982 17.762C28.4882 18.0963 29.0289 18.5801 29.4202 19.2132C29.8185 19.8463 30.0177 20.6147 30.0177 21.5181ZM28.0436 21.5501C28.0436 21.0308 27.9333 20.572 27.7128 20.1736C27.4923 19.7752 27.1864 19.4622 26.7951 19.2345C26.4038 18.9998 25.9485 18.8824 25.4292 18.8824C24.9099 18.8824 24.4546 18.9927 24.0633 19.2132C23.6792 19.4266 23.3768 19.7325 23.1563 20.1309C22.9429 20.5293 22.8362 21.0024 22.8362 21.5501C22.8362 22.0837 22.9429 22.5497 23.1563 22.948C23.3768 23.3464 23.6827 23.6559 24.074 23.8764C24.4653 24.0969 24.9206 24.2072 25.4399 24.2072C25.9592 24.2072 26.4109 24.0969 26.7951 23.8764C27.1864 23.6559 27.4923 23.3464 27.7128 22.948C27.9333 22.5497 28.0436 22.0837 28.0436 21.5501ZM43.0683 24.6767V26.5335H32.4187V24.6767H43.0683ZM38.7359 20.1416V31.4528H36.7618V20.1416H38.7359Z" fill="white"/>
</svg>
