<svg width="20" height="20" viewBox="0 0 20 20" fill="none" xmlns="http://www.w3.org/2000/svg">
<path d="M17.5 12.5H2.5C1.83696 12.5 1.20107 12.2366 0.732234 11.7678C0.263393 11.2989 0 10.663 0 10C0 9.33696 0.263393 8.70107 0.732234 8.23223C1.20107 7.76339 1.83696 7.5 2.5 7.5H17.5C18.163 7.5 18.7989 7.76339 19.2678 8.23223C19.7366 8.70107 20 9.33696 20 10C20 10.663 19.7366 11.2989 19.2678 11.7678C18.7989 12.2366 18.163 12.5 17.5 12.5Z" fill="url(#paint0_linear_5008_6421)"/>
<path d="M10 20C9.33696 20 8.70107 19.7366 8.23223 19.2678C7.76339 18.7989 7.5 18.163 7.5 17.5V2.5C7.5 1.83696 7.76339 1.20107 8.23223 0.732234C8.70107 0.263393 9.33696 0 10 0C10.663 0 11.2989 0.263393 11.7678 0.732234C12.2366 1.20107 12.5 1.83696 12.5 2.5V17.5C12.5 18.163 12.2366 18.7989 11.7678 19.2678C11.2989 19.7366 10.663 20 10 20Z" fill="url(#paint1_linear_5008_6421)"/>
<defs>
<linearGradient id="paint0_linear_5008_6421" x1="10" y1="7.5" x2="10" y2="12.5" gradientUnits="userSpaceOnUse">
<stop offset="0.23" stop-color="#FFC527"/>
<stop offset="1" stop-color="#FF5500"/>
</linearGradient>
<linearGradient id="paint1_linear_5008_6421" x1="10" y1="0" x2="10" y2="20" gradientUnits="userSpaceOnUse">
<stop offset="0.23" stop-color="#FFC527"/>
<stop offset="1" stop-color="#FF5500"/>
</linearGradient>
</defs>
</svg>
