<svg width="19" height="19" viewBox="0 0 19 19" fill="none" xmlns="http://www.w3.org/2000/svg">
<g clip-path="url(#clip0_168_3512)">
<path d="M5.06417 8.8167H1.32733C1.22822 8.8167 1.13317 8.85607 1.06309 8.92615C0.993014 8.99623 0.953644 9.09128 0.953644 9.19039L0.953644 18.1588C0.953644 18.2579 0.993014 18.353 1.06309 18.423C1.13317 18.4931 1.22822 18.5325 1.32733 18.5325H5.06417C5.16328 18.5325 5.25833 18.4931 5.3284 18.423C5.39848 18.353 5.43785 18.2579 5.43785 18.1588L5.43785 9.19039C5.43785 9.09128 5.39848 8.99623 5.3284 8.92615C5.25833 8.85607 5.16328 8.8167 5.06417 8.8167ZM18.8905 9.19039C18.8905 8.16051 18.0519 7.32197 17.0221 7.32197H12.3174C12.5453 6.62766 12.9115 5.35489 12.9115 4.33249C12.9115 2.71145 11.5341 1.34302 10.6694 1.34302C9.89292 1.34302 9.33837 1.77948 9.31445 1.79816C9.27089 1.83341 9.23574 1.87793 9.21156 1.92849C9.18738 1.97904 9.17479 2.03435 9.1747 2.09039V4.62397L7.02227 9.28829L6.39224 9.60293C6.33016 9.63416 6.27795 9.68198 6.2414 9.74108C6.20486 9.80019 6.18541 9.86826 6.18522 9.93775V16.6641C6.18522 16.7635 6.22483 16.8584 6.29434 16.9286C6.85412 17.4877 8.1097 17.7851 8.80101 17.7851H15.7142C16.0002 17.7846 16.2813 17.7113 16.5311 17.572C16.7809 17.4327 16.9911 17.232 17.1418 16.9889C17.2925 16.7459 17.3788 16.4684 17.3925 16.1827C17.4062 15.897 17.3469 15.6126 17.2201 15.3562C17.616 15.1574 17.9169 14.8098 18.057 14.3895C18.1971 13.9693 18.1649 13.5106 17.9675 13.1141C18.2447 12.9749 18.4778 12.7614 18.6408 12.4975C18.8038 12.2336 18.8902 11.9295 18.8905 11.6193C18.8905 11.1709 18.7119 10.7516 18.4047 10.4422C18.7149 10.1044 18.8905 9.66198 18.8905 9.19039Z" fill="white"/>
</g>
<defs>
<clipPath id="clip0_168_3512">
<rect width="17.9368" height="17.9368" fill="white" transform="translate(0.953644 0.96936)"/>
</clipPath>
</defs>
</svg>
