<svg width="12" height="13" viewBox="0 0 12 13" fill="none" xmlns="http://www.w3.org/2000/svg">
<path d="M11.8067 11.36L9.54 9.1C10.2713 8.16831 10.6681 7.01777 10.6667 5.83334C10.6667 4.7785 10.3539 3.74736 9.76784 2.87029C9.18181 1.99323 8.34885 1.30965 7.37431 0.905978C6.39978 0.502311 5.32742 0.396693 4.29285 0.602481C3.25829 0.808269 2.30798 1.31622 1.5621 2.0621C0.81622 2.80798 0.308269 3.75829 0.102481 4.79285C-0.103307 5.82742 0.00231083 6.89978 0.405978 7.87431C0.809646 8.84885 1.49323 9.68181 2.37029 10.2678C3.24736 10.8539 4.2785 11.1667 5.33334 11.1667C6.51777 11.1681 7.66831 10.7713 8.6 10.04L10.86 12.3067C10.922 12.3692 10.9957 12.4188 11.077 12.4526C11.1582 12.4864 11.2453 12.5039 11.3333 12.5039C11.4213 12.5039 11.5085 12.4864 11.5897 12.4526C11.671 12.4188 11.7447 12.3692 11.8067 12.3067C11.8692 12.2447 11.9188 12.171 11.9526 12.0897C11.9864 12.0085 12.0039 11.9213 12.0039 11.8333C12.0039 11.7453 11.9864 11.6582 11.9526 11.577C11.9188 11.4957 11.8692 11.422 11.8067 11.36ZM1.33334 5.83334C1.33334 5.04221 1.56793 4.26885 2.00746 3.61106C2.44698 2.95326 3.0717 2.44057 3.8026 2.13782C4.53351 1.83507 5.33777 1.75585 6.1137 1.91019C6.88962 2.06454 7.60235 2.4455 8.16176 3.00491C8.72117 3.56432 9.10214 4.27705 9.25648 5.05297C9.41082 5.8289 9.3316 6.63317 9.02885 7.36407C8.7261 8.09497 8.21341 8.71969 7.55562 9.15921C6.89782 9.59874 6.12446 9.83334 5.33334 9.83334C4.27247 9.83334 3.25505 9.41191 2.50491 8.66176C1.75476 7.91162 1.33334 6.8942 1.33334 5.83334Z" fill="white" fill-opacity="0.61"/>
</svg>
