<svg width="27" height="27" viewBox="0 0 27 27" fill="none" xmlns="http://www.w3.org/2000/svg">
<path d="M24.2022 11.4316C24.2908 10.8278 23.8732 10.2666 23.2695 10.1779L17.0294 9.26571L14.241 3.58313C14.1405 3.4098 13.9965 3.26584 13.823 3.16563C13.2753 2.84909 12.5746 3.03644 12.258 3.58421L9.47061 9.26571L3.23056 10.178C2.99199 10.213 2.77148 10.3251 2.60252 10.4972C2.17505 10.9326 2.18159 11.6321 2.61701 12.0596L7.13612 16.4903L6.06969 22.7444C6.05958 22.8042 6.05439 22.8648 6.05426 22.9256C6.05257 23.5366 6.54656 24.0334 7.15768 24.0351C7.33782 24.0348 7.5152 23.9904 7.67418 23.9057L13.25 20.9577L18.8248 23.9046C19.0402 24.019 19.2874 24.0588 19.5279 24.0178C20.1287 23.9153 20.5328 23.3452 20.4303 22.7444L19.3639 16.4903L23.8841 12.0585C24.0555 11.8897 24.1672 11.6696 24.2022 11.4316ZM18.3848 15.9036C18.2556 16.0305 18.1964 16.2124 18.2263 16.391L19.3413 22.9287L13.5077 19.8447C13.3462 19.7606 13.1538 19.7606 12.9923 19.8447L7.15876 22.9298L8.27364 16.3911C8.30363 16.2125 8.24446 16.0305 8.11513 15.9037L3.39008 11.2714L9.91803 10.3171C10.0983 10.2901 10.2539 10.1765 10.3343 10.013L13.25 4.07065L16.1656 10.013C16.2461 10.1765 16.4017 10.2901 16.5819 10.317L23.111 11.2702L18.3848 15.9036Z" fill="url(#paint0_linear_3230_10376)"/>
<path d="M13.9902 20.5291C13.7756 20.5278 13.5739 20.5955 13.383 20.6878L8.5 23.1278C7.91435 23.4107 7.17069 23.1834 6.84829 22.6428C6.72351 22.419 6.67883 22.1633 6.72094 21.9136L7.70062 16.7263C7.76641 16.3511 7.63493 15.9691 7.34793 15.7017L3.36061 12.0097C2.8798 11.5557 2.8798 10.8207 3.36061 10.3667C3.54868 10.1886 3.79253 10.0721 4.05619 10.0344L9.56202 9.2591C9.98631 9.20007 10.2896 8.97518 10.4829 8.62222L12.8748 3.85156C13.057 3.46347 13.6699 3.19528 14 3.25951C13.9902 3.57333 13.9902 20.3168 13.9902 20.5291Z" fill="url(#paint1_linear_3230_10376)"/>
<defs>
<linearGradient id="paint0_linear_3230_10376" x1="13.2501" y1="3.01172" x2="13.2501" y2="24.0351" gradientUnits="userSpaceOnUse">
<stop offset="0.23" stop-color="#FFC527"/>
<stop offset="1" stop-color="#FF5500"/>
</linearGradient>
<linearGradient id="paint1_linear_3230_10376" x1="8.5" y1="3.25" x2="8.5" y2="23.25" gradientUnits="userSpaceOnUse">
<stop offset="0.23" stop-color="#FFC527"/>
<stop offset="1" stop-color="#FF5500"/>
</linearGradient>
</defs>
</svg>
