<svg width="27" height="27" viewBox="0 0 27 27" fill="none" xmlns="http://www.w3.org/2000/svg">
<path d="M14.883 3.60275L17.4007 8.65069C17.5823 9.01791 17.9365 9.27345 18.3474 9.33364L23.9872 10.1552C24.3187 10.2017 24.6178 10.3761 24.8181 10.6399C25.0185 10.9037 25.1036 11.235 25.0547 11.5607C25.0157 11.8306 24.8884 12.0807 24.6921 12.2733L20.6033 16.2325C20.3039 16.5124 20.1676 16.9215 20.2408 17.3213L21.2479 22.8938C21.3591 23.5604 20.9143 24.1943 20.2408 24.329C19.9651 24.3723 19.6826 24.3272 19.4351 24.2003L14.3996 21.5774C14.0267 21.3889 13.5841 21.3889 13.2112 21.5774L8.17573 24.2003C7.55547 24.5302 6.78057 24.3044 6.44352 23.6955C6.31581 23.4518 6.26998 23.1746 6.3126 22.9037L7.3197 17.3312C7.39285 16.9314 7.25661 16.5223 6.95714 16.2424L2.86833 12.2832C2.62845 12.0507 2.49341 11.7334 2.49341 11.4023C2.49341 11.0712 2.62845 10.7539 2.86833 10.5214C3.06157 10.3248 3.31744 10.199 3.59344 10.1651L9.23318 9.34354C9.64407 9.28335 9.99829 9.02781 10.1799 8.66058L12.607 3.60275C12.8192 3.17132 13.2675 2.90075 13.7551 2.90989H13.9061C14.3303 2.96278 14.6982 3.22372 14.883 3.60275Z" fill="url(#paint0_linear_3230_10366)"/>
<path d="M13.7853 21.4291C13.5647 21.4277 13.3573 21.5003 13.161 21.5993L8.14144 24.2158C7.53941 24.5191 6.77494 24.2754 6.44352 23.6957C6.31524 23.4558 6.26932 23.1815 6.3126 22.9138L7.3197 17.3512C7.38732 16.9488 7.25216 16.5392 6.95714 16.2525L2.85825 12.2933C2.36398 11.8065 2.36398 11.0183 2.85825 10.5315C3.05159 10.3405 3.30225 10.2156 3.57329 10.1752L9.23318 9.34375C9.66934 9.28044 9.98108 9.03929 10.1799 8.66079L12.6386 3.54498C12.826 3.12882 13.456 2.84122 13.7953 2.9101C13.7853 3.24663 13.7853 21.2015 13.7853 21.4291Z" fill="url(#paint1_linear_3230_10366)"/>
<path d="M24.7022 11.4316C24.7908 10.8278 24.3732 10.2666 23.7695 10.1779L17.5294 9.26571L14.741 3.58313C14.6405 3.4098 14.4965 3.26584 14.323 3.16563C13.7753 2.84909 13.0746 3.03644 12.758 3.58421L9.97061 9.26571L3.73056 10.178C3.49199 10.213 3.27148 10.3251 3.10252 10.4972C2.67505 10.9326 2.68159 11.6321 3.11701 12.0596L7.63612 16.4903L6.56969 22.7444C6.55958 22.8042 6.55439 22.8648 6.55426 22.9256C6.55257 23.5366 7.04656 24.0334 7.65768 24.0351C7.83782 24.0348 8.0152 23.9904 8.17418 23.9057L13.75 20.9577L19.3248 23.9046C19.5402 24.019 19.7874 24.0588 20.0279 24.0178C20.6287 23.9153 21.0328 23.3452 20.9303 22.7444L19.8639 16.4903L24.3841 12.0585C24.5555 11.8897 24.6672 11.6696 24.7022 11.4316ZM18.8848 15.9036C18.7556 16.0305 18.6964 16.2124 18.7263 16.391L19.8413 22.9287L14.0077 19.8447C13.8462 19.7606 13.6538 19.7606 13.4923 19.8447L7.65876 22.9298L8.77364 16.3911C8.80363 16.2125 8.74446 16.0305 8.61513 15.9037L3.89008 11.2714L10.418 10.3171C10.5983 10.2901 10.7539 10.1765 10.8343 10.013L13.75 4.07065L16.6656 10.013C16.7461 10.1765 16.9017 10.2901 17.0819 10.317L23.611 11.2702L18.8848 15.9036Z" fill="url(#paint2_linear_3230_10366)"/>
<defs>
<linearGradient id="paint0_linear_3230_10366" x1="13.7808" y1="2.90967" x2="13.7808" y2="24.352" gradientUnits="userSpaceOnUse">
<stop offset="0.23" stop-color="#FFC527"/>
<stop offset="1" stop-color="#FF5500"/>
</linearGradient>
<linearGradient id="paint1_linear_3230_10366" x1="8.14144" y1="2.8999" x2="8.14144" y2="24.3469" gradientUnits="userSpaceOnUse">
<stop offset="0.23" stop-color="#FFC527"/>
<stop offset="1" stop-color="#FF5500"/>
</linearGradient>
<linearGradient id="paint2_linear_3230_10366" x1="13.7501" y1="3.01172" x2="13.7501" y2="24.0351" gradientUnits="userSpaceOnUse">
<stop offset="0.23" stop-color="#FFC527"/>
<stop offset="1" stop-color="#FF5500"/>
</linearGradient>
</defs>
</svg>
