<?xml version="1.0" encoding="UTF-8"?>
<svg xmlns="http://www.w3.org/2000/svg" width="320" height="142" viewBox="0 0 320 142" fill="none">
  <g clip-path="url(#clip0_100_681)">
    <path d="M327.556 46.9338C323.63 48.5368 320.285 46.7564 318.944 45.5412C318.837 45.4439 318.747 45.3314 318.667 45.2106L317.785 43.8765C317.565 43.5444 317.427 43.1494 317.552 42.7716C317.925 41.6489 319.395 39.8497 323.366 38.5725C327.602 37.2096 330.937 39.4 332.494 41.094C332.848 41.4794 332.992 42.017 332.792 42.5005C332.283 43.7276 330.83 45.597 327.556 46.9338Z" fill="#A0EBB5"></path>
    <path d="M288.638 52.0328C292.586 46.0537 299.358 41.6981 307.172 42.2505C308.727 42.3603 310.421 42.8062 311.886 43.4235L311.887 43.4233C312.099 43.5127 312.262 43.5967 312.392 43.6634C312.566 43.7525 312.654 43.7965 312.752 43.8241C312.809 43.8401 312.88 43.8513 312.98 43.8553C313.14 43.6765 313.246 43.5074 313.358 43.3229C313.48 43.1227 313.63 42.8693 313.88 42.6417C314.136 42.4084 314.467 42.226 314.931 42.0799L314.932 42.0796C315.677 41.846 316.907 41.8803 317.776 42.8416L317.775 42.8419C318.492 43.599 318.68 44.442 318.556 45.2582L318.557 45.2589C318.493 45.6899 318.378 46.014 318.21 46.2834C318.046 46.5451 317.848 46.7278 317.692 46.8739C317.548 47.0092 317.415 47.1334 317.286 47.3056C317.317 47.3692 317.36 47.4507 317.42 47.5486C317.577 47.8068 317.8 48.1206 318.041 48.4615C318.321 48.8586 318.63 49.2957 318.837 49.6603C319.314 50.502 319.666 51.2914 319.972 52.162L320.1 52.5408C320.714 54.4208 321.009 56.7769 320.906 58.5701C320.373 67.9186 313.667 76.4964 304.773 78.814C299.09 80.2932 295.611 78.8642 293.814 78.1226C293.474 77.9823 293.229 77.8819 293.041 77.8254C292.957 77.8004 292.906 77.7923 292.879 77.7886C292.748 77.8822 292.641 78.0354 292.468 78.3091C292.295 78.5817 292.057 78.9703 291.642 79.2545C291.263 79.5136 290.784 79.6589 290.156 79.6599L289.878 79.6512C288.25 79.5537 287.159 78.0693 287.312 76.7132C287.193 76.288 287.345 75.8904 287.51 75.6057C287.698 75.2817 287.977 74.9747 288.186 74.743C288.311 74.6042 288.412 74.4918 288.488 74.3932C288.517 74.3551 288.536 74.3246 288.55 74.3034C288.528 74.2429 288.487 74.1572 288.421 74.0436C288.284 73.8093 288.084 73.5278 287.849 73.1979C287.639 72.9033 287.406 72.5751 287.197 72.2423L286.997 71.9093C283.502 65.7073 284.695 58.0057 288.638 52.0328Z" fill="#F2B645" stroke="#341D1A" stroke-width="1.0582"></path>
    <path fill-rule="evenodd" clip-rule="evenodd" d="M288.023 76.6283C288.7 76.904 290.248 76.2288 290.838 75.8193C292.744 74.4969 290.765 74.126 296.596 73.5735C297.634 73.4751 298.621 73.3722 299.618 73.2297C301.764 72.924 304.088 72.3636 306.173 71.3415C306.93 70.9704 307.616 70.6556 308.321 70.1221C309.336 69.3518 310.203 68.7801 311.137 67.8141C313.717 65.1494 315.602 61.8039 316.418 58.39C316.693 57.2417 316.805 56.2955 316.878 55.2667C317.228 50.4398 315.096 47.8415 315.526 46.366C315.873 45.1773 316.583 45.425 317.553 43.1629C316.861 42.3967 315.868 42.3604 315.259 42.5512C313.965 42.9593 314.197 43.5678 313.378 44.3489C312.659 44.3897 312.535 44.1664 311.851 43.8774C310.43 43.2787 308.792 42.8498 307.304 42.7447C292.137 41.6724 280.883 59.6491 287.628 71.6164C288.24 72.7053 289.347 73.8875 289.258 74.3672C289.119 74.8869 287.669 75.841 288.023 76.6283Z" fill="#FFD954"></path>
    <path fill-rule="evenodd" clip-rule="evenodd" d="M288.023 76.629C287.827 77.712 288.711 79.0079 290.08 79.0898C292.153 79.2153 291.972 77.7345 292.858 77.2518C293.716 76.8776 297.203 80.2479 304.809 78.268C313.468 76.0118 320.026 67.6397 320.547 58.5061C320.646 56.7796 320.361 54.4899 319.767 52.6717C319.441 51.6768 319.072 50.8162 318.546 49.8878C318.038 48.9919 316.817 47.557 316.887 47.1685C317.441 46.2769 318.024 46.3502 318.204 45.1476C318.306 44.478 318.158 43.7976 317.553 43.1635C316.583 45.4257 315.874 45.1779 315.527 46.3667C315.096 47.8422 317.228 50.4404 316.878 55.2673C316.805 56.2962 316.693 57.2423 316.419 58.3906C315.602 61.8045 313.717 65.1501 311.137 67.8148C310.203 68.7808 309.336 69.3524 308.321 70.1227C307.617 70.6562 306.93 70.971 306.173 71.3422C304.089 72.3643 301.764 72.9246 299.619 73.2304C298.622 73.3728 297.635 73.4757 296.596 73.5741C290.765 74.1267 292.744 74.4976 290.839 75.8199C290.248 76.2295 288.7 76.9047 288.023 76.629Z" fill="#F2B645"></path>
    <path fill-rule="evenodd" clip-rule="evenodd" d="M298.492 47.7086C297.981 48.2651 297.75 48.2339 297.348 49.0598C297.33 49.3593 297.384 49.3696 297.359 49.7287C297.269 51.0606 298.526 50.8206 299.011 51.0343C299.79 50.6264 299.92 50.7012 300.293 50.2672C300.699 49.7973 300.82 49.2494 300.799 48.7841C300.738 47.4729 299.21 47.2589 298.492 47.7086Z" fill="white"></path>
    <path fill-rule="evenodd" clip-rule="evenodd" d="M298.315 47.6116L298.491 47.7095C299.209 47.2598 300.737 47.4738 300.799 48.785C300.82 49.2503 300.698 49.7982 300.292 50.2681C299.919 50.7021 299.789 50.6273 299.01 51.0352C297.942 51.386 297.588 50.8218 297.139 49.9846C297.094 50.2547 297.008 50.2622 297.232 50.5655C297.396 50.7883 297.645 50.9147 297.867 51.0602C298.391 51.4032 298.484 51.3868 298.973 51.2863C300.982 50.8722 301.507 48.4335 300.578 47.8173C299.997 47.432 299.114 46.9464 298.315 47.6116Z" fill="#F2EA77"></path>
    <path fill-rule="evenodd" clip-rule="evenodd" d="M297.139 49.9824C297.588 50.8196 297.941 51.3838 299.01 51.0331C298.525 50.8194 297.268 51.0594 297.358 49.7275C297.383 49.3684 297.329 49.3581 297.347 49.0586C297.749 48.2326 297.98 48.2639 298.491 47.7074L298.314 47.6095C298.135 47.8378 297.997 47.855 297.813 48.0211C297.611 48.2054 297.425 48.4871 297.296 48.7261C297.008 49.2539 296.947 49.5663 297.139 49.9824Z" fill="#F5F3B7"></path>
    <path fill-rule="evenodd" clip-rule="evenodd" d="M293.535 68.0671C294.26 68.3711 293.669 68.4781 294.5 68.1084C295.11 67.8445 296.73 66.0357 297.882 65.774C297.58 66.3891 297.127 67.1351 296.586 67.903C294.724 70.5009 295.161 69.3854 295.583 70.3359C295.67 70.3139 295.727 70.2128 295.821 70.246C295.922 70.2871 295.995 70.1863 296.05 70.148L297.236 68.897C298.075 67.7024 300.393 64.6807 300.136 63.2461C299.254 62.9707 299.456 63.0529 298.541 63.6883L294.925 66.372C294.12 66.9779 293.683 67.2763 293.535 68.0671Z" fill="#7E252E"></path>
    <path fill-rule="evenodd" clip-rule="evenodd" d="M306.311 57.6791C306.814 57.6726 313.067 54.7308 312.841 53.3124C311.459 52.855 310.545 54.7239 308.605 55.0812C308.776 54.3615 308.995 53.9806 309.362 53.2566C309.949 52.0889 309.925 52.0963 309.615 51.4228C309.134 51.5318 309.599 51.0218 308.806 51.848C308.806 51.848 308.392 52.5868 308.391 52.6025L306.672 55.9572C306.096 56.9445 305.98 56.8402 306.311 57.6791Z" fill="#7E252E"></path>
    <path fill-rule="evenodd" clip-rule="evenodd" d="M307.31 67.0388L306.179 66.2009C307.519 64.6777 307.867 64.0791 309.49 63.826L306.713 61.041C306.499 62.4042 305.077 63.2974 304.031 63.7968C304.044 63.0428 303.453 64.0298 304.291 62.8509L306.645 60.9062C305.459 61.2774 305.197 62.3332 303.703 62.8008C303.023 63.4876 303.185 63.2235 302.96 63.9029C303.901 63.5823 302.886 63.2494 304.098 64.3951C304.353 64.6276 304.898 65.3211 305.238 65.6573C305.994 66.4254 306.299 66.9024 307.31 67.0388Z" fill="#F5625C"></path>
    <path fill-rule="evenodd" clip-rule="evenodd" d="M306.645 60.9058L306.713 61.0406L309.491 63.8256C310.898 66.3576 309.39 68.4592 307.311 67.0383C306.3 66.902 305.994 66.425 305.238 65.6569C304.899 65.3207 304.354 64.6272 304.099 64.3947C302.886 63.249 303.901 63.5818 302.961 63.9025C304.054 66.3973 307.977 69.2661 309.981 67.5193C312.416 65.419 308.073 59.3134 306.175 60.4179L303.704 62.8004C305.197 62.3328 305.46 61.2769 306.645 60.9058Z" fill="#7E252E"></path>
    <path fill-rule="evenodd" clip-rule="evenodd" d="M307.311 67.0387C309.39 68.4595 310.898 66.358 309.491 63.8259C307.868 64.0791 307.519 64.6776 306.179 66.2009L307.311 67.0387Z" fill="#FC867D"></path>
    <path fill-rule="evenodd" clip-rule="evenodd" d="M290.893 64.2867C292.17 63.658 292.773 62.4434 294.46 61.7436C295.711 61.2165 297.349 61.4429 298.034 60.5048C296.277 58.587 289.184 62.8019 290.893 64.2867Z" fill="#7E252E"></path>
    <path fill-rule="evenodd" clip-rule="evenodd" d="M302.762 56.317C303.694 55.6191 303.274 54.0951 303.754 52.7369C304.856 49.6222 306.159 50.141 305.002 48.9413C303.458 49.5966 301 55.1299 302.762 56.317Z" fill="#7E252E"></path>
    <path fill-rule="evenodd" clip-rule="evenodd" d="M306.713 61.0407L306.645 60.9059L304.292 62.8506C303.453 64.0295 304.045 63.0425 304.031 63.7965C305.077 63.2971 306.5 62.4039 306.713 61.0407Z" fill="#F4D7D8"></path>
    <path d="M317.639 42.546C318.063 42.5891 318.481 42.6917 318.852 42.8509C320.293 43.468 322.311 43.8631 324.917 43.4938C328.346 43.0077 331.059 42.1761 332.763 41.5085C332.902 41.8216 332.927 42.1725 332.792 42.5001C332.284 43.7272 330.83 45.5972 327.557 46.9339C323.631 48.5368 320.285 46.7563 318.945 45.5411C318.838 45.4438 318.747 45.3312 318.667 45.2104L317.785 43.8766C317.566 43.5445 317.426 43.1489 317.552 42.7711C317.576 42.6987 317.605 42.6237 317.639 42.546Z" fill="#6EAF80"></path>
    <path fill-rule="evenodd" clip-rule="evenodd" d="M323.204 38.0689C327.712 36.6186 331.25 38.9588 332.884 40.7362C333.349 41.2423 333.574 41.9935 333.281 42.703C332.711 44.0794 331.141 46.0417 327.756 47.4237C323.581 49.1286 320.024 47.2346 318.589 45.9333C318.441 45.7989 318.323 45.6495 318.226 45.5025L318.667 45.2107L318.226 45.5025L317.344 44.1684C317.088 43.7817 316.849 43.2099 317.05 42.6048L317.544 42.769L317.05 42.6048C317.497 41.2596 319.148 39.3737 323.204 38.0689ZM332.104 41.4522C330.624 39.8414 327.492 37.801 323.528 39.0763C319.643 40.3261 318.354 42.0384 318.055 42.9386C318.005 43.0892 318.043 43.3073 318.227 43.5848L319.109 44.9189C319.171 45.0135 319.234 45.0893 319.3 45.1494L318.95 45.5356L319.3 45.1494C320.545 46.2785 323.68 47.9451 327.356 46.4441C330.519 45.1526 331.857 43.3762 332.303 42.2982C332.41 42.0407 332.347 41.7167 332.104 41.4522Z" fill="#341D1A"></path>
  </g>
  <g clip-path="url(#clip1_100_681)">
    <path d="M5.96768 116.39C6.75042 115.528 7.8273 115.045 8.74255 114.713C9.17737 114.555 9.66186 114.403 9.97744 114.291C10.341 114.163 10.5531 114.065 10.6508 113.982C10.747 113.9 10.8073 113.828 10.844 113.771C10.8755 113.721 10.9056 113.654 10.9402 113.56C10.9571 113.514 10.9731 113.466 10.9912 113.412C11.0088 113.361 11.0286 113.304 11.0492 113.247C11.1258 113.038 11.2561 112.725 11.5578 112.548C11.9788 112.301 12.6873 112.042 13.261 112.54C13.4166 112.676 13.521 112.861 13.5953 113.046C13.6712 113.235 13.7281 113.455 13.774 113.69C13.8657 114.158 13.9216 114.737 13.97 115.349C14.0686 116.595 14.1415 117.999 14.4057 119.151C14.5584 119.816 14.9399 120.503 15.4244 121.148C15.9064 121.788 16.4741 122.366 16.9743 122.81C17.5137 123.288 17.5605 124.178 16.9671 124.665L13.0972 127.842C12.5503 128.291 11.7152 128.153 11.3814 127.498C11.0182 126.785 10.5202 125.724 10.0218 124.446C9.5515 123.24 9.60531 121.652 9.80057 120.311C9.79485 120.301 9.78537 120.283 9.76516 120.259C9.70827 120.191 9.61345 120.112 9.49625 120.041C9.37975 119.97 9.26145 119.919 9.16685 119.896C9.10987 119.882 9.0801 119.882 9.0709 119.883C8.46412 120.228 8.18101 120.376 7.84271 120.493C7.67748 120.55 7.50131 120.598 7.27819 120.66C7.05224 120.724 6.76565 120.804 6.36588 120.926C5.97077 121.047 5.77925 121.313 5.69507 121.662C5.60575 122.033 5.64673 122.481 5.74052 122.866C5.82714 123.22 5.73826 123.634 5.42503 123.902C5.01831 124.249 4.40672 124.201 4.05921 123.795L2.24556 121.672C1.91328 121.283 1.95908 120.698 2.34815 120.365L2.4907 120.244C2.82115 119.961 3.31796 120 3.60043 120.331C3.60371 120.335 3.60601 120.335 3.60699 120.335C3.60903 120.336 3.61357 120.337 3.62012 120.336C3.62692 120.335 3.6333 120.332 3.63729 120.329C3.64042 120.326 3.64387 120.323 3.64652 120.317C4.11975 119.21 4.98265 117.476 5.96768 116.39Z" fill="#E7370A" stroke="#341D1A" stroke-width="0.77392"></path>
  </g>
  <g clip-path="url(#clip2_100_681)">
    <path d="M113.127 103.596C113.537 103.359 114.031 103.316 114.475 103.479L119.931 105.475C120.658 105.741 121.09 106.49 120.956 107.253L117.374 127.704C117.2 128.697 116.162 129.283 115.221 128.92L95.8567 121.424C95.1511 121.151 94.7335 120.42 94.8561 119.673L95.7353 114.313C95.813 113.84 96.0988 113.427 96.5139 113.187L113.127 103.596Z" fill="#341D1A" stroke="#341D1A" stroke-width="0.639761"></path>
    <path fill-rule="evenodd" clip-rule="evenodd" d="M116.782 128.824C117.101 128.37 117.254 126.714 117.372 126.141C117.575 125.151 117.743 124.289 117.9 123.287L119.181 116.184C119.27 115.75 119.357 115.261 119.427 114.81C119.58 113.825 119.738 112.912 119.928 111.943L120.934 106.292L112.249 111.259L116.782 128.824Z" fill="#E1E1E1"></path>
    <path fill-rule="evenodd" clip-rule="evenodd" d="M115.636 129.167L103.192 116.298L95.3126 120.852C96.677 121.655 107.592 125.828 110.518 127.137C111.25 127.46 115.062 129.13 115.636 129.167Z" fill="#E1E1E1"></path>
    <path d="M111.939 111.248L103.448 116.15L116.213 128.915L111.939 111.248Z" fill="#FFFCF4"></path>
    <path fill-rule="evenodd" clip-rule="evenodd" d="M103.308 115.858L104.877 108.82L96.4277 113.679C96.7459 113.944 102.824 115.764 103.308 115.858Z" fill="#FFFCF4"></path>
    <path fill-rule="evenodd" clip-rule="evenodd" d="M112.283 110.797C112.406 110.48 112.668 109.469 112.752 109.058L113.843 103.777L105.61 108.503C105.909 108.825 111.558 110.662 112.283 110.797Z" fill="#FFFCF4"></path>
    <path fill-rule="evenodd" clip-rule="evenodd" d="M112.948 110.66L120.831 106.114L114.523 103.651C114.202 104.304 113.865 106.264 113.71 107.058C113.581 107.727 112.928 110.03 112.948 110.66Z" fill="#FFFCF4"></path>
    <path fill-rule="evenodd" clip-rule="evenodd" d="M95.1083 120.498L103.012 115.977C102.644 115.774 96.8177 113.884 96.1466 113.842L95.1083 120.498Z" fill="#FFFCF4"></path>
    <path fill-rule="evenodd" clip-rule="evenodd" d="M103.667 115.476L111.245 111.096L108.227 109.997C107.124 109.656 106.356 109.34 105.216 109.025C104.865 109.398 104.509 111.463 104.325 112.159L103.667 115.476Z" fill="#FFFCF4"></path>
    <path fill-rule="evenodd" clip-rule="evenodd" d="M110.675 113.778C111.055 115.804 108.144 117.297 106.653 116.298L110.675 113.778ZM105.869 116.345C107.26 118.556 112.51 116.075 111.016 113.145C109.738 113.415 106.604 115.349 105.869 116.345Z" fill="#843C43"></path>
    <path fill-rule="evenodd" clip-rule="evenodd" d="M109.914 110.642C110.867 110.726 112.058 109.55 113.089 109.194C114.033 108.867 115.446 108.955 115.883 108.235C115.405 107.607 115.51 107.734 114.584 107.894C113.534 108.074 109.507 109.235 109.914 110.642Z" fill="#7E252E"></path>
    <path fill-rule="evenodd" clip-rule="evenodd" d="M98.7549 117.864C99.656 117.895 101.001 115.85 102.147 115.189C102.42 115.031 102.967 114.809 103.161 114.676C104.256 113.982 103.66 114.336 103.831 113.894C103.425 113.64 103.955 113.137 101.91 114.328C100.818 114.958 99.7918 115.79 99.0514 116.758C98.4831 117.502 98.6015 117.257 98.7549 117.864Z" fill="#7E252E"></path>
    <path fill-rule="evenodd" clip-rule="evenodd" d="M106.653 116.298C108.144 117.297 111.055 115.804 110.675 113.778L106.653 116.298Z" fill="#FC867D"></path>
  </g>
  <g clip-path="url(#clip3_100_681)">
    <path d="M210.295 72.9414C209.338 73.6317 208.31 73.669 207.865 73.596C207.829 73.5902 207.797 73.5799 207.767 73.5671L207.438 73.4255C207.356 73.3902 207.292 73.3355 207.301 73.2562C207.326 73.0207 207.604 72.5522 208.595 71.9143C209.652 71.2336 210.704 71.2692 211.241 71.4035C211.363 71.434 211.438 71.5131 211.416 71.6187C211.361 71.8866 211.092 72.3657 210.295 72.9414Z" fill="#A0EBB5"></path>
    <path d="M207.366 73.2633C207.575 73.184 207.796 73.1245 208.005 73.084C208.382 73.0109 208.834 72.8677 209.347 72.6143C210.177 72.2051 210.818 71.8064 211.24 71.5159C211.345 71.626 211.379 71.7714 211.301 71.9146C211.152 72.1834 210.853 72.5385 210.295 72.9409C209.389 73.5942 208.421 73.6627 207.942 73.6064C207.856 73.5962 207.773 73.5694 207.695 73.5359C207.544 73.4709 207.417 73.3741 207.366 73.2633Z" fill="#6EAF80"></path>
    <path fill-rule="evenodd" clip-rule="evenodd" d="M208.824 83.4674C209.33 82.7807 209.223 82.4141 209.41 82.0212C209.83 81.9884 210.686 82.4627 211.009 82.6734C213.775 84.4756 213.747 88.5366 211.324 90.3522C210.432 91.0198 209.124 91.5919 207.663 91.3348C206.35 91.1032 205.395 90.5122 204.715 89.6961C202.132 86.5975 204.21 81.7656 208.65 81.8723C208.774 82.4912 207.619 83.5755 208.824 83.4674ZM201.184 81.455C201.054 81.6551 201.213 81.4732 201.004 81.6154C200.297 82.097 199.501 82.1475 199.869 82.6378C200.207 83.0936 201.438 82.1433 201.759 82.0549C202.092 82.3486 202.42 83.0861 202.579 83.5593C203.233 85.5124 202.383 87.6954 200.778 88.8687C199.931 89.4868 198.618 89.8447 197.541 89.7141C195.727 89.4931 194.226 88.3576 193.597 86.7773C192.098 83.0007 195.671 79.0633 199.75 80.5477C200.082 80.6687 200.967 81.1211 201.184 81.455ZM208.805 81.1486C207.481 81.3015 206.928 81.0879 205.463 81.9728C204.801 82.3723 204.055 83.0729 203.673 83.7757C203.602 83.9079 203.574 83.9865 203.452 84.079C203.29 83.6134 203.382 83.5413 203.037 82.7405C202.855 82.3188 202.542 81.9677 202.391 81.6163C202.507 81.4465 203.005 81.0847 203.212 80.895C203.509 80.6243 203.693 80.4489 203.97 80.1448C206.583 77.2885 206.933 74.3896 207.073 74.1668C207.282 74.379 207.73 75.2324 207.885 75.5435C208.135 76.0459 208.345 76.5498 208.533 77.1588C208.717 77.7561 208.858 78.4012 208.887 79.073C208.906 79.4772 208.903 80.8113 208.805 81.1486ZM207.433 73.4024C207.376 73.1217 207.823 72.6204 207.988 72.4353C208.203 72.1917 208.516 71.9323 208.833 71.7696C209.464 71.4472 210.764 71.3861 211.358 71.7395C211.297 71.995 210.932 72.4514 210.761 72.6472C209.908 73.6333 208.518 73.835 207.433 73.4024ZM202.198 72.0971C202.739 71.6933 204.093 71.6718 204.712 71.9305C205.269 72.1618 206.042 72.8224 206.302 73.3944C205.8 73.8086 204.384 73.8236 203.752 73.5624C203.215 73.3422 202.302 72.5278 202.198 72.0971ZM202.688 87.8785C202.762 87.7505 202.766 87.6626 202.911 87.5616C202.92 87.5746 202.927 87.5922 202.932 87.604L202.994 87.7861C203.01 87.854 203.017 87.9237 203.037 88.0018C203.068 88.1331 203.107 88.2403 203.149 88.3622C203.407 89.1099 203.693 89.5945 204.197 90.2001C206.17 92.5648 209.853 92.753 212.157 90.5713C213.438 89.3586 214.359 87.1758 213.556 84.8534C212.913 82.9922 211.504 81.7757 209.559 81.2844L209.602 79.2535C209.576 78.5339 209.5 77.9935 209.338 77.3418C208.937 75.7332 208.329 75.0646 208.047 74.2851C209.968 74.3426 210.887 73.9345 211.86 72.3586C212.048 72.055 212.53 71.4035 211.944 71.1524C211.071 70.7801 209.742 70.6354 208.775 71.0096C208.134 71.258 207.602 71.7417 207.201 72.2606C207.126 72.3558 206.901 72.7324 206.813 72.8013C206.724 72.7497 206.415 72.3389 206.329 72.2425C206.132 72.0195 206.047 71.9439 205.824 71.7576C204.082 70.3144 201.438 71.43 201.32 71.7919C201.207 72.1387 201.835 72.8869 201.998 73.0785C203.3 74.6029 204.435 74.6673 206.262 74.2118C206.287 74.7349 205.77 75.9045 205.593 76.3416C205.102 77.5607 204.224 78.7979 203.393 79.7103C203.138 79.9897 202.251 80.8476 201.876 81.035C201.613 80.9097 201.28 80.494 200.584 80.1311C198.914 79.2598 196.945 79.3129 195.364 80.1919C193.635 81.1526 192.102 83.3132 192.628 86.0141C193.352 89.7242 197.421 91.553 200.708 89.7572C201.465 89.3421 202.258 88.6173 202.688 87.8785Z" fill="#341D1A"></path>
    <path d="M204.656 73.666C203.478 73.6002 202.656 72.9825 202.356 72.6455C202.332 72.6185 202.313 72.5903 202.298 72.5616L202.132 72.2444C202.09 72.1654 202.075 72.0825 202.131 72.0263C202.299 71.8594 202.81 71.67 203.981 71.7979C205.231 71.9344 206.027 72.6244 206.359 73.0663C206.435 73.1668 206.443 73.2757 206.36 73.344C206.148 73.5175 205.638 73.7209 204.656 73.666Z" fill="#A0EBB5"></path>
    <path d="M202.178 72.073C202.39 72.1427 202.6 72.2359 202.787 72.3357C203.126 72.516 203.568 72.6894 204.126 72.8156C205.028 73.0195 205.777 73.1134 206.288 73.1534C206.3 73.3049 206.235 73.4394 206.083 73.5011C205.799 73.6166 205.343 73.705 204.657 73.6667C203.542 73.6044 202.745 73.047 202.409 72.7018C202.348 72.6397 202.302 72.567 202.262 72.4921C202.186 72.3463 202.148 72.1913 202.178 72.073Z" fill="#6EAF80"></path>
    <path fill-rule="evenodd" clip-rule="evenodd" d="M208.823 83.468C207.618 83.576 208.773 82.4918 208.649 81.8728C204.21 81.7662 202.131 86.5981 204.714 89.6967C205.394 90.5128 206.349 91.1038 207.662 91.3354C209.124 91.5925 210.431 91.0204 211.323 90.3528C213.746 88.5372 213.774 84.4762 211.009 82.674C210.685 82.4633 209.83 81.989 209.41 82.0218C209.222 82.4147 209.329 82.7813 208.823 83.468Z" fill="#F7405E"></path>
    <path fill-rule="evenodd" clip-rule="evenodd" d="M201.183 81.4556C200.966 81.1217 200.082 80.6694 199.75 80.5483C195.67 79.0639 192.098 83.0013 193.597 86.7779C194.226 88.3583 195.726 89.4937 197.541 89.7147C198.618 89.8453 199.93 89.4874 200.777 88.8693C202.382 87.696 203.232 85.513 202.578 83.5599C202.42 83.0867 202.092 82.3492 201.759 82.0555C201.438 82.1439 200.206 83.0942 199.868 82.6384C199.501 82.1481 200.297 82.0976 201.003 81.616C201.212 81.4739 201.054 81.6557 201.183 81.4556Z" fill="#F7405E"></path>
    <path fill-rule="evenodd" clip-rule="evenodd" d="M197.062 87.9627C196.918 87.608 196.907 87.3938 196.895 86.9507C196.895 86.8484 196.892 86.4247 196.911 86.3418C196.997 85.9371 196.866 86.1424 197.109 85.9511L198.765 86.0148C198.991 86.296 199.085 87.5666 198.745 87.7487C198.758 88.3281 198.497 88.6121 198.08 88.8725C197.369 88.857 197.245 88.6045 197.062 87.9627ZM196.738 85.8606C196.46 86.6755 196.584 87.8339 196.968 88.5476C197.888 90.2664 199.762 88.3469 199.189 86.0806C199.055 85.5603 198.666 85.7232 198.062 85.7412C197.634 85.7533 197.127 85.7318 196.738 85.8606Z" fill="#341D1A"></path>
    <path fill-rule="evenodd" clip-rule="evenodd" d="M197.062 87.9626C197.137 87.4995 197.244 87.4745 197.828 87.4907C198.213 87.5032 198.443 87.6042 198.745 87.7486C199.085 87.5665 198.991 86.2959 198.765 86.0147C198.737 86.2925 198.848 86.0581 198.674 86.2441C198.27 86.3146 197.146 86.5449 197.109 85.951C196.866 86.1423 196.997 85.937 196.911 86.3417C196.892 86.4246 196.895 86.8483 196.895 86.9505C196.907 87.3936 196.918 87.6079 197.062 87.9626Z" fill="#F5625C"></path>
    <path fill-rule="evenodd" clip-rule="evenodd" d="M197.062 87.9628C197.246 88.6046 197.369 88.8572 198.08 88.8727C198.497 88.6122 198.759 88.3283 198.746 87.7488C198.443 87.6044 198.213 87.5034 197.829 87.491C197.244 87.4748 197.137 87.4997 197.062 87.9628Z" fill="#FC867D"></path>
    <path fill-rule="evenodd" clip-rule="evenodd" d="M195.032 85.5245C195.495 84.767 194.443 83.9645 193.863 84.7226C193.191 85.5981 194.597 86.2282 195.032 85.5245Z" fill="#341D1A"></path>
    <path fill-rule="evenodd" clip-rule="evenodd" d="M201.085 84.5068C200.066 86.1585 203.15 86.263 201.966 84.4628L201.085 84.5068Z" fill="#341D1A"></path>
    <path fill-rule="evenodd" clip-rule="evenodd" d="M198.765 86.0147L197.108 85.951C197.146 86.5449 198.27 86.3146 198.673 86.2441C198.848 86.0581 198.737 86.2925 198.765 86.0147Z" fill="#F4D7D8"></path>
    <path fill-rule="evenodd" clip-rule="evenodd" d="M209.103 87.5573C209.359 87.9134 209.469 87.6492 209.935 87.9361C208.08 88.8146 209.731 90.4088 210.614 89.5085C211.723 88.3833 209.614 86.9002 209.103 87.5573Z" fill="#341D1A"></path>
    <path fill-rule="evenodd" clip-rule="evenodd" d="M205.94 84.8685C205.954 85.2754 206.352 85.3976 206.745 86.0804C206.17 86.1287 205.76 85.4143 205.292 85.7376C205.335 85.8475 205.089 85.8038 205.714 86.0759C206.34 86.348 206.785 86.6914 207.195 86.4542C207.236 86.0493 206.697 85.4061 206.398 85.054C206.032 84.6274 206.155 84.8558 205.94 84.8685Z" fill="#341D1A"></path>
    <path fill-rule="evenodd" clip-rule="evenodd" d="M207.241 88.683C207.029 88.2896 207.198 88.1648 206.88 87.7742C206.639 88.2568 207.03 88.8638 207.147 88.9266C207.513 89.0091 207.828 88.9966 208.08 88.7194C207.643 88.4299 207.832 88.7874 207.241 88.683Z" fill="#341D1A"></path>
  </g>
  <path d="M236.534 116.648C237.629 117.242 238.034 118.611 237.44 119.706C237.072 120.385 236.405 120.797 235.691 120.872L235.696 121.109L235.697 121.12L235.695 121.13C235.684 121.317 235.684 121.515 235.691 121.718L235.724 122.345L235.724 122.352L235.724 122.353L235.725 122.36L235.724 122.36C235.735 122.546 235.748 122.735 235.754 122.917L235.759 123.099L235.759 123.101L235.76 123.292L235.761 123.293C235.762 123.552 235.764 123.889 235.778 124.208C235.788 124.446 235.805 124.661 235.829 124.821L235.892 124.834L236.184 124.889L236.086 125.169C236.029 125.332 236.022 125.427 236.029 125.479C236.034 125.518 236.046 125.534 236.066 125.548C236.095 125.571 236.152 125.595 236.252 125.617C236.35 125.639 236.466 125.653 236.604 125.668L236.61 125.668C236.729 125.682 236.861 125.697 236.992 125.721L237.169 125.751C237.373 125.786 237.669 125.836 237.948 125.889C238.102 125.918 238.257 125.949 238.39 125.98C238.432 125.853 238.484 125.729 238.55 125.608C239.144 124.513 240.513 124.107 241.608 124.7C242.702 125.294 243.108 126.664 242.514 127.759C241.92 128.854 240.551 129.26 239.456 128.666C239.159 128.505 238.914 128.287 238.724 128.032C238.719 128.037 238.714 128.043 238.708 128.048L238.705 128.052C237.931 128.767 236.82 129.794 235.957 130.635C236.146 131.48 236.081 132.309 235.689 133.032C235.057 134.196 233.741 134.802 232.194 134.89C230.643 134.978 228.815 134.551 227.07 133.604C225.325 132.657 223.972 131.358 223.2 130.009C222.431 128.664 222.221 127.231 222.853 126.066C223.232 125.368 223.861 124.87 224.636 124.565C224.877 123.38 225.102 122.104 225.166 121.655C225.212 121.325 225.268 121.075 225.316 120.884C225.108 120.84 224.903 120.769 224.707 120.663C223.613 120.069 223.207 118.699 223.801 117.604C224.395 116.51 225.764 116.103 226.859 116.697C227.954 117.291 228.359 118.66 227.765 119.755C227.722 119.835 227.673 119.91 227.622 119.982C227.87 120.3 228.252 120.74 228.631 121.137C228.851 121.369 229.066 121.583 229.248 121.748C229.339 121.831 229.42 121.899 229.487 121.951C229.5 121.961 229.513 121.968 229.525 121.976C229.664 121.899 229.787 121.826 229.913 121.747L229.919 121.743L229.925 121.739C230.12 121.617 230.325 121.49 230.607 121.352C230.876 121.221 231.264 120.973 231.706 120.691L231.721 120.681L231.728 120.678L231.735 120.673C231.84 120.605 231.948 120.537 232.056 120.468L232.383 120.264C232.641 120.105 232.898 119.953 233.137 119.828L233.137 119.827L233.405 119.688C233.21 119.318 233.137 118.892 233.208 118.472C233.23 118.16 233.318 117.847 233.477 117.555C234.071 116.46 235.44 116.054 236.534 116.648Z" fill="#FF9B43" stroke="#341D1A" stroke-width="0.510993"></path>
  <path fill-rule="evenodd" clip-rule="evenodd" d="M231.626 129.087C231.239 130.396 233.434 131.163 233.755 129.69C234.065 128.298 232.038 127.688 231.626 129.087Z" fill="white"></path>
  <path fill-rule="evenodd" clip-rule="evenodd" d="M228.571 127.633C229.708 126.751 228.388 125.058 227.183 125.952C226.001 126.827 227.459 128.501 228.571 127.633Z" fill="white"></path>
  <path fill-rule="evenodd" clip-rule="evenodd" d="M231.627 129.087C232.039 127.689 234.066 128.298 233.755 129.691C233.434 131.163 231.239 130.397 231.627 129.087ZM232.875 127.962C230.791 127.841 230.657 130.588 232.59 130.852C234.474 131.114 234.676 128.069 232.875 127.962Z" fill="#7E252E"></path>
  <path fill-rule="evenodd" clip-rule="evenodd" d="M228.571 127.633C227.459 128.501 226.001 126.827 227.183 125.952C228.387 125.057 229.708 126.751 228.571 127.633ZM228.352 125.431C226.56 124.908 225.483 127.367 227.414 128.154C229.066 128.821 230.257 125.986 228.352 125.431Z" fill="#7E252E"></path>
  <path fill-rule="evenodd" clip-rule="evenodd" d="M229.756 130.429C229.525 130.5 229.364 130.519 229.08 130.349C228.918 130.249 228.892 130.214 228.801 130.095C228.604 129.841 228.684 130.003 228.674 129.765C228.619 129.49 228.59 129.58 228.771 129.27C229.207 129.482 229.287 129.411 229.661 129.459C229.785 129.751 229.849 129.814 230.157 130.022C230.025 130.392 230.072 130.344 229.756 130.429ZM230.974 129.787C230.579 129.732 230.727 130.017 230.276 129.825C229.916 129.675 229.87 129.458 229.851 129.207C229.571 129.173 228.942 129.391 228.714 128.81C228.573 128.46 228.837 128.795 228.556 128.401C228.42 128.855 228.495 128.679 228.55 128.991C228.623 129.414 228.134 129.991 229.003 130.491C229.903 131.008 230.126 130.222 230.515 130.077C230.747 129.995 230.769 130.174 230.974 129.787Z" fill="#843C43"></path>
  <path fill-rule="evenodd" clip-rule="evenodd" d="M228.673 129.764C228.989 129.715 229.431 129.963 229.606 130.123C229.921 130.409 229.763 130.217 229.754 130.429C230.071 130.343 230.024 130.391 230.155 130.021C229.847 129.813 229.784 129.75 229.66 129.458C229.286 129.41 229.206 129.482 228.77 129.269C228.589 129.58 228.618 129.489 228.673 129.764Z" fill="#F5625C"></path>
  <path fill-rule="evenodd" clip-rule="evenodd" d="M232.319 127.457C232.773 127.601 232.954 127.47 233.405 127.633C234.213 127.928 233.984 128.229 234.476 128.19C234.361 127.617 232.87 126.84 232.319 127.457Z" fill="#693638"></path>
  <path fill-rule="evenodd" clip-rule="evenodd" d="M228.572 124.222C229.03 124.393 229.09 124.164 229.395 124.775C229.573 125.125 229.496 125.41 229.861 125.649C230.128 125.021 228.915 123.28 228.572 124.222Z" fill="#7E252E"></path>
  <path fill-rule="evenodd" clip-rule="evenodd" d="M229.754 130.429C229.763 130.217 229.921 130.409 229.606 130.123C229.431 129.963 228.989 129.715 228.673 129.764C228.682 130.002 228.603 129.84 228.8 130.095C228.891 130.213 228.917 130.248 229.079 130.348C229.362 130.518 229.524 130.5 229.754 130.429Z" fill="#FC867D"></path>
  <path d="M222.834 126.805C224.189 128.542 226.077 130.151 228.372 131.396C230.589 132.6 232.885 133.297 235.017 133.514C233.536 135.045 230.252 135.04 227.193 133.38C224.091 131.697 222.286 128.891 222.834 126.805ZM236.467 116.906C236.439 116.89 236.411 116.873 236.382 116.857C236.392 116.862 236.403 116.867 236.413 116.873C236.432 116.883 236.449 116.895 236.467 116.906Z" fill="#C06E25"></path>
  <path d="M227.365 117.44C227.807 118.038 227.893 118.865 227.512 119.567C226.989 120.531 225.789 120.891 224.833 120.372C224.43 120.154 224.137 119.814 223.968 119.422C224.133 119.644 224.346 119.837 224.605 119.977C225.561 120.496 226.761 120.135 227.284 119.171C227.586 118.614 227.595 117.978 227.365 117.44Z" fill="#C06E25"></path>
  <path d="M236.922 117.358C237.365 117.957 237.449 118.785 237.068 119.488C236.545 120.451 235.346 120.812 234.39 120.293C233.986 120.074 233.692 119.732 233.525 119.339C233.69 119.563 233.902 119.756 234.163 119.898C235.119 120.417 236.319 120.056 236.842 119.093C237.144 118.535 237.153 117.897 236.922 117.358Z" fill="#C06E25"></path>
  <path d="M242.009 125.384C242.453 125.983 242.539 126.811 242.158 127.515C241.635 128.478 240.435 128.838 239.479 128.32C239.076 128.101 238.782 127.76 238.614 127.368C238.779 127.591 238.992 127.784 239.251 127.925C240.208 128.444 241.407 128.083 241.93 127.119C242.233 126.56 242.241 125.923 242.009 125.384Z" fill="#C06E25"></path>
  <path d="M22.8133 29.6461C23.4712 30.6385 24.1308 31.8157 24.5898 33.1297C26.9963 39.9928 26.9787 46.6125 23.5853 52.5356C23.4653 52.7454 23.3625 52.9442 23.2678 53.124C23.1742 53.3017 23.0888 53.4599 22.9995 53.6062L20.1034 57.4938C19.5333 58.1178 19.0262 58.6576 18.4229 59.2246L18.422 59.2256C17.3566 60.2313 16.0203 61.3532 14.6978 62.2038C8.7184 66.0529 1.52688 68.2038 -6.00918 67.063L-6.01016 67.0631C-9.25705 66.5668 -12.2561 65.5193 -14.8475 64.0044L-15.36 63.6952C-17.799 62.1756 -19.1731 60.788 -20.103 59.6174C-20.5703 59.0292 -20.9271 58.4938 -21.2578 58.0096C-21.57 57.5526 -21.8663 57.1342 -22.2037 56.7805C-22.3301 56.4074 -22.5222 56.0033 -22.7187 55.607C-22.8781 55.2855 -23.0398 54.9663 -23.1809 54.654L-23.3146 54.3433C-23.6545 53.5097 -23.9326 52.6117 -24.1529 51.6635C-24.1568 51.6469 -24.1614 51.6301 -24.1653 51.6135C-22.9625 54.2204 -21.1811 56.2988 -19.3985 57.7504L-19.0241 58.0459C-14.858 61.2406 -8.53319 63.3152 -2.32481 62.8746C4.42673 62.3954 10.0775 60.5085 15.239 56.8092L15.737 56.4459C19.9231 53.334 22.3942 47.2967 23.7159 41.3969C24.6735 37.1274 24.4695 33.8187 23.5097 31.1964C23.3094 30.6489 23.0745 30.1338 22.8133 29.6461Z" fill="#DCA83B" stroke="#530D11" stroke-width="0.603952"></path>
  <path d="M21.9969 28.1048C25.3341 31.3596 26.2412 35.8235 25.1099 40.7291C23.9767 45.6428 20.7984 50.981 15.9935 55.9077C11.2318 60.79 3.66183 63.4258 -3.73596 63.4092C-11.1346 63.3925 -18.2894 60.7247 -22.2642 55.0923C-28.7383 45.918 -24.7106 33.0483 -15.1546 26.7831C-0.126362 16.9302 14.8729 21.1569 21.9969 28.1048Z" fill="#F1BD46" stroke="#530D11" stroke-width="0.603952"></path>
  <path d="M6.75004 21.0433C10.0422 21.3561 13.2171 22.2425 16.0622 23.7719L-15.294 59.9898C-16.5924 59.3495 -17.7893 58.6152 -18.8434 57.8069C-20.0156 56.9088 -21.2032 55.7311 -22.2388 54.3049L6.75004 21.0433ZM-2.60988 21.6134C-8.2282 28.0605 -17.5709 38.7358 -25.1474 47.383C-25.483 45.2923 -25.4207 42.9784 -24.7717 40.4714C-22.2429 30.705 -12.8097 23.7602 -2.60988 21.6134Z" fill="#FFD77C"></path>
  <ellipse cx="8.0248" cy="43.7892" rx="4.00095" ry="5.2691" transform="rotate(45.2614 8.0248 43.7892)" fill="#53082B"></ellipse>
  <ellipse cx="-5.50279" cy="33.2995" rx="4.00095" ry="5.2691" transform="rotate(45.2614 -5.50279 33.2995)" fill="#53082B"></ellipse>
  <ellipse cx="3.98515" cy="52.7093" rx="3.92782" ry="0.854863" transform="rotate(37.2763 3.98515 52.7093)" fill="#6F200F"></ellipse>
  <path d="M1.40053 46.125C1.76083 46.4195 1.7653 46.9701 1.39233 47.2483C0.347783 48.0274 -0.737608 48.6243 -1.80183 49.0043C-2.8662 49.3843 -3.88942 49.5404 -4.81142 49.4633C-5.73319 49.3862 -6.53654 49.0776 -7.1757 48.5554C-7.81497 48.033 -8.27801 47.3069 -8.53723 46.4188C-8.79642 45.5306 -8.8466 44.4974 -8.6863 43.3787C-8.52598 42.26 -8.15807 41.077 -7.60271 39.8981C-7.40445 39.4773 -6.86321 39.3724 -6.50299 39.6667L-6.01108 40.0687C-5.9113 40.1502 -5.88461 40.2881 -5.93952 40.4046C-6.39826 41.3785 -6.68946 42.3281 -6.81405 43.1972C-6.93853 44.066 -6.89308 44.8245 -6.71213 45.4446C-6.53208 46.0615 -6.21931 46.541 -5.80576 46.8789C-5.39231 47.2167 -4.8606 47.4271 -4.22044 47.4807C-3.57668 47.5345 -2.82441 47.4279 -1.99779 47.1328C-1.17083 46.8375 -0.297741 46.3637 0.565335 45.72C0.668626 45.643 0.809 45.6417 0.908781 45.7232L1.40053 46.125Z" fill="#53082B"></path>
  <defs>
    <clipPath id="clip0_100_681">
      <rect x="278" y="9" width="57.1429" height="101.587" rx="11.6402" fill="white"></rect>
    </clipPath>
    <clipPath id="clip1_100_681">
      <rect x="-9" y="113.574" width="20.8958" height="37.1482" rx="4.25656" transform="rotate(-40.5108 -9 113.574)" fill="white"></rect>
    </clipPath>
    <clipPath id="clip2_100_681">
      <rect x="80.7249" y="100.88" width="34.5471" height="61.417" rx="7.03737" transform="rotate(-30 80.7249 100.88)" fill="white"></rect>
    </clipPath>
    <clipPath id="clip3_100_681">
      <rect x="204.5" y="54" width="26.4963" height="47.1045" rx="5.39739" transform="rotate(28.5332 204.5 54)" fill="white"></rect>
    </clipPath>
  </defs>
</svg>
