<?xml version="1.0" encoding="UTF-8"?>
<svg xmlns="http://www.w3.org/2000/svg" width="320" height="319" viewBox="0 0 320 319" fill="none">
  <g opacity="0.7">
    <g clip-path="url(#clip0_2271_1744)">
      <path fill-rule="evenodd" clip-rule="evenodd" d="M41.5777 183.83L40.8823 210.786C46.4861 210.581 49.513 210.131 54.176 208.904C54.4214 214.835 53.6852 220.275 54.0533 225.511C58.2664 226.247 57.3665 224.652 62.1522 225.593L63.2566 225.143C62.234 220.725 62.3567 224.897 62.8067 220.275L64.1974 216.144L67.2652 216.512C67.5106 214.753 66.1199 214.999 67.5924 214.999C69.8421 211.44 64.77 214.099 68.9422 214.181C71.4782 214.262 68.2877 215.653 75.1596 215.571C78.8409 215.571 82.3586 215.326 86.0808 216.103L86.4081 211.972C80.9679 211.89 84.7719 212.054 86.2035 210.745L87.3079 196.06L91.3983 195.815L92.0527 191.52L108.905 191.275L108.864 244.695C99.1291 246.454 106.533 243.427 100.806 241.995C100.643 242.077 100.438 242.118 100.397 242.363L97.8611 245.308C95.5296 248.744 97.6565 247.231 93.7298 249.48C97.9429 249.889 104.978 248.458 108.128 251.076L110.868 250.217L109.314 248.826C106.533 246.167 109.805 249.808 107.596 246.985L114.836 246.494C113.241 242.404 113.118 247.476 113.241 241.422L113.2 212.954L117.045 213.322C118.804 210.99 129.111 209.436 129.316 209.436C129.357 212.176 128.702 228.456 130.298 229.07L134.347 230.542C133.652 224.693 135.329 216.389 134.02 211.972C138.069 210.908 135.411 211.726 137.292 211.972C141.301 212.381 135.779 212.831 139.992 212.381C143.878 211.972 141.669 213.69 143.141 209.477L149.441 209.149C150.709 214.835 149.277 212.913 148.459 213.035C148.459 218.23 148.377 223.548 148.377 228.62C148.377 231.237 148.377 233.569 148.5 236.187L148.582 239.541C148.541 241.791 147.968 239.091 148.459 243.059L152.181 243.386L151.649 221.543L156.149 221.625L172.796 221.339L172.428 169.882C167.111 171.436 170.751 168.532 168.911 173.686C165.393 173.809 159.626 173.032 157.212 174.545C156.64 178.799 156.844 184.894 156.762 189.434C156.68 192.134 156.762 194.465 156.68 197.165C156.476 202.482 156.64 201.787 155.29 203.218C152.672 198.964 156.149 196.06 152.59 190.457L148.991 183.871C148.418 182.439 149.072 183.053 148.295 181.826C148.254 181.826 147.068 178.472 143.673 180.721C140.687 182.726 144.082 183.176 139.419 187.266L138.274 188.207C136.188 185.957 138.192 185.794 135.37 184.771C134.429 184.403 130.339 184.525 128.907 184.403C124.326 189.884 125.307 191.356 125.062 198.024C124.776 205.345 122.321 208.209 114.795 205.305C113.445 202.278 113.65 193.933 113.568 190.334C113.445 184.975 113.854 179.249 112.914 174.054L111.686 171.764C111.605 171.641 111.482 171.395 111.359 171.273C111.277 171.109 111.114 170.905 110.991 170.782L109.805 169.309C109.682 169.146 109.519 168.941 109.437 168.819L108.455 166.732C107.678 168.123 108.537 166.773 107.76 168.205C106.942 169.841 107.555 168.819 106.737 169.841L101.665 170.127C100.479 172.132 100.765 174.218 100.274 172.95C100.233 172.786 100.07 173.4 99.9471 173.604C85.5082 173.604 87.7579 172.459 87.5534 181.785C87.3488 181.949 87.0625 182.071 86.9398 182.194L85.999 182.971C84.4856 184.771 85.7945 185.507 84.2402 187.348C82.4813 185.712 79.9453 186.448 74.8732 186.407C74.3006 184.116 74.8732 184.525 72.7053 183.871C72.7053 183.912 73.8097 185.098 70.9874 186.366C66.6516 184.689 66.3244 179.413 65.5472 177.858C60.3524 178.39 67.7969 178.799 60.6797 179.576L59.9434 173.4L57.3665 173.441C53.8079 180.558 62.7249 183.217 48.654 182.767V174.34C43.3774 174.381 44.8091 177.326 44.6455 182.644C44.1137 182.889 41.7004 183.748 41.5777 183.83Z" fill="#84ACC4"></path>
      <path fill-rule="evenodd" clip-rule="evenodd" d="M279.637 148.571C279.678 158.879 276.078 172.336 276.937 182.44C277.101 183.667 275.219 202.196 274.974 204.16C274.401 208.7 274.892 223.711 272.847 226.411C276.364 226.125 274.319 225.716 275.751 225.634C279.35 225.429 275.792 227.27 283.563 226.861C285.363 226.738 285.2 226.697 287.367 226.902L288.963 219.048H291.54C291.744 219.662 291.703 220.03 291.785 220.766L292.03 222.893C292.48 219.826 293.503 216.921 294.076 213.608C294.198 213.608 294.403 213.649 294.403 213.813L295.098 214.304C298.739 216.962 307.737 216.226 311.46 215.408L311.132 212.013L295.425 212.177C300.375 211.972 308.351 213.486 312.114 211.072C311.46 209.027 310.805 210.827 309.251 207.186C308.556 205.468 308.065 203.914 307.206 201.91C305.61 203.096 304.833 202.033 305.897 205.182V195.652C305.897 195.611 306.224 192.911 306.265 192.584L303.77 193.565C302.543 193.974 303.893 194.056 302.87 193.688C302.42 192.543 301.725 191.275 302.829 190.62C305.242 189.271 303.279 195.365 305.12 190.416C305.201 190.17 305.57 190.375 305.692 190.293L305.61 186.898L302.215 185.18C302.747 181.949 304.22 182.276 304.424 181.458C304.506 181.131 304.792 181.131 304.997 180.926L303.729 179.004C301.438 174.75 303.402 175.895 303.852 174.463C305.242 169.841 304.465 171.682 302.052 169.023C305.447 163.092 301.929 166.446 302.584 159.452C302.829 157.039 302.87 155.402 302.175 153.398C301.357 150.862 301.929 151.476 299.72 150.289C300.784 145.913 302.993 152.007 301.602 145.422C300.498 140.186 299.066 145.954 300.088 140.8C300.579 138.55 301.111 143.09 300.211 134.91C299.925 132.292 300.252 130.574 299.843 127.547C299.475 122.925 299.352 118.344 298.943 114.417C298.33 109.263 298.452 111.595 297.389 108.609C296.693 106.563 297.225 105.418 298.248 104.027L283.523 103.905C284.831 112.045 280.128 138.796 279.637 148.571Z" fill="#B1AEAE"></path>
      <path fill-rule="evenodd" clip-rule="evenodd" d="M190.344 248.826L192.757 249.358C195.539 252.425 192.021 251.28 195.825 252.507C197.707 254.512 195.375 251.117 197.543 254.389C199.588 257.538 198.648 274.063 198.607 277.99H200.611L200.243 161.701L177.991 161.988C176.887 166.446 177.419 221.707 177.623 233.733C177.909 251.648 179.423 244.04 183.391 252.385C191.408 250.871 183.554 250.258 190.344 248.826Z" fill="#287BA3"></path>
      <path fill-rule="evenodd" clip-rule="evenodd" d="M172.224 161.783L176.6 161.701L177.991 161.988L200.243 161.701L200.611 277.99H202.124V235.614L202.002 224.161C206.337 225.347 208.014 222.525 210.878 226.861C211.941 228.497 213.332 234.019 213.945 236.064C213.291 238.764 212.064 243.059 216.604 243.468L218.69 234.673H224.335L223.803 233.978L218.445 234.101C219.426 229.519 219.467 231.933 218.404 227.352L224.335 227.474L224.662 211.072L218.036 210.949C220.572 209.395 222.617 211.113 224.908 208.822L217.954 209.109C218.158 208.945 218.445 208.781 218.608 208.7C222.249 207.309 217.422 208.045 223.394 208.045L223.721 205.386C223.721 205.223 223.721 204.977 223.721 204.814C223.68 202.441 223.108 206.9 223.353 201.214L229.284 201.541L229.611 180.926L223.394 181.458C222.085 183.912 222.453 185.384 222.658 188.616C222.494 188.739 222.208 188.861 222.126 188.943L220.572 190.047C220.245 190.334 219.222 191.193 219.14 191.275C216.972 187.102 217.954 181.621 214.109 179.085C208.26 175.322 204.742 178.963 202.042 182.644L201.388 159.656C197.911 157.406 197.502 160.106 194.557 157.938C196.07 152.253 199.22 157.161 197.011 150.126L195.13 151.925C191.735 155.729 194.23 153.48 194.025 159.411L183.881 159.329C183.513 155.975 184.454 148.039 181.263 147.671L180.813 157.775C178.482 158.756 174.882 158.347 172.755 158.347C170.71 161.497 171.815 158.552 172.224 161.783Z" fill="#84ACC4"></path>
      <path fill-rule="evenodd" clip-rule="evenodd" d="M87.3079 196.06C85.4264 201.868 86.5717 255.084 87.1443 265.064C90.2121 264.533 90.0894 264.124 92.2982 265.228C92.38 267.478 92.2573 269.686 92.1346 271.936C91.971 275.127 92.0119 273.981 92.2982 277.99H93.8934L93.7298 249.48C97.6566 247.23 95.5296 248.744 97.8611 245.308L100.397 242.363C100.438 242.117 100.643 242.077 100.806 241.995C106.533 243.426 99.1291 246.453 108.864 244.694L108.905 191.274L92.0528 191.52L91.3983 195.815L87.3079 196.06Z" fill="#2F3950"></path>
      <path fill-rule="evenodd" clip-rule="evenodd" d="M172.796 221.339L156.149 221.625L155.167 244.736L152.181 243.386C152.917 245.881 152.017 244.94 155.658 245.022C155.78 245.267 155.903 245.349 155.985 245.799C156.026 246.208 156.189 246.331 156.23 246.535C157.212 250.258 157.171 259.584 156.23 262.651C155.862 266.251 155.985 264.001 157.008 264.778C159.584 264.001 158.194 264.001 161.262 263.429C163.307 263.02 164.329 263.02 166.293 262.61C166.743 267.723 167.274 271.65 167.233 277.99H185.313C185.476 270.587 184.29 259.052 184.822 252.753L187.808 251.935L190.344 248.826C183.554 250.258 191.407 250.871 183.39 252.385C179.423 244.04 177.909 251.648 177.623 233.733C177.418 221.707 176.887 166.446 177.991 161.988L176.6 161.701V243.958H172.837L172.796 221.339Z" fill="#4C6384"></path>
      <path fill-rule="evenodd" clip-rule="evenodd" d="M108.128 251.075C106.492 253.284 107.8 250.544 106.778 254.879L111.604 255.002L111.4 248.294C116.227 248.007 115.163 248.662 115.04 254.102C114.999 257.743 114.754 260.606 115.286 264.287C118.763 264.287 118.763 263.674 121.053 263.796C129.52 264.205 126.78 267.028 127.148 277.99H134.797C135.492 275.536 147.232 276.845 150.136 276.64C148.909 275.495 151.567 274.227 141.628 274.595C138.724 274.718 136.474 275.372 134.96 273.736L149.318 273.163C144.532 268.868 137.496 273.531 134.92 270.341C137.578 269.318 140.442 269.768 143.427 269.768C150.545 269.768 149.318 270.504 150.545 271.2L151.895 271.977C153.531 268.05 150.667 267.109 153.694 265.064C149.563 264.86 139.051 265.392 136.76 264.573C134.674 263.837 136.147 264.696 135.042 263.51C137.865 261.792 151.813 262.651 156.23 262.651C157.171 259.583 157.212 250.257 156.23 246.535C156.189 246.33 156.026 246.208 155.985 245.799C155.903 245.349 155.78 245.267 155.658 245.022C154.88 248.13 156.271 247.312 150.258 247.23C139.623 247.108 135.697 248.048 128.907 248.13C130.297 241.954 131.075 241.463 128.13 239.54C127.148 238.927 127.311 240.277 126.862 239.05C126.739 238.763 126.412 238.927 126.166 238.845C126.657 234.427 127.434 215.939 125.512 213.648C122.771 217.125 126.657 223.384 123.998 227.065C122.158 229.642 122.362 224.283 121.83 230.378C121.012 239.05 124.857 228.537 124.735 238.804C124.653 247.353 125.43 242.854 127.189 248.048L117.004 247.967C120.031 239.172 120.481 251.607 120.726 240.645C120.93 231.646 120.153 224.774 120.808 213.362L119.417 215.816C118.394 218.639 119.131 240.522 119.417 242.281C117.208 241.095 120.072 243.549 117.535 239.827L117.495 228.619C116.186 225.388 116.717 229.601 117.004 226.451L117.045 213.321L113.2 212.953L113.241 241.422C113.118 247.476 113.241 242.404 114.836 246.494L107.596 246.985C109.805 249.807 106.532 246.167 109.314 248.826L110.868 250.216L108.128 251.075Z" fill="#757C94"></path>
      <path fill-rule="evenodd" clip-rule="evenodd" d="M250.431 191.684L251.209 208.086L255.585 208.863L255.708 222.484L255.831 223.507L256.158 243.877L260.985 244.408L259.389 255.902C258.694 255.861 258.203 255.616 257.221 255.861C258.08 258.602 257.794 257.457 259.512 259.011L261.516 261.711C261.598 261.097 261.639 259.911 261.803 259.338C262.253 257.743 262.048 258.438 262.58 257.62C264.87 261.424 261.598 259.911 265.648 262.12L264.87 260.115C265.893 259.543 268.143 259.338 270.229 257.579C269.37 248.867 269.492 235.696 269.942 227.433L272.847 226.411C274.892 223.711 274.401 208.699 274.974 204.159C275.219 202.196 277.101 183.666 276.937 182.439L273.01 182.644L272.806 174.136C271.006 176.713 271.619 178.513 271.579 182.358L265.443 182.93C263.684 193.565 267.406 196.142 262.743 205.509C260.944 201.296 260.412 196.183 258.285 192.093L250.431 191.684Z" fill="#84ACC4"></path>
      <path fill-rule="evenodd" clip-rule="evenodd" d="M-2.10746 173.195H3.70086C3.49634 176.509 3.33273 177.49 3.61905 180.967L-0.921253 181.294C3.12821 182.767 2.80098 180.067 3.49634 184.321C1.45116 185.835 0.919411 185.385 -1.86204 184.771L-2.10746 173.195ZM-48.574 139L-47.715 142.19L-24.7681 142.027L-24.6045 181.744C-18.1417 181.213 -26.0361 177.122 -10.4927 178.308C-10.1246 178.799 -9.87915 179.413 -9.55192 180.026C-8.93836 181.049 -9.06107 180.844 -8.61113 181.581C-7.54764 183.38 -8.12029 181.908 -7.0977 184.158C-6.07511 186.407 -5.78878 188.33 -5.29794 190.743L-1.78023 190.702L-1.82113 186.08L3.41453 186.039L3.49634 208.373L-0.839447 208.986L-1.37119 209.109C3.61905 208.986 8.15935 208.045 11.3907 210.745C5.86875 213.281 10.0818 210.459 6.11417 212.422L5.99146 219.253C5.82785 220.153 5.78694 220.889 5.41881 221.789C6.19598 222.321 7.66851 222.402 6.76863 223.548C6.68682 223.67 6.27779 223.875 6.19598 223.957C6.07327 224.08 5.66423 224.202 5.41881 224.366L6.89134 239.091C6.52321 241.832 5.62333 238.314 6.27779 241.382C10.3272 241.627 7.42309 240.85 10.4909 243.1L10.2863 213.445L16.0128 213.567C16.2174 213.322 16.5855 212.79 16.7491 212.995C16.9536 213.24 17.1991 212.095 19.6533 211.44C19.9396 211.359 21.4121 211.236 21.6575 211.277C21.8212 211.277 22.1075 211.318 22.2302 211.318L44.6454 211.727C48.2858 213.036 45.3817 210.909 47.9995 214.099C50.4128 213.281 51.3536 213.076 53.8078 214.14C53.9305 219.007 54.2168 223.793 53.276 228.497C57.2437 226.329 57.3664 226.943 60.8023 227.229L66.5288 227.475V226.738L63.3383 227.188L62.1521 225.593C57.3664 224.652 58.2663 226.247 54.0532 225.511C53.6851 220.275 54.4213 214.835 54.1759 208.904C49.5129 210.131 46.486 210.581 40.8822 210.786L22.5165 210.418L22.6801 177.654C28.3657 177.449 37.5691 176.672 42.1912 178.227C40.3914 174.3 36.6283 176.263 26.7705 175.813C27.1795 174.627 27.7522 173.073 27.4659 171.518C26.7296 168.082 28.1612 169.637 25.0116 168.164C22.9665 170.782 23.3755 164.647 23.5391 172.377C23.6209 175.282 23.4573 173.195 24.6435 176.059L21.9439 175.118L21.3712 210.663L15.6038 210.827L15.8901 177.531L12.4542 175.813C13.1087 174.872 10.9817 174.995 14.7857 175.2C13.5586 172.868 17.0763 172.868 11.6362 173.645L7.42309 172.868L6.97315 170.25C3.98718 171.518 4.27351 170.905 0.714893 171.273C-2.63921 172.786 -0.962154 171.028 -1.37119 170.128C-7.17951 170.7 -5.70698 170.046 -11.5971 170.046C-12.497 171.6 -12.2925 170.414 -12.2925 173.441C-13.9286 172.664 -14.7467 172.173 -16.7101 171.723C-18.9188 175.282 -15.8511 173.236 -19.1234 174.341C-22.3957 175.445 -20.1869 175.527 -21.0867 173.482C-24.2363 174.545 -21.1685 172.623 -23.2546 176.795C-23.2955 169.964 -23.4182 163.092 -23.4182 156.261C-23.4592 147.099 -25.218 138.468 -21.5776 140.023C-27.5495 138.427 -23.6228 139.45 -27.6722 139.45C-29.3902 139.45 -28.3676 139.491 -29.472 139.205C-30.2901 131.801 -26.3224 141.863 -27.7131 130.369C-29.5947 130.942 -29.6765 127.547 -30.331 134.092C-30.2901 134.01 -30.4128 133.887 -30.4537 133.846C-33.5214 131.924 -32.6625 139.205 -32.6625 139.245L-40.8841 139C-41.4976 128.242 -39.4116 130.206 -43.9519 128.161C-45.8334 131.065 -45.179 135.85 -45.4653 139.205L-48.574 139Z" fill="#B6BBC6"></path>
      <path fill-rule="evenodd" clip-rule="evenodd" d="M226.83 160.474C229.816 159.984 229.325 160.352 232.72 159.656C231.575 164.81 231.575 162.151 232.761 167.142L227.689 166.978C226.871 164.728 227.689 163.706 226.83 160.474ZM231.493 130.942C230.921 134.051 230.675 135.523 227.935 136.955C227.771 137.037 226.462 137.405 226.135 137.527C226.789 144.236 225.112 155.198 226.83 160.474C225.44 163.133 226.912 170.291 226.258 173.032L228.916 173.85L231.943 173.482C231.534 176.672 231.739 177.981 231.33 181.417C235.829 181.213 238.856 180.926 242.987 181.785C242.946 181.417 242.619 179.045 242.701 178.554C242.946 175.568 241.965 178.799 243.314 176.754C242.21 180.64 243.069 180.354 243.846 181.417C245.769 181.213 246.464 181.09 248.1 180.722C248.141 180.19 248.141 177.531 248.141 177.49C249.205 173.604 247.855 175.691 250.677 173.359L250.391 208.986C248.264 207.227 247.282 208.659 248.468 202.237C247.118 201.419 250.186 199.619 246.137 201.91C246.055 201.951 245.932 202.278 245.81 202.482L246.178 197.329C244.869 203.096 245.114 200.028 248.141 200.724C248.346 197.615 249.123 188.33 247.241 185.548C245.564 187.389 246.873 184.976 246.178 187.757V196.715C245.687 193.525 245.319 190.13 246.382 186.898C246.096 186.735 245.687 186.285 245.523 186.53L242.128 185.18C244.787 183.708 241.351 185.262 245.646 184.935C245.769 184.935 246.055 184.976 246.178 184.935C246.3 184.935 246.587 184.894 246.669 184.853C249.041 183.912 247.977 185.916 248.182 182.644C246.505 181.663 237.997 181.417 235.256 181.663C230.266 182.153 233.129 180.804 231.411 183.503C233.743 186.898 230.389 183.871 235.338 185.467L237.015 185.998C237.261 186.08 237.629 186.121 237.874 186.285L231.289 185.303C231.78 189.68 232.23 195.938 231.411 199.66C231.657 199.824 232.025 199.701 232.148 200.028C233.498 203.178 231.33 198.965 235.584 201.501C232.966 201.051 233.007 201.255 231.493 202.237L231.698 205.632C231.821 206.982 231.248 205.673 232.025 208.782L250.227 208.823C256.24 209.15 254.849 208.127 255.422 212.422L226.585 211.89C226.012 214.508 226.135 219.212 226.012 222.484L242.578 222.771C243.069 218.721 241.392 221.216 244.255 222.28L255.708 222.484L255.586 208.863L251.209 208.086L250.432 191.684L249.941 174.136C249.491 173.973 248.918 174.177 247.528 173.032C247.323 173.195 246.382 173.686 246.178 173.727L241.351 173.686C238.447 173.604 235.461 173.645 232.761 173.604L232.679 138.305C237.383 137.323 240.083 139.45 243.601 137.527C243.478 135.646 244.051 137.855 243.314 135.646C242.865 134.378 242.578 134.296 242.128 133.723L242.21 137.282L237.915 137.078L237.506 136.382C234.479 135.564 236.443 137.078 234.847 134.951C236.729 131.556 237.956 130.369 236.32 125.625C234.316 127.465 235.829 125.216 234.766 128.161C234.438 129.142 234.52 129.96 234.479 130.901L231.493 130.942Z" fill="#9BA4B4"></path>
      <path fill-rule="evenodd" clip-rule="evenodd" d="M273.215 277.99H273.665L273.91 262.406C281.641 262.61 274.442 264.205 282.173 263.96C285.159 263.878 289.045 263.469 291.54 264.164C295.017 265.064 291.908 264.983 296.244 264.328C294.935 264.451 295.098 264.042 294.117 265.023L293.421 266.128C293.299 266.414 293.176 267.232 293.258 267.641C300.579 269.441 310.805 268.214 319.191 268.623L319.641 274.022V264.042C316.941 264.983 317.023 265.146 314.487 264.369L318.454 262.978C311.992 261.138 313.832 265.105 312.973 259.42C313.26 261.833 312.687 263.06 311.951 265.228L310.683 243.345L311.419 240.768C315.059 240.195 313.832 241.218 315.468 238.886L292.399 239.091C291.54 241.749 292.808 236.268 292.562 241.095C292.481 242.895 291.253 240.113 292.399 242.936L307.901 242.567L307.697 246.494C304.997 247.68 298.371 247.271 294.853 247.189C290.149 247.067 286.14 244.285 286.1 244.204C286.018 243.958 285.65 244.081 285.486 243.999L289.699 243.426L291.499 227.31C286.14 226.492 289.535 227.269 286.1 228.292C280.537 229.887 277.346 227.76 271.456 228.987L271.17 232.996L285.895 233.119C283.236 234.673 282.214 234.223 282.214 234.223C278.982 234.55 273.583 233.282 271.292 234.591C273.01 237.659 277.183 235.123 282.214 235.818L284.586 236.514C284.75 236.268 285.118 236.718 285.322 236.841C281.764 237.454 280.618 237.045 276.978 236.964L272.929 237.127C272.724 237.209 272.397 237.332 272.233 237.373C272.07 237.414 271.701 237.863 271.579 237.659C271.456 237.454 271.129 237.823 270.924 237.986C272.56 239.172 274.115 238.845 274.483 238.845L284.3 239.704C282.991 240.481 283.85 240.072 282.582 240.195C280.087 240.522 274.033 239.131 271.292 240.522C273.256 244.531 281.15 239.581 284.177 242.24C282.705 243.59 274.851 242.813 271.947 242.486L271.415 247.23C277.101 247.558 282.214 246.126 283.85 247.353C282.091 249.03 281.682 248.498 277.06 248.335C273.624 248.253 273.256 247.639 271.129 249.071L283.032 249.848C283.114 250.053 283.114 250.339 283.154 250.503C285.527 258.479 285.118 253.816 296.653 253.898C300.866 253.898 304.22 253.979 308.556 253.611C304.629 257.743 302.052 254.716 292.685 255.861L305.038 256.72C307.901 257.293 306.388 256.556 307.983 258.847C302.625 257.538 297.021 258.561 291.54 258.07C290.599 256.516 292.89 255.493 288.145 254.552C285.772 254.102 286.181 253.57 283.932 255.657L283.277 256.761C283.195 256.638 283.154 257.17 283.032 257.374C280.618 257.129 275.26 256.475 272.969 257.334C269.82 258.479 273.583 255.37 271.047 258.765C281.846 259.256 281.559 256.556 284.709 260.115C283.114 263.306 286.345 262.856 279.678 262.528C275.874 262.365 271.661 256.679 273.215 277.99Z" fill="#8B94A4"></path>
      <path fill-rule="evenodd" clip-rule="evenodd" d="M44.5634 245.471L46.1587 245.553L45.9951 214.344C40.8003 213.117 23.3345 213.73 17.4443 214.262L17.7716 245.226L44.5634 245.471Z" fill="#287BA3"></path>
      <path fill-rule="evenodd" clip-rule="evenodd" d="M86.0807 216.103L85.7943 215.857V224.365C84.8126 226.983 87.3487 222.116 84.8944 225.101C83.4628 226.779 83.9946 223.138 84.4445 225.879C84.8126 227.842 83.7491 225.101 85.2217 226.983C85.3035 227.065 85.6716 227.597 85.7534 227.433C85.7943 227.269 86.1625 227.76 86.2852 227.965L80.8859 228.456C81.3767 228.537 82.0312 228.742 83.2583 229.846C85.917 232.178 80.7632 231.196 86.2034 231.891L84.6081 233.569C83.7082 235.859 85.6716 233.937 85.3035 235.777L84.24 237.291C84.1991 237.168 83.9537 237.536 83.8719 237.7C87.635 237.659 85.2626 237.741 85.8761 238.436C87.3896 247.189 87.226 256.229 86.6942 265.228C90.3755 265.432 89.8438 264.042 91.3981 266.946C88.044 269.85 69.7601 268.132 65.0971 268.582C65.6288 263.305 65.6697 259.297 64.5244 254.757L64.729 252.139C64.9744 251.362 65.2607 251.893 65.3425 249.889L62.2747 247.762C57.939 248.662 52.0488 248.703 48.2448 247.967C48.2039 247.721 48.2039 247.394 48.2039 247.189C48.163 246.985 48.163 246.658 48.163 246.412L47.5085 240.031C47.1813 241.34 46.2814 245.308 46.1587 245.553L44.5635 245.471L43.4591 246.126C41.0049 247.926 41.6184 247.189 41.0867 249.153C41.2912 249.071 41.5366 248.948 41.6593 248.907C41.7411 248.866 42.0684 248.703 42.1911 248.662L43.2955 248.335C44.1953 248.13 44.5635 248.212 45.4634 248.212C45.9133 251.034 45.5861 248.907 45.4225 251.362L45.4634 277.99H92.298C92.0117 273.981 91.9708 275.127 92.1344 271.936C92.2571 269.686 92.3798 267.478 92.298 265.228C90.0892 264.124 90.2119 264.533 87.1441 265.064C86.5715 255.084 85.4262 201.868 87.3078 196.06L86.2034 210.744C84.7717 212.053 80.9677 211.89 86.4079 211.971L86.0807 216.103Z" fill="#626D83"></path>
      <path fill-rule="evenodd" clip-rule="evenodd" d="M65.2608 238.232L67.5924 237.863C66.5289 239.377 66.5698 238.191 66.6107 240.399C66.6107 240.44 67.5105 242.731 67.5924 242.854C67.4287 246.003 67.4696 251.484 66.7334 253.407C65.7926 250.584 67.4696 252.057 65.8335 247.312L62.2749 247.762L65.3427 249.889C65.2608 251.893 64.9745 251.362 64.7291 252.139L64.5246 254.757C65.6699 259.297 65.629 263.306 65.0972 268.582C69.7602 268.132 88.0442 269.85 91.3983 266.946C89.8439 264.042 90.3757 265.432 86.6943 265.228C87.2261 256.229 87.3897 247.189 85.8763 238.436L82.0722 239.336C85.6309 227.392 77.2456 233.855 68.2059 230.664L66.7334 236.023C65.1381 234.305 66.2425 236.473 65.5063 233.65C64.6882 230.542 65.8744 229.069 66.5289 227.474L60.8024 227.229C61.6613 229.887 60.9251 228.865 62.4794 230.337C62.1113 228.987 63.7883 230.133 60.8024 229.478C62.1522 235.123 61.2523 232.26 60.7614 233.732C56.9574 233.446 57.571 233.037 54.4214 233.855L61.6204 234.305L59.9434 238.436C59.9843 238.436 63.3384 238.968 63.3793 238.968C68.1241 238.722 62.9702 240.031 65.2608 238.232Z" fill="#8B94A4"></path>
      <path fill-rule="evenodd" clip-rule="evenodd" d="M-1.37131 227.433L-1.33041 234.019L-0.880468 237.127C-2.43481 238.477 -3.90734 238.6 -5.87071 238.313C-0.67595 237.904 -1.2077 239.418 -0.55324 240.522C-2.92565 243.385 -4.07095 242.731 -8.07951 242.199C-6.8933 244.981 -7.75228 242.24 -6.8524 243.876C-5.62529 246.003 -5.95252 242.731 -6.48426 245.308L-10.6973 245.553L-10.9019 247.599C-7.38414 247.23 -8.89758 246.699 -6.48426 248.212C-7.13872 250.094 -6.03432 249.071 -9.38842 250.421L-6.44336 252.466C-7.79318 255.207 -6.52517 254.266 -10.82 254.061C-10.6155 254.184 -10.2883 254.061 -10.1656 254.307C-9.96107 254.961 -7.58866 254.511 -6.44336 256.72C-6.60698 256.884 -6.97511 256.761 -7.09782 257.047C-7.34324 257.743 -9.71565 257.293 -10.6973 259.092L-6.8933 258.683C-6.77059 258.847 -6.60698 258.888 -6.56607 259.174L-5.33896 265.228C-4.23457 261.097 -4.72541 262.897 -5.09354 258.602C-1.73944 259.542 -3.00746 259.461 0.428448 259.461L4.68242 258.438C1.36923 256.884 1.32833 258.315 -2.18938 257.743C-5.58438 257.252 -2.63932 258.724 -5.13445 256.72C-2.51661 252.712 -3.58011 257.047 2.80086 255.166L5.00965 254.02C1.32833 253.734 -1.33041 253.325 -4.6845 254.429C-4.80722 252.18 -4.72541 252.671 -4.72541 250.748C-4.72541 249.276 -4.76631 248.826 -4.76631 247.19C1.41013 248.498 4.10977 246.985 10.5316 246.78C11.7997 248.253 11.1452 246.535 11.3088 249.235L11.6769 266.005C12.6995 268.418 11.636 255.411 11.7997 253.243C11.7997 253.08 12.1269 251.034 12.1269 250.912C12.8631 248.498 11.7588 250.544 13.1495 248.948L41.0866 249.153C41.6184 247.19 41.0048 247.926 43.4591 246.126L44.5635 245.472L17.7716 245.226L17.4444 214.262C22.5982 212.503 41.6593 212.871 47.9994 214.098C45.3815 210.908 48.2857 213.035 44.6453 211.726L22.2301 211.317C22.1074 211.317 21.821 211.276 21.6574 211.276C21.412 211.235 19.9395 211.358 19.6531 211.44C17.1989 212.094 16.9535 213.24 16.749 212.994C16.5854 212.79 16.2172 213.321 16.0127 213.567L16.3809 245.84L11.3906 245.799C10.818 244.899 10.5725 246.003 10.4907 243.099C7.42297 240.849 10.3271 241.627 6.27766 241.381C5.62321 238.313 6.52309 241.831 6.89122 239.091L5.41869 224.365C5.66411 224.202 6.07315 224.079 6.19586 223.956C6.27766 223.874 6.6867 223.67 6.76851 223.547C7.66839 222.402 6.19586 222.32 5.41869 221.788C5.78682 220.888 5.82772 220.152 5.99134 219.252L6.11405 212.421C10.0817 210.458 5.86863 213.28 11.3906 210.744C8.15923 208.045 3.61893 208.986 -1.37131 209.108L-7.46595 210.744C-7.26143 210.785 -6.97511 210.826 -6.8524 210.826L-0.880468 211.194L-1.37131 227.433Z" fill="#C6CBD5"></path>
      <path fill-rule="evenodd" clip-rule="evenodd" d="M224.253 233.405L223.803 233.978L224.335 234.673C224.499 239.541 227.076 244.613 217.463 241.708C217.586 241.954 217.831 242.199 217.913 242.363C217.995 242.526 218.24 242.813 218.322 242.976C219.958 246.044 219.631 243.958 218.69 245.022C216.932 245.144 217.177 244.776 215.664 245.308C212.432 246.371 214.559 245.103 212.35 247.271L219.14 247.353C219.222 247.639 219.222 247.967 219.263 248.212L219.631 253.366C219.631 255.534 219.918 256.556 218.895 258.438L219.345 261.833C221.186 255.534 219.508 261.26 221.717 258.561C226.053 260.197 225.767 259.215 230.225 259.215C231.78 259.174 233.129 259.379 234.438 259.42C237.302 259.42 237.22 259.297 240.001 258.97C239.02 263.837 238.774 261.138 240.451 266.087L239.592 259.133L245.564 259.297C248.795 259.583 247.936 259.706 251.086 258.847L251.536 261.833C250.8 260.892 250.513 263.387 251.577 259.542C254.89 259.461 255.831 259.42 256.813 260.442L256.731 260.974C258.04 257.988 256.608 259.665 259.512 259.011C257.794 257.456 258.081 258.602 257.222 255.861C258.203 255.616 258.694 255.861 259.39 255.902L260.985 244.408L256.158 243.876L255.831 223.506L255.422 244.449L224.417 244.531L224.253 233.405Z" fill="#B6BBC6"></path>
      <path fill-rule="evenodd" clip-rule="evenodd" d="M40.8823 210.786L41.5777 183.83L42.1912 178.226C37.5691 176.672 28.3658 177.449 22.6802 177.654L22.5166 210.417L40.8823 210.786Z" fill="#287BA3"></path>
      <path fill-rule="evenodd" clip-rule="evenodd" d="M-18.06 273.409C-18.8371 275.249 -19.0826 275.495 -18.7962 277.99H39.2051L39.246 268.623L-14.7468 268.214C-14.5423 267.969 -14.2968 267.641 -14.0923 267.437L-11.9244 265.228H-15.8512L-15.9739 274.595L-18.06 273.409Z" fill="#626D83"></path>
      <path fill-rule="evenodd" clip-rule="evenodd" d="M226.135 239.704C229.161 238.191 242.414 239.295 246.709 239.173C248.959 239.132 251.822 238.764 253.704 239.704C253.049 242.2 255.217 241.668 248.1 241.668H232.597C228.507 241.791 226.994 242.895 226.135 239.704ZM226.053 223.507C234.643 222.648 244.459 223.466 253.213 223.343C254.194 225.674 253.499 233.528 253.99 237.741C249.286 238.355 230.511 238.477 226.135 237.782L226.053 223.507ZM229.53 181.417L229.611 180.926L229.284 201.541L229.08 208.659L224.907 208.822C222.617 211.113 220.572 209.395 218.036 210.949L224.662 211.072L224.335 227.474L224.253 233.405L224.417 244.531L255.422 244.449L255.831 223.507L255.708 222.484L244.255 222.279C241.392 221.216 243.069 218.721 242.578 222.77L226.012 222.484C226.135 219.212 226.012 214.508 226.585 211.89L255.422 212.422C254.849 208.127 256.24 209.149 250.227 208.822L232.025 208.781C231.248 205.673 231.82 206.982 231.697 205.632L231.493 202.237C233.006 201.255 232.965 201.051 235.583 201.5C231.329 198.964 233.497 203.177 232.147 200.028C232.025 199.701 231.657 199.823 231.411 199.66C232.229 195.938 231.779 189.679 231.288 185.303L237.874 186.284C237.628 186.121 237.26 186.08 237.015 185.998L235.338 185.466C230.389 183.871 233.743 186.898 231.411 183.503C233.129 180.803 230.266 182.153 235.256 181.662C237.997 181.417 246.505 181.662 248.182 182.644C247.977 185.916 249.041 183.912 246.668 184.853C246.586 184.894 246.3 184.934 246.177 184.934C246.055 184.975 245.768 184.934 245.646 184.934C241.351 185.262 244.787 183.707 242.128 185.18L245.523 186.53C245.686 186.284 246.096 186.734 246.382 186.898C245.318 190.129 245.686 193.524 246.177 196.715V187.757C246.873 184.975 245.564 187.389 247.241 185.548C249.122 188.329 248.345 197.615 248.141 200.723C245.114 200.028 244.868 203.096 246.177 197.328L245.809 202.482C245.932 202.278 246.055 201.95 246.136 201.909C250.186 199.619 247.118 201.419 248.468 202.237C247.282 208.659 248.263 207.227 250.39 208.986L250.677 173.359C247.854 175.69 249.204 173.604 248.141 177.49C248.141 177.531 248.141 180.19 248.1 180.721C246.464 181.09 245.768 181.212 243.846 181.417C243.069 180.353 242.21 180.64 243.314 176.754C241.964 178.799 242.946 175.568 242.701 178.554C242.619 179.044 242.946 181.417 242.987 181.785C238.856 180.926 235.829 181.212 231.329 181.417C231.738 177.981 231.534 176.672 231.943 173.481L228.916 173.85L229.53 181.417Z" fill="#DFE1DE"></path>
      <path fill-rule="evenodd" clip-rule="evenodd" d="M259.512 259.011C256.608 259.665 258.04 257.988 256.731 260.974L256.813 260.442C255.831 259.42 254.89 259.461 251.577 259.542C250.513 263.387 250.8 260.892 251.536 261.833L251.086 258.847C247.936 259.706 248.795 259.583 245.564 259.297C247.118 262.487 247.282 265.146 246.423 267.764H219.14L219.345 261.833L218.895 258.438C214.886 258.52 214.927 258.724 213.209 260.115C214.559 262.937 210.469 258.233 214.436 261.424C216.441 263.019 216.4 262.201 217.463 262.692C213.823 262.692 214.477 264.287 210.714 265.105C209.201 265.433 204.006 265.187 202.002 265.228C203.27 268.132 201.593 266.578 203.474 267.805L203.842 266.373C206.91 266.332 208.178 267.069 212.35 267.11C219.181 267.191 213.864 267.887 219.181 268.418C225.071 268.991 266.425 266.701 269.206 269.482C264.83 271.2 231.207 269.891 221.595 270.014C215.623 270.055 217.054 271.118 216.891 272.059C217.709 272.55 263.194 271.118 267.488 272.1C267.693 272.141 267.979 272.263 268.143 272.304C268.306 272.345 268.634 272.795 268.756 272.591C268.838 272.427 269.165 272.754 269.329 272.877C262.989 275.986 226.135 271.364 214.886 274.39C226.626 276.517 244.255 275.29 256.608 275.331C259.88 275.331 267.366 274.677 269.247 276.313C263.766 279.258 220.94 275.045 216.441 277.99H272.111C272.274 276.027 272.315 276.108 269.615 274.472C273.583 274.268 272.315 275.208 272.111 271.609C271.906 268.623 270.393 274.104 271.62 269.032C271.661 268.828 272.438 266.905 272.601 266.087L265.77 266.332L265.648 262.119C261.598 259.911 264.871 261.424 262.58 257.62C262.048 258.438 262.253 257.743 261.803 259.338C261.639 259.911 261.598 261.097 261.516 261.71L259.512 259.011Z" fill="#8B94A4"></path>
      <path fill-rule="evenodd" clip-rule="evenodd" d="M117.045 213.321L117.004 226.451C116.717 229.601 116.186 225.388 117.495 228.619L117.536 239.827C120.072 243.549 117.208 241.095 119.417 242.281C119.131 240.522 118.394 218.639 119.417 215.816L120.808 213.362C120.153 224.774 120.931 231.646 120.726 240.645C120.481 251.607 120.031 239.172 117.004 247.967L127.189 248.048C125.43 242.854 124.653 247.353 124.735 238.804C124.857 228.537 121.012 239.05 121.83 230.378C122.362 224.283 122.158 229.642 123.998 227.065C126.657 223.384 122.771 217.125 125.512 213.649C127.434 215.939 126.657 234.428 126.166 238.845C126.412 238.927 126.739 238.763 126.862 239.05C127.311 240.277 127.148 238.927 128.13 239.541C131.075 241.463 130.297 241.954 128.907 248.13C135.697 248.048 139.623 247.108 150.258 247.23C156.271 247.312 154.881 248.13 155.658 245.022C152.017 244.94 152.917 245.881 152.181 243.385L148.459 243.058C144.818 243.467 142.978 242.976 139.951 243.754C137.742 241.463 138.642 244.49 138.642 240.318C135.779 245.594 140.033 243.222 134.306 243.672C133.938 235.655 134.388 238.272 135.819 237.291C138.928 235.123 139.092 239.213 139.092 229.683C134.142 231.401 138.642 229.028 136.228 232.014L135.329 233.65C135.206 233.528 135.165 234.305 134.96 234.591C135.369 229.233 135.86 232.587 134.347 230.542L130.297 229.069C128.702 228.456 129.357 212.176 129.316 209.435C129.111 209.435 118.804 210.99 117.045 213.321Z" fill="#B6BBC6"></path>
      <path fill-rule="evenodd" clip-rule="evenodd" d="M213.946 236.064L202.124 235.614V277.99H203.27C203.27 277.172 203.147 276.476 203.106 275.658C202.861 272.182 203.024 275.617 203.024 273.245C203.024 269.768 202.82 270.382 203.474 267.805C201.593 266.578 203.27 268.132 202.002 265.228C204.006 265.187 209.201 265.432 210.714 265.105C214.477 264.287 213.823 262.692 217.463 262.692C216.4 262.201 216.441 263.019 214.436 261.424C210.469 258.233 214.559 262.937 213.209 260.115C214.927 258.724 214.886 258.52 218.895 258.438C219.917 256.556 219.631 255.534 219.631 253.366L219.263 248.212C219.222 247.967 219.222 247.639 219.14 247.353L212.35 247.271C214.559 245.103 212.432 246.371 215.664 245.308C217.177 244.776 216.932 245.144 218.69 245.022C219.631 243.958 219.958 246.044 218.322 242.976C218.24 242.813 217.995 242.526 217.913 242.363C217.831 242.199 217.586 241.954 217.463 241.708C227.076 244.612 224.499 239.54 224.335 234.673H218.69L216.604 243.467C212.064 243.058 213.291 238.763 213.946 236.064Z" fill="#9BA4B4"></path>
      <path fill-rule="evenodd" clip-rule="evenodd" d="M46.1587 245.553C46.2814 245.308 47.1813 241.34 47.5085 240.031L48.163 246.412C48.163 246.658 48.163 246.985 48.2039 247.189C48.2039 247.394 48.2039 247.721 48.2448 247.967C52.0488 248.703 57.9389 248.662 62.2747 247.762L65.8333 247.312C67.4695 252.057 65.7924 250.584 66.7332 253.407C67.4695 251.484 67.4286 246.003 67.5922 242.854C62.8474 242.567 63.829 244.49 60.1886 242.24C61.5793 238.682 61.6612 239.5 65.2607 239.868V238.232C62.9701 240.031 68.1239 238.722 63.3791 238.968C63.3382 238.968 59.9841 238.436 59.9432 238.436L61.6203 234.305L54.4212 233.855C57.5708 233.037 56.9572 233.446 60.7613 233.732C61.2521 232.26 62.152 235.123 60.8022 229.478C63.7881 230.133 62.1111 228.987 62.4792 230.337C60.9249 228.865 61.6612 229.887 60.8022 227.228C57.3663 226.942 57.2436 226.329 53.2759 228.497C54.2167 223.793 53.9304 219.007 53.8077 214.139C51.3534 213.076 50.4127 213.28 47.9993 214.098C41.6593 212.871 22.5982 212.503 17.4443 214.262C23.3345 213.73 40.8003 213.117 45.9951 214.344L46.1587 245.553Z" fill="#9BA4B4"></path>
      <path fill-rule="evenodd" clip-rule="evenodd" d="M203.474 267.805C202.82 270.382 203.024 269.768 203.024 273.245C203.024 275.618 202.861 272.182 203.106 275.658C203.147 276.476 203.27 277.172 203.27 277.99H216.441C220.94 275.045 263.766 279.258 269.247 276.313C267.366 274.677 259.88 275.331 256.608 275.331C244.255 275.29 226.626 276.517 214.886 274.39C226.135 271.364 262.989 275.986 269.329 272.877C269.165 272.754 268.838 272.427 268.756 272.591C268.634 272.795 268.306 272.345 268.143 272.304C267.979 272.263 267.693 272.141 267.488 272.1C263.193 271.118 217.709 272.55 216.89 272.059C217.054 271.118 215.622 270.055 221.594 270.014C231.207 269.891 264.83 271.2 269.206 269.482C266.425 266.701 225.071 268.991 219.181 268.418C213.864 267.887 219.181 267.191 212.35 267.11C208.178 267.069 206.91 266.332 203.842 266.373L203.474 267.805Z" fill="#495568"></path>
      <path fill-rule="evenodd" clip-rule="evenodd" d="M272.847 226.41L269.942 227.433C269.492 235.696 269.37 248.867 270.229 257.579C268.143 259.338 265.893 259.542 264.87 260.115L265.648 262.119L265.77 266.332L272.601 266.087C272.438 266.905 271.66 268.827 271.619 269.032C270.392 274.104 271.906 268.623 272.11 271.609C272.315 275.208 273.583 274.268 269.615 274.472C272.315 276.108 272.274 276.027 272.11 277.99H273.215C271.66 256.679 275.873 262.365 279.677 262.528C286.345 262.856 283.113 263.305 284.709 260.115C281.559 256.556 281.845 259.256 271.047 258.765C273.583 255.37 269.82 258.479 272.969 257.334C275.26 256.475 280.618 257.129 283.032 257.374C283.154 257.17 283.195 256.638 283.277 256.761L283.931 255.657C286.181 253.57 285.772 254.102 288.145 254.552C292.889 255.493 290.599 256.515 291.54 258.07C297.021 258.561 302.624 257.538 307.983 258.847C306.388 256.556 307.901 257.293 305.038 256.72L292.685 255.861C302.052 254.716 304.629 257.743 308.555 253.611C304.22 253.979 300.866 253.898 296.652 253.898C285.118 253.816 285.527 258.479 283.154 250.503C283.113 250.339 283.113 250.053 283.032 249.848L271.129 249.071C273.256 247.639 273.624 248.253 277.06 248.335C281.682 248.498 282.091 249.03 283.85 247.353C282.213 246.126 277.101 247.558 271.415 247.23L271.947 242.486C274.851 242.813 282.704 243.59 284.177 242.24C281.15 239.581 273.256 244.531 271.292 240.522C274.033 239.131 280.087 240.522 282.582 240.195C283.85 240.072 282.991 240.481 284.3 239.704L274.483 238.845C274.115 238.845 272.56 239.172 270.924 237.986C271.129 237.823 271.456 237.454 271.579 237.659C271.701 237.863 272.069 237.414 272.233 237.373C272.397 237.332 272.724 237.209 272.928 237.127L276.978 236.964C280.618 237.045 281.764 237.454 285.322 236.841C285.118 236.718 284.75 236.268 284.586 236.514L282.213 235.818C277.182 235.123 273.01 237.659 271.292 234.591C273.583 233.282 278.982 234.55 282.213 234.223C282.213 234.223 283.236 234.673 285.895 233.119L271.17 232.996L271.456 228.987C277.346 227.76 280.536 229.887 286.099 228.292C289.535 227.269 286.14 226.492 291.499 227.31L291.253 226.533L287.367 226.901C285.199 226.697 285.363 226.738 283.563 226.86C275.792 227.269 279.35 225.429 275.751 225.633C274.319 225.715 276.364 226.124 272.847 226.41Z" fill="#B6BBC6"></path>
      <path fill-rule="evenodd" clip-rule="evenodd" d="M226.135 237.782C230.511 238.477 249.286 238.354 253.99 237.741C253.499 233.528 254.194 225.674 253.213 223.343C244.459 223.465 234.642 222.647 226.053 223.506L226.135 237.782Z" fill="#9BA4B4"></path>
      <path fill-rule="evenodd" clip-rule="evenodd" d="M134.347 230.542C135.86 232.587 135.37 229.233 134.961 234.591C135.165 234.305 135.206 233.528 135.329 233.65L136.229 232.014C138.642 229.028 134.142 231.401 139.092 229.683C139.092 239.213 138.928 235.123 135.82 237.291C134.388 238.272 133.938 235.655 134.306 243.672C140.033 243.222 135.779 245.594 138.642 240.318C138.642 244.49 137.742 241.463 139.951 243.754C142.978 242.976 144.818 243.467 148.459 243.058C147.968 239.091 148.541 241.79 148.581 239.541L148.5 236.186C148.377 233.569 148.377 231.237 148.377 228.619C148.377 223.547 148.459 218.23 148.459 213.035C145.186 213.649 146.618 213.567 143.387 213.526C141.791 211.317 142.814 210.622 143.141 209.476C141.669 213.689 143.878 211.971 139.992 212.381C135.779 212.83 141.301 212.381 137.292 211.971C135.41 211.726 138.069 210.908 134.02 211.971C135.329 216.389 133.652 224.692 134.347 230.542Z" fill="#8B94A4"></path>
      <path fill-rule="evenodd" clip-rule="evenodd" d="M93.8934 277.99H104.406V264.492L111.932 265.228L111.605 255.002L106.778 254.879C107.801 250.544 106.492 253.284 108.128 251.075C104.978 248.458 97.9428 249.889 93.7297 249.48L93.8934 277.99Z" fill="#626D83"></path>
      <path fill-rule="evenodd" clip-rule="evenodd" d="M112.914 174.054C113.854 179.249 113.445 184.975 113.568 190.334C113.65 193.933 113.445 202.278 114.795 205.304C122.321 208.209 124.776 205.345 125.062 198.024C125.307 191.356 124.326 189.884 128.907 184.403C130.339 184.525 134.429 184.403 135.37 184.771C138.192 185.793 136.188 185.957 138.274 188.207L139.419 187.266C144.082 183.176 140.687 182.726 143.673 180.721C147.068 178.472 148.254 181.826 148.295 181.826C149.072 183.053 148.418 182.439 148.991 183.871L152.59 190.456C156.149 196.06 152.672 198.964 155.29 203.218C156.64 201.787 156.476 202.482 156.68 197.165C156.762 194.465 156.68 192.133 156.762 189.434C156.844 184.894 156.64 178.799 157.212 174.545L155.862 185.712L151.322 183.585C149.4 181.703 150.545 180.394 147.273 179.208L146.864 172.827L145.023 176.345C144.982 176.386 144.859 176.549 144.818 176.59C139.665 182.685 142.119 181.703 139.787 184.157C122.403 180.19 129.03 184.157 124.653 185.875L114.918 185.834C114.836 183.053 115.204 178.349 114.304 175.977C113.323 173.318 116.186 175.527 112.914 174.054Z" fill="#95C2DC"></path>
      <path fill-rule="evenodd" clip-rule="evenodd" d="M307.206 201.909C308.065 203.913 308.556 205.468 309.251 207.186C310.805 210.826 311.46 209.026 312.114 211.072C308.351 213.485 300.375 211.971 295.426 212.176L311.133 212.012C312.646 212.789 312.932 211.644 313.914 217.534L316.123 236.227C312.646 235.736 302.297 234.837 299.434 237.127C301.561 237.945 313.382 238.395 315.714 237.209C318.25 240.154 314.446 240.849 319.64 239.254V192.338C317.391 192.338 314.037 192.092 311.992 192.583C308.637 193.36 311.092 193.401 307.247 194.751L307.206 201.909Z" fill="#95C2DC"></path>
      <path fill-rule="evenodd" clip-rule="evenodd" d="M15.7265 266.291L17.5672 261.138C23.0892 261.219 34.9512 259.256 38.019 259.788L39.2052 265.269L39.2461 268.623L39.2052 277.99H40.8822L41.0868 249.153L13.1496 248.948L12.9451 265.228L15.7265 266.291Z" fill="#287BA3"></path>
      <path fill-rule="evenodd" clip-rule="evenodd" d="M-6.89309 258.683C-7.46574 262.16 -6.11592 259.91 -8.202 261.792C-12.1697 260.688 -9.63363 260.156 -11.2698 262.692L-8.24291 263.346C-5.8705 264.124 -7.79297 262.815 -6.11592 264.369C-8.97917 265.964 -8.202 265.228 -11.9242 265.228L-14.0921 267.437C-14.2966 267.641 -14.5421 267.968 -14.7466 268.214L39.2462 268.623L39.2053 265.269L36.0966 266.946C33.4379 263.674 36.6693 265.023 31.0655 264.614L19.9806 264.901C18.3035 265.31 18.7944 265.841 15.7266 266.291L12.9452 265.228L13.1497 248.948C11.759 250.544 12.8634 248.498 12.1271 250.912C12.1271 251.034 11.7999 253.08 11.7999 253.243C11.6362 255.411 12.6997 268.418 11.6772 266.005H5.4598L5.25529 249.112L11.309 249.235C11.1454 246.535 11.7999 248.253 10.5319 246.78C4.10998 246.985 1.41035 248.498 -4.7661 247.189C-4.7661 248.826 -4.7252 249.276 -4.7252 250.748C-4.7252 252.671 -4.807 252.18 -4.68429 254.429C-1.3302 253.325 1.32854 253.734 5.00986 254.02L2.80107 255.166C-3.5799 257.047 -2.5164 252.711 -5.13423 256.72C-2.63911 258.724 -5.58417 257.252 -2.18917 257.743C1.32854 258.315 1.36944 256.884 4.68263 258.438L0.428658 259.461C-3.00725 259.461 -1.73923 259.542 -5.09333 258.602C-4.7252 262.896 -4.23435 261.097 -5.33875 265.228L-6.56586 259.174C-6.60676 258.888 -6.77038 258.847 -6.89309 258.683Z" fill="#8B94A4"></path>
      <path fill-rule="evenodd" clip-rule="evenodd" d="M282.541 84.4346L281.6 86.6434C285.731 86.6434 289.863 87.0524 294.076 87.0115C299.025 86.9297 301.152 88.0341 305.774 87.5433C304.179 86.398 301.888 86.6843 299.27 86.3571C299.148 79.0762 296.693 74.1269 297.102 65.4962L300.947 63.451L300.866 58.5017L296.653 58.3381L297.961 59.3198C299.148 60.3833 299.434 58.0517 299.516 62.7148C296.325 64.1055 292.562 63.6555 288.922 63.6555C280.168 63.6146 282.664 63.7374 281.682 60.8741L285.568 58.3381L281.395 58.5835L280.946 63.4101C285.977 66.4779 286.018 66.2325 284.627 72.6952C284.054 75.3949 282.623 82.6757 282.541 84.4346Z" fill="#B1AEAE"></path>
      <path fill-rule="evenodd" clip-rule="evenodd" d="M285.731 54.1659C288.594 56.3747 285.608 53.3069 287.081 55.8839C287.531 56.6201 287.163 56.661 288.144 58.2972L297.143 58.4199C296.571 56.4974 295.139 51.8753 295.589 49.9119C296.243 47.2941 294.894 48.9711 297.307 47.7031L295.098 46.2306C293.585 45.0035 292.685 46.1488 293.298 37.8863C293.585 33.5505 295.098 29.951 294.198 25.288C293.83 23.3246 293.257 22.9974 293.094 20.0114L293.953 4.67253C294.485 2.99549 293.053 4.50892 295.057 3.07729C291.539 1.56386 292.358 1.89109 289.535 0.00952148C289.412 0.254943 289.249 0.377654 289.167 0.827594C289.126 1.31844 288.063 2.62735 288.104 5.12247C288.144 5.85874 288.554 8.39476 288.676 10.6036C288.922 15.2666 289.167 19.2342 288.104 23.6927C286.263 31.5462 289.372 35.473 288.594 42.4675C288.472 43.7355 288.513 44.0218 287.899 45.0035L284.913 47.7849C287.94 48.7257 286.467 49.7483 285.731 54.1659Z" fill="#B6BBC6"></path>
      <path fill-rule="evenodd" clip-rule="evenodd" d="M134.797 277.99H167.233C167.274 271.65 166.743 267.723 166.293 262.61C164.329 263.019 163.307 263.019 161.262 263.428C158.194 264.001 159.584 264.001 157.008 264.778C155.985 264.001 155.862 266.251 156.23 262.651C151.813 262.651 137.865 261.792 135.042 263.51C136.147 264.696 134.674 263.837 136.76 264.573C139.051 265.392 149.563 264.86 153.694 265.064C150.667 267.11 153.531 268.05 151.895 271.977L150.545 271.2C149.318 270.505 150.545 269.768 143.428 269.768C140.442 269.768 137.578 269.318 134.92 270.341C137.497 273.531 144.532 268.868 149.318 273.163L134.96 273.736C136.474 275.372 138.724 274.718 141.628 274.595C151.567 274.227 148.909 275.495 150.136 276.64C147.232 276.845 135.492 275.536 134.797 277.99Z" fill="#B6BBC6"></path>
      <path fill-rule="evenodd" clip-rule="evenodd" d="M294.076 235.082C293.83 234.305 293.667 229.928 292.808 227.474L314.446 227.188L312.809 232.301C309.414 232.382 305.897 232.341 302.624 232.341C301.152 232.341 298.493 232.096 297.471 232.178C291.867 232.628 295.753 231.851 293.544 233.569C297.961 232.587 304.465 232.75 309.496 232.832C314.732 232.914 312.155 232.71 313.423 233.732C311.869 235.859 314.896 235.082 309.496 235.164L294.076 235.082ZM293.585 226.901C293.994 223.384 296.775 226.124 295.139 216.471C300.866 216.266 306.428 216.184 312.073 216.594C310.028 224.324 312.728 224.038 313.3 226.615L293.585 226.901ZM292.03 222.893L291.253 226.533L291.499 227.31L289.699 243.426L285.486 243.999C285.649 244.081 286.018 243.958 286.099 244.203C286.14 244.285 290.149 247.067 294.853 247.189C298.37 247.271 304.997 247.68 307.697 246.494L307.901 242.567L292.399 242.935C291.253 240.113 292.48 242.895 292.562 241.095C292.808 236.268 291.54 241.749 292.399 239.091L315.468 238.886C313.832 241.218 315.059 240.195 311.419 240.768L310.682 243.344C312.769 243.304 313.505 243.14 315.386 243.017C317.513 242.935 317.268 243.099 319.64 242.895V239.254C314.446 240.849 318.25 240.154 315.714 237.209C313.382 238.395 301.561 237.945 299.434 237.127C302.297 234.837 312.646 235.736 316.123 236.227L313.914 217.534C312.932 211.644 312.646 212.789 311.132 212.012L311.46 215.407C307.737 216.225 298.739 216.962 295.098 214.303L294.403 213.812C294.403 213.648 294.198 213.608 294.076 213.608C293.503 216.921 292.48 219.825 292.03 222.893Z" fill="#C6CBD5"></path>
      <path fill-rule="evenodd" clip-rule="evenodd" d="M172.428 169.882L172.796 221.339L172.837 243.958H176.6V161.701L172.224 161.783L172.428 169.882Z" fill="#196689"></path>
      <path fill-rule="evenodd" clip-rule="evenodd" d="M8.85474 140.063C9.5501 151.639 9.50919 159.861 8.85474 171.518C13.3541 170.618 15.7265 171.109 19.9396 170.905C19.5715 165.833 19.8578 161.292 19.776 156.057L12.3315 156.016C10.4091 155.648 11.5544 156.138 10.2046 155.32L19.6533 155.443C20.0623 150.412 19.6533 145.872 19.8169 140.677L8.85474 140.063Z" fill="#9BA4B4"></path>
      <path fill-rule="evenodd" clip-rule="evenodd" d="M273.665 277.99H295.712L295.507 274.759L316.204 274.595C310.028 272.877 302.665 274.268 295.793 273.531L295.712 268.623C293.38 267.191 295.384 268.337 293.585 268.009L292.235 267.846C292.071 267.805 291.744 267.846 291.539 267.805V264.164C289.044 263.469 285.158 263.878 282.173 263.96C274.442 264.205 281.641 262.61 273.91 262.406L273.665 277.99Z" fill="#626D83"></path>
      <path fill-rule="evenodd" clip-rule="evenodd" d="M185.313 277.99H198.607C198.647 274.063 199.588 257.538 197.543 254.388C195.375 251.116 197.707 254.511 195.825 252.507L196.439 256.147L186.622 255.943L187.808 251.934L184.822 252.752C184.29 259.051 185.476 270.586 185.313 277.99Z" fill="#8B94A4"></path>
      <path fill-rule="evenodd" clip-rule="evenodd" d="M283.522 103.905L298.248 104.027C303.156 102.514 299.229 104.191 300.743 101.737L302.011 95.5195C296.448 94.0061 288.39 95.1514 282.295 94.7423L281.354 89.3021C289.699 89.9975 298.166 90.4883 305.774 87.5433C301.152 88.0341 299.025 86.9297 294.075 87.0115C289.862 87.0524 285.731 86.6434 281.6 86.6434L275.955 87.2161C278.737 89.9975 279.268 91.3473 280.045 95.2332C280.373 96.8693 280.618 98.4645 281.027 99.8962C282.459 104.886 280.577 102.228 283.522 103.905Z" fill="#8B94A4"></path>
      <path fill-rule="evenodd" clip-rule="evenodd" d="M219.345 261.833L219.14 267.764H246.423C247.282 265.146 247.118 262.487 245.564 259.297L239.592 259.133L240.451 266.087C238.774 261.138 239.019 263.837 240.001 258.97C237.22 259.297 237.301 259.42 234.438 259.42C233.129 259.379 231.779 259.174 230.225 259.215C225.767 259.215 226.053 260.197 221.717 258.561C219.508 261.26 221.185 255.534 219.345 261.833Z" fill="#9BA4B4"></path>
      <path fill-rule="evenodd" clip-rule="evenodd" d="M14.7856 175.199C10.9816 174.995 13.1086 174.872 12.4541 175.813L15.89 177.531L15.6037 210.827L21.3711 210.663L21.9438 175.118L20.4712 175.24C18.5897 175.199 17.608 174.463 14.7856 175.199Z" fill="#196689"></path>
      <path fill-rule="evenodd" clip-rule="evenodd" d="M295.712 277.99H319.64V274.022L319.19 268.623C310.805 268.214 300.579 269.441 293.258 267.641C293.176 267.232 293.298 266.414 293.421 266.128L294.116 265.023C295.098 264.042 294.935 264.451 296.243 264.328C291.908 264.983 295.016 265.064 291.54 264.164V267.805C291.744 267.846 292.071 267.805 292.235 267.846L293.585 268.009C295.384 268.337 293.38 267.191 295.712 268.623L295.794 273.531C302.665 274.268 310.028 272.877 316.204 274.595L295.507 274.758L295.712 277.99Z" fill="#757C94"></path>
      <path fill-rule="evenodd" clip-rule="evenodd" d="M0.714996 171.273C4.27361 170.905 3.98729 171.518 6.97325 170.25L7.21867 141.29L0.592285 140.227L0.714996 171.273Z" fill="#757C94"></path>
      <path fill-rule="evenodd" clip-rule="evenodd" d="M10.4909 243.099C10.5727 246.003 10.8181 244.899 11.3908 245.799L16.381 245.84L16.0129 213.567L10.2864 213.444L10.4909 243.099Z" fill="#196689"></path>
      <path fill-rule="evenodd" clip-rule="evenodd" d="M109.355 277.99H126.166C125.798 273.409 126.452 271.323 125.512 266.619L109.723 266.741L109.355 277.99Z" fill="#12304F"></path>
      <path fill-rule="evenodd" clip-rule="evenodd" d="M67.2651 216.512L66.5288 226.738V227.474C65.8744 229.069 64.6882 230.542 65.5062 233.65C66.2425 236.473 65.1381 234.305 66.7334 236.023L68.2059 230.664C77.2456 233.855 85.6308 227.392 82.0722 239.336L85.8763 238.436C85.2627 237.741 87.6351 237.659 83.872 237.7C83.9538 237.536 84.1992 237.168 84.2401 237.291L85.3036 235.777C85.6717 233.937 83.7084 235.859 84.6082 233.568L86.2035 231.891C80.7633 231.196 85.9172 232.178 83.2584 229.846C82.0313 228.742 81.3769 228.537 80.886 228.456L86.2853 227.965C86.1626 227.76 85.7944 227.269 85.7535 227.433C85.6717 227.597 85.3036 227.065 85.2218 226.983C83.7493 225.101 84.8128 227.842 84.4446 225.879C83.9947 223.138 83.4629 226.778 84.8946 225.101C87.3488 222.115 84.8128 226.983 85.7944 224.365C70.5374 222.197 75.0777 226.901 68.2468 229.764C67.4696 225.838 68.8194 229.355 68.7376 227.474C68.6967 226.083 68.9831 227.188 67.715 224.856L71.4782 224.365C68.8194 223.465 69.024 226.533 70.1284 216.43L85.7944 215.857L86.0808 216.103C82.3585 215.325 78.8408 215.571 75.1595 215.571C68.2877 215.653 71.4782 214.262 68.9422 214.18C64.77 214.098 69.842 211.44 67.5923 214.998C66.1198 214.998 67.5105 214.753 67.2651 216.512Z" fill="#C6CBD5"></path>
      <path fill-rule="evenodd" clip-rule="evenodd" d="M111.605 255.002L111.932 265.228L104.406 264.492V277.99H109.355L109.723 266.741L125.512 266.619C126.453 271.323 125.798 273.409 126.166 277.99H127.148C126.78 267.028 129.52 264.205 121.053 263.796C118.763 263.674 118.763 264.287 115.286 264.287C114.754 260.606 115 257.743 115.04 254.102C115.163 248.662 116.227 248.008 111.4 248.294L111.605 255.002Z" fill="#2F3950"></path>
      <path fill-rule="evenodd" clip-rule="evenodd" d="M293.585 226.901L313.3 226.615C312.728 224.038 310.028 224.324 312.073 216.594C306.428 216.184 300.866 216.266 295.139 216.471C296.775 226.124 293.994 223.384 293.585 226.901Z" fill="#9BA4B4"></path>
      <path fill-rule="evenodd" clip-rule="evenodd" d="M319.641 264.042V242.895C317.268 243.099 317.514 242.935 315.387 243.017C313.505 243.14 312.769 243.304 310.683 243.344L311.951 265.228C312.687 263.06 313.26 261.833 312.973 259.42C313.832 265.105 311.992 261.138 318.454 262.978L314.487 264.369C317.023 265.146 316.941 264.982 319.641 264.042Z" fill="#9BA4B4"></path>
      <path fill-rule="evenodd" clip-rule="evenodd" d="M240.492 156.016C238.569 155.893 236.688 155.934 234.602 156.507C234.479 158.511 234.847 158.511 234.847 159.902C234.847 160.72 234.765 161.865 234.724 163.01C234.602 165.996 234.643 168.45 234.479 171.559C238.897 170.659 241.064 171.027 245.4 170.986C245.278 165.833 245.564 161.088 245.318 156.097L240.492 156.016Z" fill="#9BA4B4"></path>
      <path fill-rule="evenodd" clip-rule="evenodd" d="M245.237 140.881C241.842 140.268 238.283 140.513 234.52 140.759C234.643 142.845 234.806 143.131 234.847 144.195L234.315 155.361C237.751 155.77 241.883 155.688 245.114 155.402C245.768 150.698 245.155 146.076 245.237 140.881Z" fill="#9BA4B4"></path>
      <path fill-rule="evenodd" clip-rule="evenodd" d="M85.7942 224.365V215.857L70.1282 216.43C69.0238 226.533 68.8192 223.465 71.478 224.365L67.7148 224.856C68.9829 227.188 68.6965 226.083 68.7374 227.474C68.8192 229.355 67.4694 225.838 68.2466 229.764C75.0775 226.901 70.5372 222.197 85.7942 224.365Z" fill="#9BA4B4"></path>
      <path fill-rule="evenodd" clip-rule="evenodd" d="M294.076 235.082L309.496 235.164C314.896 235.082 311.869 235.859 313.423 233.732C312.155 232.71 314.732 232.914 309.496 232.832C304.465 232.75 297.961 232.587 293.544 233.569C295.753 231.851 291.867 232.628 297.471 232.178C298.493 232.096 301.152 232.341 302.624 232.341C305.897 232.341 309.414 232.382 312.809 232.301L314.446 227.188L292.808 227.474C293.667 229.928 293.83 234.305 294.076 235.082Z" fill="#9BA4B4"></path>
      <path fill-rule="evenodd" clip-rule="evenodd" d="M-1.78031 190.702C-2.47567 193.115 -3.04832 204.118 -2.27115 207.349L-7.58862 209.272L-0.839525 208.985L3.49626 208.372L3.41445 186.039L-1.82121 186.079L-1.78031 190.702Z" fill="#757C94"></path>
      <path fill-rule="evenodd" clip-rule="evenodd" d="M41.0868 249.153L40.8823 277.99H45.4635L45.4226 251.362C45.5862 248.907 45.9135 251.034 45.4635 248.212C44.5636 248.212 44.1955 248.13 43.2956 248.335L42.1912 248.662C42.0685 248.703 41.7413 248.867 41.6595 248.907C41.5368 248.948 41.2914 249.071 41.0868 249.153Z" fill="#495568"></path>
      <path fill-rule="evenodd" clip-rule="evenodd" d="M302.011 95.5195C303.77 91.1428 302.052 90.2429 306.633 88.7295C307.696 85.3754 307.124 87.9932 305.774 87.5433C298.166 90.4883 289.699 89.9975 281.354 89.3021L282.295 94.7423C288.39 95.1513 296.448 94.006 302.011 95.5195Z" fill="#B6BBC6"></path>
      <path fill-rule="evenodd" clip-rule="evenodd" d="M202.124 235.614L213.946 236.064C213.332 234.018 211.941 228.496 210.878 226.86C208.015 222.525 206.337 225.347 202.002 224.161L202.124 235.614Z" fill="#C6CBD5"></path>
      <path fill-rule="evenodd" clip-rule="evenodd" d="M0.59213 140.227L7.21852 141.291L7.99569 138.305C11.9633 138.059 15.7265 140.145 17.8126 137.527L12.0042 137.364L12.8223 133.519C10.1227 131.269 12.086 132.824 12.086 129.429C12.086 127.792 12.3315 128.897 11.8406 127.424C11.2271 125.584 11.4316 126.443 10.5317 125.665C8.69105 127.915 9.42731 128.324 8.44563 129.592L5.66418 131.801C2.26918 135.155 6.15502 134.541 -0.266846 137.568L0.59213 140.227Z" fill="#B6BBC6"></path>
      <path fill-rule="evenodd" clip-rule="evenodd" d="M15.7266 266.291C18.7943 265.842 18.3035 265.31 19.9805 264.901L31.0654 264.614C36.6692 265.023 33.4378 263.674 36.0966 266.946L39.2052 265.269L38.019 259.788C34.9513 259.256 23.0892 261.219 17.5672 261.138L15.7266 266.291Z" fill="#757C94"></path>
      <path fill-rule="evenodd" clip-rule="evenodd" d="M11.677 266.005L11.3089 249.235L5.25513 249.112L5.45965 266.005H11.677Z" fill="#196689"></path>
      <path fill-rule="evenodd" clip-rule="evenodd" d="M285.568 58.3381L281.682 60.8741C282.664 63.7374 280.168 63.6147 288.922 63.6556C292.562 63.6556 296.325 64.1055 299.516 62.7148C299.434 58.0518 299.148 60.3833 297.962 59.3198L296.653 58.3381L297.143 58.4199L288.145 58.2972C287.163 56.661 287.531 56.6201 287.081 55.8839C285.609 53.3069 288.595 56.3747 285.731 54.1659L285.568 58.3381Z" fill="#8B94A4"></path>
      <path fill-rule="evenodd" clip-rule="evenodd" d="M152.181 243.385L155.167 244.735L156.149 221.625L151.649 221.543L152.181 243.385Z" fill="#12304F"></path>
      <path fill-rule="evenodd" clip-rule="evenodd" d="M226.135 239.704C226.994 242.895 228.507 241.79 232.598 241.667H248.1C255.217 241.667 253.049 242.199 253.704 239.704C251.822 238.763 248.959 239.131 246.709 239.172C242.414 239.295 229.162 238.191 226.135 239.704Z" fill="#8B94A4"></path>
      <path fill-rule="evenodd" clip-rule="evenodd" d="M-1.862 184.771C0.919445 185.384 1.45119 185.834 3.49637 184.321C2.80101 180.067 3.12824 182.767 -0.921217 181.294L3.61908 180.967C3.33276 177.49 3.49637 176.508 3.70089 173.195H-2.10742L-1.862 184.771Z" fill="#757C94"></path>
      <path fill-rule="evenodd" clip-rule="evenodd" d="M229.53 181.417L228.916 173.85L226.257 173.032L223.026 172.991L222.903 180.926L229.53 181.417Z" fill="#757C94"></path>
      <path fill-rule="evenodd" clip-rule="evenodd" d="M187.808 251.934L186.622 255.943L196.439 256.147L195.825 252.507C192.021 251.28 195.539 252.425 192.757 249.357L190.344 248.826L187.808 251.934Z" fill="#DFE1DE"></path>
      <path fill-rule="evenodd" clip-rule="evenodd" d="M224.908 208.822L229.08 208.658L229.284 201.541L223.353 201.214C223.108 206.899 223.681 202.441 223.722 204.813C223.722 204.977 223.722 205.222 223.722 205.386L223.394 208.045C217.422 208.045 222.249 207.308 218.609 208.699C218.445 208.781 218.159 208.945 217.954 209.108L224.908 208.822Z" fill="#757C94"></path>
      <path fill-rule="evenodd" clip-rule="evenodd" d="M62.1521 225.592L63.3383 227.188L66.5288 226.738L67.2651 216.512L64.1973 216.144L62.8066 220.275C62.3566 224.897 62.2339 220.725 63.2565 225.142L62.1521 225.592Z" fill="#757C94"></path>
      <path fill-rule="evenodd" clip-rule="evenodd" d="M223.803 233.978L224.253 233.405L224.335 227.474L218.404 227.351C219.468 231.932 219.427 229.519 218.445 234.1L223.803 233.978Z" fill="#73797C"></path>
      <path fill-rule="evenodd" clip-rule="evenodd" d="M226.83 160.474C227.689 163.706 226.871 164.728 227.689 166.978L232.761 167.141C231.575 162.151 231.575 164.81 232.72 159.656C229.325 160.351 229.816 159.983 226.83 160.474Z" fill="#757C94"></path>
      <path fill-rule="evenodd" clip-rule="evenodd" d="M148.459 213.035C149.277 212.912 150.708 214.835 149.44 209.149L143.141 209.476C142.814 210.622 141.791 211.317 143.387 213.526C146.618 213.567 145.186 213.648 148.459 213.035Z" fill="#C6CBD5"></path>
      <path fill-rule="evenodd" clip-rule="evenodd" d="M287.367 226.901L291.253 226.533L292.03 222.893L291.785 220.766C291.703 220.029 291.744 219.661 291.54 219.048H288.963L287.367 226.901Z" fill="#757C94"></path>
      <path fill-rule="evenodd" clip-rule="evenodd" d="M67.5923 242.854C67.5105 242.731 66.6106 240.44 66.6106 240.399C66.5697 238.191 66.5288 239.377 67.5923 237.863L65.2608 238.232V239.868C61.6613 239.5 61.5794 238.682 60.1887 242.24C63.8291 244.49 62.8475 242.567 67.5923 242.854Z" fill="#C6CBD5"></path>
      <path fill-rule="evenodd" clip-rule="evenodd" d="M12.8222 133.519L12.0042 137.364L17.8125 137.527L16.0536 132.128C12.1269 132.455 14.2948 131.187 12.8222 133.519Z" fill="#495568"></path>
      <path fill-rule="evenodd" clip-rule="evenodd" d="M237.506 136.382L237.915 137.077L242.21 137.282L242.128 133.723C240.165 131.187 242.619 132.455 238.447 132.087L237.506 136.382Z" fill="#495568"></path>
    </g>
  </g>
  <path d="M49.6518 118.942C35.4069 110.268 10.6152 113.119 0 115.629L0 318.322H319.826V70C313.777 71.1545 300.205 75.7224 294.316 84.7578C288.426 93.7931 295.971 102.778 300.479 106.141C298.139 105.89 290.994 106.653 281.132 111.713C268.805 118.038 280.618 137.765 274.455 134.753C268.291 131.742 253.053 131.29 239.356 141.982C228.398 150.535 232.964 165.624 236.617 172.1C236.046 171.748 233.603 171.949 228.398 175.563C223.194 179.177 223.376 186.406 224.118 189.568C216.528 185.603 197.649 179.087 182.856 184.749C168.063 190.411 166.305 206.083 167.275 213.211C166.762 212.909 164.125 212.488 157.687 213.211C149.64 214.114 149.64 216.975 145.189 216.825C141.628 216.704 137.541 218.682 135.943 219.686C135.601 217.829 133.307 213.602 126.869 211.554C120.431 209.506 114.713 211.805 112.658 213.211C112.658 212.106 112.247 209.054 110.604 205.681C108.96 202.308 102.157 201.063 98.9613 200.862V190.321C98.9613 185.743 90.2864 180.583 85.949 178.575C86.9763 176.467 88.4145 170.383 85.949 162.914C83.4836 155.444 71.6813 150.766 66.0883 149.361C66.5449 142.835 63.8968 127.616 49.6518 118.942Z" fill="#CDFDFD" fill-opacity="0.5" stroke="#8EA3CA" stroke-width="0.773589"></path>
  <path d="M7.70361 174.208C11.4703 174.208 19.4831 174.931 21.4007 177.822C23.3183 180.713 24.0259 182.541 24.1401 183.093" stroke="#8EA3CA" stroke-width="0.773589"></path>
  <path d="M85.7779 178.424L74.4778 176.166" stroke="#8EA3CA" stroke-width="0.773589"></path>
  <path d="M130.293 225.559C130.807 223.902 135.43 218.782 138.683 218.029C141.936 217.277 150.839 219.686 153.236 221.945" stroke="#8EA3CA" stroke-width="0.773589"></path>
  <path d="M236.103 172.024C237.986 171.422 242.797 170.458 246.975 171.422C251.152 172.386 251.341 172.225 250.913 172.024" stroke="#8EA3CA" stroke-width="0.773589"></path>
  <path d="M75.6743 264.11C77.5006 260.998 83.1735 254.412 91.2547 252.966C99.336 251.521 106.264 256.179 108.718 258.689" stroke="#8EA3CA" stroke-width="0.773589"></path>
  <path d="M97.0774 268.326C98.4471 265.114 102.796 258.659 109.234 258.538C115.671 258.418 118.879 262.504 119.678 264.562" stroke="#8EA3CA" stroke-width="0.773589"></path>
  <path d="M107.35 248.599C110.26 247.445 117.314 245.828 122.245 248.599C127.176 251.37 129.322 254.472 129.779 255.677" stroke="#8EA3CA" stroke-width="0.773589"></path>
  <path d="M158.713 262.453C158.77 258.739 156.864 250.286 148.783 246.19C140.702 242.094 130.007 247.394 125.669 250.557" stroke="#8EA3CA" stroke-width="0.773589"></path>
  <path d="M41.6074 215.168C29.1088 199.356 11.4168 195.843 0.344971 196.345V317.72H320V157.492C318.63 158.095 314.384 161.498 308.358 170.293C302.331 179.087 307.216 192.63 310.412 198.302C306.075 198.152 289.695 198.302 277.539 207.639C263.821 218.175 260.646 232.988 262.13 240.769C259.505 239.815 252.268 238.48 244.324 240.769C236.38 243.057 230.284 253.267 228.23 258.086C225.833 253.368 218.094 243.78 206.314 243.178C194.535 242.576 185.997 247.244 183.201 249.653C181.717 247.896 175.592 242.576 168.476 242.576C158.888 242.576 155.407 245.186 151.869 247.997C150.613 245.035 144.438 238.992 133.206 234.896C121.975 230.799 109.693 234.293 104.956 236.552C100.619 233.791 88.828 228.36 76.3636 228.721C63.8993 229.083 52.4509 236.803 48.2847 240.618C48.7412 238.911 48.964 224.475 41.6074 215.168Z" fill="white" stroke="#8EA3CA" stroke-width="0.773589"></path>
  <path d="M152.722 267.272C153.807 265.465 157.276 261.821 162.481 261.7C167.686 261.58 171.727 263.357 173.097 264.26" stroke="#8EA3CA" stroke-width="0.773589"></path>
  <path d="M174.811 287.301C176.694 285.343 181.351 281.368 184.912 281.127C188.473 280.886 190.505 281.528 191.076 281.88C192.56 280.273 196.452 277.181 200.15 277.663C203.848 278.145 207.284 280.173 208.54 281.127" stroke="#8EA3CA" stroke-width="0.773589"></path>
  <path d="M168.815 315.31C172.296 311.596 181.108 304.137 188.504 304.016C195.901 303.896 199.576 305.07 200.489 305.673C201.631 304.468 204.53 301.878 206.996 301.155C209.461 300.432 211.447 300.854 212.132 301.155" stroke="#8EA3CA" stroke-width="0.773589"></path>
  <path d="M209.906 306.877C210.249 304.819 211.482 300.101 213.673 297.691C215.865 295.282 217.896 294.378 218.638 294.228" stroke="#8EA3CA" stroke-width="0.773589"></path>
  <path d="M265.382 270.284C266.181 268.176 268.875 263.598 273.258 262.152C277.641 260.707 279.65 260.144 280.107 260.044" stroke="#8EA3CA" stroke-width="0.773589"></path>
  <path d="M11.1282 211.102C14.0959 210.55 20.4764 210.169 22.257 213.06C24.0377 215.951 25.0535 217.578 25.3389 218.03C26.8227 217.427 30.2013 216.584 31.845 218.03C33.4886 219.475 33.7854 220.841 33.7283 221.342" stroke="#8EA3CA" stroke-width="0.773589"></path>
  <path d="M48.1111 240.919L43.3171 247.997" stroke="#8EA3CA" stroke-width="0.773589"></path>
  <path d="M43.8291 252.213C45.3129 252.063 48.4861 252.514 49.3079 255.526C50.1297 258.538 49.6504 260.094 49.3079 260.496" stroke="#8EA3CA" stroke-width="0.773589"></path>
  <path d="M73.4509 267.724C75.6767 260.195 79.4477 253.267 86.2919 247.394C93.3117 241.371 104.526 236.1 110.347 234.594" stroke="#8EA3CA" stroke-width="0.773589"></path>
  <defs>
    <clipPath id="clip0_2271_1744">
      <rect width="615.64" height="278" fill="white" transform="translate(-296)"></rect>
    </clipPath>
  </defs>
</svg>
