<?xml version="1.0" encoding="UTF-8"?>
<svg xmlns="http://www.w3.org/2000/svg" width="320" height="174" viewBox="0 0 320 174" fill="none">
  <path d="M69.8267 114.614C71.7191 111.297 77.5974 104.279 85.9713 102.739C94.3452 101.198 101.524 106.162 104.067 108.837" stroke="#8EA3CA" stroke-width="0.801602"></path>
  <path d="M92.0051 119.107C93.4244 115.683 97.9307 108.804 104.601 108.676C111.272 108.548 114.596 112.902 115.424 115.095" stroke="#8EA3CA" stroke-width="0.801602"></path>
  <path d="M102.649 98.0849C105.665 96.8546 112.975 95.1322 118.084 98.0849C123.194 101.038 125.417 104.343 125.891 105.627" stroke="#8EA3CA" stroke-width="0.801602"></path>
  <path d="M155.873 112.848C155.932 108.89 153.957 99.8821 145.583 95.5173C137.209 91.1525 126.127 96.8011 121.632 100.171" stroke="#8EA3CA" stroke-width="0.801602"></path>
  <path d="M34.5261 62.4604C21.575 45.611 3.24225 41.8667 -8.23047 42.4016V251.1H323V1C321.581 1.64188 317.181 5.26853 310.936 14.64C304.691 24.0116 309.753 38.4433 313.065 44.4877C308.57 44.3272 291.598 44.4877 279.002 54.4369C264.786 65.6649 261.497 81.4495 263.034 89.7405C260.314 88.7242 252.815 87.3014 244.583 89.7405C236.351 92.1797 230.035 103.06 227.907 108.195C225.423 103.167 217.404 92.95 205.198 92.3081C192.992 91.6662 184.145 96.6408 181.247 99.2083C179.709 97.3362 173.363 91.6662 165.989 91.6662C156.054 91.6662 152.447 94.4477 148.78 97.4431C147.479 94.2872 141.081 87.847 129.442 83.4822C117.804 79.1173 105.077 82.8403 100.169 85.2473C95.6745 82.3054 83.4567 76.5177 70.541 76.9028C57.6253 77.288 45.7623 85.5148 41.4452 89.5801C41.9183 87.7614 42.1492 72.3781 34.5261 62.4604Z" fill="white" stroke="#8EA3CA" stroke-width="0.801602"></path>
  <path d="M149.665 117.983C150.788 116.058 154.384 112.174 159.777 112.046C165.171 111.918 169.358 113.811 170.777 114.774" stroke="#8EA3CA" stroke-width="0.801602"></path>
  <path d="M172.553 139.326C174.505 137.24 179.33 133.004 183.021 132.747C186.711 132.49 188.816 133.175 189.407 133.549C190.945 131.838 194.978 128.543 198.81 129.056C202.643 129.57 206.203 131.731 207.504 132.747" stroke="#8EA3CA" stroke-width="0.801602"></path>
  <path d="M166.34 169.174C169.948 165.215 179.079 157.267 186.743 157.138C194.407 157.01 198.216 158.262 199.162 158.904C200.345 157.62 203.349 154.86 205.903 154.089C208.458 153.319 210.516 153.768 211.226 154.089" stroke="#8EA3CA" stroke-width="0.801602"></path>
  <path d="M208.92 160.187C209.275 157.994 210.552 152.966 212.823 150.398C215.094 147.831 217.199 146.868 217.968 146.708" stroke="#8EA3CA" stroke-width="0.801602"></path>
  <path d="M266.405 121.193C267.233 118.946 270.024 114.068 274.566 112.527C279.108 110.987 281.189 110.388 281.663 110.281" stroke="#8EA3CA" stroke-width="0.801602"></path>
  <path d="M2.94336 58.1279C6.01852 57.5395 12.6301 57.133 14.4752 60.214C16.3203 63.2951 17.373 65.0282 17.6687 65.5096C19.2062 64.8677 22.7072 63.969 24.4104 65.5096C26.1135 67.0501 26.4211 68.505 26.3619 69.0399" stroke="#8EA3CA" stroke-width="0.801602"></path>
  <path d="M41.2657 89.9009L36.2981 97.443" stroke="#8EA3CA" stroke-width="0.801602"></path>
  <path d="M36.8284 101.936C38.366 101.776 41.654 102.257 42.5056 105.467C43.3572 108.676 42.8604 110.334 42.5056 110.762" stroke="#8EA3CA" stroke-width="0.801602"></path>
  <path d="M67.5229 118.465C69.8293 110.441 73.7369 103.06 80.8289 96.8014C88.1029 90.3826 99.7235 84.7661 105.756 83.1614" stroke="#8EA3CA" stroke-width="0.801602"></path>
  <path d="M62.2552 176.788C65.8132 177.741 68.6331 179.601 70.3699 182.599L70.5463 182.914C70.6152 183.041 70.6838 183.156 70.7426 183.257C70.8006 183.355 70.8476 183.439 70.8882 183.519L71.9082 186.106C72.0394 186.57 72.148 186.974 72.2406 187.431L72.2411 187.433C72.3887 188.152 72.5162 188.996 72.5564 189.793L72.5678 190.13C72.6413 194.198 71.5257 198.327 68.7194 201.625C67.4256 203.141 65.9141 204.328 64.2953 205.126C62.8318 205.846 61.7581 206.088 60.9261 206.183C60.5049 206.231 60.1423 206.242 59.8013 206.256C59.5019 206.268 59.2068 206.286 58.9249 206.339C58.6974 206.29 58.4447 206.261 58.2085 206.237C58.1156 206.228 58.0246 206.22 57.9355 206.211C58.9115 206.122 59.8143 205.901 60.587 205.61L60.5862 205.61C63.4729 204.524 66.4566 202.019 68.152 198.789C70.044 195.184 70.8367 191.686 70.5063 187.834C70.242 184.742 67.9749 181.632 65.4706 179.17C64.3615 178.079 63.29 177.305 62.2552 176.788Z" fill="#DCA83B" stroke="#530D11" stroke-width="0.801602"></path>
  <path d="M58.3167 176.323C60.8346 175.705 63.2259 176.585 65.2502 178.601C67.282 180.624 68.9227 183.776 69.8764 187.614C70.8103 191.374 69.8253 195.833 67.5944 199.418C65.3627 203.004 61.9364 205.636 58.0597 205.856C51.7474 206.214 46.7267 200.434 46.5545 193.92C46.2829 183.64 52.8402 177.666 58.3167 176.323Z" fill="#F1BD46" stroke="#530D11" stroke-width="0.801602"></path>
</svg>
