<svg width="12" height="12" viewBox="0 0 12 12" fill="none" xmlns="http://www.w3.org/2000/svg">
<g clip-path="url(#clip0_54_1241)">
<path d="M0 0V4.92188H4.92188V0H0ZM2.46094 3.86719C1.68537 3.86719 1.05469 3.23651 1.05469 2.46094C1.05469 1.68537 1.68537 1.05469 2.46094 1.05469C3.23651 1.05469 3.86719 1.68537 3.86719 2.46094C3.86719 3.23651 3.23651 3.86719 2.46094 3.86719Z" fill="#5018AD" fill-opacity="0.22"/>
<path d="M2.46094 3.16406C2.84926 3.16406 3.16406 2.84926 3.16406 2.46094C3.16406 2.07261 2.84926 1.75781 2.46094 1.75781C2.07261 1.75781 1.75781 2.07261 1.75781 2.46094C1.75781 2.84926 2.07261 3.16406 2.46094 3.16406Z" fill="#5018AD" fill-opacity="0.22"/>
<path d="M8.08594 3.16406C8.47426 3.16406 8.78906 2.84926 8.78906 2.46094C8.78906 2.07261 8.47426 1.75781 8.08594 1.75781C7.69761 1.75781 7.38281 2.07261 7.38281 2.46094C7.38281 2.84926 7.69761 3.16406 8.08594 3.16406Z" fill="#5018AD" fill-opacity="0.22"/>
<path d="M5.625 0V4.92188H10.5469V0H5.625ZM8.08594 3.86719C7.31037 3.86719 6.67969 3.23651 6.67969 2.46094C6.67969 1.68537 7.31037 1.05469 8.08594 1.05469C8.86151 1.05469 9.49219 1.68537 9.49219 2.46094C9.49219 3.23651 8.86151 3.86719 8.08594 3.86719ZM0 5.625V10.5469H4.92188V5.625H0ZM2.46094 9.49219C1.68537 9.49219 1.05469 8.86151 1.05469 8.08594C1.05469 7.31037 1.68537 6.67969 2.46094 6.67969C3.23651 6.67969 3.86719 7.31037 3.86719 8.08594C3.86719 8.86151 3.23651 9.49219 2.46094 9.49219Z" fill="#5018AD" fill-opacity="0.22"/>
<path d="M2.46094 8.78906C2.84926 8.78906 3.16406 8.47426 3.16406 8.08594C3.16406 7.69761 2.84926 7.38281 2.46094 7.38281C2.07261 7.38281 1.75781 7.69761 1.75781 8.08594C1.75781 8.47426 2.07261 8.78906 2.46094 8.78906Z" fill="#5018AD" fill-opacity="0.22"/>
<path d="M9.53906 10.2422C9.92739 10.2422 10.2422 9.92739 10.2422 9.53906C10.2422 9.15074 9.92739 8.83594 9.53906 8.83594C9.15074 8.83594 8.83594 9.15074 8.83594 9.53906C8.83594 9.92739 9.15074 10.2422 9.53906 10.2422Z" fill="#64D4B7"/>
<path d="M7.07812 7.07812V12H12V7.07812H7.07812ZM9.53906 10.9453C8.76349 10.9453 8.13281 10.3146 8.13281 9.53906C8.13281 8.76349 8.76349 8.13281 9.53906 8.13281C10.3146 8.13281 10.9453 8.76349 10.9453 9.53906C10.9453 10.3146 10.3146 10.9453 9.53906 10.9453Z" fill="#5018AD"/>
</g>
<defs>
<clipPath id="clip0_54_1241">
<rect width="12" height="12" fill="white"/>
</clipPath>
</defs>
</svg>
