<svg width="84" height="19" viewBox="0 0 84 19" fill="none" xmlns="http://www.w3.org/2000/svg">
<path fill-rule="evenodd" clip-rule="evenodd" d="M5.38987 0.227296H18.0101C18.3114 0.227296 18.5896 0.388024 18.7411 0.649206L22.4177 7.04739C22.5103 7.20893 22.5469 7.39656 22.5217 7.58106C22.4965 7.76555 22.4111 7.93654 22.2786 8.06739L12.159 18.0819C12.0015 18.238 11.7888 18.3256 11.5671 18.3256C11.3453 18.3256 11.1326 18.238 10.9751 18.0819L0.867871 8.08284C0.732742 7.94865 0.646983 7.77268 0.624536 7.58357C0.602089 7.39445 0.644275 7.20331 0.744235 7.04121L4.67124 0.629115C4.74651 0.506135 4.85215 0.404582 4.978 0.334214C5.10385 0.263845 5.24568 0.227027 5.38987 0.227296ZM16.3811 3.0833V4.87911H12.7864V6.12475C15.3117 6.25766 17.2064 6.80475 17.2203 7.45848V8.82311C17.2049 9.47839 15.3117 10.0239 12.7849 10.1584V13.2122H10.4002V10.1584C7.87496 10.0239 5.98024 9.47839 5.96787 8.82311V7.46002C5.98178 6.80475 7.87496 6.25921 10.4002 6.1263V4.87911H6.80396V3.0833H16.3811ZM11.5933 9.21875C14.2871 9.21875 16.5388 8.75821 17.0905 8.14157C16.6238 7.61766 14.9331 7.20657 12.7864 7.09221V8.39657C11.9911 8.43842 11.194 8.43842 10.3987 8.39657V7.09221C8.25205 7.20657 6.56287 7.61766 6.0946 8.14157C6.64633 8.75821 8.89805 9.21875 11.5933 9.21875Z" fill="#009393"/>
<path d="M27.3445 3.7002L30.2623 3.37102V6.20538H32.7937V8.66884H30.2422V12.4877C30.2422 13.3917 30.6193 13.843 31.3765 13.843C31.8618 13.843 32.2667 13.7611 32.5913 13.5957L33.2605 16.0607C32.5867 16.3239 31.8749 16.4768 31.1525 16.5136C29.9779 16.5677 29.046 16.2879 28.3567 15.6713C27.6814 15.0407 27.3445 13.9806 27.3445 12.4877V8.66884H25.561V6.20538H27.3445V3.7002ZM43.7124 12.1801H36.3576C36.4395 12.7009 36.7161 13.1321 37.189 13.4737C37.6619 13.8028 38.2894 13.9682 39.0745 13.9682C40.1934 13.9682 41.0588 13.6993 41.6662 13.1646L43.3075 15.0145C42.3076 16.0128 40.8765 16.5136 39.0111 16.5136C37.2292 16.5136 35.8445 16.0267 34.8585 15.0547C33.8864 14.0826 33.3995 12.7689 33.3995 11.1137C33.3995 9.55284 33.8786 8.29175 34.8384 7.33356C35.7965 6.36147 37.087 5.8762 38.7082 5.8762C40.4777 5.8762 41.8285 6.42329 42.7604 7.51902C43.7062 8.61475 44.023 10.1679 43.7124 12.1801ZM36.3576 10.0257H41.099C41.0921 9.78092 41.0211 9.54218 40.8931 9.33337C40.7651 9.12456 40.5846 8.95297 40.3695 8.83575C39.9105 8.54675 39.3573 8.40302 38.7082 8.40302C38.1271 8.40302 37.6279 8.54675 37.2091 8.83575C36.7937 9.11916 36.4909 9.54089 36.3576 10.0257ZM46.1449 3.7002L49.0627 3.37102V6.20538H51.5942V8.66884H49.0426V12.4877C49.0426 13.3917 49.4197 13.843 50.177 13.843C50.6623 13.843 51.0687 13.7611 51.3917 13.5957L52.0609 16.0607C51.3871 16.3239 50.6753 16.4768 49.9529 16.5136C48.7784 16.5677 47.8465 16.2879 47.1572 15.6713C46.4818 15.0407 46.1449 13.9806 46.1449 12.4877V8.66884H44.3615V6.20538H46.1449V3.7002ZM53.1551 1.91211H56.0915V7.39538C56.8085 6.45111 57.8224 5.9782 59.1314 5.9782C61.7911 5.9782 63.1217 7.60093 63.1217 10.8464V16.2864H60.2055V10.868C60.2055 10.1695 60.0293 9.62856 59.6785 9.24529C59.3415 8.86202 58.881 8.67038 58.2999 8.67038C57.6663 8.67038 57.1316 8.88984 56.7004 9.3272C56.2816 9.76611 56.0714 10.375 56.0714 11.1555V16.2895H53.1551V1.91211ZM74.5627 12.1801H67.2095C67.2914 12.7009 67.568 13.1321 68.0409 13.4737C68.5138 13.8028 69.1413 13.9682 69.9248 13.9682C71.0453 13.9682 71.9107 13.6993 72.5181 13.1646L74.1594 15.0145C73.1595 16.0128 71.7284 16.5136 69.863 16.5136C68.0811 16.5136 66.6964 16.0267 65.7104 15.0547C64.7367 14.0826 64.2515 12.7689 64.2515 11.1137C64.2515 9.55284 64.7305 8.29175 65.6903 7.33356C66.6485 6.36147 67.9389 5.8762 69.5601 5.8762C71.3296 5.8762 72.6804 6.42329 73.6123 7.51902C74.5566 8.61475 74.8734 10.1679 74.5627 12.1801ZM67.211 10.0257H71.9525C71.9456 9.78092 71.8746 9.54218 71.7466 9.33337C71.6186 9.12456 71.4381 8.95297 71.223 8.83575C70.764 8.54675 70.2092 8.40302 69.5616 8.40302C68.9805 8.40302 68.4798 8.54675 68.0625 8.83575C67.6471 9.11906 67.3443 9.54083 67.211 10.0257ZM75.7728 6.16365H78.4882L78.7123 7.27329C79.3459 6.3692 80.2376 5.91793 81.3859 5.91793C82.3302 5.91793 83.1477 6.22547 83.837 6.84056L82.6207 9.18193C82.1569 8.84279 81.5958 8.6628 81.0212 8.66884C80.3582 8.66884 79.8049 8.88056 79.3598 9.30556C78.9147 9.71665 78.6906 10.2838 78.6906 11.0102V16.2879H75.7728V6.16365Z" fill="#009393"/>
</svg>
