<svg width="84" height="17" viewBox="0 0 84 17" fill="none" xmlns="http://www.w3.org/2000/svg">
<path d="M3.05709 0.898919L3.74997 2.29884C3.76629 2.33147 3.79028 2.35965 3.81989 2.38096C3.8495 2.40228 3.88385 2.41608 3.91997 2.42119L5.46542 2.64657C5.5068 2.6529 5.54561 2.67063 5.57748 2.69778C5.60935 2.72492 5.63303 2.7604 5.64587 2.80025C5.6587 2.8401 5.66019 2.88273 5.65015 2.92337C5.64012 2.96402 5.61897 3.00106 5.58906 3.03036L4.47118 4.1199C4.44507 4.14546 4.42556 4.17699 4.41435 4.21177C4.40313 4.24654 4.40053 4.28352 4.40679 4.31952L4.6708 5.85854C4.67779 5.89996 4.67306 5.9425 4.65715 5.98137C4.64125 6.02025 4.6148 6.0539 4.58078 6.07854C4.54677 6.10318 4.50654 6.11783 4.46465 6.12082C4.42276 6.12382 4.38086 6.11505 4.34368 6.09551L2.96179 5.36786C2.92942 5.35083 2.8934 5.34193 2.85682 5.34193C2.82025 5.34193 2.78423 5.35083 2.75186 5.36786L1.36997 6.09551C1.33279 6.11505 1.29089 6.12382 1.249 6.12082C1.20711 6.11783 1.16688 6.10318 1.13287 6.07854C1.09885 6.0539 1.0724 6.02025 1.0565 5.98137C1.04059 5.9425 1.03586 5.89996 1.04285 5.85854L1.30686 4.31952C1.31311 4.28352 1.31052 4.24654 1.2993 4.21177C1.28808 4.17699 1.26858 4.14546 1.24247 4.1199L0.125877 3.03036C0.0955961 3.00111 0.0741111 2.96397 0.0638566 2.92314C0.0536021 2.88231 0.0549879 2.83943 0.0678572 2.79934C0.0807265 2.75926 0.104565 2.72358 0.136671 2.69636C0.168777 2.66913 0.207868 2.65143 0.249514 2.64528L1.79497 2.42119C1.8309 2.41599 1.86502 2.40214 1.89441 2.38082C1.9238 2.35951 1.94757 2.33138 1.96368 2.29884L2.65527 0.898919C2.674 0.861499 2.70277 0.83003 2.73837 0.808038C2.77396 0.786045 2.81498 0.774396 2.85682 0.774396C2.89867 0.774396 2.93969 0.786045 2.97528 0.808038C3.01088 0.83003 3.03837 0.861499 3.05709 0.898919ZM14.3273 0.897631L13.6357 2.29756C13.6198 2.33033 13.5961 2.35872 13.5667 2.38026C13.5373 2.40181 13.5031 2.41586 13.467 2.42119L11.9216 2.64528C11.8799 2.65143 11.8408 2.66913 11.8087 2.69636C11.7766 2.72358 11.7528 2.75926 11.7399 2.79934C11.727 2.83943 11.7256 2.88231 11.7359 2.92314C11.7462 2.96397 11.7676 3.00111 11.7979 3.03036L12.9158 4.1199C12.9416 4.14539 12.961 4.17671 12.9722 4.21123C12.9834 4.24574 12.9861 4.28244 12.9802 4.31824L12.7162 5.85725C12.7092 5.89867 12.7139 5.94121 12.7298 5.98009C12.7457 6.01896 12.7722 6.05261 12.8062 6.07725C12.8402 6.10189 12.8804 6.11654 12.9223 6.11954C12.9642 6.12253 13.0061 6.11377 13.0433 6.09422L14.4252 5.36786C14.4576 5.35083 14.4936 5.34193 14.5302 5.34193C14.5667 5.34193 14.6028 5.35083 14.6351 5.36786L16.0183 6.09422C16.0554 6.11394 16.0973 6.12283 16.1392 6.11989C16.1811 6.11695 16.2213 6.10228 16.2553 6.07758C16.2893 6.05287 16.3156 6.01911 16.3313 5.98016C16.347 5.9412 16.3515 5.89861 16.3441 5.85725L16.0801 4.31824C16.0741 4.28244 16.0768 4.24571 16.088 4.21118C16.0992 4.17664 16.1186 4.14533 16.1445 4.1199L17.2611 3.02907C17.291 2.99969 17.3122 2.96254 17.3221 2.92181C17.3321 2.88107 17.3305 2.83836 17.3175 2.79848C17.3045 2.7586 17.2807 2.72313 17.2487 2.69607C17.2166 2.669 17.1777 2.65142 17.1362 2.64528L15.5907 2.42119C15.5547 2.41586 15.5205 2.40181 15.4911 2.38026C15.4617 2.35872 15.438 2.33033 15.422 2.29756L14.7304 0.897631C14.712 0.859813 14.6834 0.827928 14.6478 0.805621C14.6121 0.783314 14.5709 0.771484 14.5289 0.771484C14.4868 0.771484 14.4456 0.783314 14.41 0.805621C14.3743 0.827928 14.3457 0.859813 14.3273 0.897631ZM15.7285 7.75558C12.9383 8.72375 10.4991 10.4999 8.72118 12.8582C6.94298 10.4996 4.50328 8.72339 1.71254 7.75558C1.40989 7.64998 1.18451 7.99513 1.45497 8.14968C4.17478 9.66041 6.32551 12.0197 7.57883 14.8673C7.75141 15.1866 7.90982 15.5151 8.05535 15.8499C8.11719 15.971 8.21329 16.0712 8.33169 16.1381C8.45008 16.205 8.58554 16.2355 8.72118 16.226C8.85698 16.2355 8.99258 16.2049 9.11117 16.138C9.22975 16.0712 9.32611 15.971 9.3883 15.8499C9.53383 15.5151 9.69224 15.1879 9.86482 14.8673C11.1171 12.0202 13.2665 9.66107 15.9848 8.14968C16.2553 7.99513 16.0325 7.64998 15.7285 7.75558Z" fill="#FF7200"/>
<path d="M29.411 3.44642L26.1011 11.4776H25.2086L22.0083 3.44642H23.4803L25.9479 9.71067H25.9788L28.5507 3.44642H29.411ZM47.807 7.94885C47.807 6.4137 46.9712 5.84059 45.4747 5.84059C44.0091 5.84059 43.2711 6.44976 43.1359 6.61074C43.1295 6.82067 43.4321 7.15423 43.6498 7.14264C44.0841 6.73741 44.6553 6.5111 45.2493 6.509C45.9757 6.509 46.4123 6.87347 46.4123 7.84067V8.37771C46.1683 8.33764 45.9215 8.31782 45.6743 8.31847C43.7399 8.31847 42.7302 9.02294 42.7302 10.1395C42.7302 11.2329 43.4823 11.6142 44.4534 11.6142C45.4232 11.6142 46.0375 11.2278 46.3517 10.8826V11.6257H47.807V7.94885ZM45.0703 10.8865C44.4521 10.8865 44.1508 10.4988 44.1508 9.94892C44.1508 9.32173 44.6582 8.90961 45.713 8.90961C45.928 8.90832 46.1418 8.93021 46.3517 8.97657V10.2954C46.1928 10.4798 45.9962 10.6281 45.7752 10.7303C45.5541 10.8325 45.3138 10.8849 45.0703 10.8865ZM65.997 7.94885C65.997 6.4137 65.1612 5.84059 63.6647 5.84059C62.2004 5.84059 61.4611 6.44976 61.3259 6.61074C61.3195 6.82067 61.6221 7.15423 61.8398 7.14264C62.2741 6.73741 62.8453 6.5111 63.4393 6.509C64.1657 6.509 64.6023 6.87347 64.6023 7.84067V8.37771C64.3583 8.33764 64.1115 8.31782 63.8643 8.31847C61.9299 8.31847 60.9202 9.02294 60.9202 10.1395C60.9202 11.2329 61.6723 11.6142 62.6434 11.6142C63.6132 11.6142 64.2275 11.2278 64.5417 10.8826V11.6257H65.997V7.94885ZM63.2603 10.8865C62.6421 10.8865 62.3408 10.4988 62.3408 9.94892C62.3408 9.32173 62.8482 8.90961 63.903 8.90961C64.118 8.90832 64.3318 8.93021 64.5417 8.97657V10.2954C64.3827 10.4797 64.1861 10.6279 63.965 10.7301C63.744 10.8322 63.5038 10.8847 63.2603 10.8865ZM34.4569 10.3314C33.9533 10.7551 33.3107 10.9754 32.6526 10.9522C31.4767 10.9522 30.7246 10.2954 30.7246 8.83233H34.869C34.869 7.26112 34.2714 5.84059 32.2083 5.84059C30.3318 5.84059 29.2976 6.96362 29.2976 8.77953C29.2976 10.7255 30.5765 11.6154 32.4465 11.6154C33.4382 11.6154 34.0615 11.4017 34.4582 11.184L34.4569 10.3314ZM32.1567 6.44976C33.0183 6.44976 33.3712 7.21476 33.3712 8.21158H30.7439C30.8083 7.05248 31.3209 6.44976 32.1567 6.44976ZM78.662 10.3314C78.1572 10.7551 77.5145 10.9754 76.8564 10.9522C75.6806 10.9522 74.9285 10.2954 74.9285 8.83233H79.0729C79.0729 7.26112 78.4753 5.84059 76.4121 5.84059C74.5357 5.84059 73.5015 6.96362 73.5015 8.77953C73.5015 10.7255 74.7804 11.6154 76.6504 11.6154C77.642 11.6154 78.2654 11.4017 78.662 11.184V10.3314ZM76.3606 6.44976C77.2222 6.44976 77.5751 7.21476 77.5751 8.21158H74.9478C75.0122 7.05248 75.5261 6.44976 76.3606 6.44976ZM39.2942 5.84059C37.1923 5.84059 35.8942 6.95718 35.8942 8.95726C35.8942 10.9161 36.9425 11.6154 38.26 11.6154C38.9065 11.6399 39.5389 11.4145 40.027 10.9882L40.0914 11.0243V11.7223C40.0914 13.461 39.3444 13.9504 38.2342 13.9504C37.164 13.9504 36.6308 13.4481 36.5136 13.3257V14.2736C37.0571 14.5183 37.6495 14.6368 38.2458 14.6188C39.942 14.6188 41.4848 13.962 41.4848 11.3759V6.24756C41.2865 6.12135 40.6117 5.84059 39.2942 5.84059ZM40.0901 10.3134C39.9268 10.4955 39.7253 10.6392 39.5 10.7343C39.2746 10.8293 39.0311 10.8734 38.7867 10.8633C37.9831 10.8633 37.3263 10.325 37.3263 8.79627C37.3263 7.19673 38.0733 6.44976 39.1705 6.44976C39.4886 6.42915 39.8055 6.49483 40.0888 6.64165L40.0901 10.3134ZM69.0558 2.38135H67.6417V11.6322H69.0532V2.38135H69.0558ZM72.1132 2.38135H70.7004V11.6322H72.1132V2.38135ZM83.6564 5.88953H82.5926V3.97188H81.1283V5.88953H80.0658V6.5515H81.1283V11.5369H82.5926V6.5515H83.6564V5.88953ZM60.3819 5.9243L58.1461 11.4776H57.2923L55.7365 7.48908H55.6786L54.0726 11.4776H53.2239L51.0718 5.9243H52.5555L53.9438 9.81241H54.0017L55.5176 5.9243H56.4822L57.9723 9.81241H58.0238L59.5151 5.9243H60.3819Z" fill="#444444"/>
</svg>
