<svg width="85" height="17" viewBox="0 0 85 17" fill="none" xmlns="http://www.w3.org/2000/svg">
<path d="M10.3701 11.7058C10.3701 13.376 9.84166 14.6751 8.78766 15.6158C7.73366 16.5437 6.266 16.9999 4.38608 16.9999C3.597 16.9999 2.85325 16.9149 2.15058 16.7265C1.44508 16.5338 0.841581 16.2731 0.335831 15.919V11.9665C0.932247 12.3688 1.625 12.6946 2.40275 12.968C3.1805 13.2358 3.886 13.376 4.51358 13.376C5.04483 13.376 5.44575 13.2599 5.71916 13.0304C5.98975 12.8009 6.12716 12.458 6.12716 12.0359C6.1272 11.8381 6.08367 11.6426 5.99966 11.4635C5.90184 11.2695 5.77791 11.0898 5.63133 10.9295C5.47408 10.7453 5.0505 10.3571 4.36483 9.76071C3.52475 9.04813 2.91558 8.32421 2.53733 7.59038C2.15456 6.83771 1.95919 6.00374 1.96783 5.15938C1.96783 4.17196 2.20016 3.28229 2.6705 2.49604C3.14396 1.70758 3.83448 1.07215 4.6595 0.665711C5.51375 0.229378 6.47283 0.0140446 7.53533 0.0140446C9.24383 0.0140446 10.7837 0.417795 12.1508 1.22954L10.6959 4.58704C9.47191 3.91838 8.42925 3.59113 7.57216 3.59113C7.11458 3.59113 6.76041 3.69738 6.5125 3.90846C6.27025 4.11671 6.14416 4.42554 6.14416 4.82929C6.14416 5.19763 6.266 5.54329 6.50541 5.86346C6.74625 6.18788 7.20241 6.61429 7.87391 7.14838C8.71541 7.80429 9.34441 8.49988 9.751 9.21813C10.1647 9.93921 10.3701 10.7637 10.3701 11.7058ZM17.7792 16.7817H13.5817L16.1246 3.90138H12.7175L13.4584 0.249211H24.4999L23.742 3.90138H20.325L17.7792 16.7817ZM22.6356 16.7817L25.952 0.252045H30.2162L26.8983 16.7817H22.637H22.6356ZM38.6935 3.67754C37.9157 3.67754 37.2173 3.96938 36.5954 4.55304C35.9735 5.14096 35.4862 5.95271 35.1277 6.98404C34.7655 8.06694 34.586 9.20255 34.5965 10.3444C34.5965 11.3587 34.7948 12.111 35.1972 12.6139C35.5981 13.0984 36.1732 13.3477 36.9255 13.3477C37.512 13.3477 38.1254 13.2825 38.7275 13.1295C39.3395 12.9652 40.0549 12.6975 40.8723 12.3348V15.9955C39.4174 16.6755 37.8392 16.997 36.1449 16.997C34.2862 16.997 32.8441 16.4375 31.8453 15.3339C30.8409 14.2175 30.3437 12.6351 30.3437 10.5838C30.3437 8.57213 30.7049 6.73613 31.4345 5.06304C32.1598 3.39138 33.1515 2.13479 34.3982 1.27771C35.6477 0.424878 37.0771 -0.00012207 38.6907 -0.00012207C40.5862 -0.00012207 42.3088 0.494295 43.8572 1.48879L42.2677 4.92988C41.6865 4.56192 41.0718 4.24981 40.4317 3.99771C39.8776 3.78276 39.2879 3.67414 38.6935 3.67754ZM55.6368 5.20329C55.6368 7.10163 55.0277 8.60046 53.798 9.67288C52.5655 10.758 50.8853 11.2921 48.7518 11.2921H47.8296L46.7501 16.7817H42.5482L45.8618 0.252045H49.8682C51.7268 0.252045 53.1548 0.681295 54.1366 1.53554C55.1467 2.38979 55.6382 3.61521 55.6382 5.20471L55.6368 5.20329ZM48.5847 7.67821H49.2647C49.9149 7.67821 50.4433 7.46288 50.8442 7.01521C51.2452 6.57463 51.4435 6.02071 51.4435 5.33646C51.4435 4.89304 51.3103 4.53463 51.0553 4.26121C50.8003 3.99204 50.449 3.85463 49.9928 3.85463H49.3553L48.5847 7.67821ZM64.2487 13.6863H59.4335L58.0877 16.7817H53.7357L61.72 0.252045H67.1217L68.4392 16.7817H64.355L64.2487 13.6863ZM60.9692 10.1588H64.1142L63.9286 5.36479L63.9102 4.39154C63.9102 3.82629 63.9215 3.33188 63.9569 2.90971C63.7859 3.55159 63.5652 4.17918 63.2967 4.78679L60.9692 10.1588ZM76.0751 6.37488L79.4283 0.249211H84.109L77.5413 10.36L76.238 16.7817H72.0305L73.3225 10.367L70.7796 0.254878H75.1089L76.0751 6.37488Z" fill="#F25822"/>
</svg>
