<svg width="86" height="17" viewBox="0 0 86 17" fill="none" xmlns="http://www.w3.org/2000/svg">
<path d="M7.73698 0.766766L0.902077 3.69601C0.695514 3.78422 0.525853 3.94121 0.421907 4.14032C0.317962 4.33943 0.286142 4.56839 0.331851 4.78829C0.425587 5.24005 0.822662 5.56943 1.28613 5.56943V5.81418C1.28613 6.22037 1.61291 6.54584 2.0191 6.54584H14.2256C14.6318 6.54584 14.9572 6.22037 14.9572 5.81418V5.56943C15.1833 5.57156 15.4032 5.49506 15.5791 5.353C15.755 5.21095 15.8761 5.01217 15.9216 4.79069C15.9671 4.56921 15.9343 4.33879 15.8287 4.13886C15.723 3.93894 15.5512 3.78193 15.3426 3.69471L8.5064 0.766766C8.38487 0.71542 8.25427 0.688965 8.12234 0.688965C7.99041 0.688965 7.85851 0.71542 7.73698 0.766766ZM4.21668 7.52356H2.26385V13.5122C2.24501 13.5225 2.22675 13.5338 2.20917 13.5461L0.744549 14.5225C0.570127 14.6389 0.437748 14.8083 0.366953 15.0057C0.296158 15.2031 0.290698 15.418 0.351379 15.6187C0.412768 15.8193 0.537003 15.995 0.705768 16.1197C0.874534 16.2444 1.0789 16.3115 1.28874 16.3113H14.9586C15.1683 16.3116 15.3726 16.2443 15.5411 16.1193C15.7096 15.9944 15.8333 15.8184 15.8938 15.6175C15.9543 15.4166 15.9485 15.2016 15.8771 15.0044C15.8057 14.8071 15.6726 14.6381 15.4975 14.5225L14.0342 13.5461C14.016 13.5344 13.9965 13.5253 13.9795 13.5122V7.52356H12.028V13.382H10.8068V7.52356H8.854V13.382H7.39068V7.52356H5.43785V13.382H4.21668V7.52356ZM8.12234 4.59301C7.9942 4.5931 7.8673 4.56794 7.74888 4.51899C7.63047 4.47003 7.52285 4.39822 7.43218 4.30768C7.24907 4.12481 7.1461 3.87669 7.14593 3.6179C7.14575 3.35911 7.24839 3.11085 7.43126 2.92774C7.61413 2.74462 7.86225 2.64166 8.12104 2.64148C8.37966 2.64114 8.62782 2.74354 8.81093 2.92617C8.99404 3.10879 9.09711 3.35668 9.09746 3.61529C9.0978 3.87391 8.9954 4.12207 8.81277 4.30519C8.63015 4.4883 8.38226 4.59136 8.12364 4.59171L8.12234 4.59301ZM30.9392 8.82935C31.1006 9.8305 31.1983 10.2015 31.473 10.8473C32.409 10.2172 33.0053 9.68469 33.4089 9.1366L34.5402 10.3474C34.3671 10.4867 34.0325 10.7614 33.5378 11.1701C33.1185 11.5263 32.6767 11.8551 32.2151 12.1544C32.8282 13.0266 33.5235 13.6567 34.7668 14.4314C34.3788 14.9 34.0559 15.3518 33.6523 16.0301C32.2632 14.9482 31.5537 14.2061 30.8585 13.0917L30.891 14.5446C29.3237 15.0813 27.7288 15.5337 26.1131 15.8999C25.9178 15.9429 25.7356 15.991 25.5637 16.0457L25.2578 14.6735C24.0777 15.0215 22.8817 15.3126 21.6737 15.5458C21.1243 15.659 20.2676 15.8192 20.0424 15.8687L19.7352 14.0603C20.4291 14.0447 21.0436 13.9796 22.4483 13.7375V9.20039H21.5109C20.8821 9.20039 20.3809 9.23294 19.9448 9.28111V7.63422C20.3653 7.68239 20.8496 7.71494 21.5279 7.71494H22.4483V6.55235H22.0929C21.7219 6.55235 21.4315 6.56797 21.1087 6.60052V5.85714C20.8514 6.10678 20.5821 6.34358 20.3015 6.56667C20.117 5.99313 19.8504 5.44937 19.5099 4.95233C20.1362 4.53839 20.706 4.04474 21.205 3.4838C21.7531 2.86931 22.1098 2.3056 22.4809 1.43203H24.2566C24.8216 2.62716 25.3229 3.20911 26.7432 4.2415V3.5476C26.7432 2.87062 26.7107 2.31992 26.6781 1.83692C27.1143 1.88509 27.5179 1.90201 28.2287 1.90201H32.2645C33.0079 1.90201 33.4102 1.88509 33.7669 1.82129C33.7344 2.22488 33.7187 2.62846 33.7187 3.61269V7.19809C33.7292 8.1016 33.7448 8.66141 33.7669 8.87752C33.3696 8.84086 32.9707 8.82478 32.5718 8.82935H30.9418L30.9392 8.83065V8.82935ZM20.7194 13.3339C20.5953 12.2557 20.3517 11.1946 19.9929 10.1703L21.2844 9.76671C21.6724 10.9775 21.8664 11.7352 22.0278 12.8821L20.7207 13.3339H20.7194ZM22.0916 5.16454H24.6264C24.8854 5.16454 24.9974 5.16454 25.1745 5.14892C24.3842 4.35737 23.9481 3.80797 23.4156 2.90446C22.8988 3.87307 22.5108 4.42246 21.8169 5.16454H22.0903H22.0916ZM24.0288 13.4315C24.7878 13.2545 25.0781 13.1894 25.9986 12.9147L26.0311 14.2061C26.354 14.158 26.4672 14.1424 26.7406 14.0773V4.3092C26.2407 4.92239 26.0636 5.18016 25.7876 5.71394L25.5793 5.51995V6.60182C25.2463 6.56771 24.9117 6.55163 24.5769 6.55365H24.0301V7.71624H24.8529C25.4648 7.71624 25.8371 7.70062 26.1925 7.65114V9.28241C25.7889 9.21731 25.4661 9.20299 24.8516 9.20299H24.0288V13.4315ZM24.2709 12.3653C24.6251 11.493 24.819 10.816 25.013 9.73416L26.2082 10.1547C25.9335 11.2847 25.7564 11.8341 25.3684 12.7376L24.2709 12.3666V12.3653ZM28.3875 4.63207H32.0849V3.43824H28.3875V4.63207ZM28.3875 7.31265H32.0849V6.11752H28.3875V7.31265ZM28.3875 8.82935V13.7218C29.1996 13.5206 30.0023 13.2834 30.7934 13.011C30.0175 11.687 29.679 10.6871 29.3717 8.82935H28.3875ZM38.6412 11.1376C38.6412 10.4606 38.6412 10.363 38.6724 9.26548C38.2428 9.78303 37.7494 10.2441 37.2039 10.6377C37.0103 10.0295 36.739 9.44883 36.3967 8.91007C38.0918 7.81128 39.7556 6.0355 40.3675 4.64769L41.8855 5.64884C41.6892 5.87101 41.5108 6.10825 41.3517 6.35837C40.982 6.89214 40.8362 7.10045 40.4156 7.6186V13.9796C40.4156 14.835 40.4482 15.4807 40.5289 16.0132H38.5279C38.6073 15.5119 38.6412 14.8024 38.6412 13.9627V11.1376ZM41.6433 2.11292C41.5262 2.24311 41.3634 2.42537 41.159 2.66231C40.1097 3.92124 38.964 4.92239 37.446 5.89099C37.1712 5.34501 36.8292 4.8355 36.428 4.37429C37.7038 3.68039 38.5279 3.03335 39.3182 2.16109C39.6736 1.74188 39.8832 1.43594 40.0941 1.03105L41.6433 2.11292ZM43.8227 7.66677C43.0806 7.66677 42.3372 7.69931 41.8373 7.76441V5.95609C42.3216 6.02118 43.0481 6.05373 43.8227 6.05373H49.3114C50.2162 6.05373 50.862 6.02118 51.2812 5.95609V7.76441C50.7487 7.69931 50.0704 7.66677 49.3596 7.66677H48.6657V14.0929C48.6657 15.482 48.197 15.8205 46.2442 15.8205C45.6961 15.8205 45.2118 15.8049 44.4528 15.7723C44.3552 15.0615 44.2575 14.6423 43.9841 13.964C44.8395 14.0773 45.6792 14.141 46.1791 14.141C46.8248 14.141 46.9055 14.1098 46.9055 13.7544V7.66677H43.8201H43.8227ZM42.4817 1.85514C42.9348 1.91894 43.5311 1.95148 44.3721 1.95148H48.7308C49.538 1.95148 50.0874 1.92024 50.5717 1.85514V3.64654C50.0066 3.58145 49.4091 3.5489 48.7633 3.5489H44.3721C43.6951 3.5489 43.0168 3.58145 42.483 3.64654L42.4817 1.85514ZM53.2978 7.23063C53.7183 7.29573 53.9761 7.31135 54.5906 7.31135H55.8013C56.2205 7.31135 56.6567 7.29573 57.0277 7.24626C56.9795 7.73186 56.9639 8.13414 56.9639 8.99079V12.3666C57.2868 12.916 57.4638 13.1256 57.8844 13.4003C58.6277 13.8846 59.4831 14.0135 61.9046 14.0135C64.6646 14.0135 66.7164 13.9002 68.3789 13.658C68.0729 14.5303 68.0248 14.6917 67.8946 15.564C67.4754 15.5744 66.8778 15.5953 66.1032 15.6291C65.6189 15.6434 63.2442 15.676 62.4214 15.676C60.4517 15.676 59.0964 15.5796 58.3856 15.3857C57.3831 15.111 56.8832 14.7555 56.1242 13.8351C55.4472 14.4808 54.946 14.9014 54.2521 15.3844C54.0689 15.5171 53.8912 15.6574 53.7196 15.8049L52.945 13.9653C53.6545 13.658 54.4773 13.093 55.2689 12.3666V8.89445H54.3823C53.9618 8.89445 53.704 8.91007 53.2991 8.97647V7.23194L53.2978 7.23063ZM54.7038 1.35392C55.8977 2.42146 56.1568 2.69486 57.4964 4.26103L56.1568 5.56812C55.1712 4.26103 54.6075 3.61529 53.4124 2.54775L54.7038 1.35392ZM59.612 5.32467C59.0626 5.32467 58.6264 5.35722 58.1591 5.40539V3.69601C58.6108 3.74418 59.0951 3.77673 59.6276 3.77673H60.2577C59.9192 2.92139 59.6927 2.50088 59.112 1.69371L60.6613 0.967256C61.1456 1.64424 61.501 2.27565 61.8564 3.08282L60.4504 3.77673H63.0502C63.6322 2.82375 64.0345 1.95278 64.3586 0.984181L66.1019 1.56482C65.9717 1.79135 65.7842 2.14677 65.5368 2.63237C65.3116 3.05158 65.1333 3.37445 64.8911 3.77803H65.8285C66.4104 3.77803 66.7971 3.76111 67.2488 3.69731V5.40799C66.7339 5.35709 66.217 5.33016 65.6996 5.32728H63.3913C63.3913 6.21516 63.3757 6.57188 63.3106 7.16814H66.3792C66.9767 7.16814 67.3946 7.15252 67.8321 7.08743V8.83195C67.3007 8.7802 66.7672 8.75327 66.2334 8.75124H63.6166C63.9733 9.38135 64.3925 9.88128 64.9731 10.35C65.7803 10.9957 66.4755 11.3342 67.944 11.7872C67.5405 12.3692 67.2983 12.8691 67.1369 13.4979C65.6358 12.9654 64.9731 12.5931 64.0852 11.8185C63.4762 11.3103 62.9622 10.698 62.5672 10.0102C62.1637 10.8486 61.7601 11.381 61.0831 11.963C60.3723 12.5931 59.7916 12.9641 58.7423 13.4484C58.4832 12.8602 58.0974 12.3365 57.6123 11.9148C58.7579 11.4787 59.4193 11.1233 59.9687 10.639C60.5337 10.1547 60.9529 9.52586 61.2445 8.75124H59.0482C58.5158 8.75124 57.9833 8.78248 57.5472 8.82935V7.08743C58.0002 7.1356 58.5001 7.16814 59.0482 7.16814H61.5843C61.6481 6.60313 61.6481 6.42607 61.6637 5.32728H59.612V5.32467ZM74.9 7.08612C74.2543 7.08612 73.7856 7.10175 73.3182 7.16554V6.39092C72.3978 6.93901 71.7508 7.2788 70.6858 7.71494C70.2991 6.85829 70.1859 6.64739 69.7485 6.05112C72.7519 5.00311 75.1734 3.25858 76.336 1.32137H78.3383C78.984 2.27435 79.6779 2.96826 80.8249 3.80797C82.1476 4.80782 83.3597 5.42231 85.1016 5.98603C84.7149 6.5849 84.4728 7.10045 84.2306 7.76311C82.9548 7.22933 82.4223 6.97156 81.4055 6.34145V7.16424C80.9369 7.10045 80.5007 7.08482 79.8238 7.08482H78.1769V8.65099H82.2609C83.1006 8.65099 83.6018 8.61845 84.021 8.55335V10.3461C83.4321 10.2725 82.8387 10.2399 82.2453 10.2484H78.1769V13.865H82.5681C83.3909 13.865 83.9403 13.8325 84.4728 13.7674V15.6239C83.8752 15.5432 83.1969 15.5106 82.5356 15.5106H72.3314C71.5893 15.5106 71.0087 15.5432 70.3304 15.6239V13.7674C70.9123 13.8325 71.5086 13.865 72.3314 13.865H76.3842V10.2484H72.5592C71.864 10.2484 71.299 10.281 70.8147 10.3461V8.55205C71.2508 8.61714 71.7677 8.64969 72.5748 8.64969H76.3842V7.08482L74.9 7.08612ZM73.7544 10.3955C74.3025 11.3641 74.6097 11.9773 75.0458 13.0748L73.4315 13.7205C73.121 12.7772 72.6924 11.8769 72.1556 11.0413L73.7544 10.3955ZM74.8518 5.56682L79.8576 5.58375C79.9539 5.58375 80.0828 5.57854 80.2443 5.56682C78.9684 4.66331 78.1782 3.92124 77.3385 2.85499C76.5144 3.95248 75.853 4.59952 74.5134 5.56682H74.8518ZM82.5694 11.0569C82.4288 11.3042 82.1606 11.8211 81.7623 12.6061C81.7128 12.7051 81.649 12.817 81.0996 13.7531L79.5829 13.1894C80.0828 12.3822 80.4695 11.5256 80.8588 10.4124L82.5694 11.0569Z" fill="#3C3C3C"/>
</svg>
