<svg width="22" height="22" viewBox="0 0 22 22" fill="none" xmlns="http://www.w3.org/2000/svg">
<path d="M10.994 0C3.929 0.044 0 4.027 0 10.982C0 17.937 3.933 21.959 11.006 22C18.168 21.958 21.867 18.263 22 10.983C21.878 3.946 17.974 0.045 10.994 0ZM13.825 12H12.001V13.825C12.001 14.377 11.554 14.825 11.001 14.825C10.448 14.825 10.001 14.377 10.001 13.825V12H8.177C7.624 12 7.177 11.552 7.177 11C7.177 10.448 7.624 10 8.177 10H10.001V8.175C10.001 7.623 10.448 7.175 11.001 7.175C11.554 7.175 12.001 7.623 12.001 8.175V10H13.825C14.378 10 14.825 10.448 14.825 11C14.825 11.552 14.378 12 13.825 12Z" fill="#E7370A"/>
</svg>
